<svg width="186" height="104" viewBox="0 0 186 104" fill="none" xmlns="http://www.w3.org/2000/svg">
<mask id="mask0_817_563" style="mask-type:alpha" maskUnits="userSpaceOnUse" x="0" y="0" width="186" height="104">
<rect width="186" height="104" rx="22" fill="#B4FFB6"/>
</mask>
<g mask="url(#mask0_817_563)">
<rect y="-0.000976562" width="186" height="104" rx="22" fill="#FFE176"/>
<path d="M101.265 124.412C89.5106 123.291 75.6463 121.288 56.3958 121.96C56.3958 121.96 55.6411 121.987 55.7964 121.025C68.2707 29.1192 70.1084 16.8081 70.1017 16.6172C71.1947 -6.19313 58.9187 -0.597589 61.3875 -5.65907C64.5643 -12.0847 78.0747 -20.2108 89.2098 -20.5997C103.931 -21.1138 115.939 -12.7308 112.925 9.18963C111.024 22.3012 105.66 60.9368 102.036 87.3129C101.981 87.7075 102.013 88.1094 102.129 88.4904C102.244 88.8713 102.441 89.2221 102.705 89.5181C102.968 89.8141 103.293 90.0481 103.655 90.2037C104.017 90.3592 104.409 90.4326 104.802 90.4186V90.4186C144.435 89.0346 141.271 79.5767 144.195 82.1535C146.527 83.9856 147.799 87.9602 147.73 91.4066C147.142 117.835 122.321 126.739 101.265 124.412Z" fill="#FFEC8E"/>
</g>
</svg>
