<svg width="186" height="104" viewBox="0 0 186 104" fill="none" xmlns="http://www.w3.org/2000/svg">
<rect width="186" height="104" rx="22" fill="#B4FFB6"/>
<path d="M101.265 124.413C89.5106 123.292 75.6463 121.289 56.3958 121.961C56.3958 121.961 55.6411 121.988 55.7964 121.026C68.2707 29.1202 70.1084 16.8091 70.1017 16.6181C71.1947 -6.19215 58.9187 -0.596613 61.3875 -5.65809C64.5643 -12.0838 78.0747 -20.2099 89.2098 -20.5987C103.931 -21.1128 115.939 -12.7298 112.925 9.19061C111.024 22.3022 105.66 60.9378 102.036 87.3139C101.981 87.7085 102.013 88.1104 102.129 88.4913C102.244 88.8723 102.441 89.2231 102.705 89.5191C102.968 89.8151 103.293 90.0491 103.655 90.2047C104.017 90.3602 104.409 90.4336 104.802 90.4196C144.435 89.0356 141.271 79.5776 144.195 82.1545C146.527 83.9866 147.799 87.9612 147.73 91.4076C147.142 117.836 122.321 126.74 101.265 124.413Z" fill="#D1FFD3"/>
</svg>
