<svg width="240" height="185" viewBox="0 0 240 185" fill="none" xmlns="http://www.w3.org/2000/svg">
<path d="M235.354 49.9837C232.979 44.4323 229.769 39.2824 225.836 34.7153L93.7584 33.4048L202.501 18.0312C195.476 15.216 187.997 13.723 180.437 13.6263C170.034 5.25643 157.226 0.490358 143.916 0.0370784C130.606 -0.416201 117.507 3.46753 106.566 11.1105C97.8218 6.58401 88.1275 4.23133 78.2945 4.24936C48.948 4.24936 24.4956 24.7094 19.0107 51.8385L235.354 49.9837Z" fill="#E3FFEE"/>
<path d="M239.998 72.7377C240.004 65.3801 238.607 58.0896 235.883 51.2622L6.97763 75.4478C4.6255 79.7453 2.82594 84.3264 1.62228 89.081L72.5119 99.7158L0 107.471C2.18122 138.184 28.3377 162.436 60.2903 162.436C76.3745 162.436 90.9909 156.291 101.82 146.269C112.683 156.481 127.44 162.761 143.697 162.761C167.82 162.761 188.639 148.936 198.334 128.947C217.786 122.733 232.895 107.13 238.066 87.6104L148.423 73.6159H239.989C239.993 73.3232 239.998 73.0304 239.998 72.7377Z" fill="#E3FFEE"/>
<path d="M6.38708 169.78C9.6271 169.78 12.2536 169.416 12.2536 168.968C12.2536 168.519 9.6271 168.156 6.38708 168.156C3.14706 168.156 0.520508 168.519 0.520508 168.968C0.520508 169.416 3.14706 169.78 6.38708 169.78Z" fill="#F6F6FF"/>
<path d="M28.8607 172.074C32.1007 172.074 34.7273 171.71 34.7273 171.262C34.7273 170.813 32.1007 170.45 28.8607 170.45C25.6207 170.45 22.9941 170.813 22.9941 171.262C22.9941 171.71 25.6207 172.074 28.8607 172.074Z" fill="#F6F6FF"/>
<path d="M55.3324 168.968C58.5724 168.968 61.199 168.604 61.199 168.156C61.199 167.707 58.5724 167.344 55.3324 167.344C52.0924 167.344 49.4658 167.707 49.4658 168.156C49.4658 168.604 52.0924 168.968 55.3324 168.968Z" fill="#F6F6FF"/>
<path d="M19.8649 178.37C22.1688 178.37 24.0365 178.112 24.0365 177.794C24.0365 177.475 22.1688 177.217 19.8649 177.217C17.561 177.217 15.6934 177.475 15.6934 177.794C15.6934 178.112 17.561 178.37 19.8649 178.37Z" fill="#F6F6FF"/>
<path d="M43.1931 177.793C45.497 177.793 47.3647 177.535 47.3647 177.217C47.3647 176.899 45.497 176.641 43.1931 176.641C40.8892 176.641 39.0215 176.899 39.0215 177.217C39.0215 177.535 40.8892 177.793 43.1931 177.793Z" fill="#F6F6FF"/>
<path d="M28.988 171.079C28.988 171.079 20.7584 143.927 30.274 133.052C37.3947 124.914 45.4743 125.889 49.0938 126.895C50.0303 127.146 50.9014 127.599 51.6468 128.223C52.3922 128.846 52.9941 129.625 53.4108 130.506C54.6764 133.251 54.4469 137.713 45.5152 142.918C30.5603 151.634 29.631 163.588 29.631 163.588L28.988 171.079Z" fill="#15BE77"/>
<path d="M47.8049 130.747C47.8049 130.747 23.5479 138.381 28.9873 171.079" stroke="#53E88B" stroke-miterlimit="10"/>
<path d="M33.6387 133.484C33.6387 133.484 36.9786 135.748 35.9108 139.153" stroke="#53E88B" stroke-miterlimit="10"/>
<path d="M45.3717 135.497C45.3717 135.497 43.3268 133.407 40.8457 134.559" stroke="#53E88B" stroke-miterlimit="10"/>
<path d="M35.7829 146.017C35.7829 146.017 32.1975 144.187 31.2705 146.475" stroke="#53E88B" stroke-miterlimit="10"/>
<path d="M26.9111 149.832C26.9111 149.832 29.6036 149.617 29.6536 150.913" stroke="#53E88B" stroke-miterlimit="10"/>
<path d="M28.6602 171.296C28.6602 171.296 38.2984 151.561 40.9454 151.993C42.2019 152.199 42.7813 153.443 43.0448 154.694C43.3715 156.316 43.188 157.999 42.52 159.511C41.1567 162.656 37.4714 168.659 28.6602 171.296Z" fill="#15BE77"/>
<path d="M40.8663 155.739C40.8663 155.739 30.7509 170.504 28.7969 171.152" stroke="#53E88B" stroke-miterlimit="10"/>
<path d="M41.7972 158.042H39.4365" stroke="#53E88B" stroke-miterlimit="10"/>
<path d="M38.9685 163.444L35.2695 163.604" stroke="#53E88B" stroke-miterlimit="10"/>
<path d="M36.7168 159.124L37.119 161.063" stroke="#53E88B" stroke-miterlimit="10"/>
<path d="M32.7822 165.029L32.8549 166.793" stroke="#53E88B" stroke-miterlimit="10"/>
<path d="M28.9399 171.296C28.9399 171.296 19.3016 151.561 16.6546 151.993C15.3982 152.199 14.8188 153.443 14.5552 154.694C14.2311 156.312 14.4154 157.99 15.0823 159.497C16.4479 162.656 20.1219 168.659 28.9399 171.296Z" fill="#15BE77"/>
<path d="M16.7275 155.739C16.7275 155.739 26.8429 170.504 28.797 171.152" stroke="#53E88B" stroke-miterlimit="10"/>
<path d="M15.7979 158.042H18.1586" stroke="#53E88B" stroke-miterlimit="10"/>
<path d="M18.624 163.444L22.3253 163.604" stroke="#53E88B" stroke-miterlimit="10"/>
<path d="M20.8787 159.124L20.4766 161.063" stroke="#53E88B" stroke-miterlimit="10"/>
<path d="M24.8139 165.029L24.7412 166.793" stroke="#53E88B" stroke-miterlimit="10"/>
<path d="M45.4875 175.904C45.7503 175.689 45.942 175.399 46.0373 175.072C46.0795 174.907 46.0644 174.733 45.9945 174.579C45.9246 174.425 45.8042 174.299 45.6533 174.223C45.3011 174.086 44.924 174.333 44.64 174.58C44.3559 174.827 44.0265 175.113 43.6539 175.06C43.8441 174.884 43.9858 174.661 44.0655 174.414C44.1451 174.166 44.1598 173.902 44.1083 173.647C44.0926 173.541 44.0486 173.441 43.981 173.359C43.7856 173.148 43.4312 173.24 43.1972 173.404C42.4519 173.93 42.2452 174.948 42.2406 175.865C42.1997 175.529 42.1951 175.189 42.227 174.852C42.227 174.514 42.1316 174.136 41.8475 173.956C41.6718 173.858 41.4731 173.811 41.2727 173.818C40.9364 173.818 40.5661 173.839 40.3366 174.086C40.0526 174.392 40.1253 174.905 40.3729 175.243C40.6492 175.557 40.9765 175.82 41.3409 176.023C41.614 176.191 41.8469 176.417 42.0225 176.686C42.0428 176.724 42.0596 176.764 42.0725 176.805H44.1696C44.6479 176.567 45.0913 176.264 45.4875 175.904Z" fill="#15BE77"/>
<path d="M8.76338 167.957C9.0264 167.742 9.21819 167.451 9.31323 167.124C9.35514 166.96 9.33992 166.785 9.27009 166.631C9.20025 166.476 9.08 166.35 8.92925 166.273C8.57707 166.138 8.20217 166.385 7.91589 166.632C7.6296 166.879 7.30469 167.163 6.9298 167.11C7.12055 166.935 7.2627 166.712 7.34235 166.464C7.422 166.216 7.43643 165.952 7.38422 165.697C7.36718 165.592 7.32247 165.493 7.25471 165.411C7.05931 165.201 6.70486 165.29 6.47083 165.457C5.72558 165.983 5.51882 167.001 5.51427 167.918C5.47334 167.581 5.46877 167.24 5.50064 166.902C5.50064 166.564 5.40749 166.189 5.12347 166.008C4.94688 165.911 4.74749 165.863 4.54636 165.871C4.21236 165.857 3.83973 165.891 3.61025 166.138C3.32624 166.445 3.40122 166.957 3.64661 167.282C3.92252 167.597 4.2508 167.862 4.61679 168.064C4.89064 168.231 5.12363 168.458 5.29842 168.727C5.31897 168.766 5.33645 168.805 5.35068 168.846H7.44784C7.9244 168.611 8.36697 168.312 8.76338 167.957Z" fill="#15BE77"/>
<path d="M21.0031 175.904C21.2659 175.689 21.4576 175.399 21.5529 175.072C21.5951 174.907 21.58 174.733 21.5101 174.579C21.4402 174.425 21.3198 174.299 21.1689 174.223C20.8168 174.086 20.4396 174.333 20.1556 174.58C19.8716 174.827 19.5421 175.113 19.1695 175.06C19.3597 174.884 19.5015 174.661 19.5811 174.414C19.6607 174.166 19.6754 173.902 19.6239 173.647C19.6083 173.541 19.5643 173.441 19.4967 173.359C19.3013 173.148 18.9468 173.24 18.7128 173.404C17.9675 173.93 17.7608 174.948 17.7562 175.865C17.7153 175.529 17.7107 175.189 17.7426 174.852C17.7426 174.514 17.6495 174.136 17.3654 173.956C17.1888 173.859 16.9894 173.811 16.7883 173.818C16.4543 173.818 16.0817 173.839 15.8522 174.086C15.5682 174.392 15.6409 174.905 15.8886 175.243C16.1648 175.557 16.4922 175.82 16.8565 176.023C17.1297 176.191 17.3625 176.417 17.5381 176.686C17.5585 176.724 17.5752 176.764 17.5881 176.805H19.6853C20.1635 176.567 20.607 176.264 21.0031 175.904Z" fill="#15BE77"/>
<path d="M55.7145 159.838C55.7145 159.838 56.5007 160.874 55.351 162.436C54.2013 163.998 53.2561 165.318 53.6378 166.292C53.6378 166.292 55.3714 163.39 56.7824 163.349C58.1934 163.307 57.2664 161.583 55.7145 159.838Z" fill="#EF8829"/>
<path opacity="0.1" d="M55.7143 159.838C55.7828 159.938 55.837 160.047 55.8756 160.163C57.2525 161.791 57.9841 163.31 56.6618 163.349C55.428 163.385 53.9511 165.604 53.5967 166.164C53.608 166.207 53.6217 166.249 53.6376 166.292C53.6376 166.292 55.3712 163.39 56.7822 163.349C58.1932 163.307 57.2661 161.583 55.7143 159.838Z" fill="black"/>
<path d="M57.1749 161.157C57.1749 161.521 57.134 161.816 57.084 161.816C57.0341 161.816 56.9932 161.521 56.9932 161.157C56.9932 160.794 57.0454 160.965 57.0954 160.965C57.1454 160.965 57.1749 160.794 57.1749 161.157Z" fill="#FFD037"/>
<path d="M57.6771 161.592C57.359 161.766 57.0818 161.871 57.0591 161.821C57.0364 161.77 57.2727 161.592 57.5908 161.425C57.9089 161.258 57.7817 161.377 57.8067 161.425C57.8317 161.473 57.9952 161.418 57.6771 161.592Z" fill="#FFD037"/>
<path d="M51.5614 159.838C51.5614 159.838 50.7753 160.874 51.925 162.436C53.0747 163.998 54.0221 165.318 53.6381 166.292C53.6381 166.292 51.9045 163.39 50.4935 163.349C49.0826 163.307 50.0187 161.583 51.5614 159.838Z" fill="#EF8829"/>
<path opacity="0.1" d="M51.5614 159.838C51.4933 159.938 51.4397 160.047 51.4024 160.163C50.0255 161.791 49.2916 163.31 50.614 163.349C51.8477 163.385 53.3269 165.604 53.6813 166.164C53.6677 166.207 53.654 166.249 53.6381 166.292C53.6381 166.292 51.9045 163.39 50.4935 163.349C49.0826 163.307 50.0187 161.583 51.5614 159.838Z" fill="black"/>
<path d="M50.0996 161.157C50.0996 161.521 50.1405 161.816 50.1905 161.816C50.2405 161.816 50.2814 161.521 50.2814 161.157C50.2814 160.794 50.2314 160.965 50.1814 160.965C50.1314 160.965 50.0996 160.794 50.0996 161.157Z" fill="#FFD037"/>
<path d="M49.598 161.592C49.9161 161.766 50.1933 161.871 50.2183 161.821C50.2433 161.77 50.0024 161.592 49.6866 161.425C49.3708 161.258 49.4935 161.377 49.4594 161.425C49.4253 161.473 49.2822 161.418 49.598 161.592Z" fill="#FFD037"/>
<path d="M50.3496 166.155C50.3496 166.155 52.549 166.088 53.2102 165.613C53.8714 165.137 56.5911 164.57 56.757 165.331C56.9228 166.093 60.0583 169.119 57.5772 169.139C55.0961 169.16 51.8128 168.75 51.1517 168.346C50.4905 167.941 50.3496 166.155 50.3496 166.155Z" fill="#65617D"/>
<path opacity="0.2" d="M57.6226 168.874C55.1415 168.895 51.856 168.485 51.1948 168.08C50.6904 167.772 50.4905 166.665 50.4246 166.152H50.3496C50.3496 166.152 50.4905 167.939 51.1517 168.343C51.8128 168.748 55.096 169.158 57.5772 169.137C58.2952 169.137 58.5405 168.874 58.5269 168.494C58.4247 168.728 58.1543 168.869 57.6226 168.874Z" fill="black"/>
<path d="M139.142 185C180.479 185 213.989 183.47 213.989 181.583C213.989 179.696 180.479 178.166 139.142 178.166C97.8044 178.166 64.2939 179.696 64.2939 181.583C64.2939 183.47 97.8044 185 139.142 185Z" fill="#F3F3F3"/>
<path d="M131.517 79.427C131.517 79.427 136.288 88.5135 136.658 89.8102C136.755 90.1702 136.963 90.4899 137.252 90.7227C137.541 90.9555 137.897 91.0893 138.267 91.1047C138.267 91.1047 143.02 92.2482 144.156 92.4015C145.292 92.5547 155.14 93.3917 155.14 93.3917C155.14 93.3917 157.639 93.4695 157.941 92.5547C158.218 91.7176 163.047 87.3196 165.841 91.1573C166.099 91.5123 166.27 91.9234 166.34 92.3574C166.41 92.7913 166.378 93.2358 166.246 93.6548C165.732 95.3014 164.678 97.9155 163.546 96.2894C161.956 94.0024 160.106 94.645 160.106 95.864C160.106 97.083 157.562 96.6302 156.73 96.8017C156.276 96.8955 154.712 97.314 153.361 97.68C151.791 98.1069 150.184 98.3758 148.562 98.4827C145.879 98.6588 141.923 98.8052 140.521 98.2723C138.828 97.6251 135.877 97.4764 134.613 97.4421C134.195 97.4319 133.791 97.2859 133.461 97.0259C131.708 95.6443 130.225 93.9467 129.088 92.0195C127.118 88.5889 123.067 81.4854 123.339 79.427C123.612 77.3687 131.517 79.427 131.517 79.427Z" fill="#EFB7B9"/>
<path opacity="0.05" d="M131.517 79.427C131.517 79.427 136.288 88.5135 136.658 89.8102C136.755 90.1702 136.963 90.4899 137.252 90.7227C137.541 90.9555 137.897 91.0893 138.267 91.1047C138.267 91.1047 143.02 92.2482 144.156 92.4015C145.292 92.5547 155.14 93.3917 155.14 93.3917C155.14 93.3917 157.639 93.4695 157.941 92.5547C158.218 91.7176 163.047 87.3196 165.841 91.1573C166.099 91.5123 166.27 91.9234 166.34 92.3574C166.41 92.7913 166.378 93.2358 166.246 93.6548C165.732 95.3014 164.678 97.9155 163.546 96.2894C161.956 94.0024 160.106 94.645 160.106 95.864C160.106 97.083 157.562 96.6302 156.73 96.8017C156.276 96.8955 154.712 97.314 153.361 97.68C151.791 98.1069 150.184 98.3758 148.562 98.4827C145.879 98.6588 141.923 98.8052 140.521 98.2723C138.828 97.6251 135.877 97.4764 134.613 97.4421C134.195 97.4319 133.791 97.2859 133.461 97.0259C131.708 95.6443 130.225 93.9467 129.088 92.0195C127.118 88.5889 123.067 81.4854 123.339 79.427C123.612 77.3687 131.517 79.427 131.517 79.427Z" fill="black"/>
<path d="M204.841 164.542C204.833 169.402 202.962 174.071 199.618 177.577C196.275 181.082 191.716 183.154 186.892 183.361C182.069 183.567 177.352 181.892 173.725 178.685C170.098 175.477 167.84 170.985 167.422 166.143C167.395 165.837 167.374 165.53 167.365 165.228V165.212C167.356 164.985 167.352 164.757 167.352 164.526C167.352 159.522 169.326 154.723 172.842 151.185C176.357 147.646 181.125 145.658 186.096 145.658C191.068 145.658 195.836 147.646 199.351 151.185C202.866 154.723 204.841 159.522 204.841 164.526V164.542Z" fill="#65617D"/>
<path d="M186.097 174.823C191.743 174.823 196.321 170.215 196.321 164.531C196.321 158.847 191.743 154.239 186.097 154.239C180.45 154.239 175.872 158.847 175.872 164.531C175.872 170.215 180.45 174.823 186.097 174.823Z" fill="white"/>
<path d="M186.097 170.706C189.485 170.706 192.231 167.941 192.231 164.531C192.231 161.121 189.485 158.356 186.097 158.356C182.709 158.356 179.962 161.121 179.962 164.531C179.962 167.941 182.709 170.706 186.097 170.706Z" fill="#65617D"/>
<path d="M136.869 128.699L91.7314 129.614V122.918C92.1359 117.527 97.6389 115.636 102.638 115.043C106.546 114.597 110.502 114.896 114.3 115.924C123.877 118.476 129.978 118.97 132.984 119.018C133.644 119.028 134.28 119.267 134.785 119.695C135.29 120.122 135.633 120.712 135.756 121.365C135.899 122.131 136.04 122.966 136.172 123.789C136.272 124.434 136.367 125.07 136.453 125.662C136.703 127.368 136.869 128.699 136.869 128.699Z" fill="#058A53"/>
<path d="M172.88 165.75H79.1121C78.3882 165.757 77.678 165.55 77.07 165.155C76.4621 164.759 75.983 164.192 75.6926 163.525C74.986 161.825 75.9743 160.741 77.0286 160.105C79.1861 158.818 80.8216 156.804 81.6455 154.42C82.6452 151.447 83.6222 146.795 84.0062 139.526C84.4016 132.009 87.1054 128.292 90.0273 126.49C93.8013 124.167 97.9388 125.038 97.9388 125.038L135.958 125.344C136.635 125.653 137.261 126.064 137.814 126.563C141.202 129.738 136.262 133.882 136.262 133.882C125.658 145.164 133.686 156.599 133.686 156.599H153.139C156.774 156.618 160.329 155.523 163.33 153.459C165.959 151.63 166.965 149.862 167.37 148.791C167.67 147.973 167.974 147.156 168.338 146.365C173.441 135.224 167.286 117.102 164.63 110.325C163.971 108.64 163.528 107.656 163.528 107.656L169.628 107.199L173.491 106.904H173.529C182.032 121.664 185.192 136.832 186.253 148.071C186.353 149.13 186.435 150.157 186.501 151.142C186.621 153.017 186.358 154.896 185.728 156.663C185.097 158.431 184.113 160.049 182.836 161.419C181.56 162.788 180.017 163.879 178.304 164.624C176.592 165.369 174.745 165.752 172.88 165.75Z" fill="#15BE77"/>
<path opacity="0.1" d="M136.455 125.662H91.7314V123.789H136.174C136.274 124.423 136.369 125.058 136.455 125.662Z" fill="black"/>
<path opacity="0.1" d="M137.817 126.577H90.3893C90.2659 126.577 90.1438 126.553 90.0303 126.504C93.8042 124.18 97.9417 125.052 97.9417 125.052L135.961 125.358C136.638 125.667 137.264 126.078 137.817 126.577Z" fill="black"/>
<path d="M138.212 124.235H73.7935C73.2803 124.235 72.8643 124.654 72.8643 125.171V125.173C72.8643 125.69 73.2803 126.108 73.7935 126.108H138.212C138.725 126.108 139.141 125.69 139.141 125.173V125.171C139.141 124.654 138.725 124.235 138.212 124.235Z" fill="#0D9D61"/>
<path opacity="0.1" d="M186.253 148.076C184.092 150.441 182.502 151.371 182.577 148.876C182.804 141.329 169.626 107.206 169.626 107.206L173.523 106.909C182.027 121.658 185.19 136.826 186.253 148.076Z" fill="black"/>
<path opacity="0.1" d="M204.727 162.463C202.489 163.003 199.729 163.552 196.321 164.064C195.053 164.252 193.689 164.432 192.231 164.604C188.748 165.02 184.719 165.384 180.066 165.663C178.748 165.742 177.38 165.815 175.96 165.88C173.302 166.002 170.456 166.095 167.424 166.159L167.367 165.244V165.228C171.605 163.506 178.273 158.912 179.346 146.943C182.024 145.905 184.903 145.498 187.761 145.756C190.62 146.013 193.382 146.928 195.834 148.429C198.286 149.93 200.363 151.978 201.906 154.414C203.448 156.85 204.414 159.61 204.73 162.482L204.727 162.463Z" fill="black"/>
<path d="M163.832 165.75C163.832 165.75 185.349 163.399 177.937 130.399C177.937 130.399 188.568 140.21 195.183 145.663C201.797 151.115 213.587 158.633 213.587 158.633C213.587 158.633 206.548 165.254 163.832 165.75Z" fill="#5A57BB"/>
<path d="M163.832 165.75C163.832 165.75 185.349 163.399 177.937 130.399C177.937 130.399 188.568 140.21 195.183 145.663C201.797 151.115 213.587 158.633 213.587 158.633C213.587 158.633 206.548 165.254 163.832 165.75Z" fill="#0AB06B"/>
<path d="M106.348 183.399C116.701 183.399 125.093 174.951 125.093 164.531C125.093 154.11 116.701 145.663 106.348 145.663C95.9959 145.663 87.6035 154.11 87.6035 164.531C87.6035 174.951 95.9959 183.399 106.348 183.399Z" fill="#65617D"/>
<path d="M106.348 174.823C111.994 174.823 116.572 170.215 116.572 164.531C116.572 158.847 111.994 154.239 106.348 154.239C100.701 154.239 96.123 158.847 96.123 164.531C96.123 170.215 100.701 174.823 106.348 174.823Z" fill="white"/>
<path d="M106.349 170.706C109.737 170.706 112.483 167.941 112.483 164.531C112.483 161.121 109.737 158.356 106.349 158.356C102.96 158.356 100.214 161.121 100.214 164.531C100.214 167.941 102.96 170.706 106.349 170.706Z" fill="#65617D"/>
<path opacity="0.1" d="M127.365 158.864C127.365 146.681 117.751 136.803 105.893 136.803C94.0351 136.803 84.4219 146.681 84.4219 158.864C84.4219 159.379 84.4393 159.889 84.4741 160.394H127.312C127.347 159.889 127.365 159.379 127.365 158.864Z" fill="black"/>
<path d="M126.57 158.484C126.57 146.751 117.314 137.239 105.894 137.239C94.4743 137.239 85.2178 146.751 85.2178 158.484C85.2178 158.98 85.236 159.469 85.2678 159.957H126.52C126.552 159.469 126.57 158.98 126.57 158.484Z" fill="#0D9D61"/>
<path d="M126.57 158.484C126.57 158.825 126.57 159.17 126.545 159.499C126.545 159.652 126.529 159.803 126.52 159.957H85.2678C85.2678 159.803 85.2496 159.652 85.2428 159.499C85.2269 159.163 85.2178 158.813 85.2178 158.484C85.2178 146.751 94.4743 137.239 105.894 137.239C117.314 137.239 126.57 146.751 126.57 158.484Z" fill="#0AB06B"/>
<path opacity="0.1" d="M126.544 159.511C126.544 159.664 126.529 159.815 126.519 159.968H85.2672C85.2672 159.815 85.249 159.664 85.2422 159.511H126.544Z" fill="black"/>
<path opacity="0.1" d="M129.296 160.414H78.5962C77.2573 160.414 76.1719 161.506 76.1719 162.853C76.1719 164.2 77.2573 165.292 78.5962 165.292H129.296C130.635 165.292 131.72 164.2 131.72 162.853C131.72 161.506 130.635 160.414 129.296 160.414Z" fill="black"/>
<path d="M129.296 159.957H78.5962C77.2573 159.957 76.1719 161.049 76.1719 162.396C76.1719 163.743 77.2573 164.835 78.5962 164.835H129.296C130.635 164.835 131.72 163.743 131.72 162.396C131.72 161.049 130.635 159.957 129.296 159.957Z" fill="#DCE0ED"/>
<path opacity="0.1" d="M182.555 128.14C183.925 127.517 183.772 124.197 182.212 120.726C180.653 117.255 178.279 114.946 176.909 115.57C175.539 116.193 175.693 119.513 177.252 122.984C178.811 126.455 181.186 128.764 182.555 128.14Z" fill="black"/>
<path d="M182.783 127.911C184.153 127.287 183.999 123.968 182.44 120.497C180.881 117.026 178.506 114.717 177.136 115.34C175.767 115.964 175.92 119.283 177.479 122.754C179.039 126.226 181.413 128.534 182.783 127.911Z" fill="#FDD44B"/>
<path opacity="0.1" d="M173.489 106.909V110.492H166.559C165.914 110.493 165.269 110.441 164.632 110.337C163.973 108.651 163.53 107.668 163.53 107.668L169.631 107.211L173.489 106.909Z" fill="black"/>
<path d="M173.489 110.026H166.559C160.472 110.026 155.539 105.452 155.539 99.7866V98.8374C155.539 93.1838 160.472 88.6006 166.559 88.6006L173.489 89.2341V110.026Z" fill="#15BE77"/>
<path d="M162.071 94.6613C162.071 94.6613 166.218 96.8912 163.832 100.665C163.832 100.665 160.905 105.495 156.304 105.038L154.63 94.6613C154.63 94.6613 160.14 94.1467 162.071 94.6613Z" fill="#058A53"/>
<path opacity="0.1" d="M173.262 89.2339H174.598C175.72 89.2339 176.796 89.6825 177.589 90.4812C178.383 91.2798 178.828 92.363 178.828 93.4924V105.769C178.828 106.899 178.383 107.982 177.589 108.78C176.796 109.579 175.72 110.028 174.598 110.028H173.262V89.2339Z" fill="black"/>
<path d="M173.488 89.2339H174.824C175.946 89.2339 177.022 89.6825 177.816 90.4812C178.609 91.2798 179.055 92.363 179.055 93.4924V105.769C179.055 106.899 178.609 107.982 177.816 108.78C177.022 109.579 175.946 110.028 174.824 110.028H173.488V89.2339Z" fill="#DCE0ED"/>
<path d="M124.288 115.938C124.288 115.938 125.358 116.331 126.787 116.88C129.06 117.761 132.263 119.046 133.377 119.75C134.49 120.455 138.641 121.612 141.749 122.426C144.054 123.027 146.426 123.322 148.806 123.302C151.224 123.279 154.153 123.256 154.962 123.256C155.103 123.255 155.244 123.266 155.384 123.289C156.234 123.43 156.2 124.004 156.179 124.142V124.171C151.181 127.22 145.121 140.867 144.744 143.154C144.46 144.869 141.963 149.624 140.731 151.897C140.318 152.659 140.05 153.141 140.05 153.141L141.565 154.893L145.957 156.876L150.122 158.706C150.122 158.706 154.516 158.935 154.591 158.706C154.666 158.477 154.666 156.115 154.666 156.115C154.131 155.767 153.624 155.379 153.148 154.953C152.141 154.069 151.205 153.107 150.349 152.073C147.927 149.176 152.774 143.611 152.774 143.611L162.089 131.414C162.089 131.414 162.846 130.042 166.481 124.553C170.117 119.064 166.481 116.091 166.481 116.091L160.083 113.418C148.986 109.237 135.601 105.886 135.601 105.886L135.41 105.861L132.572 105.504L124.288 115.938Z" fill="#EFB7B9"/>
<path d="M152.878 156.876C152.878 156.876 153.674 157.821 153.078 157.905C152.483 157.99 150.92 157.649 150.92 157.649L141.007 152.389C141.007 152.389 139.927 151.616 139.673 153.132C139.418 154.649 139.246 154.504 139.246 154.504C139.246 154.504 137.939 157.334 139.246 157.919C140.552 158.505 148.4 160.821 148.4 160.821C148.4 160.821 159.79 163.424 160.869 160.421C161.949 157.418 158.938 157.935 158.938 157.935C158.938 157.935 155.189 157.02 153.91 155.191C153.901 155.191 152.056 155.705 152.878 156.876Z" fill="#444053"/>
<path opacity="0.05" d="M166.472 116.091L160.074 113.418C148.977 109.237 135.592 105.886 135.592 105.886L135.401 105.861L132.563 105.504L124.288 115.938C124.288 115.938 125.358 116.331 126.787 116.88C129.06 117.761 132.263 119.046 133.377 119.75C134.49 120.455 138.641 121.612 141.749 122.426C144.054 123.027 146.426 123.322 148.806 123.302C151.224 123.279 154.153 123.256 154.962 123.256C155.103 123.255 155.244 123.266 155.384 123.289C156.234 123.43 156.2 124.004 156.179 124.142V124.171C151.181 127.22 145.121 140.867 144.744 143.154C144.46 144.869 141.963 149.624 140.731 151.897L140.565 152.204C140.236 152.149 139.825 152.268 139.679 153.132C139.423 154.646 139.252 154.504 139.252 154.504C139.252 154.504 137.946 157.334 139.252 157.919C140.559 158.505 148.4 160.821 148.4 160.821C148.4 160.821 159.79 163.424 160.869 160.421C161.948 157.418 158.938 157.935 158.938 157.935C158.938 157.935 155.189 157.02 153.91 155.191C153.796 155.224 153.685 155.265 153.578 155.314C153.444 155.204 153.301 155.085 153.148 154.953C152.141 154.069 151.205 153.107 150.349 152.073C147.927 149.176 152.774 143.611 152.774 143.611L162.089 131.414C162.089 131.414 162.846 130.042 166.481 124.553C170.117 119.064 166.472 116.091 166.472 116.091Z" fill="black"/>
<path d="M116.659 64.9318L117.005 65.3709L117.198 65.6157L118.402 67.1411C118.402 67.1411 121.276 68.0697 123.796 68.6712C126.42 69.2955 128.658 69.5677 126.879 68.0742C125.775 67.148 125.702 65.5974 126.104 63.9347C126.443 62.6552 126.928 61.4195 127.549 60.2525C127.639 60.0787 127.727 59.9094 127.815 59.7448C128.38 58.6941 129.005 57.6776 129.687 56.7007C128.072 55.5747 126.396 54.5386 124.668 53.5972C122.587 52.5131 120.878 52.0397 121.962 54.185C122.658 55.5572 122.43 57.0987 121.781 58.5738C121.731 58.6904 121.676 58.8025 121.619 58.9237C121.036 60.0669 120.316 61.1337 119.474 62.1004C118.612 63.1183 117.671 64.0651 116.659 64.9318Z" fill="#EFB7B9"/>
<path d="M131.051 99.7705L132.591 101.186L134.079 106.95H131.596L128.854 103.359L131.051 99.7705Z" fill="#444053"/>
<path opacity="0.1" d="M128.854 103.359L130.512 105.529L131.596 106.95H134.079L133.825 105.964L132.741 101.765L132.591 101.186L131.051 99.7705L128.947 103.206L128.854 103.359Z" fill="black"/>
<path opacity="0.1" d="M128.854 103.359L130.512 105.529L131.596 106.95H134.079L133.825 105.964L132.741 101.765L132.591 101.186L131.051 99.7705L128.947 103.206L128.854 103.359Z" fill="black"/>
<path d="M120.599 118.524C120.599 118.524 121.669 118.918 123.098 119.467C125.37 120.347 128.574 121.633 129.687 122.337C130.8 123.041 134.951 124.199 138.06 125.013C140.364 125.614 142.736 125.91 145.117 125.891C147.534 125.868 150.463 125.845 151.272 125.845C151.413 125.844 151.555 125.855 151.695 125.877C152.544 126.019 152.51 126.593 152.49 126.73V126.76C147.491 129.809 141.432 143.456 141.054 145.743C140.77 147.458 138.273 152.213 137.042 154.486C136.628 155.248 136.36 155.73 136.36 155.73L137.876 157.482L142.265 159.463L146.43 161.292C146.43 161.292 150.824 161.521 150.899 161.292C150.974 161.064 150.974 158.701 150.974 158.701C150.44 158.354 149.932 157.965 149.457 157.539C148.449 156.656 147.513 155.693 146.657 154.66C144.235 151.762 149.082 146.198 149.082 146.198L158.397 134.001C158.397 134.001 159.154 132.629 162.789 127.14C166.425 121.651 162.789 118.678 162.789 118.678L156.959 115.323C147.871 109.758 135.07 106.556 135.07 106.556L134.879 106.531L132.041 106.174L120.599 118.524Z" fill="#EFB7B9"/>
<path opacity="0.1" d="M136.357 155.728L137.873 157.48L142.265 159.462L146.43 161.292C146.43 161.292 150.824 161.521 150.899 161.292C150.974 161.063 150.974 158.701 150.974 158.701C150.439 158.353 149.932 157.965 149.456 157.539C148.986 157.793 148.452 158.269 148.968 159.005C148.968 159.005 149.763 159.947 149.168 160.034C148.572 160.121 147.009 159.778 147.009 159.778L137.096 154.518L137.039 154.479C136.621 155.245 136.357 155.728 136.357 155.728Z" fill="black"/>
<path d="M149.189 159.462C149.189 159.462 149.984 160.405 149.387 160.492C148.789 160.579 147.228 160.233 147.228 160.233L137.317 154.973C137.317 154.973 136.238 154.202 135.981 155.716C135.724 157.23 135.556 157.089 135.556 157.089C135.556 157.089 134.25 159.92 135.556 160.505C136.863 161.091 144.701 163.399 144.701 163.399C144.701 163.399 156.089 165.999 157.168 162.998C158.248 159.998 155.237 160.51 155.237 160.51C155.237 160.51 151.488 159.595 150.211 157.766C150.218 157.775 148.364 158.289 149.189 159.462Z" fill="#444053"/>
<path opacity="0.1" d="M121.203 57.9928C122.516 58.9077 124.52 60.3554 126.231 60.3554C126.673 60.3552 127.113 60.3201 127.549 60.2501C128.182 59.0193 128.896 57.8327 129.687 56.6984C129.687 56.6984 119.69 49.684 121.962 54.1826C122.712 55.6783 121.973 56.4125 121.203 57.9928Z" fill="black"/>
<path d="M118.052 51.6644C118.051 53.0375 118.391 54.3891 119.043 55.5956C119.694 56.8021 120.635 57.8251 121.78 58.5713C122.037 58.7401 122.304 58.8928 122.58 59.0287C124.172 59.8282 125.98 60.0833 127.729 59.7554C129.478 59.4274 131.073 58.5343 132.273 57.2115C133.472 55.8887 134.211 54.2083 134.376 52.425C134.541 50.6418 134.124 48.853 133.188 47.3299C132.252 45.8068 130.848 44.6324 129.189 43.9848C127.53 43.3372 125.707 43.2518 123.995 43.7414C122.284 44.231 120.778 45.2689 119.705 46.6979C118.632 48.1268 118.052 49.8689 118.052 51.6598V51.6644Z" fill="#EFB7B9"/>
<path opacity="0.1" d="M120.599 118.524C120.599 118.524 121.669 118.918 123.098 119.467C123.995 118.671 124.916 117.902 125.3 117.763C126.133 117.456 128.86 115.855 128.785 115.398C128.71 114.941 129.921 113.189 130.98 112.882C132.039 112.576 131.434 110.977 131.434 110.977C131.434 110.977 133.479 110.216 133.988 109.147C134.497 108.079 136.056 106.707 135.524 106.785C135.293 106.747 135.074 106.661 134.879 106.531L132.041 106.174L120.599 118.524Z" fill="black"/>
<path d="M114.387 115.78C114.387 115.78 117.872 118.678 118.033 119.972C118.195 121.267 120.521 121.193 120.521 121.193C120.521 121.193 124.007 117.838 124.838 117.534C125.67 117.23 128.399 115.627 128.324 115.169C128.249 114.712 129.46 112.96 130.519 112.654C131.577 112.347 130.973 110.748 130.973 110.748C130.973 110.748 133.018 109.987 133.527 108.919C134.036 107.851 135.595 106.478 135.063 106.556C134.913 106.577 134.433 106.328 133.825 105.964C133.077 105.506 132.13 104.887 131.357 104.363C130.539 103.805 129.914 103.361 129.914 103.361C129.914 103.361 129.558 103.297 128.946 103.208C125.65 102.728 114.912 101.502 112.419 105.495C112.087 106.023 111.838 106.599 111.681 107.203C110.565 111.457 114.387 115.78 114.387 115.78Z" fill="#444053"/>
<path opacity="0.1" d="M118.032 106.536C118.032 106.536 114.474 108.557 113.147 108.557C111.82 108.557 118.032 106.536 118.032 106.536Z" fill="black"/>
<path opacity="0.1" d="M120.408 108.079C120.408 108.079 115.109 109.872 115.109 111.281C115.109 112.69 114.614 107.508 120.408 108.079Z" fill="black"/>
<path opacity="0.1" d="M133.093 100.004L133.018 100.107C133.052 100.08 133.078 100.045 133.093 100.004Z" fill="black"/>
<path opacity="0.1" d="M116.659 64.9318L117.005 65.3709L117.198 65.6156L118.402 67.1411C118.402 67.1411 121.276 68.0696 123.796 68.6711C126.42 69.2955 128.658 69.5677 126.879 68.0742C125.775 67.148 125.702 65.5973 126.104 63.9346L126.025 63.8317C126.025 63.8317 126.104 65.3732 125.198 65.4029C123.975 65.4418 123.959 65.0279 122.832 64.5499C121.381 63.9324 119.892 62.9009 119.474 62.0981C118.613 63.1168 117.671 64.0644 116.659 64.9318Z" fill="black"/>
<path opacity="0.1" d="M111.681 107.197C112.301 107.463 112.999 107.48 113.63 107.242C115.977 106.478 119.69 104.64 121.43 105.445C122.825 106.09 128.444 106.071 130.519 105.529C131.034 105.394 131.33 105.227 131.284 105.031C131.255 104.804 131.282 104.574 131.364 104.361C131.605 103.585 132.259 102.508 132.748 101.765L132.598 101.186L131.057 99.7705L128.953 103.201C125.656 102.721 114.918 101.495 112.426 105.488C112.091 106.015 111.84 106.592 111.681 107.197Z" fill="black"/>
<path d="M110.147 105.413C110.147 105.413 111.056 107.547 113.403 106.785C115.75 106.023 119.463 104.182 121.203 104.987C122.943 105.792 131.277 105.564 131.05 104.573C130.823 103.583 133.095 100.457 133.095 100.457C133.095 100.457 131.855 100.228 131.087 96.1502C130.973 95.5555 130.871 94.8786 130.784 94.1101C130.597 92.5364 130.553 90.9486 130.653 89.3668C130.959 84.9527 132.495 83.1505 132.495 83.1505C132.495 83.1505 134.615 80.7125 132.798 77.3574C131.845 75.5987 128.003 70.725 127.951 68.5523C127.903 66.5808 126.031 64.2892 126.031 64.2892C126.031 64.2892 126.111 65.8307 125.204 65.8604C123.982 65.8993 123.966 65.4853 122.839 65.0073C121.182 64.3029 119.481 63.0611 119.369 62.2309C119.369 62.2309 112.426 61.8809 110.91 68.9708C109.395 76.0607 109.926 79.9487 110.154 80.788C110.381 81.6274 112.349 92.452 110.758 97.0261C109.168 101.6 110.147 105.413 110.147 105.413Z" fill="#FDD44B"/>
<path opacity="0.05" d="M121.469 92.9573C122.722 95.0839 124.397 96.9269 126.391 98.3707C127.72 98.3818 129.048 98.4712 130.367 98.6383C130.253 98.0437 130.14 97.3667 130.065 96.5983C129.877 95.0245 129.833 93.4368 129.933 91.8549C129.715 91.7448 129.522 91.5891 129.369 91.3982C129.215 91.2073 129.104 90.9856 129.042 90.748C128.663 89.4512 125.284 83.2762 125.284 83.2762C125.284 83.2762 117.38 81.2178 117.105 83.2762C116.83 85.3345 119.499 89.5267 121.469 92.9573Z" fill="black"/>
<path d="M124.089 79.427C124.089 79.427 128.861 88.5135 129.231 89.8102C129.327 90.1702 129.535 90.4899 129.825 90.7227C130.114 90.9555 130.469 91.0893 130.84 91.1047C130.84 91.1047 135.593 92.2482 136.729 92.4015C137.865 92.5547 147.719 93.3917 147.719 93.3917C147.719 93.3917 150.218 93.4695 150.521 92.5547C150.798 91.7176 155.626 87.3196 158.421 91.1573C158.678 91.5123 158.849 91.9234 158.919 92.3574C158.99 92.7913 158.957 93.2358 158.825 93.6548C158.312 95.3014 157.257 97.9155 156.126 96.2894C154.535 94.0024 152.686 94.645 152.686 95.864C152.686 97.083 150.141 96.6302 149.31 96.8017C148.855 96.8955 147.292 97.314 145.94 97.68C144.367 98.1076 142.756 98.3765 141.13 98.4827C138.447 98.6588 134.491 98.8052 133.089 98.2723C131.399 97.6251 128.447 97.4764 127.181 97.4421C126.763 97.4319 126.359 97.2859 126.03 97.0259C124.277 95.6441 122.795 93.9465 121.658 92.0195C119.688 88.5889 115.637 81.4854 115.91 79.427C116.182 77.3687 124.089 79.427 124.089 79.427Z" fill="#EFB7B9"/>
<path opacity="0.1" d="M122.498 66.8367C122.498 66.8367 125.054 71.1067 126.238 74.1553C127.421 77.2039 128.86 82.5419 128.86 82.5419L121.739 81.7026L121.135 80.7123C121.135 80.7123 116.05 83.9141 116.656 85.2864C117.263 86.6586 115.293 83.228 115.445 79.34C115.598 75.4521 114.898 68.5131 115.445 66.8367C115.993 65.1603 120.823 65.54 122.498 66.8367Z" fill="black"/>
<path d="M115.455 78.8827C115.302 82.7706 117.272 86.2012 116.666 84.829C116.059 83.4568 121.144 80.2549 121.144 80.2549L121.742 81.2452L128.86 82.0845C128.86 82.0845 127.422 76.7465 126.238 73.6979C125.527 71.9732 124.714 70.293 123.802 68.6664C123.073 67.3331 122.498 66.3794 122.498 66.3794C121.519 65.6178 119.44 65.1718 117.781 65.277C117.523 65.2918 117.266 65.3231 117.011 65.3708C116.329 65.5057 115.78 65.7664 115.537 66.1781C115.499 66.2418 115.469 66.3093 115.446 66.3794C114.9 68.0558 115.6 74.9947 115.455 78.8827Z" fill="#FDD44B"/>
<path opacity="0.05" d="M112.273 89.5269C112.273 89.5269 115.284 93.7007 116.193 93.8151C116.186 93.8242 112.323 92.9574 112.273 89.5269Z" fill="black"/>
<path opacity="0.05" d="M112.273 95.4731C112.273 95.4731 117.954 101.248 119.771 101.305C121.589 101.362 112.273 95.4731 112.273 95.4731Z" fill="black"/>
<path opacity="0.05" d="M112.274 97.8838C112.274 97.8838 115.91 102.172 116.137 102.172C116.364 102.172 112.211 100.685 112.274 97.8838Z" fill="black"/>
<path opacity="0.1" d="M115.529 66.1783C116.114 66.0906 116.678 65.9002 117.197 65.6157C117.392 65.5127 117.586 65.3984 117.774 65.2772C118.519 64.7753 119.213 64.2008 119.846 63.5619C120.891 62.5396 121.934 61.4235 122.366 60.0215C122.463 59.6984 122.535 59.368 122.58 59.0335C122.839 57.2748 122.621 55.333 123.87 54.1369C124.105 53.9138 124.374 53.7307 124.668 53.5949C126.44 52.7464 129.01 53.2953 130.332 51.7652C131.173 50.7955 131.152 49.4484 131.798 48.3941C132.079 47.9367 132.597 47.541 133.056 47.1202C132.388 46.096 131.501 45.2349 130.46 44.5997C129.419 43.9644 128.25 43.5712 127.038 43.4486C125.827 43.3259 124.604 43.477 123.458 43.8908C122.312 44.3046 121.272 44.9707 120.415 45.8404C119.557 46.7101 118.903 47.7616 118.5 48.9181C118.098 50.0746 117.957 51.307 118.088 52.5254C118.218 53.7437 118.618 54.9173 119.257 55.9606C119.895 57.0038 120.757 57.8903 121.78 58.5555C121.73 58.6721 121.675 58.7842 121.619 58.9054C120.058 62.1073 116.659 64.9158 116.659 64.9158L117.004 65.3549C116.315 65.5127 115.772 65.7666 115.529 66.1783Z" fill="black"/>
<path d="M129.878 51.541C128.339 53.3157 125.106 52.282 123.413 53.9081C121.928 55.3329 122.518 57.819 121.912 59.7927C121.48 61.1947 120.437 62.3085 119.392 63.3331C117.87 64.8242 115.922 66.3383 113.841 65.9106C112.607 65.6567 111.399 64.7282 110.206 65.1558C109.613 65.3708 109.188 65.8877 108.745 66.3428C107.24 67.8866 105.284 68.9052 103.162 69.2497C102.743 69.3449 102.306 69.3244 101.897 69.1902C101.26 68.9295 100.917 68.2297 100.338 67.8569C99.2019 67.125 97.7433 67.8752 96.564 68.5293C93.2662 70.3267 89.6258 71.3964 85.8852 71.6673C82.1446 71.9382 78.3895 71.4041 74.87 70.1005L76.7081 69.1856C76.3173 68.3829 75.2608 68.2068 74.5883 67.619C73.2023 66.4092 74.018 63.9894 75.4835 62.8802C76.949 61.771 78.8462 61.3845 80.3639 60.3485C80.6729 60.138 80.9865 59.859 81.016 59.4862C81.0111 59.2124 80.9248 58.9464 80.7684 58.7224C79.9595 57.2884 79.0643 55.7492 79.2461 54.1094C79.5233 51.5936 82.2521 50.0475 84.7582 49.8714C87.2643 49.6953 89.7455 50.4546 92.2561 50.4981C93.165 50.5141 94.117 50.4249 94.8963 49.9515C95.9846 49.2928 96.5322 48.0372 97.1934 46.9463C98.3735 45.0093 100.065 43.4401 102.078 42.4133C104.351 41.2584 106.923 40.8536 109.286 39.8976C111.699 38.9233 113.893 37.3818 116.418 36.762C120.083 35.8472 124.009 37.0433 127.174 39.1108C128.698 40.1057 133.568 43.2984 133.536 45.3408C133.511 46.5529 131.945 47.2093 131.352 48.1607C130.698 49.2242 130.718 50.5713 129.878 51.541Z" fill="#3E3D6F"/>
<g opacity="0.1">
<path opacity="0.1" d="M80.5467 57.5761C80.702 57.8007 80.7881 58.0664 80.7944 58.34C80.7853 58.4364 80.7583 58.5303 80.7148 58.6167C80.0468 57.432 79.3516 56.1764 79.2402 54.8545C79.5356 55.799 80.0559 56.707 80.5467 57.5761Z" fill="black"/>
<path opacity="0.1" d="M74.3663 66.4729C75.0366 67.0606 76.0931 67.2367 76.4861 68.0395L75.8363 68.3643C75.3985 68.157 74.9822 67.9065 74.5935 67.6164C74.3471 67.3954 74.1549 67.1199 74.0319 66.8116C73.9089 66.5033 73.8585 66.1705 73.8846 65.8394C74.0005 66.0815 74.1644 66.2971 74.3663 66.4729Z" fill="black"/>
<path opacity="0.1" d="M96.3418 67.3855C97.521 66.7314 98.982 65.9812 100.116 66.7131C100.693 67.0859 101.038 67.7857 101.674 68.0464C102.082 68.1806 102.519 68.2012 102.938 68.1059C105.06 67.7615 107.017 66.7429 108.523 65.1991C108.963 64.7417 109.388 64.2271 109.984 64.0121C111.17 63.5844 112.378 64.5129 113.619 64.7668C115.7 65.1945 117.645 63.6805 119.17 62.1893C120.215 61.167 121.255 60.0509 121.687 58.6489C122.296 56.6752 121.705 54.1892 123.191 52.7644C124.889 51.1383 128.115 52.172 129.655 50.3973C130.494 49.4275 130.476 48.0805 131.121 47.0261C131.666 46.1365 133.079 45.5052 133.279 44.4326C133.436 44.7126 133.522 45.0265 133.532 45.3474C133.507 46.5596 131.941 47.216 131.348 48.1674C130.703 49.2217 130.721 50.5688 129.883 51.5385C128.342 53.3132 125.111 52.2795 123.418 53.9056C121.932 55.3304 122.523 57.8165 121.914 59.7902C121.483 61.1921 120.442 62.3059 119.397 63.3305C117.872 64.8217 115.927 66.3357 113.846 65.9081C112.61 65.6542 111.401 64.7256 110.211 65.1533C109.615 65.3683 109.191 65.8852 108.75 66.3403C107.244 67.8841 105.287 68.9027 103.165 69.2471C102.746 69.3424 102.31 69.3219 101.902 69.1877C101.265 68.927 100.92 68.2271 100.343 67.8543C99.2069 67.1225 97.7482 67.8726 96.569 68.5267C93.2711 70.3241 89.6308 71.3939 85.8902 71.6648C82.1496 71.9357 78.3945 71.4016 74.875 70.0979L76.1451 69.4644C79.4818 70.4734 82.9835 70.8092 86.4494 70.4524C89.9153 70.0957 93.2771 69.0534 96.3418 67.3855Z" fill="black"/>
</g>
<path opacity="0.1" d="M152.49 126.728L154.4 125.797V125.434C154.4 125.294 152.876 125.603 151.694 125.866C152.544 126.017 152.51 126.591 152.49 126.728Z" fill="black"/>
<path d="M154.151 105.697C156.693 105.697 158.754 103.173 158.754 100.059C158.754 96.9454 156.693 94.4214 154.151 94.4214C151.609 94.4214 149.548 96.9454 149.548 100.059C149.548 103.173 151.609 105.697 154.151 105.697Z" fill="#0AB06B"/>
<path d="M109.845 92.7217L102.445 100.068L78.1172 99.64L84.8063 92.7217H109.845Z" fill="#3ADA76"/>
<path d="M109.845 117.852V92.7217L102.444 100.068V124.658L109.845 117.852Z" fill="#30D26D"/>
<path d="M78.1172 99.6401V124.658H102.445V100.068L78.1172 99.6401Z" fill="#DDA2A6"/>
<path d="M78.1172 99.6401V124.658H102.445V100.068L78.1172 99.6401Z" fill="#47E984"/>
<path d="M100.468 106.954L82.375 103.828L80.0166 115.784L98.6433 119.229L100.468 106.954Z" fill="white"/>
<path d="M96.8938 109.747L84.7312 107.823L84.4268 109.42L96.5893 111.496L96.8938 109.747Z" fill="#28DD91"/>
<path d="M93.5492 113.161L86.6306 112.15L86.3262 113.923L93.5492 114.943V113.161Z" fill="#28DD91"/>
<path d="M106.852 105.911L106.523 96.0176L104.621 97.9067L104.953 107.823L106.852 105.911Z" fill="#15BE77"/>
<path d="M82.3591 95.2534L105.737 95.5713L106.523 96.0173L104.621 97.9064L103.965 97.5176L80.8096 96.8566L82.3591 95.2534Z" fill="#15BE77"/>
</svg>
