<svg width="307" height="163" viewBox="0 0 307 163" fill="none" xmlns="http://www.w3.org/2000/svg">
<path d="M287.884 148.288C286.075 144.838 278.726 142.064 275.43 141.435C257.872 138.085 239.477 138.554 221.684 138.608C202.31 138.668 183.821 141.77 164.608 143.203C154.613 143.953 144.055 142.607 134.033 142.265C117.54 141.689 101.052 141.019 84.5677 140.256C70.3523 139.586 55.601 141.08 43.0336 148.917C41.6134 149.808 40.1731 150.887 39.5233 152.481C35.4503 162.53 86.209 161.264 92.8276 161.438C126.182 162.302 159.564 162.778 192.932 161.847C217.718 161.177 243.59 161.217 268.189 157.72C273.628 156.943 281.037 156.668 285.733 153.466C288.36 151.684 288.715 149.916 287.884 148.288Z" fill="#E0FFEC"/>
<path d="M266.292 11.252C266.727 11.252 267.17 11.252 267.632 11.252" stroke="#BCFFD5" stroke-miterlimit="10"/>
<path d="M270.312 11.4663C278.967 12.3439 289.525 15.9949 288.293 23.4777C286.323 35.4087 233.307 31.0074 220.632 31.128C195.176 31.3826 169.438 31.4764 144.471 37.0433C138.395 38.3831 129.733 41.3843 130.362 49.1016C130.59 51.7812 132.191 54.2531 134.214 56.082C141.51 62.6672 151.665 63.2969 161.098 64.4558C175.36 66.2043 243.215 63.873 265.395 71.1549C269.763 72.5885 275.223 74.4307 275.404 80.6742C275.866 96.5376 236.462 95.7538 224.645 96.082C193.099 96.8859 161.52 96.5711 129.974 95.948C104.477 95.4456 78.907 94.9968 53.4506 93.3555C43.9648 92.7392 28.4498 92.5583 21.2081 85.4372C17.1887 81.4178 16.6326 74.2096 23.0302 70.5117C27.5387 67.9058 40.7693 69.0447 45.8606 68.6092C61.2684 67.2694 56.5791 57.9443 44.1188 56.7519" stroke="#BCFFD5" stroke-miterlimit="10" stroke-dasharray="4.01 4.01"/>
<path d="M42.792 56.6514C42.3565 56.6514 41.9077 56.6514 41.4521 56.6514" stroke="#BCFFD5" stroke-miterlimit="10"/>
<path d="M267.197 22.8546L263.131 1.37745C263.075 1.08507 262.943 0.812529 262.749 0.587238C262.554 0.361946 262.304 0.191853 262.023 0.0940704C261.742 -0.00371247 261.44 -0.0257369 261.147 0.0302128C260.855 0.0861625 260.583 0.218113 260.357 0.41279L243.831 14.6617C243.605 14.8554 243.433 15.1054 243.334 15.3863C243.236 15.6673 243.212 15.9694 243.267 16.2622C243.322 16.555 243.454 16.8281 243.648 17.054C243.842 17.2799 244.092 17.4506 244.374 17.549L264.966 24.7839C265.249 24.8824 265.552 24.9046 265.846 24.8485C266.14 24.7924 266.413 24.6598 266.64 24.4642C266.866 24.2686 267.036 24.0168 267.134 23.7342C267.232 23.4516 267.254 23.1482 267.197 22.8546Z" fill="#CAFFDE"/>
<path d="M264.062 22.5265C263.945 22.5261 263.83 22.5057 263.72 22.4662L246.752 16.5309C246.578 16.4683 246.424 16.3614 246.304 16.2207C246.184 16.0801 246.104 15.9106 246.07 15.7291C246.036 15.5477 246.05 15.3605 246.111 15.1862C246.172 15.0118 246.277 14.8565 246.417 14.7355L260.036 3.01217C260.176 2.89047 260.346 2.80832 260.529 2.77417C260.711 2.74003 260.899 2.75512 261.074 2.81789C261.245 2.88177 261.397 2.98873 261.514 3.12841C261.631 3.26809 261.711 3.43573 261.744 3.61508L265.094 21.2738C265.123 21.4266 265.119 21.5841 265.08 21.7349C265.042 21.8857 264.97 22.0261 264.871 22.146C264.772 22.2658 264.647 22.3621 264.506 22.4279C264.365 22.4937 264.211 22.5274 264.055 22.5265H264.062ZM247.663 15.4054L263.693 21.0192L260.538 4.35198L247.663 15.4054Z" fill="#53E88B"/>
<path d="M256.7 15.3181C256.55 15.2581 256.426 15.1456 256.352 15.0015C256.278 14.8575 256.259 14.6915 256.298 14.5343L257.98 8.63244C258.017 8.50189 258.08 8.3803 258.166 8.2751C258.252 8.1699 258.358 8.0833 258.478 8.02059C258.599 7.95789 258.731 7.9204 258.866 7.91042C259.002 7.90044 259.137 7.91817 259.266 7.96254C259.397 8.00592 259.517 8.0762 259.62 8.16886C259.722 8.26153 259.804 8.37454 259.86 8.50067C259.916 8.62679 259.945 8.76325 259.946 8.9013C259.946 9.03935 259.917 9.17594 259.862 9.30235L257.497 14.963C257.429 15.1077 257.311 15.2231 257.164 15.2882C257.018 15.3533 256.853 15.3639 256.7 15.3181Z" fill="#53E88B"/>
<path d="M256.82 16.926C256.775 17.0514 256.695 17.1607 256.588 17.24C256.481 17.3193 256.353 17.365 256.22 17.3713C256.087 17.3776 255.955 17.3441 255.842 17.2752C255.728 17.2063 255.637 17.105 255.581 16.9844C255.525 16.8637 255.506 16.7291 255.527 16.5977C255.547 16.4662 255.607 16.344 255.697 16.2464C255.788 16.1489 255.905 16.0806 256.035 16.0501C256.164 16.0196 256.3 16.0283 256.425 16.0752C256.589 16.1371 256.722 16.2608 256.796 16.4199C256.87 16.579 256.878 16.7607 256.82 16.926Z" fill="#53E88B"/>
<path d="M40.1801 49.4029L26.782 42.7507C26.5994 42.6617 26.3967 42.6219 26.194 42.6354C25.9913 42.6488 25.7956 42.715 25.6263 42.8274C25.4571 42.9398 25.3201 43.0944 25.2291 43.2761C25.138 43.4577 25.096 43.6599 25.1072 43.8628L26.0585 58.7481C26.075 58.9488 26.1436 59.1418 26.2575 59.308C26.3713 59.4742 26.5265 59.6078 26.7077 59.6957C26.889 59.7836 27.09 59.8228 27.291 59.8093C27.492 59.7959 27.686 59.7302 27.8539 59.619L40.2873 51.3791C40.4511 51.2666 40.5833 51.1139 40.6711 50.9356C40.7589 50.7573 40.7993 50.5594 40.7886 50.3609C40.7778 50.1625 40.7162 49.9701 40.6096 49.8023C40.5031 49.6346 40.3552 49.497 40.1801 49.4029Z" fill="#E0FFEC"/>
<path d="M38.6928 50.9705C38.643 51.0324 38.5843 51.0866 38.5187 51.1313L28.2959 57.9107C28.1896 57.9802 28.0671 58.0211 27.9403 58.0293C27.8135 58.0375 27.6868 58.0128 27.5724 57.9576C27.4596 57.9004 27.3637 57.8147 27.2943 57.7089C27.225 57.6031 27.1846 57.481 27.1772 57.3547L26.4202 45.1088C26.417 44.9848 26.4457 44.862 26.5037 44.7522C26.5617 44.6425 26.6469 44.5495 26.7512 44.4822C26.8555 44.415 26.9753 44.3756 27.0992 44.3681C27.2231 44.3605 27.3468 44.3849 27.4585 44.4389L38.445 49.912C38.5577 49.9676 38.6537 50.052 38.7231 50.1567C38.7926 50.2615 38.833 50.3828 38.8402 50.5083C38.8506 50.6753 38.798 50.8402 38.6928 50.9705ZM28.0681 56.9393L37.7349 50.5351L27.3513 45.3701L28.0681 56.9393Z" fill="#53E88B"/>
<path d="M31.7324 52.0022C31.6391 52.0632 31.5259 52.0861 31.4162 52.0661C31.3066 52.0462 31.2087 51.9849 31.1429 51.895L28.6307 48.5455C28.5716 48.4722 28.5287 48.3872 28.5046 48.2962C28.4806 48.2052 28.476 48.1101 28.4912 48.0172C28.5063 47.9243 28.5409 47.8356 28.5927 47.757C28.6444 47.6783 28.7122 47.6114 28.7915 47.5607C28.8678 47.5088 28.9541 47.4733 29.0448 47.4563C29.1355 47.4393 29.2288 47.4412 29.3188 47.462C29.4087 47.4827 29.4934 47.5219 29.5675 47.5769C29.6416 47.6319 29.7036 47.7017 29.7495 47.7818L31.853 51.3993C31.9167 51.4953 31.9399 51.6127 31.9173 51.7257C31.8947 51.8387 31.8282 51.9381 31.7324 52.0022Z" fill="#53E88B"/>
<path d="M32.6637 52.5986C32.7111 52.6717 32.7359 52.7573 32.7348 52.8445C32.7338 52.9317 32.7069 53.0166 32.6577 53.0886C32.6085 53.1606 32.5391 53.2164 32.4583 53.2491C32.3774 53.2817 32.2887 53.2897 32.2033 53.2721C32.1179 53.2545 32.0396 53.212 31.9783 53.15C31.917 53.088 31.8754 53.0092 31.8587 52.9236C31.8421 52.838 31.8511 52.7494 31.8847 52.6689C31.9182 52.5884 31.9748 52.5197 32.0474 52.4713C32.0961 52.4388 32.1508 52.4163 32.2082 52.4051C32.2657 52.3939 32.3248 52.3943 32.3821 52.4061C32.4395 52.418 32.4939 52.4411 32.5422 52.4741C32.5906 52.5071 32.6318 52.5494 32.6637 52.5986Z" fill="#53E88B"/>
<path d="M49.4109 79.4282C50.025 79.4282 50.5229 78.9303 50.5229 78.3161C50.5229 77.702 50.025 77.2041 49.4109 77.2041C48.7967 77.2041 48.2988 77.702 48.2988 78.3161C48.2988 78.9303 48.7967 79.4282 49.4109 79.4282Z" stroke="#BCFFD5" stroke-miterlimit="10"/>
<path d="M214.496 58.8486C215.11 58.8486 215.608 58.3507 215.608 57.7366C215.608 57.1224 215.11 56.6245 214.496 56.6245C213.882 56.6245 213.384 57.1224 213.384 57.7366C213.384 58.3507 213.882 58.8486 214.496 58.8486Z" stroke="#BCFFD5" stroke-miterlimit="10"/>
<path d="M126.905 27.6845C127.519 27.6845 128.017 27.1867 128.017 26.5725C128.017 25.9583 127.519 25.4604 126.905 25.4604C126.291 25.4604 125.793 25.9583 125.793 26.5725C125.793 27.1867 126.291 27.6845 126.905 27.6845Z" stroke="#BCFFD5" stroke-miterlimit="10"/>
<path d="M125.573 112.26C126.187 112.26 126.685 111.762 126.685 111.148C126.685 110.534 126.187 110.036 125.573 110.036C124.959 110.036 124.461 110.534 124.461 111.148C124.461 111.762 124.959 112.26 125.573 112.26Z" stroke="#BCFFD5" stroke-miterlimit="10"/>
<path d="M151.491 45.665V48.1772" stroke="#BCFFD5" stroke-linecap="round" stroke-linejoin="round"/>
<path d="M152.75 46.9175H150.231" stroke="#BCFFD5" stroke-linecap="round" stroke-linejoin="round"/>
<path d="M196.649 13.5161V16.035" stroke="#BCFFD5" stroke-linecap="round" stroke-linejoin="round"/>
<path d="M197.908 14.7754H195.39" stroke="#BCFFD5" stroke-linecap="round" stroke-linejoin="round"/>
<path d="M266.514 81.3843V83.9031" stroke="#BCFFD5" stroke-linecap="round" stroke-linejoin="round"/>
<path d="M267.774 82.6436H265.255" stroke="#BCFFD5" stroke-linecap="round" stroke-linejoin="round"/>
<path d="M174.08 153.312C174.08 153.312 169.391 155.322 169.391 156.306C169.391 156.883 175.828 156.065 176.217 155.677C176.84 155.054 175.969 153.399 175.969 153.399L174.08 153.312Z" fill="#26387A"/>
<path d="M173.779 150.518L174.081 153.399C174.151 153.554 174.265 153.686 174.409 153.778C174.553 153.869 174.721 153.917 174.891 153.915C175.1 153.919 175.307 153.875 175.495 153.785C175.683 153.696 175.848 153.564 175.977 153.399L175.742 149.795" fill="#FFB288"/>
<path d="M181.959 84.4858C183.66 91.3457 183.03 94.8359 180.532 100.008C179.018 117.425 177.966 134.762 175.93 151.731L173.779 151.858C168.889 135.332 164.4 110.626 164.97 88.043" fill="#15BE77"/>
<path d="M180.893 86.8442C181.473 88.4735 181.722 90.2022 181.624 91.9288C181.536 94.528 180.478 96.8861 179.795 99.3581C178.877 102.654 178.81 105.93 178.555 109.306C178.167 114.594 177.769 119.877 177.363 125.156C176.706 133.771 176.037 142.386 175.353 151.001L175.293 151.771" stroke="#0E8754" stroke-width="0.5" stroke-miterlimit="10"/>
<path d="M192.751 153.982C192.751 153.982 188.062 155.992 188.062 156.976C188.062 157.553 194.499 156.735 194.888 156.347C195.511 155.724 194.633 154.069 194.633 154.069L192.751 153.982Z" fill="#26387A"/>
<path d="M192.449 151.188L192.751 154.069C192.821 154.224 192.935 154.356 193.079 154.448C193.223 154.539 193.391 154.587 193.561 154.585C193.77 154.589 193.977 154.545 194.165 154.455C194.353 154.366 194.518 154.233 194.647 154.069L194.419 150.465" fill="#FFB288"/>
<path d="M197.527 83.9028C199.684 90.6354 199.282 94.1591 197.139 99.4915C196.784 116.963 195.578 135.204 194.673 152.273H192.463C186.487 136.109 180.096 111.148 179.172 88.5788" fill="#15BE77"/>
<path d="M196.462 86.6899C196.462 86.6899 198.961 92.5382 194.741 100.758C194.252 108.502 194.004 152.287 194.004 152.287" stroke="#0E8754" stroke-width="0.5" stroke-miterlimit="10"/>
<path d="M190.285 88.5454C190.735 89.1978 191.376 89.6941 192.121 89.9656C192.854 90.2374 193.62 90.4109 194.398 90.4814C195.321 90.6108 196.254 90.6601 197.185 90.6288" stroke="#0E8754" stroke-width="0.5" stroke-miterlimit="10"/>
<path d="M190.594 89.6372C191.412 90.3417 192.397 90.8259 193.454 91.044C194.505 91.2605 195.577 91.3638 196.65 91.3522" stroke="#0E8754" stroke-width="0.5" stroke-miterlimit="10"/>
<path d="M171.97 51.3457C164.521 64.3084 156.502 76.0451 151.752 90.2002L150.332 89.4432C150.694 76.2863 154.961 57.1538 160.561 45.2295" fill="#FFCD84"/>
<path d="M168.333 37.8135C166.552 38.3843 164.862 39.2078 163.315 40.2586C160.79 42.0221 158.79 44.4367 157.527 47.2457C156.271 50.0455 155.43 53.0129 155.028 56.055C157.148 57.0561 159.406 57.7335 161.727 58.0647C164.177 58.319 166.647 58.319 169.096 58.0647" fill="#C2FFD9"/>
<path d="M162.772 45.4706C161.982 59.4917 162.584 73.9081 162.946 87.5474C162.946 87.5474 167.83 88.847 179.694 88.847C191.558 88.847 199.268 85.2362 199.268 85.2362C196.977 71.2285 195.155 54.032 189.541 42.4962C189.541 42.4962 183.204 35.6632 176.961 35.3818C175.664 35.4027 174.392 35.7335 173.249 36.3465C172.365 36.7551 168.319 37.7466 168.319 37.7466L162.772 45.4706Z" fill="#C2FFD9"/>
<path d="M162.712 46.7231C162.397 49.4028 162.397 57.7364 162.397 57.7364" stroke="#70EB9E" stroke-width="0.5" stroke-miterlimit="10"/>
<path d="M174.522 91.9552C194.358 89.7579 202.658 114.899 207.2 124.653C217.879 147.711 258.167 145.146 276.529 145.146C300.572 145.146 311.13 153.245 299.902 157.499" stroke="#009A59" stroke-width="5" stroke-linecap="round" stroke-linejoin="round"/>
<path d="M181.355 93.1144C181.355 103.317 173.631 109.473 167.033 109.473H156.2V76.7285H167.033C173.631 76.7285 181.355 82.8849 181.355 93.1144Z" fill="#009A59"/>
<path d="M175.775 93.1143C175.775 103.082 169.874 111.168 162.585 111.168H150.641V75.0269H162.585C169.874 75.0269 175.775 83.1193 175.775 93.1143Z" fill="#006B3E"/>
<g style="mix-blend-mode:multiply" opacity="0.5">
<path d="M178.421 83.2266C175.842 86.7436 173.316 90.3142 170.878 93.945C171.226 93.8767 171.547 93.7092 171.802 93.4627C171.802 93.7374 171.367 94.2063 171.749 94.3805C172.131 94.5547 172.539 94.1058 172.935 94.2264C173.31 94.1393 173.658 93.6704 173.933 93.4024C173.844 93.6023 173.788 93.8148 173.765 94.0321C176.405 93.0072 178.763 90.5486 180.813 88.5724C180.338 86.6629 179.528 84.8529 178.421 83.2266Z" fill="#FDAE2B"/>
</g>
<path d="M151.491 111.148C158.776 111.148 164.682 103.065 164.682 93.094C164.682 83.1231 158.776 75.04 151.491 75.04C144.206 75.04 138.301 83.1231 138.301 93.094C138.301 103.065 144.206 111.148 151.491 111.148Z" fill="#00824B"/>
<path d="M152.596 99.4916C152.596 100.972 151.585 102.171 150.332 102.171C149.079 102.171 148.074 100.972 148.074 99.4916C148.074 98.0111 149.086 96.812 150.332 96.812C151.578 96.812 152.596 98.0044 152.596 99.4916Z" fill="#006B3E"/>
<path d="M152.596 86.6899C152.596 88.1771 151.585 89.3695 150.332 89.3695C149.079 89.3695 148.074 88.1704 148.074 86.6899C148.074 85.2094 149.086 84.0103 150.332 84.0103C151.578 84.0103 152.596 85.2094 152.596 86.6899Z" fill="#006B3E"/>
<path d="M193.166 55.8206C193.166 55.8206 194.003 64.3485 190.185 71.4428C186.929 77.4719 180.445 85.3567 175.213 89.6843L173.953 89.3761C175.775 82.3823 181.53 69.9489 181.885 65.3198C182.24 60.6908 182.159 55.2712 182.247 52.6787" fill="#FFCD84"/>
<path d="M176.975 35.3818C176.975 35.3818 183.989 35.8642 188.062 39.3075C193.876 44.2179 194.761 53.831 194.761 56.0551C193.005 57.9509 189.16 58.0648 186.36 58.0648C184.655 58.0543 182.984 57.592 181.517 56.725L180.947 46.1137" fill="#C2FFD9"/>
<path d="M174.469 88.3379C173.641 88.4534 172.862 88.7966 172.218 89.3294C171.608 89.8117 170.878 90.6156 170.932 90.984C170.985 91.3525 172.017 90.6223 172.144 90.7763C172.272 90.9304 170.416 93.7172 170.764 93.9249C171.113 94.1326 172.687 91.607 172.687 91.607C172.687 91.607 171.16 94.2866 171.749 94.367C172.339 94.4474 173.598 91.8616 173.598 91.8616C173.598 91.8616 172.453 94.146 172.848 94.2331C173.243 94.3201 174.301 92.0425 174.301 92.0425C174.301 92.0425 173.437 93.9852 173.766 94.0187C174.442 93.478 174.926 92.7332 175.146 91.8951C175.494 90.7428 175.903 89.7447 175.588 88.8403" fill="#FFB288"/>
<path d="M181.791 47.2324V56.8925" stroke="#70EB9E" stroke-width="0.5" stroke-miterlimit="10"/>
<path d="M162.423 26.4721C162.383 26.8874 162.37 27.3094 162.37 27.7315C162.325 28.6478 162.558 29.5564 163.04 30.3374C163.405 30.8532 163.938 31.227 164.547 31.3959C164.976 31.5097 165.532 31.4629 165.719 31.0609C165.775 30.9136 165.798 30.7558 165.786 30.5987C165.78 29.0354 165.478 27.4874 164.895 26.0366" fill="#2B3352"/>
<path d="M173.015 27.3496C172.412 24.9983 170.523 21.709 167.435 22.3722C166.471 22.5452 165.569 22.9659 164.817 23.5932C164.066 24.2204 163.49 25.0325 163.147 25.9495C162.478 28.1535 163.569 30.7193 164.896 32.5213C165.363 33.2149 165.984 33.7906 166.711 34.2028C168.493 35.1272 170.905 34.3702 172.117 32.863C172.679 32.0741 173.052 31.1667 173.208 30.2108C173.364 29.2549 173.298 28.276 173.015 27.3496Z" fill="#FFCD84"/>
<path d="M168.694 33.4928L169.699 37.1706L168.359 37.8405C168.739 38.2749 169.225 38.6037 169.77 38.795C170.315 38.9864 170.899 39.0337 171.468 38.9324C175.675 38.3228 177.001 35.4087 177.001 35.4087L174.623 35.1609L171.997 30.6792" fill="#FFCD84"/>
<path d="M175.065 24.784C174.885 23.9828 174.539 23.2282 174.05 22.5683C173.56 21.9085 172.939 21.358 172.225 20.9521C169.733 19.4381 166.196 19.3176 163.972 21.401C162.712 22.5867 160.441 26.7937 163.155 27.6244C164.005 27.8856 164.876 27.3698 165.613 26.8808L167.864 25.3735C168.116 25.1683 168.42 25.0362 168.742 24.9917C169.006 25.0156 169.257 25.1175 169.463 25.2845C169.67 25.4515 169.822 25.676 169.9 25.9295C170.047 26.439 170.157 26.9584 170.229 27.4837C170.29 27.8584 170.491 28.1959 170.791 28.4283C170.867 28.4844 170.954 28.524 171.046 28.5443C171.138 28.5647 171.233 28.5654 171.325 28.5464C171.418 28.5275 171.505 28.4892 171.581 28.4342C171.658 28.3793 171.722 28.3087 171.769 28.2273C171.827 27.9737 171.827 27.7105 171.769 27.4569C171.769 27.1956 171.91 26.8808 172.171 26.8875C172.264 26.897 172.352 26.937 172.419 27.0014C173.089 27.5105 172.861 28.5288 173.089 29.3326C173.089 29.4398 172.902 31.061 172.969 31.1414C175.086 30.6524 175.28 25.9429 175.065 24.784Z" fill="#2B3352"/>
<path d="M171.977 27.0952C171.971 26.9461 172.023 26.8004 172.121 26.6882C172.22 26.576 172.358 26.5059 172.506 26.4923C172.658 26.4874 172.808 26.5127 172.95 26.5667C173.091 26.6208 173.221 26.7025 173.33 26.8072C173.531 26.9694 173.695 27.173 173.811 27.4042C173.927 27.6353 173.991 27.8887 174 28.147C173.988 28.5508 173.858 28.9423 173.625 29.2724C173.489 29.5118 173.277 29.6983 173.022 29.8016C172.852 29.8416 172.674 29.8346 172.508 29.7816C172.342 29.7285 172.193 29.6312 172.077 29.5002" fill="#FFB288"/>
<path d="M97.3763 153.211C97.3763 153.211 101.891 153.962 102.019 154.953C102.092 155.523 95.6881 156.199 95.2527 155.864C94.5828 155.328 95.4068 153.325 95.4068 153.325L97.3763 153.211Z" fill="#26387A"/>
<path d="M97.014 150.438L97.3892 153.299C97.3388 153.462 97.2425 153.606 97.1117 153.716C96.981 153.825 96.8215 153.894 96.6523 153.915C96.4453 153.946 96.2339 153.929 96.035 153.864C95.836 153.798 95.6551 153.688 95.5068 153.54L94.9775 149.976" fill="#FFB288"/>
<path d="M80.1327 85.3633C79.3221 92.3906 79.2752 95.7669 82.4171 100.584C83.9043 107.376 86.1886 114.337 87.917 121.297C87.1734 129.611 92.3853 142.848 95.1855 152.3L97.1952 151.952C99.915 134.936 100.92 108.843 98.4814 85.993" fill="#15BE77"/>
<path d="M81.4463 94.8828C81.4463 94.8828 89.2172 119.562 89.2172 120.902C89.2172 122.242 89.4316 126.844 89.7799 129.832C90.4096 135.305 95.3669 151.43 95.3669 151.43" stroke="#0E8754" stroke-width="0.5" stroke-miterlimit="10"/>
<path d="M95.1254 152.682L94.8105 151.45L97.4232 151.349L97.4567 152.488L95.1254 152.682Z" fill="#0E8754"/>
<path d="M62.2459 153.352C62.2459 153.352 65.7763 155.904 65.4681 156.802C65.2872 157.318 59.5394 155.188 59.305 154.719C58.9432 153.968 60.5175 152.615 60.5175 152.615L62.2459 153.352Z" fill="#26387A"/>
<path d="M63.11 150.833L62.219 153.406C62.1079 153.525 61.9642 153.609 61.8057 153.647C61.6473 153.685 61.4812 153.676 61.328 153.62C61.1394 153.56 60.9674 153.456 60.8255 153.318C60.6837 153.179 60.576 153.01 60.5107 152.823L61.5625 149.554" fill="#FFB288"/>
<path d="M64.9657 83.9028C62.8153 90.6354 63.2105 94.1591 65.3609 99.4915C65.4882 105.869 65.5552 112.327 65.6289 118.785C61.0802 130.173 60.3634 140.376 60.9395 151.215L63.1301 152.025C63.1301 152.025 76.1866 129.249 78.5848 120.279C81.3038 109.914 82.894 99.2855 83.3278 88.5788" fill="#15BE77"/>
<path d="M65.4886 85.3633C65.4886 85.3633 63.1104 92.3169 66.2255 99.0159C66.2255 100.885 67.2973 116.433 66.8954 118.832C66.6877 119.984 64.5574 125.477 63.1305 130.83C61.5361 136.745 61.2012 150.726 61.2012 150.726" stroke="#0E8754" stroke-width="0.5" stroke-miterlimit="10"/>
<path d="M60.5107 151.208L60.8591 149.748L63.666 151.054L63.11 152.307L60.5107 151.208Z" fill="#0E8754"/>
<path d="M101.463 31.8782L99.7007 30.3776V27.2693C99.7007 26.7869 99.0308 23.9198 98.4546 23.9198C97.8785 23.9198 97.7311 23.1963 97.4364 23.491C97.1416 23.7858 97.6776 27.0549 97.4364 27.2961C97.1952 27.5372 96.8871 25.7419 96.6593 25.9563C96.4315 26.1706 96.4516 27.4636 96.4516 28.1335C96.5539 29.038 96.9275 29.8905 97.5235 30.5786C98.0594 31.1145 100.424 33.6669 100.424 33.6669L101.463 31.8782Z" fill="#FFCF88"/>
<path d="M100.578 30.8867L99.1315 32.5548C99.1315 32.5548 104.94 40.2453 106.775 42.8177C104.852 42.0146 103.016 41.018 101.295 39.8433C98.5688 38.0547 95.8288 37.1034 93.9263 37.1034C89.9069 37.1034 92.0104 50.3609 96.6729 52.3036C105.529 53.6434 115.43 52.7926 116.971 49.6843C119.229 45.0686 106.232 34.2094 100.578 30.8867Z" fill="#C2FFD9"/>
<path d="M106.755 42.8179C106.755 42.8179 107.84 45.9128 109.85 46.8909" stroke="#70EB9E" stroke-width="0.5" stroke-miterlimit="10"/>
<path d="M73.5875 40.6141C63.0365 52.4647 63.1906 72.8432 63.1906 86.6968C63.1906 86.6968 70.9414 91.9824 82.7719 91.9824C94.6024 91.9824 99.5195 89.0683 99.5195 89.0683C99.8746 75.0003 97.3758 68.9711 99.687 45.7656C99.687 45.7656 95.9154 37.1037 93.899 37.1037C91.8826 37.1037 84.0112 36.3267 84.0112 36.3267L73.5875 40.6141Z" fill="#C2FFD9"/>
<path d="M99.1318 52.6186C99.1318 52.6186 99.373 48.559 100.358 47.5742" stroke="#70EB9E" stroke-width="0.5" stroke-miterlimit="10"/>
<path d="M87.5147 27.4635C87.9032 25.0719 89.6115 21.6554 92.7399 22.0372C94.7028 22.2851 96.2234 23.6383 97.3221 25.226C98.2667 26.5658 97.9116 27.9056 96.5651 31.3422C96.0315 32.2681 95.3321 33.0879 94.5018 33.7606C92.8069 34.8391 90.3417 34.2965 89.0019 32.8763C88.3597 32.146 87.892 31.2791 87.6344 30.3413C87.3767 29.4035 87.3358 28.4194 87.5147 27.4635Z" fill="#FFCD84"/>
<path d="M87.9303 27.1489C88.3791 27.0819 87.9303 26.7872 88.1313 27.1958C88.2586 27.4638 88.2988 27.5375 88.5533 27.6245C88.8079 27.7116 88.8079 27.9327 89.0156 28.0935C89.3438 28.3346 89.6185 28.0064 89.7592 27.725C89.9783 27.1862 90.0433 26.5971 89.9467 26.0235C89.8998 25.5813 89.7525 24.8846 90.1812 24.5765C90.6099 24.2683 91.3133 24.6904 91.6818 24.7975C92.2378 24.9583 92.7938 25.1392 93.3565 25.3067C94.6941 25.7995 96.1222 25.9982 97.5435 25.8895C98.1806 25.831 98.795 25.6226 99.3363 25.2815C99.8777 24.9404 100.331 24.4762 100.659 23.9267C101.369 22.5869 99.9417 20.7513 98.4947 20.7513C98.1176 20.7917 97.7453 20.868 97.3827 20.9791C97.2463 21.0126 97.1038 21.0126 96.9673 20.9791C96.6525 20.8853 96.5118 20.5302 96.3376 20.2556C96.074 19.8771 95.7072 19.5824 95.2808 19.4066C94.8544 19.2308 94.3864 19.1814 93.9327 19.2641C92.9079 19.4894 91.9023 19.794 90.9248 20.1752C90.4091 20.2455 89.8863 20.2455 89.3706 20.1752C89.0834 20.1925 88.8057 20.2844 88.5649 20.4418C88.324 20.5993 88.1284 20.8168 87.9973 21.0729C87.5552 20.6173 86.5771 21.7428 86.3359 22.0375C85.2641 23.3371 84.9291 25.2129 84.9023 26.8608C84.9023 28.2944 85.1167 30.3912 86.691 30.9674C87.3609 31.2152 87.7762 31.3425 87.803 30.7329C87.5633 29.9475 87.4237 29.1349 87.3877 28.3145C87.3365 28.0584 87.3649 27.7928 87.4691 27.5533C87.5732 27.3138 87.7482 27.1119 87.9705 26.9747" fill="#2B3352"/>
<path d="M93.1017 33.1509L92.7601 36.7684L93.9458 37.1033C93.6994 37.6227 93.3235 38.07 92.8542 38.402C92.3849 38.734 91.838 38.9397 91.2662 38.9992C87.0525 39.5619 84.0781 36.3196 84.0781 36.3196L85.4849 36.0516L87.6152 29.3525" fill="#FFCD84"/>
<path d="M88.634 27.1216C88.6271 26.9724 88.5624 26.8316 88.4537 26.7291C88.3449 26.6266 88.2006 26.5704 88.0512 26.5723C87.9006 26.5798 87.753 26.6174 87.6172 26.683C87.4814 26.7486 87.3602 26.8408 87.2607 26.9542C86.0817 28.1265 87.5622 30.9736 88.7278 29.5065" fill="#FFB288"/>
<path d="M96.5721 31.262C96.3845 31.7042 95.6409 31.8783 95.2323 31.9319C93.2226 32.153 91.6081 30.8735 89.7056 30.639C89.5226 30.5897 89.3313 30.5797 89.1443 30.6097C88.9572 30.6397 88.7786 30.7091 88.6203 30.8132C88.5062 30.9523 88.4213 31.113 88.3707 31.2856C88.32 31.4583 88.3047 31.6394 88.3256 31.8181C88.3016 32.2643 88.3016 32.7116 88.3256 33.1579C88.3431 33.5419 88.4461 33.9173 88.627 34.2565C89.4845 35.6834 92.345 35.9246 93.792 35.8375C94.3796 35.8337 94.9538 35.6617 95.4466 35.3418C96.1166 34.846 96.2371 34.0019 96.485 33.2316C96.6694 32.5912 96.6992 31.9162 96.5721 31.262Z" fill="#2B3352"/>
<path d="M95.1716 32.823C95.108 32.7799 95.034 32.7545 94.9573 32.7493C94.2333 32.6983 93.513 32.6043 92.8002 32.4679C92.6782 32.4475 92.5537 32.4475 92.4317 32.4679C92.3096 32.5197 92.2033 32.6026 92.1234 32.7085C92.0434 32.8143 91.9927 32.9392 91.9762 33.0708C91.9494 33.1887 91.9666 33.3124 92.0246 33.4185C92.0826 33.5246 92.1773 33.6058 92.2911 33.6469C92.7254 33.8492 93.1986 33.9544 93.6778 33.9551C94.125 34.0256 94.583 33.9429 94.9774 33.7206C95.1717 33.5733 95.4597 33.0306 95.1716 32.823Z" fill="#FFB288"/>
<path d="M86.4568 85.1288C63.4054 83.923 49.9805 95.8473 40.4477 117.492C28.0813 145.628 10.791 147.859 3 147.705" stroke="#009A59" stroke-width="5" stroke-linecap="round" stroke-linejoin="round"/>
<path d="M77.6138 87.0045C78.4579 97.1803 86.6709 102.674 93.2494 102.124L104.042 101.227L101.322 68.6089L90.5296 69.5066C83.9511 70.0559 76.763 76.8353 77.6138 87.0045Z" fill="#009A59"/>
<path d="M83.1739 86.5423C83.9979 96.4836 90.5429 104.047 97.818 103.444L109.722 102.446L106.721 66.4585L94.8169 67.45C87.5551 68.0596 82.3432 76.6076 83.1739 86.5423Z" fill="#006B3E"/>
<path d="M108.875 102.517C116.135 101.911 121.347 93.3649 120.518 83.4285C119.689 73.4922 113.132 65.9282 105.872 66.534C98.6126 67.1398 93.3997 75.6859 94.2288 85.6223C95.058 95.5587 101.615 103.123 108.875 102.517Z" fill="#00824B"/>
<path d="M106.808 90.9909C106.929 92.4714 108.041 93.5834 109.28 93.4762C110.519 93.369 111.437 92.0962 111.29 90.6157C111.142 89.1352 110.057 88.0299 108.818 88.1304C107.578 88.2309 106.681 89.5171 106.808 90.9909Z" fill="#006B3E"/>
<path d="M105.744 78.2422C105.864 79.716 106.976 80.828 108.222 80.7275C109.468 80.6271 110.373 79.3408 110.232 77.8603C110.091 76.3799 108.999 75.2745 107.753 75.375C106.507 75.4755 105.616 76.7617 105.744 78.2422Z" fill="#006B3E"/>
<path d="M108.369 79.9106L125.197 78.5105C125.688 78.4662 126.142 78.2305 126.46 77.8544C126.778 77.4784 126.936 76.9921 126.899 76.5008C126.88 76.2557 126.813 76.0167 126.702 75.7974C126.591 75.5782 126.438 75.383 126.251 75.2231C126.065 75.0631 125.848 74.9416 125.614 74.8654C125.381 74.7893 125.134 74.7599 124.889 74.7792L108.054 76.1793C106.768 76.2663 107.016 80.0245 108.369 79.9106Z" fill="#BCFFD5"/>
<path d="M109.434 92.6654L126.262 91.2586C126.754 91.2159 127.208 90.9807 127.527 90.6042C127.846 90.2278 128.003 89.7406 127.964 89.2489C127.945 89.0037 127.878 88.7647 127.767 88.5455C127.656 88.3262 127.503 88.131 127.316 87.9711C127.129 87.8112 126.913 87.6897 126.679 87.6135C126.445 87.5373 126.199 87.508 125.954 87.5272L109.126 88.9273C107.84 89.0144 108.074 92.7793 109.434 92.6654Z" fill="#BCFFD5"/>
<path d="M67.9677 55.8206C67.9677 55.8206 67.1303 64.3485 70.942 71.4428C74.2045 77.4719 80.6825 85.3567 85.9144 89.6843L87.1738 89.3761C85.3517 82.3823 79.6039 69.9489 79.2422 65.3198C78.8804 60.6908 78.9742 55.2712 78.8871 52.6787" fill="#FFB288"/>
<path d="M84.0248 36.3267C84.0248 36.3267 76.6559 36.7554 72.3752 39.9709C65.0062 45.5245 66.4599 60.4432 68.6036 67.7385C70.7473 75.0338 81.0437 85.98 84.3933 88.3381C84.9359 88.3381 86.537 88.2041 86.4834 86.9447C84.621 81.2572 79.3757 66.3183 79.3757 66.3183L80.2064 46.1341" fill="#C2FFD9"/>
<path d="M86.6641 88.3379C87.4898 88.4535 88.2669 88.7969 88.9083 89.3294C89.5246 89.8117 90.2481 90.6156 90.2012 90.984C90.1543 91.3525 89.1093 90.6223 88.9887 90.7763C88.8681 90.9304 90.7104 93.7172 90.3285 93.9249C89.9467 94.1326 88.4126 91.607 88.4126 91.607C88.4126 91.607 89.94 94.2866 89.3438 94.367C88.8547 94.4139 87.4948 91.8616 87.4948 91.8616C87.4948 91.8616 88.6404 94.146 88.2518 94.2331C87.8633 94.3201 86.7981 92.0425 86.7981 92.0425C86.7981 92.0425 87.6623 93.9852 87.3274 94.0187C86.653 93.477 86.1714 92.7323 85.954 91.8951C85.599 90.7428 85.1904 89.7447 85.5052 88.8403" fill="#FFB288"/>
<path d="M81.4527 72.2398L79.376 66.3179L80.9302 49.376" stroke="#70EB9E" stroke-width="0.5" stroke-miterlimit="10"/>
<path d="M66.9151 53.4761C66.8749 58.0649 67.4243 63.7256 68.6033 67.7384C69.635 71.2487 72.5557 75.6097 75.6775 79.4416" stroke="#70EB9E" stroke-width="0.5" stroke-miterlimit="10"/>
<path d="M225.113 28.5223L226.306 27.7117C226.508 26.6726 226.793 25.6512 227.156 24.6569C227.576 23.8963 228.128 23.2159 228.784 22.6472C229.079 22.4529 230.399 21.7027 230.734 22.0376C230.901 22.2051 230.339 23.699 230.064 23.9535C229.789 24.2081 229.052 25.3603 229.173 25.7221C229.293 26.0838 229.917 25.2933 230.064 25.146C230.211 24.9986 230.412 24.811 230.479 25.0053C230.6 25.3201 229.93 27.1289 229.407 27.6514C228.887 28.2032 228.195 28.5622 227.445 28.6697L225.596 30.2975" fill="#FFCF88"/>
<path d="M239.443 20.001C240.394 20.6273 241.208 21.44 241.836 22.39C242.463 23.3399 242.891 24.4074 243.094 25.5277C243.139 25.9291 243.287 26.312 243.523 26.6397C243.761 26.8545 244.039 27.0206 244.34 27.1288C245.149 27.5186 245.871 28.0669 246.464 28.7413C247.057 29.4157 247.508 30.2023 247.79 31.0544C248.038 31.7779 247.844 32.8029 248.132 33.4192C248.48 34.1762 249.76 34.3437 250.457 34.5714C251.497 34.9196 252.403 35.5844 253.048 36.4727C253.692 37.3609 254.043 38.4284 254.051 39.5259C254.059 40.6233 253.724 41.6958 253.093 42.5936C252.462 43.4913 251.566 44.1693 250.53 44.5329C250.789 44.9334 250.956 45.3857 251.021 45.8579C251.086 46.3301 251.046 46.8108 250.905 47.2661C250.613 48.1742 250.121 49.0052 249.465 49.6979C248.133 51.1497 246.498 52.2914 244.676 53.0426C242.854 53.7938 240.889 54.1362 238.921 54.0456C237.785 54.0154 236.663 53.7887 235.605 53.3757C234.435 52.8462 233.348 52.1513 232.376 51.3124C231.107 50.4172 230.06 49.2441 229.314 47.8824C228.645 46.4823 228.705 44.6468 229.81 43.5616C229.165 43.6632 228.504 43.5741 227.909 43.3051C227.314 43.0361 226.811 42.599 226.461 42.0476C226.123 41.4905 225.9 40.8721 225.803 40.2282C225.707 39.5843 225.739 38.9276 225.898 38.2961C226.227 37.0314 226.821 35.851 227.64 34.8327C228.265 34.1629 228.707 33.3441 228.926 32.4545C229.12 30.9405 228.256 29.5873 228.055 28.0867C227.713 25.7488 227.821 23.7324 229.824 22.493C230.493 20.825 231.244 19.5388 233.093 19.0497C234.16 18.7681 235.274 18.7073 236.366 18.8708C237.458 19.0344 238.505 19.4189 239.443 20.001Z" fill="#2B3352"/>
<path d="M234.62 37.7869C227.921 36.0318 220.29 38.7985 218.589 38.7918C220.92 36.4538 225.208 31.2554 226.688 29.46C226.725 29.1535 226.674 28.8427 226.542 28.5639C226.409 28.2852 226.199 28.05 225.938 27.8857C225.938 27.8857 207.609 37.3649 209.451 43.5414C211.374 50.006 229.328 46.8374 230.768 48.6863" fill="#C2FFD9"/>
<path d="M235.932 97.9375C235.932 98.4868 233.521 110.25 233.34 111.516C232.831 115.194 234.773 118.885 234.586 124.58C234.351 131.513 231.404 150.143 231.029 150.967C230.653 151.791 228.858 151.034 228.858 151.034C228.858 151.034 223.68 126.047 223.385 115.817C223.144 107.397 224.37 89.1685 224.37 89.1685" fill="#FFCF88"/>
<path d="M231.217 151.289C231.361 151.577 231.459 151.887 231.505 152.207L231.438 153.513H231.103L230.982 152.877C230.339 153.019 229.726 153.275 229.173 153.634C228.738 153.928 226.494 153.902 226.172 153.721C226.107 153.692 226.049 153.648 226.004 153.592C225.959 153.536 225.928 153.471 225.913 153.4C225.899 153.33 225.902 153.258 225.921 153.189C225.94 153.12 225.976 153.056 226.025 153.004C226.152 152.857 228.557 151.805 228.557 151.805" fill="#26387A"/>
<path d="M228.858 151.034C228.664 151.503 226.768 152.541 226.942 152.675C227.785 152.833 228.655 152.743 229.447 152.414C230.559 152.046 231.189 151.63 231.229 151.336L231.015 150.552" fill="#FFB288"/>
<path d="M252.539 98.4267C252.539 98.976 250.53 110.807 250.369 112.079C249.967 115.764 252.024 119.395 252.004 125.096C252.004 132.036 249.612 150.746 249.257 151.584C248.902 152.421 247.093 151.718 247.093 151.718C247.093 151.718 241.151 126.931 240.548 116.682C240.046 108.274 240.716 90.0127 240.716 90.0127" fill="#FFCF88"/>
<path d="M249.471 151.892C249.625 152.176 249.731 152.484 249.786 152.803C249.786 153.58 249.786 154.142 249.786 154.142H249.451L249.31 153.513C248.672 153.673 248.068 153.947 247.528 154.323C247.093 154.632 244.849 154.672 244.527 154.498C244.461 154.47 244.403 154.428 244.356 154.374C244.31 154.319 244.277 154.255 244.261 154.185C244.245 154.116 244.245 154.044 244.262 153.975C244.279 153.905 244.313 153.841 244.36 153.787C244.48 153.633 246.852 152.515 246.852 152.515" fill="#26387A"/>
<path d="M247.114 151.718C246.933 152.193 245.064 153.285 245.245 153.413C246.09 153.543 246.956 153.427 247.737 153.078C248.842 152.676 249.458 152.24 249.485 151.946L249.251 151.168" fill="#FFB288"/>
<path d="M246.511 68.1605C246.511 68.1605 251.823 71.6373 253.846 79.9843C256.559 91.2387 252.54 113.272 252.54 113.272C246.877 114.8 241.041 115.59 235.176 115.623C226.132 115.55 220.773 112.488 220.753 111.946C220.733 111.403 219.413 94.7155 221.242 83.4009C223.305 70.6727 228.564 67.2695 228.564 67.2695" fill="#15BE77"/>
<path d="M239.322 37.5725C240.14 37.2643 242.277 38.0146 246.276 39.542C248.031 41.4445 248.801 45.6114 249.183 49.2958C248.145 58.2726 246.986 63.1696 247.542 66.1975C247.676 66.9143 248.332 67.457 248.212 68.4551C247.991 70.5251 244.608 70.84 238.163 71.5702C231.719 72.3004 225.944 69.3796 226.293 68.4685C226.641 67.5574 227.733 66.7536 227.907 66.1506C228.081 65.5477 228.61 57.8572 227.907 56.9462C227.204 56.0351 225.415 53.4091 225.415 50.85C225.415 47.2526 227.425 45.6382 228.698 43.6619C230.855 40.366 232.496 38.3027 234.586 37.7869C237.969 36.9562 239.322 37.5725 239.322 37.5725Z" fill="#C2FFD9"/>
<path d="M228.496 42.1211C228.612 43.0984 228.418 44.0875 227.94 44.9481C227.699 45.35 226.239 46.8372 225.931 47.7818" stroke="#70EB9E" stroke-width="0.5" stroke-miterlimit="10"/>
<path d="M237.802 33.1914C239.557 31.4496 239.811 28.1403 239.034 25.9028C238.137 23.384 234.553 21.5015 232.081 23.0758C227.211 26.1708 232.134 38.8052 237.802 33.1914Z" fill="#FFCF88"/>
<path d="M234.452 32.8833L234.539 38.2425C234.539 38.2425 234.338 39.4417 236.448 39.5154C239.336 39.6158 239.336 37.5458 239.336 37.5458L237.661 31.999" fill="#FFCF88"/>
<path d="M236.623 20.6976C236.356 20.5072 236.037 20.401 235.709 20.3926C235.381 20.3843 235.058 20.4742 234.781 20.6507C234.453 20.9355 234.106 21.1974 233.743 21.4345C233.443 21.534 233.136 21.6102 232.825 21.6623C232.106 21.8624 231.438 22.214 230.866 22.6935C230.294 23.173 229.831 23.7693 229.509 24.4424C228.913 25.7822 229.107 27.9661 230.212 28.9241C230.178 27.7373 230.46 26.5629 231.029 25.521C231.147 25.2743 231.329 25.0641 231.557 24.9131C231.785 24.7621 232.049 24.6758 232.322 24.6635C232.925 24.7305 233.26 25.3803 233.696 25.809C234.41 26.3662 235.282 26.6848 236.188 26.7201C237.186 26.8675 237.95 27.0416 238.439 28.013C238.635 28.4418 238.784 28.8912 238.881 29.3528C239.031 29.8964 239.132 30.4525 239.182 31.0142C239.174 31.3634 239.21 31.7124 239.289 32.0525C239.435 32.3716 239.652 32.6536 239.922 32.8775C240.192 33.1014 240.51 33.2613 240.85 33.3455C241.359 33.5129 242.19 33.6737 242.532 33.0976C242.817 32.5652 243.016 31.9908 243.121 31.396C243.365 29.5463 242.924 27.6714 241.882 26.1239C240.81 24.4223 239.283 23.2835 237.909 21.8633C237.522 21.4317 237.091 21.0411 236.623 20.6976Z" fill="#252F54"/>
<path d="M237.976 28.9843C238.016 28.7727 238.116 28.5769 238.263 28.4193C238.41 28.2617 238.598 28.1487 238.806 28.0934C240.18 27.8857 239.972 29.9289 239.443 30.6524C239.128 31.0677 238.331 31.6171 237.976 30.4514" fill="#FFCF88"/>
<path d="M252.54 70.9134L251.87 72.2532C251.87 72.2532 249.431 72.836 249.19 73.2647C248.781 73.9347 248.172 74.8792 248.172 75.4084C248.172 75.9377 248.219 78.2823 248.889 78.2823C249.304 78.2823 250.289 76.3731 250.49 76.1051C250.965 75.4754 252.888 75.0199 252.888 73.3652L254.067 70.8799" fill="#FFCF88"/>
<path d="M239.322 37.5122C239.322 37.5122 244.996 36.0653 249.438 38.8521C252.888 41.0292 261.764 51.8616 261.764 58.0649C261.764 62.2451 253.464 72.6019 253.464 72.6019L252.084 71.6171C252.084 71.6171 252.888 63.4778 255.3 58.9894C253.518 57.2075 246.591 51.6807 244.836 49.939" fill="#C2FFD9"/>
<path d="M243.938 49.3696C245.178 50.4683 248.447 53.101 248.447 53.101" stroke="#70EB9E" stroke-width="0.5" stroke-miterlimit="10"/>
<path d="M76.4682 27.9057L69.6016 22.379C69.6016 22.379 72.6899 10.9906 68.6035 6.97117C66.3581 4.92306 63.7184 3.35474 60.846 2.36222C54.5288 -0.00254622 46.9856 -0.578665 41.3584 3.15271C37.205 5.91272 34.6594 10.6288 33.554 15.4857C32.5626 19.7597 32.643 24.6098 35.3159 28.0933C36.5627 29.6286 38.1285 30.8744 39.9047 31.7443C45.331 34.5914 59.6937 35.6632 65.9238 31.4897C67.6455 30.3308 67.4981 28.8034 68.2216 26.3247L76.4682 27.9057Z" fill="#CAFFDE"/>
<path d="M43.456 21.096C42.856 21.096 42.328 20.972 41.872 20.724C41.424 20.476 41.076 20.12 40.828 19.656C40.58 19.192 40.456 18.652 40.456 18.036C40.456 17.42 40.58 16.884 40.828 16.428C41.076 15.964 41.424 15.608 41.872 15.36C42.328 15.112 42.856 14.988 43.456 14.988C44.056 14.988 44.58 15.112 45.028 15.36C45.484 15.608 45.832 15.964 46.072 16.428C46.32 16.884 46.444 17.42 46.444 18.036C46.444 18.652 46.32 19.192 46.072 19.656C45.832 20.12 45.484 20.476 45.028 20.724C44.58 20.972 44.056 21.096 43.456 21.096ZM43.444 19.932C43.932 19.932 44.304 19.772 44.56 19.452C44.816 19.132 44.944 18.66 44.944 18.036C44.944 17.42 44.816 16.952 44.56 16.632C44.304 16.304 43.936 16.14 43.456 16.14C42.976 16.14 42.604 16.304 42.34 16.632C42.084 16.952 41.956 17.42 41.956 18.036C41.956 18.66 42.084 19.132 42.34 19.452C42.596 19.772 42.964 19.932 43.444 19.932ZM51.0543 14.988C51.5583 14.988 52.0063 15.116 52.3983 15.372C52.7983 15.628 53.1063 15.992 53.3223 16.464C53.5463 16.928 53.6583 17.464 53.6583 18.072C53.6583 18.68 53.5463 19.212 53.3223 19.668C53.1063 20.124 52.8023 20.476 52.4103 20.724C52.0183 20.972 51.5663 21.096 51.0543 21.096C50.6383 21.096 50.2663 21.008 49.9383 20.832C49.6103 20.656 49.3583 20.412 49.1823 20.1V22.548C49.1823 22.756 49.1143 22.92 48.9783 23.04C48.8423 23.16 48.6623 23.22 48.4383 23.22C48.2143 23.22 48.0303 23.156 47.8863 23.028C47.7503 22.9 47.6823 22.732 47.6823 22.524V15.72C47.6823 15.504 47.7463 15.332 47.8743 15.204C48.0103 15.076 48.1903 15.012 48.4143 15.012C48.6383 15.012 48.8183 15.076 48.9543 15.204C49.0903 15.332 49.1583 15.504 49.1583 15.72V16.02C49.3343 15.692 49.5863 15.44 49.9143 15.264C50.2503 15.08 50.6303 14.988 51.0543 14.988ZM50.6583 19.932C51.1303 19.932 51.4983 19.772 51.7623 19.452C52.0263 19.124 52.1583 18.664 52.1583 18.072C52.1583 17.464 52.0263 16.992 51.7623 16.656C51.4983 16.32 51.1303 16.152 50.6583 16.152C50.1783 16.152 49.8063 16.316 49.5423 16.644C49.2863 16.972 49.1583 17.44 49.1583 18.048C49.1583 18.648 49.2863 19.112 49.5423 19.44C49.8063 19.768 50.1783 19.932 50.6583 19.932ZM57.0134 21.096C56.1414 21.096 55.4374 20.924 54.9014 20.58C54.6454 20.428 54.5174 20.212 54.5174 19.932C54.5174 19.772 54.5614 19.644 54.6494 19.548C54.7374 19.444 54.8454 19.392 54.9734 19.392C55.1094 19.392 55.2974 19.456 55.5374 19.584C55.7934 19.704 56.0254 19.796 56.2334 19.86C56.4494 19.924 56.7214 19.956 57.0494 19.956C57.3854 19.956 57.6454 19.9 57.8294 19.788C58.0214 19.676 58.1174 19.52 58.1174 19.32C58.1174 19.184 58.0774 19.076 57.9974 18.996C57.9254 18.916 57.7894 18.844 57.5894 18.78C57.3974 18.708 57.1014 18.628 56.7014 18.54C55.9894 18.396 55.4774 18.192 55.1654 17.928C54.8614 17.664 54.7094 17.3 54.7094 16.836C54.7094 16.484 54.8134 16.168 55.0214 15.888C55.2294 15.6 55.5134 15.38 55.8734 15.228C56.2414 15.068 56.6574 14.988 57.1214 14.988C57.4574 14.988 57.7814 15.032 58.0934 15.12C58.4054 15.2 58.6854 15.32 58.9334 15.48C59.1894 15.64 59.3174 15.852 59.3174 16.116C59.3174 16.276 59.2734 16.412 59.1854 16.524C59.0974 16.628 58.9894 16.68 58.8614 16.68C58.7734 16.68 58.6854 16.664 58.5974 16.632C58.5174 16.592 58.4134 16.536 58.2854 16.464C58.0534 16.344 57.8534 16.256 57.6854 16.2C57.5174 16.136 57.3094 16.104 57.0614 16.104C56.7654 16.104 56.5294 16.164 56.3534 16.284C56.1854 16.404 56.1014 16.568 56.1014 16.776C56.1014 16.976 56.1894 17.128 56.3654 17.232C56.5414 17.336 56.8814 17.44 57.3854 17.544C57.9214 17.656 58.3414 17.784 58.6454 17.928C58.9494 18.072 59.1654 18.252 59.2934 18.468C59.4294 18.684 59.4974 18.96 59.4974 19.296C59.4974 19.84 59.2694 20.276 58.8134 20.604C58.3654 20.932 57.7654 21.096 57.0134 21.096ZM61.4216 18.552C61.3016 18.552 61.1976 18.512 61.1096 18.432C61.0296 18.352 60.9816 18.236 60.9656 18.084L60.5216 13.416L60.5096 13.296C60.5096 13.048 60.5936 12.852 60.7616 12.708C60.9376 12.556 61.1576 12.48 61.4216 12.48C61.7016 12.48 61.9296 12.568 62.1056 12.744C62.2816 12.912 62.3536 13.14 62.3216 13.428L61.8776 18.084C61.8616 18.236 61.8096 18.352 61.7216 18.432C61.6416 18.512 61.5416 18.552 61.4216 18.552ZM61.4216 21.072C61.1656 21.072 60.9536 20.988 60.7856 20.82C60.6176 20.644 60.5336 20.428 60.5336 20.172C60.5336 19.916 60.6176 19.704 60.7856 19.536C60.9536 19.36 61.1656 19.272 61.4216 19.272C61.6776 19.272 61.8896 19.36 62.0576 19.536C62.2256 19.704 62.3096 19.916 62.3096 20.172C62.3096 20.428 62.2256 20.644 62.0576 20.82C61.8896 20.988 61.6776 21.072 61.4216 21.072Z" fill="#53E88B"/>
</svg>
