<svg width="282" height="259" viewBox="0 0 282 259" fill="none" xmlns="http://www.w3.org/2000/svg">
    <defs>
        <linearGradient id="paint0_linear_874_3510" x1="217.286" y1="220.127" x2="155.222" y2="141.238" gradientUnits="userSpaceOnUse">
            <stop stop-color="#F6C3B9"/>
            <stop offset="1" stop-color="#EF7F7B"/>
        </linearGradient>
        <linearGradient id="paint1_linear_874_3510" x1="2886.66" y1="947.039" x2="3091.45" y2="509.566" gradientUnits="userSpaceOnUse">
            <stop stop-color="#F6C3B9"/>
            <stop offset="1" stop-color="#EF7F7B"/>
        </linearGradient>
        <linearGradient id="paint2_linear_874_3510" x1="8677.13" y1="3117.03" x2="12363.6" y2="2410.26" gradientUnits="userSpaceOnUse">
            <stop stop-color="#F6C3B9"/>
            <stop offset="1" stop-color="#EF7F7B"/>
        </linearGradient>
        <linearGradient id="paint3_linear_874_3510" x1="11308" y1="6323.18" x2="15787.7" y2="964.208" gradientUnits="userSpaceOnUse">
            <stop stop-color="#F6C3B9"/>
            <stop offset="1" stop-color="#EF7F7B"/>
        </linearGradient>
        <linearGradient id="paint4_linear_874_3510" x1="7101.4" y1="1186.14" x2="8038.21" y2="7.69772" gradientUnits="userSpaceOnUse">
            <stop stop-color="#F6C3B9"/>
            <stop offset="1" stop-color="#EF7F7B"/>
        </linearGradient>
        <linearGradient id="paint5_linear_874_3510" x1="3754.56" y1="1688.77" x2="3860.65" y2="4166.22" gradientUnits="userSpaceOnUse">
            <stop stop-color="#ED5770"/>
            <stop offset="1" stop-color="#F19083"/>
        </linearGradient>
        <linearGradient id="paint6_linear_874_3510" x1="3211.02" y1="1827.49" x2="331.37" y2="13051.9" gradientUnits="userSpaceOnUse">
            <stop stop-color="#F6C3B9"/>
            <stop offset="1" stop-color="#EF7F7B"/>
        </linearGradient>
    </defs>
<path d="M281.314 105.692C281.243 107.258 281.134 108.863 280.993 110.46C280.528 115.834 279.728 121.173 278.598 126.447C278.261 128.052 277.886 129.657 277.486 131.27C275.197 140.415 271.957 149.294 267.82 157.764C267.037 159.33 266.255 160.943 265.37 162.517C263.029 166.85 260.444 171.048 257.629 175.09C251.751 183.507 242.398 191.587 230.665 198.931C228.844 200.063 226.966 201.183 225.03 202.289C223.464 203.166 221.946 204.02 220.333 204.873C217.907 206.167 215.408 207.431 212.835 208.662C201.15 214.203 189.058 218.844 176.667 222.544C174.506 223.201 172.338 223.836 170.147 224.438C143.918 231.704 115.538 235.619 89.6536 234.499C87.9421 234.431 86.2384 234.335 84.5425 234.209C68.1058 233.066 52.804 229.786 39.9285 223.929C38.457 223.267 37.0169 222.562 35.608 221.816C18.3181 212.781 6.05318 198.563 2.24925 177.972C1.81876 175.623 1.46654 173.36 1.15346 171.129C0.902999 169.266 0.683843 167.433 0.519475 165.648C-0.395609 156.795 -0.100689 147.858 1.3961 139.084C1.70918 137.385 2.0614 135.733 2.47623 134.12C6.20126 118.626 15.6209 105.104 28.8611 96.2419C30.1526 95.3494 31.4832 94.5038 32.8529 93.6817C36.2248 91.6792 39.729 89.9083 43.3411 88.3813C45.3213 87.5436 47.3564 86.7607 49.4305 86.0325C59.5684 82.6101 70.079 80.4127 80.7386 79.4873C82.4762 79.3228 84.2216 79.1819 85.9905 79.0645C95.0252 78.5037 104.087 78.522 113.119 79.1193C114.684 79.2211 116.336 79.3385 117.956 79.4716C120.516 79.683 123.091 79.9414 125.681 80.2545C128.272 80.5677 130.847 80.7634 133.297 80.8887C134.962 80.9722 136.59 81.0192 138.181 81.0296C154.101 81.1549 166.155 77.6474 175.954 72.4801C177.421 71.7128 178.832 70.909 180.189 70.0686C184.545 67.366 188.675 64.3157 192.54 60.9475C193.722 59.9376 194.888 58.9119 195.999 57.8941C210.871 44.3652 221.735 30.4917 242.609 33.4825C243.59 33.6234 244.553 33.8035 245.497 34.0227C247.199 34.4167 248.869 34.9402 250.491 35.5885C271.295 43.9032 282.942 72.6367 281.314 105.692Z" fill="#E8FFF0"/>
<path d="M220.349 204.834C217.922 206.128 215.423 207.392 212.85 208.623C204.585 207.441 196.413 205.789 188.375 204.059C167.242 199.502 146.344 193.622 124.976 190.248C105.691 187.202 84.2132 185.55 66.1641 194.523C54.032 200.654 44.6637 211.143 39.9357 223.89C38.4643 223.228 37.0241 222.523 35.6152 221.777C41.1124 207.305 52.1243 195.606 66.2345 189.246C84.7298 181.111 105.604 182.489 125.102 185.48C146.501 188.76 167.367 194.625 188.5 199.22C198.863 201.475 209.579 203.675 220.349 204.834Z" fill="white"/>
<path d="M176.683 222.504C174.522 223.162 172.354 223.796 170.163 224.399C160.207 219.279 149.519 215.73 138.479 213.876C127.091 211.974 114.019 211.081 103.907 217.666C97.7393 221.682 93.0744 227.789 89.6696 234.459C87.9581 234.392 86.2544 234.295 84.5586 234.17C88.746 225.37 94.8433 217.172 103.343 212.42C115.006 205.937 129.556 207.315 142.158 209.719C154.289 212.057 165.953 216.377 176.683 222.504Z" fill="white"/>
<path d="M79.7994 131.607C79.502 147.093 70.2661 159.98 56.7253 166.995C49.3288 170.839 41.1418 172.883 32.8921 173.971C24.9477 175.012 16.8076 175.31 8.92575 173.635C6.25115 173.061 3.64558 172.203 1.15352 171.074C0.903055 169.211 0.683899 167.379 0.519531 165.594C5.76363 168.467 11.8922 169.72 17.8094 170.002C32.0076 170.699 47.9278 167.864 59.7544 159.612C65.2977 155.82 69.6395 150.519 72.2665 144.337C74.8935 138.155 75.6959 131.349 74.5788 124.725C72.4263 111.462 63.7227 100.392 52.6005 93.2358C49.6579 91.3413 46.5604 89.6991 43.3411 88.3268C45.3214 87.4891 47.3564 86.7061 49.4306 85.978C53.4715 88.0253 57.286 90.4921 60.8111 93.3375C72.3324 102.654 80.0812 116.536 79.7994 131.607Z" fill="white"/>
<path d="M33.3151 129.845C28.2745 137.291 19.3751 143.21 10.0688 142.082C6.99185 141.692 4.03452 140.645 1.39648 139.013C1.70957 137.314 2.06178 135.662 2.47661 134.05C5.82658 136.469 9.66964 137.909 14.1232 137.346C28.9945 135.474 37.0016 117.538 33.0881 104.236C32.2174 101.298 30.7817 98.5587 28.8615 96.1715C30.1529 95.279 31.4835 94.4334 32.8533 93.6113C35.8117 97.4208 37.7536 101.92 38.4965 106.686C39.7116 114.782 37.864 123.04 33.3151 129.845Z" fill="white"/>
<path d="M278.598 126.447C278.261 128.052 277.885 129.657 277.486 131.27C273.538 131.321 269.597 131.635 265.691 132.21C240.848 135.835 218.212 147.43 194.355 154.578C173.121 160.935 149.984 163.488 129.125 154.421C119.646 150.302 111.52 143.591 105.683 135.06C99.5858 126.213 95.8758 115.972 92.2598 105.935C89.1681 97.3225 85.6929 87.7473 80.6836 79.3935C82.4212 79.2291 84.1666 79.0881 85.9355 78.9707C91.07 88.1623 94.6 98.5439 98.0752 108.033C101.793 118.211 105.949 128.647 113.103 136.954C119.897 144.846 129.031 150.092 138.987 152.91C161.936 159.416 185.519 153.036 207.278 145.238C230.383 137.001 253.661 126.62 278.598 126.447Z" fill="white"/>
<path d="M212.695 104.008C212.397 112.918 210.628 122.016 206.261 129.845C197.948 144.767 180.283 151.367 163.877 148.291C146.4 145.01 132.421 131.849 124.32 116.527C118.128 104.783 114.974 92.0294 113.088 79.025C114.653 79.1268 116.305 79.2442 117.925 79.3773C119.937 92.7967 123.404 105.997 130.448 117.686C138.51 131.144 152.082 142.606 168.198 144.133C175.559 144.888 182.978 143.444 189.519 139.984C196.395 136.172 201.673 130.014 204.39 122.634C212.115 102.45 207.388 76.4413 192.493 60.8298C193.675 59.8198 194.841 58.7942 195.953 57.7764C201.421 63.3753 205.684 70.037 208.476 77.3495C211.636 85.8679 213.07 94.93 212.695 104.008Z" fill="white"/>
<path d="M281.314 105.691C281.243 107.257 281.134 108.862 280.993 110.459C278.465 110.553 275.929 110.506 273.416 110.405C268.132 110.28 262.889 109.434 257.833 107.891C252.804 106.361 248.25 103.568 244.605 99.7802C241.06 95.7488 238.555 90.9104 237.31 85.6875C235.975 80.1025 235.31 74.378 235.33 68.6354C235.128 62.1792 235.853 55.7274 237.482 49.4772C239.027 43.7905 241.747 38.4909 245.466 33.9204C247.168 34.3144 248.837 34.8379 250.46 35.4863C245.568 40.6536 242.539 47.5433 241.153 54.6523C240.163 60.2312 239.834 65.9076 240.175 71.5635C240.291 76.4177 241.012 81.2385 242.32 85.9146C243.572 90.4752 246.039 94.61 249.458 97.8777C252.888 100.838 256.983 102.925 261.394 103.961C265.929 105.074 270.578 105.652 275.248 105.683C277.259 105.738 279.287 105.762 281.314 105.691Z" fill="white"/>
<path d="M185.472 96.1953C181.77 105.59 171.469 111.071 161.842 112.418C156.59 113.161 151.557 112.167 147.401 108.777C143.535 105.645 140.819 101.018 138.627 96.6102C136.145 91.6005 134.342 86.2819 133.266 80.7951C134.93 80.8786 136.558 80.9256 138.15 80.936C139.216 85.9847 140.976 90.8616 143.378 95.428C145.311 99.1156 147.597 103.077 151.009 105.606C154.829 108.425 159.619 108.299 164.002 107.172C172.08 105.081 180.079 100.368 181.871 91.6308C183.312 84.5845 180.556 77.6321 175.923 72.41C177.389 71.6427 178.801 70.8389 180.157 69.9985C186.137 77.1232 188.994 87.2229 185.472 96.1953Z" fill="white"/>
<path d="M267.821 157.764C267.038 159.33 266.255 160.943 265.371 162.517C259.683 162.62 254.052 163.679 248.715 165.648C240.59 168.569 233.147 173.29 226.384 178.59C223.48 180.868 219.152 183.695 218.62 187.688C218.088 191.681 221.172 195 224.357 196.723C226.346 197.755 228.469 198.503 230.666 198.946C228.845 200.079 226.966 201.198 225.03 202.305C221.653 201.111 218.693 198.966 216.507 196.128C213.924 192.636 212.992 188.095 214.777 184.047C216.616 179.866 220.616 177.04 224.114 174.339C236.599 164.67 252.002 157.075 267.821 157.764Z" fill="white"/>
<path d="M215.068 18.5582H97.7883C95.7821 18.6005 93.8586 19.3659 92.3717 20.7138C90.8847 22.0616 89.9343 23.9012 89.6952 25.8942L72.7575 190.309C72.6367 191.237 72.7177 192.18 72.9952 193.075C73.2726 193.969 73.7398 194.792 74.3649 195.489C74.99 196.185 75.7582 196.739 76.6168 197.111C77.4755 197.483 78.4045 197.665 79.3401 197.645H196.62C198.627 197.604 200.551 196.839 202.039 195.491C203.526 194.143 204.476 192.302 204.713 190.309L221.651 25.8942C221.772 24.9659 221.691 24.0225 221.413 23.1285C221.136 22.2345 220.669 21.411 220.044 20.7144C219.418 20.0177 218.65 19.4644 217.792 19.0923C216.933 18.7201 216.004 18.5379 215.068 18.5582Z" fill="#75FFA9"/>
<path d="M211.081 18.9361H93.8011C91.7949 18.9784 89.8714 19.7439 88.3845 21.0917C86.8975 22.4396 85.9471 24.2792 85.708 26.2721L68.7782 190.687C68.6561 191.615 68.736 192.558 69.0124 193.452C69.2889 194.346 69.7554 195.17 70.3799 195.866C71.0044 196.563 71.7721 197.117 72.6305 197.489C73.4888 197.861 74.4175 198.043 75.3529 198.023H192.633C194.64 197.982 196.564 197.217 198.051 195.869C199.539 194.521 200.489 192.68 200.726 190.687L217.664 26.2721C217.785 25.3439 217.704 24.4005 217.426 23.5064C217.149 22.6124 216.681 21.7889 216.056 21.0923C215.431 20.3957 214.663 19.8423 213.804 19.4702C212.946 19.098 212.017 18.9158 211.081 18.9361Z" fill="#ACFFCB"/>
<path d="M82.7578 191.258L99.0615 32.9736H210.213L193.909 191.258H82.7578Z" fill="#B1FFCF"/>
<path d="M79.4941 187.617L95.7978 29.3408H206.949L190.646 187.617H79.4941Z" fill="white"/>
<path d="M184.173 80.0279H102.075C101.839 80.0332 101.603 79.9873 101.386 79.8933C101.169 79.7993 100.974 79.6594 100.816 79.4832C100.657 79.3069 100.539 79.0986 100.469 78.8723C100.398 78.6461 100.378 78.4073 100.408 78.1723C100.475 77.6724 100.719 77.2131 101.095 76.8771C101.471 76.5411 101.955 76.3507 102.459 76.3403H184.549C184.786 76.3349 185.021 76.3808 185.238 76.4748C185.456 76.5688 185.65 76.7088 185.808 76.885C185.967 77.0612 186.085 77.2696 186.155 77.4958C186.226 77.7221 186.246 77.9608 186.216 78.1958C186.149 78.6944 185.907 79.1527 185.532 79.4885C185.158 79.8243 184.676 80.0156 184.173 80.0279Z" fill="#B1FFCF"/>
<path d="M182.851 92.8438H100.753C100.516 92.8492 100.281 92.8033 100.064 92.7093C99.8463 92.6153 99.6518 92.4754 99.4934 92.2991C99.3351 92.1229 99.2167 91.9145 99.1464 91.6883C99.0761 91.462 99.0554 91.2233 99.086 90.9883C99.1479 90.4842 99.3892 90.0192 99.7658 89.6785C100.142 89.3377 100.629 89.144 101.137 89.1328H183.234C183.471 89.1272 183.706 89.1731 183.923 89.2672C184.14 89.3612 184.334 89.5013 184.492 89.6777C184.649 89.8541 184.767 90.0626 184.836 90.2889C184.906 90.5152 184.925 90.7538 184.894 90.9883C184.835 91.4924 184.596 91.9582 184.22 92.2994C183.844 92.6405 183.358 92.834 182.851 92.8438Z" fill="#B1FFCF"/>
<path d="M143.668 105.66H99.4222C99.1856 105.666 98.9507 105.62 98.7336 105.526C98.5165 105.432 98.3224 105.292 98.1647 105.115C98.0069 104.939 97.8893 104.73 97.8199 104.504C97.7506 104.278 97.7311 104.039 97.7629 103.805C97.8214 103.301 98.0607 102.835 98.4363 102.494C98.8119 102.152 99.2984 101.959 99.8057 101.949H144.036C144.273 101.944 144.508 101.99 144.726 102.084C144.943 102.178 145.138 102.318 145.296 102.494C145.454 102.67 145.573 102.878 145.643 103.105C145.713 103.331 145.734 103.57 145.703 103.805C145.645 104.307 145.407 104.772 145.033 105.113C144.659 105.454 144.174 105.649 143.668 105.66Z" fill="#B1FFCF"/>
<path d="M179.195 128.35H97.0734C96.8366 128.356 96.6015 128.31 96.384 128.216C96.1666 128.122 95.9721 127.982 95.8137 127.805C95.6554 127.629 95.537 127.421 95.4667 127.195C95.3964 126.968 95.3758 126.73 95.4063 126.495C95.4682 125.99 95.7095 125.526 96.0861 125.185C96.4627 124.844 96.9493 124.65 97.457 124.639H179.57C179.807 124.634 180.042 124.68 180.26 124.774C180.477 124.868 180.672 125.008 180.83 125.184C180.988 125.36 181.107 125.568 181.177 125.795C181.247 126.021 181.268 126.26 181.237 126.495C181.177 126.998 180.937 127.463 180.562 127.804C180.187 128.145 179.701 128.339 179.195 128.35Z" fill="#B1FFCF"/>
<path d="M177.871 141.167H95.7737C95.5372 141.172 95.3023 141.126 95.0852 141.032C94.8681 140.938 94.674 140.798 94.5162 140.622C94.3585 140.445 94.2409 140.237 94.1715 140.01C94.1021 139.784 94.0827 139.546 94.1144 139.311C94.173 138.807 94.4123 138.341 94.7879 138C95.1635 137.659 95.65 137.465 96.1573 137.456H178.255C178.491 137.45 178.726 137.496 178.943 137.59C179.161 137.684 179.355 137.824 179.512 138C179.67 138.177 179.788 138.385 179.857 138.612C179.926 138.838 179.946 139.077 179.914 139.311C179.856 139.815 179.616 140.281 179.241 140.622C178.865 140.963 178.379 141.157 177.871 141.167Z" fill="#B1FFCF"/>
<path d="M138.691 153.982H94.4523C94.2161 153.987 93.9819 153.94 93.7654 153.845C93.5489 153.751 93.3554 153.611 93.1979 153.435C93.0404 153.259 92.9228 153.051 92.8529 152.825C92.783 152.599 92.7626 152.361 92.793 152.127C92.8516 151.623 93.0908 151.157 93.4664 150.816C93.8421 150.475 94.3286 150.281 94.8358 150.271H139.074C139.31 150.267 139.545 150.314 139.761 150.408C139.978 150.503 140.171 150.643 140.329 150.819C140.486 150.995 140.604 151.203 140.674 151.429C140.743 151.654 140.764 151.893 140.733 152.127C140.675 152.631 140.436 153.097 140.06 153.438C139.684 153.779 139.198 153.972 138.691 153.982Z" fill="#B1FFCF"/>
<path d="M168.252 35.6276H133.202C132.554 35.6409 131.91 35.514 131.314 35.2555C130.719 34.997 130.187 34.6131 129.754 34.13C129.321 33.6468 128.997 33.0759 128.804 32.456C128.612 31.8362 128.556 31.1822 128.639 30.5386L130.251 14.88C130.417 13.4991 131.075 12.2243 132.104 11.2894C133.134 10.3546 134.466 9.82259 135.856 9.79101H170.913C171.561 9.77755 172.205 9.90443 172.8 10.163C173.394 10.4215 173.926 10.8056 174.359 11.2889C174.792 11.7722 175.115 12.3433 175.306 12.9631C175.498 13.583 175.553 14.2369 175.468 14.88L173.903 30.5386C173.736 31.9273 173.072 33.2085 172.032 34.1444C170.993 35.0802 169.65 35.6072 168.252 35.6276Z" fill="#15BE77"/>
<path d="M234.14 56.8914C227.925 56.6018 227.691 69.3556 228.661 79.0091C229.632 88.6626 225.742 99.835 242.852 101.119C259.961 102.403 266.333 111.219 276.57 105.104C286.808 98.9894 280.609 86.2199 273.839 83.9651C267.068 81.7102 259.633 73.6931 257.926 66.9442C256.22 60.1954 250.099 52.6949 242.272 52.8515C234.445 53.0081 234.14 56.8914 234.14 56.8914Z" fill="#292858"/>
<path d="M223.026 208.412L226.939 210.486C227.114 210.58 227.268 210.708 227.391 210.863C227.515 211.018 227.607 211.196 227.66 211.386C227.713 211.577 227.728 211.777 227.702 211.973C227.676 212.17 227.611 212.359 227.511 212.53L210.064 242.281C209.897 242.567 209.639 242.788 209.331 242.909C209.023 243.03 208.684 243.043 208.367 242.947C208.051 242.851 207.776 242.652 207.587 242.38C207.397 242.109 207.305 241.781 207.325 241.451L208.108 227.413L212.992 226.975L223.026 208.412Z" fill="#28A959"/>
<path d="M217.719 205.562L223.026 208.411L212.952 226.967L208.068 227.405L208.835 213.485L217.719 205.562Z" fill="url(#paint0_linear_874_3510)"/>
<path d="M207.168 161.584L200.406 167.378L204.045 174.918C209.43 186.114 218.917 205.937 219.05 206.83C219.214 208.075 209.016 214.753 208.616 214.409C208.397 214.221 198.942 199.533 190.34 186.184C186.356 179.983 182.56 174.064 179.938 169.993C178.952 168.455 178.53 166.622 178.744 164.807C178.958 162.993 179.795 161.308 181.112 160.042L214.768 127.692L226.853 124.646L242.562 131.246L216.623 153.489L207.168 161.584Z" fill="#391A62"/>
<path d="M219.049 206.831C219.214 208.075 209.015 214.754 208.616 214.409C208.397 214.221 198.942 199.534 190.34 186.185C195.693 183.502 200.377 179.652 204.045 174.918C209.43 186.114 218.932 205.938 219.049 206.831Z" fill="#220D44"/>
<path d="M186.936 246.807L186.678 251.199C186.666 251.393 186.616 251.582 186.531 251.756C186.446 251.93 186.327 252.085 186.182 252.213C186.036 252.341 185.867 252.439 185.683 252.502C185.5 252.564 185.306 252.59 185.113 252.577L150.791 249.218C150.461 249.19 150.15 249.051 149.909 248.823C149.668 248.595 149.512 248.293 149.466 247.964C149.419 247.636 149.486 247.302 149.654 247.016C149.822 246.73 150.082 246.51 150.392 246.392L163.455 241.201L165.905 245.452L186.936 246.807Z" fill="#28A959"/>
<path d="M187.288 240.794L186.936 246.807L165.866 245.452L163.416 241.201L176.378 236.057L187.288 240.794Z" fill="#F5C0B7"/>
<path d="M229.349 129.234C229.349 129.234 175.155 234.546 175.046 235.712C174.936 236.879 187.866 243.009 187.866 243.009C187.866 243.009 242.264 156.277 246.005 149.097C248.237 144.732 248.916 139.737 247.931 134.934" fill="#391A62"/>
<path d="M216.615 153.489L207.168 161.584C208.874 156.104 211.817 146.92 212.647 146.333C213.696 145.581 216.106 152.048 216.615 153.489Z" fill="#220D44"/>
<path d="M271.882 108.479L269.041 114.163L262.271 114.422L260.267 110.186C260.267 110.186 251.266 135.122 249.309 138.41C247.353 141.699 239.549 135.122 232.215 132.93L230.564 132.445C223.472 130.44 214.91 128.616 214.73 127.692C214.55 126.768 216.295 124.936 218.792 120.004C220.304 116.876 220.828 113.361 220.295 109.928C220.295 109.928 219.199 110.898 217.602 112.276C217.05 110.596 216.353 108.967 215.52 107.407C214.257 105.04 212.743 102.817 211.004 100.775C213.172 98.4263 215.45 96.0776 217.367 94.4177C221.844 90.5031 230.47 87.2148 237.021 86.1657C238.548 85.8984 240.098 85.7882 241.647 85.8369C244.503 85.9651 247.344 86.3318 250.139 86.933C254.555 87.8891 258.785 89.5605 262.662 91.8811C269.949 96.242 271.882 108.479 271.882 108.479Z" fill="#15BE77"/>
<path d="M250.17 86.9408C249.324 90.2056 246.405 93.9245 241.098 93.3451C235.11 92.6875 236.089 88.4518 237.052 86.1735C238.578 85.9062 240.128 85.796 241.677 85.8447C244.534 85.973 247.374 86.3396 250.17 86.9408Z" fill="white"/>
<path d="M185.738 101.213C181.66 100.587 176.619 95.4354 176.619 95.4354C176.619 95.4354 181.566 88.5221 183.922 90.6125L186.27 92.6951L187.663 97.0482" fill="url(#paint1_linear_874_3510)"/>
<path d="M182.982 61.3252L160.789 70.1864C158.938 70.9254 158.036 73.0252 158.775 74.8765L167.634 97.0761C168.373 98.9274 170.472 99.8291 172.323 99.0902L194.516 90.2289C196.367 89.49 197.268 87.3901 196.529 85.5388L187.671 63.3392C186.932 61.4879 184.833 60.5862 182.982 61.3252Z" fill="#15BE77"/>
<path d="M173.113 81.7661L178.146 83.2223L180.408 75.3931" stroke="white" stroke-width="2.35194" stroke-linecap="round" stroke-linejoin="round"/>
<path d="M217.609 112.284C214.46 114.954 211.17 117.455 207.755 119.776C204.28 122.125 200.382 123.691 196.993 118.79C193.604 113.889 185.746 101.565 185.746 101.565L185.088 95.4584C184.762 93.8335 184.547 92.1881 184.446 90.5338C184.392 89.0854 184.532 87.8484 185.159 87.6996C186.09 87.4804 186.826 89.3594 187.35 91.1993C187.718 92.4676 187.984 93.7203 188.133 94.2057C188.532 95.4036 202.949 109.997 202.949 109.997C202.949 109.997 206.777 105.37 211.003 100.806C213.927 104.168 216.17 108.066 217.609 112.284Z" fill="url(#paint2_linear_874_3510)"/>
<path d="M262.27 114.421C262.27 114.421 266.629 126.353 266.52 126.549C266.41 126.745 256.76 140.485 255.813 140.43C254.865 140.375 249.41 140.477 248.721 141.409C248.032 142.341 253.793 143.664 253.793 143.664C253.793 143.664 250.201 148.526 247.406 149.747C244.612 150.968 249.754 154.445 254.498 152.158C259.241 149.872 261.338 144.541 261.338 144.541C261.338 144.541 277.094 131.928 278.182 128.686C279.27 125.445 271.874 108.479 271.874 108.479C271.874 108.479 269.807 111.838 262.27 114.421Z" fill="url(#paint3_linear_874_3510)"/>
<path d="M227.424 99.0449C222.243 102.075 220.568 103.97 220.325 109.959C220.325 109.959 219.229 110.93 217.633 112.308C217.081 110.627 216.384 108.998 215.551 107.438C219.042 104.94 220.803 99.8278 227.424 99.0449Z" fill="#0FA063"/>
<path d="M260.266 110.186C260.266 110.186 251.265 135.122 249.308 138.411C247.351 141.699 239.548 135.122 232.214 132.93L230.562 132.445C234.813 132.343 240.409 131.904 244.542 130.472C252.204 127.818 253.942 112.355 260.266 110.186Z" fill="#0FA063"/>
<path d="M247.391 86.7216C247.61 88.8433 243.744 91.2704 240.793 90.965C237.842 90.6597 238.844 87.9977 238.813 87.1522C238.813 87.0269 238.813 86.839 238.813 86.6041C238.75 85.187 238.609 82.1101 238.609 82.1101L246.679 76.9741C246.679 76.9741 246.726 78.2503 246.906 80.74C246.992 82.2745 247.156 84.271 247.391 86.7216Z" fill="#FAAB9C"/>
<path d="M246.656 76.9741C246.656 76.9741 246.703 78.2503 246.883 80.74C245.889 83.2454 243.306 86.0013 238.789 86.6041C238.727 85.187 238.586 82.1101 238.586 82.1101L246.656 76.9741Z" fill="#F99987"/>
<path d="M235.478 60.1021C236.511 67.4772 248.698 67.8295 248.698 67.8295C248.698 67.8295 248.268 72.1748 248.604 72.8324C248.941 73.4901 249.927 69.9669 251.962 70.2566C253.997 70.5463 254.999 73.8894 252.862 75.1812C250.725 76.473 249.629 75.6432 249.629 75.6432C249.629 75.6432 246.029 83.1984 238.985 82.7521C231.94 82.3059 231.94 73.9677 233.052 69.1527C234.163 64.3377 235.478 60.1021 235.478 60.1021Z" fill="url(#paint4_linear_874_3510)"/>
<path d="M251.212 74.6406C249.74 74.1395 250.656 71.6185 251.838 71.9551C253.02 72.2918 252.433 73.5836 252.433 73.5836" stroke="#EF7F7B" stroke-width="0.470387" stroke-linecap="round" stroke-linejoin="round"/>
<path d="M239.383 70.9849L237.818 73.3336C237.752 73.4325 237.708 73.544 237.687 73.6609C237.666 73.7779 237.67 73.8979 237.698 74.0133C237.726 74.1287 237.777 74.2371 237.849 74.3317C237.921 74.4263 238.012 74.505 238.115 74.5628L238.984 75.0561" stroke="#EF7F7B" stroke-width="0.470387" stroke-linecap="round" stroke-linejoin="round"/>
<path d="M246.139 73.0197C246.183 73.6013 246.053 74.1828 245.766 74.6904C245.478 75.198 245.047 75.6088 244.526 75.8706C244.005 76.1325 243.418 76.2336 242.839 76.1612C242.261 76.0888 241.717 75.8461 241.276 75.4639C240.836 75.0817 240.519 74.5772 240.365 74.0145C240.212 73.4517 240.229 72.8561 240.415 72.3032C240.6 71.7502 240.946 71.2649 241.408 70.9088C241.87 70.5527 242.427 70.3418 243.009 70.3029C243.783 70.2512 244.547 70.5077 245.133 71.0165C245.72 71.5254 246.081 72.2454 246.139 73.0197V73.0197Z" stroke="white" stroke-width="0.470387" stroke-miterlimit="10"/>
<path d="M238.022 70.4518C238.067 71.0337 237.938 71.6158 237.652 72.1243C237.366 72.6329 236.935 73.0448 236.414 73.3079C235.893 73.5709 235.306 73.6733 234.727 73.6018C234.148 73.5303 233.603 73.2884 233.162 72.9066C232.721 72.5248 232.403 72.0204 232.249 71.4576C232.095 70.8947 232.112 70.2988 232.297 69.7454C232.482 69.192 232.828 68.7062 233.289 68.3497C233.751 67.9931 234.309 67.7819 234.891 67.7429C235.664 67.6911 236.427 67.9465 237.013 68.4537C237.599 68.9609 237.962 69.6789 238.022 70.4518V70.4518Z" stroke="white" stroke-width="0.470387" stroke-miterlimit="10"/>
<path d="M238.039 70.6792L240.802 71.5404" stroke="white" stroke-width="0.470387" stroke-miterlimit="10"/>
<path d="M246.115 72.8009L248.988 72.2842" stroke="white" stroke-width="0.470387" stroke-miterlimit="10"/>
<path d="M243.532 72.8474C243.542 72.987 243.511 73.1265 243.442 73.2485C243.373 73.3704 243.27 73.4694 243.145 73.5331C243.021 73.5967 242.88 73.6222 242.741 73.6064C242.602 73.5906 242.471 73.5341 242.364 73.444C242.256 73.354 242.178 73.2343 242.138 73.1001C242.099 72.9658 242.1 72.8228 242.141 72.689C242.182 72.5552 242.262 72.4364 242.37 72.3476C242.478 72.2589 242.61 72.2039 242.749 72.1897C242.844 72.18 242.94 72.1895 243.031 72.2175C243.122 72.2456 243.207 72.2916 243.28 72.353C243.353 72.4143 243.413 72.4897 243.456 72.5746C243.499 72.6595 243.525 72.7523 243.532 72.8474Z" fill="black"/>
<path d="M235.862 70.2408C235.871 70.335 235.862 70.4303 235.835 70.5209C235.807 70.6116 235.762 70.6958 235.701 70.7687C235.641 70.8416 235.566 70.9017 235.482 70.9455C235.398 70.9893 235.307 71.0159 235.212 71.0237C235.118 71.0323 235.022 71.0221 234.931 70.9936C234.841 70.9652 234.757 70.919 234.684 70.8579C234.611 70.7968 234.551 70.7218 234.508 70.6374C234.464 70.553 234.437 70.4608 234.429 70.3661C234.42 70.2712 234.429 70.1754 234.457 70.0842C234.485 69.9931 234.531 69.9085 234.593 69.8355C234.654 69.7625 234.729 69.7025 234.814 69.6592C234.899 69.6158 234.992 69.59 235.087 69.5831C235.182 69.5723 235.277 69.581 235.369 69.6087C235.46 69.6364 235.544 69.6825 235.617 69.7441C235.689 69.8057 235.749 69.8816 235.791 69.967C235.833 70.0525 235.857 70.1456 235.862 70.2408Z" fill="black"/>
<path d="M238.117 77.6948C238.547 77.9973 239.057 78.1649 239.583 78.176C240.109 78.1872 240.626 78.0414 241.068 77.7575" stroke="#EF7F7B" stroke-width="0.470387" stroke-linecap="round" stroke-linejoin="round"/>
<path d="M242.656 69.0111C243.173 68.8821 243.715 68.8955 244.225 69.0499C244.735 69.2043 245.194 69.4939 245.552 69.8879" stroke="#5B226C" stroke-width="0.470387" stroke-linecap="round" stroke-linejoin="round"/>
<path d="M237.818 67.281C237.4 66.9516 236.901 66.7407 236.374 66.6705C235.846 66.6002 235.31 66.6732 234.82 66.8817" stroke="#5B226C" stroke-width="0.470387" stroke-linecap="round" stroke-linejoin="round"/>
<path d="M94.1378 73.6151H80.7849V86.9327L66.4067 72.5503L57.9848 64.1182L56.6855 62.8186L57.9848 61.7851L64.1212 56.8761L64.1369 56.8918L70.0228 49.501L82.9922 62.4741L94.1378 73.6151Z" fill="#ED5770"/>
<path d="M59.2843 62.8186L57.9851 64.1182L49.5554 72.5503L35.1771 86.9327V73.6151H21.8242L32.9699 62.4741L45.9393 49.501L51.833 56.8918L51.8408 56.8761L57.9851 61.7851L59.2843 62.8186Z" fill="#FF2449"/>
<path d="M82.9854 62.4741C78.5724 67.3929 72.8052 70.8983 66.4077 72.5503L57.9859 64.1182L49.5562 72.5503C43.1575 70.8958 37.3885 67.3909 32.9707 62.4741L45.9401 49.501L51.8338 56.8918L57.978 61.8008L64.1144 56.8918L70.0082 49.501L82.9854 62.4741Z" fill="url(#paint5_linear_874_3510)"/>
<path d="M80.4068 59.9399C91.4382 48.9053 91.4382 31.0147 80.4068 19.9801C69.3754 8.94548 51.4899 8.94547 40.4585 19.9801C29.4271 31.0147 29.4271 48.9053 40.4585 59.9399C51.4899 70.9744 69.3754 70.9744 80.4068 59.9399Z" fill="#FF9A03"/>
<path d="M85.4715 46.4493C89.0552 31.2613 79.6516 16.0431 64.468 12.4584C49.2844 8.87373 34.0705 18.28 30.4868 33.468C26.9032 48.656 36.3068 63.8742 51.4904 67.4589C66.674 71.0436 81.8879 61.6373 85.4715 46.4493Z" fill="#FFCE45"/>
<path d="M74.6004 43.882C76.7671 34.6994 71.0817 25.4984 61.9017 23.3311C52.7217 21.1638 43.5234 26.8509 41.3567 36.0335C39.19 45.2162 44.8755 54.4171 54.0554 56.5844C63.2354 58.7517 72.4337 53.0646 74.6004 43.882Z" fill="#FF9A03"/>
<path d="M59.6561 52.3699C57.6753 52.3138 55.3314 52.1335 52.1155 52.4615C52.1155 52.4615 51.9894 52.4744 52.0047 52.3115C53.0649 36.7827 53.2349 34.7007 53.2316 34.6688C53.1594 30.8371 51.1664 31.9114 51.5232 31.0363C51.9832 29.9248 54.1545 28.4129 56.0147 28.2232C58.4739 27.9724 60.5785 29.2417 60.3191 32.9459C60.1476 35.1626 59.6817 41.692 59.37 46.1492C59.3653 46.2159 59.3751 46.2828 59.3988 46.3453C59.4224 46.4078 59.4592 46.4643 59.5067 46.5109C59.5541 46.5576 59.6111 46.5931 59.6735 46.6151C59.7359 46.6371 59.8023 46.645 59.868 46.6383C66.4889 45.963 65.8531 44.4147 66.3717 44.8135C66.7826 45.0941 67.0401 45.7454 67.0672 46.3233C67.2644 50.7552 63.2079 52.5239 59.6561 52.3699Z" fill="#FFCE45"/>
<path d="M67.1895 250.188L67.4947 256.334C67.5098 256.628 67.6334 256.906 67.8416 257.115C68.0498 257.323 68.3278 257.447 68.6218 257.462L95.7502 258.714C96.0047 258.728 96.2569 258.66 96.4697 258.52C96.6825 258.38 96.8447 258.175 96.9324 257.935C97.02 257.696 97.0285 257.435 96.9566 257.19C96.8847 256.946 96.7362 256.731 96.5329 256.577L81.1763 245.021L67.1895 250.188Z" fill="#28A959"/>
<path d="M83.3443 245.358L79.6812 246.595L66.9701 250.893L23.0449 144.83H51.0422L51.8562 160.356L52.545 162.211L83.3443 245.358Z" fill="#391A62"/>
<path d="M83.3445 245.358L79.6815 246.595L56.7327 208.263L63.6987 195.188L43.959 161.789L52.5452 162.211L83.3445 245.358Z" fill="#220D44"/>
<path d="M62.7056 139.311L92.597 164.364C94.0348 165.566 95.0326 167.212 95.4336 169.043C95.8345 170.874 95.6159 172.786 94.812 174.48L76.5751 212.882L61.2498 204.09L74.3287 175.247L49.1962 164.873H41.0248L39.2637 140.743" fill="#391A62"/>
<path d="M61.2494 204.09L56.7332 208.263C56.5249 208.463 56.3959 208.732 56.3701 209.019C56.3442 209.307 56.4231 209.595 56.5924 209.829L73.0291 231.453C73.1839 231.653 73.3983 231.798 73.6412 231.868C73.8841 231.938 74.1429 231.928 74.3801 231.841C74.6173 231.754 74.8206 231.593 74.9604 231.383C75.1003 231.172 75.1695 230.923 75.1581 230.67L74.1875 211.473L61.2494 204.09Z" fill="#28A959"/>
<path d="M66.0309 140.399C66.1561 142.176 62.9001 151.164 53.3511 152.252C51.8875 152.425 50.2203 152.573 48.4436 152.699C38.652 153.364 25.4165 153.004 23.1154 148.166C20.3916 142.442 19.8202 127.027 18.6226 114.789C17.4251 102.552 18.6226 91.8653 21.1977 87.935C22.9522 85.3273 24.8656 82.8302 26.9271 80.458L35.1377 82.3605C35.1377 82.3605 35.0594 89.8844 39.3408 90.8788C44.2953 91.8966 48.381 93.3293 52.0597 93.3293C53.6251 93.3293 58.0786 90.6752 62.7044 87.6218C66.1377 90.5651 68.5946 94.4836 69.7487 98.8568C62.767 104.439 55.9184 109.473 55.9184 109.473C55.2609 117.107 65.9135 138.629 66.0309 140.399Z" fill="#15BE77"/>
<path d="M88.5968 58.1837C88.5968 58.1837 86.0374 80.4188 84.4093 85.085C83.6266 87.4338 76.6215 93.3919 69.7728 98.8567C68.6187 94.4835 66.1618 90.5651 62.7285 87.6217C68.9901 83.4644 75.5413 78.5789 75.5413 78.5789L80.441 56.5473C80.441 56.5473 77.6859 47.5515 78.8756 46.5337C80.0654 45.5159 80.7698 47.6611 81.2238 48.6241C81.8863 49.7766 82.6181 50.8878 83.4153 51.9516C84.7744 49.7591 85.97 47.4694 86.9923 45.1009C87.775 42.7522 87.775 36.7784 88.6281 37.2325C89.4813 37.6866 92.1503 42.7522 92.7138 46.1736C93.2774 49.5949 88.5968 58.1837 88.5968 58.1837Z" fill="url(#paint6_linear_874_3510)"/>
<path d="M46.3395 78.7355C46.3395 78.7355 46.4961 82.7676 45.8308 84.5057C45.1655 86.2438 41.025 86.5178 41.025 86.5178C40.907 87.5835 40.8652 88.6562 40.8998 89.7278C40.9077 90.165 40.939 90.6014 40.9937 91.0353C41.0668 91.5655 40.9862 92.1057 40.7615 92.5914C40.5367 93.0772 40.1772 93.4882 39.7257 93.7755C36.2036 95.9521 31.116 94.6759 30.8107 92.0374C30.9125 88.4595 30.709 82.9398 30.709 82.9398L33.9807 68.534L45.5177 67.4927C45.5612 69.6288 45.7154 71.7612 45.9795 73.8814C46.2926 75.1027 47.9754 76.4337 47.9754 76.9504C47.9754 77.4672 46.3395 78.7355 46.3395 78.7355Z" fill="#FCB3A5"/>
<path d="M41.9943 70.5072C41.9943 70.5072 41.689 77.8667 41.0237 77.5535C40.3584 77.2403 39.701 73.2631 37.1963 74.641C34.6917 76.019 35.717 81.4446 39.1531 80.7244C39.1531 84.3571 28.3283 89.9237 24.2817 87.4732C20.2352 85.0226 24.6966 80.4738 24.6966 80.4738C24.6966 80.4738 20.3995 76.8958 21.2683 73.9285C21.4798 73.1028 21.9098 72.3493 22.513 71.7472C23.1163 71.1452 23.8706 70.7168 24.6966 70.5072C24.6966 70.5072 21.9336 65.8096 24.5948 62.9989C27.256 60.1882 31.8583 61.8088 35.6857 60.838C39.5131 59.8672 43.998 54.5198 48.9916 59.3191C53.9853 64.1185 41.9943 70.5072 41.9943 70.5072Z" fill="#292858"/>
<path d="M36.9395 77.1226C37.91 75.7212 40.2894 76.7155 38.7788 79.6045" stroke="#EF7F7B" stroke-width="0.511163" stroke-linecap="round" stroke-linejoin="round"/>
<path d="M40.8994 89.7593C38.0425 89.0468 35.1309 86.1108 35.1309 86.1108C37.078 86.4363 39.0508 86.583 41.0246 86.5493C40.9066 87.6149 40.8648 88.6877 40.8994 89.7593Z" fill="#F99987"/>
<path d="M44.86 75.1103C44.86 75.2451 44.82 75.3768 44.7452 75.4888C44.6704 75.6008 44.564 75.6881 44.4396 75.7396C44.3152 75.7912 44.1782 75.8047 44.0462 75.7784C43.9141 75.7521 43.7927 75.6872 43.6975 75.592C43.6023 75.4967 43.5374 75.3754 43.5111 75.2432C43.4849 75.1111 43.4983 74.9741 43.5499 74.8497C43.6014 74.7252 43.6887 74.6188 43.8007 74.544C43.9127 74.4691 44.0443 74.4292 44.179 74.4292C44.3596 74.4292 44.5328 74.501 44.6605 74.6287C44.7882 74.7564 44.86 74.9297 44.86 75.1103Z" fill="black"/>
<path d="M42.6602 73.6305C42.9363 73.2811 43.3171 73.0294 43.7468 72.9124C44.1765 72.7955 44.6323 72.8194 45.0474 72.9807" stroke="#5B226C" stroke-width="0.511163" stroke-linecap="round" stroke-linejoin="round"/>
<path d="M42.5898 81.3428C42.9319 81.644 43.362 81.8265 43.8162 81.8632C44.2704 81.8999 44.7243 81.7887 45.1101 81.5463" stroke="#EF7F7B" stroke-width="0.511163" stroke-linecap="round" stroke-linejoin="round"/>
<path d="M53.3509 152.284C51.8872 152.456 50.2201 152.605 48.4434 152.73C55.3703 147.586 60.1291 137.855 57.0531 130.025C52.9674 119.605 51.4411 114.704 55.9338 109.489C55.2529 117.123 65.9054 138.645 66.0229 140.415C66.1403 142.184 62.8842 151.164 53.3509 152.284Z" fill="#0FA063"/>

</svg>
