<svg width="182" height="197" viewBox="0 0 182 197" fill="none" xmlns="http://www.w3.org/2000/svg">
    <defs>
        <linearGradient id="paint0_linear_879_1204" x1="61.453" y1="113.348" x2="64.2927"
            y2="140.567" gradientUnits="userSpaceOnUse">
            <stop offset="0.01" stop-color="#FFD0BE" />
            <stop offset="0.85" stop-color="#FF9F8B" />
            <stop offset="1" stop-color="#FF9581" />
        </linearGradient>
        <linearGradient id="paint1_linear_879_1204" x1="1097.83" y1="3841.84" x2="590.255"
            y2="4856.51" gradientUnits="userSpaceOnUse">
            <stop offset="0.01" stop-color="#FFD0BE" />
            <stop offset="0.85" stop-color="#FF9F8B" />
            <stop offset="1" stop-color="#FF9581" />
        </linearGradient>
        <linearGradient id="paint2_linear_879_1204" x1="1124.39" y1="3434.74" x2="310.957"
            y2="4316.25" gradientUnits="userSpaceOnUse">
            <stop offset="0.01" stop-color="#FFD0BE" />
            <stop offset="0.85" stop-color="#FF9F8B" />
            <stop offset="1" stop-color="#FF9581" />
        </linearGradient>
        <linearGradient id="paint3_linear_879_1204" x1="610.917" y1="1197.12" x2="686.497"
            y2="1143.82" gradientUnits="userSpaceOnUse">
            <stop offset="0.01" stop-color="#FFD0BE" />
            <stop offset="0.85" stop-color="#FF9F8B" />
            <stop offset="1" stop-color="#FF9581" />
        </linearGradient>
        <linearGradient id="paint4_linear_879_1204" x1="10021.2" y1="3999.13" x2="14536.3"
            y2="13151.7" gradientUnits="userSpaceOnUse">
            <stop offset="0.01" stop-color="#FFD0BE" />
            <stop offset="0.85" stop-color="#FF9F8B" />
            <stop offset="1" stop-color="#FF9581" />
        </linearGradient>
        <linearGradient id="paint5_linear_879_1204" x1="963.34" y1="435.258" x2="1045.8"
            y2="435.258" gradientUnits="userSpaceOnUse">
            <stop offset="0.01" stop-color="#FFD0BE" />
            <stop offset="0.85" stop-color="#FF9F8B" />
            <stop offset="1" stop-color="#FF9581" />
        </linearGradient>
        <linearGradient id="paint6_linear_879_1204" x1="117.672" y1="116.412" x2="120.359"
            y2="95.226" gradientUnits="userSpaceOnUse">
            <stop offset="0.01" stop-color="#FF9581" stop-opacity="0" />
            <stop offset="0.14" stop-color="#FF9581" stop-opacity="0.01" />
            <stop offset="0.26" stop-color="#FF9581" stop-opacity="0.06" />
            <stop offset="0.39" stop-color="#FF9581" stop-opacity="0.13" />
            <stop offset="0.51" stop-color="#FF9581" stop-opacity="0.24" />
            <stop offset="0.63" stop-color="#FF9581" stop-opacity="0.38" />
            <stop offset="0.75" stop-color="#FF9581" stop-opacity="0.54" />
            <stop offset="0.87" stop-color="#FF9581" stop-opacity="0.74" />
            <stop offset="0.98" stop-color="#FF9581" stop-opacity="0.96" />
            <stop offset="1" stop-color="#FF9581" />
        </linearGradient>
    </defs>
    <path
        d="M181.031 121.331C179.398 130.47 175.268 137.887 168.561 142.806C167.451 143.65 166.34 144.416 165.33 145.138C156.036 151.6 150.306 153.188 120.626 157.519C87.6921 162.338 78.4315 180.104 47.152 174.552C15.8726 169 5.53496 137.176 22.8569 100.989C35.915 73.6626 27.8425 51.8991 43.2879 29.4583C56.8235 9.74904 75.9886 8.21672 88.5693 6.88426C125.389 2.96461 150.495 30.3799 168.284 64.4353C179.432 85.7879 183.773 105.986 181.031 121.331Z"
        fill="#E3FFEE" />
    <path
        d="M65.4945 128.749C65.4945 128.749 63.7734 115.835 64.4619 111.294C65.4279 104.987 70.0138 92.8947 70.0138 92.8947L67.8707 88.2866L57.3998 94.2383L51.0596 116.135L53.6801 132.358L65.4945 128.749Z"
        fill="url(#paint0_linear_879_1204)" />
    <path
        d="M62.4197 129.671C62.4197 129.671 60.7097 116.757 61.3982 112.204C62.3531 105.897 66.9501 93.8165 66.9501 93.8165L64.807 89.1973L54.3917 95.16L48.0625 117.046L50.6719 133.268L62.4197 129.671Z"
        fill="url(#paint1_linear_879_1204)" />
    <path
        d="M59.6653 129.493C59.6653 129.493 57.9442 116.535 58.6438 112.093C59.5987 105.786 64.1957 93.694 64.1957 93.694L62.0526 89.0859L51.5928 94.9932L45.2637 116.868L47.8842 133.09L59.6653 129.493Z"
        fill="url(#paint2_linear_879_1204)" />
    <path
        d="M97.8275 9.16586L39.8919 26.3382C36.9874 27.1991 35.3307 30.2516 36.1916 33.1561L69.9777 147.143C70.8386 150.047 73.8911 151.704 76.7956 150.843L134.731 133.671C137.636 132.81 139.292 129.757 138.431 126.853L104.645 12.8662C103.785 9.96162 100.732 8.30494 97.8275 9.16586Z"
        fill="#15BE77" />
    <path
        d="M98.0016 13.0752L41.8865 29.7079C40.4989 30.1192 39.7074 31.5775 40.1187 32.9651L70.9828 137.094C71.3941 138.481 72.8523 139.273 74.2399 138.861L130.355 122.229C131.743 121.817 132.534 120.359 132.123 118.972L101.259 14.843C100.847 13.4554 99.3892 12.664 98.0016 13.0752Z"
        fill="#D3FFE4" />
    <path
        d="M108.478 135.255C108.731 136.137 108.717 137.074 108.438 137.947C108.159 138.821 107.627 139.592 106.91 140.164C106.193 140.735 105.323 141.082 104.409 141.16C103.496 141.237 102.579 141.043 101.776 140.6C100.973 140.157 100.319 139.487 99.8967 138.673C99.4743 137.859 99.3025 136.938 99.4029 136.027C99.5033 135.115 99.8715 134.254 100.461 133.551C101.05 132.849 101.835 132.337 102.715 132.08C103.302 131.908 103.917 131.855 104.525 131.921C105.132 131.988 105.721 132.175 106.256 132.47C106.792 132.765 107.264 133.163 107.645 133.641C108.026 134.119 108.309 134.668 108.478 135.255V135.255Z"
        fill="#47CE7A" />
    <path
        d="M50.5605 58.2284L56.8009 79.3257L66.7943 76.3721C69.8379 75.4695 73.1154 75.8129 75.9057 77.3268C78.6961 78.8407 80.7708 81.401 81.6734 84.4445L84.5271 94.0715L105.624 87.8312L99.3729 66.734L94.6982 50.9665L93.0326 45.6367L50.5605 58.2284Z"
        fill="#8FF8B7" />
    <path d="M94.1507 103.223L73.1035 109.462L79.342 130.509L100.389 124.271L94.1507 103.223Z"
        fill="#8FF8B7" />
    <path d="M70.2168 110.308L63.627 112.261L69.8654 133.308L76.4553 131.355L70.2168 110.308Z"
        fill="#8FF8B7" />
    <path d="M62.0859 107.096L116.572 90.9404L93.865 14.313" stroke="#62FBBB" stroke-width="5.55136"
        stroke-miterlimit="10" />
    <path
        d="M55.8457 86.0324L66.9495 82.7013C67.8827 82.4233 68.8616 82.3321 69.8301 82.4328C70.7986 82.5336 71.7378 82.8243 72.5938 83.2884C73.4498 83.7525 74.2059 84.3809 74.8188 85.1375C75.4317 85.8942 75.8894 86.7643 76.1657 87.698L80.3074 101.644"
        stroke="#62FBBB" stroke-width="5.55136" stroke-miterlimit="10" />
    <path d="M98.1396 96.4033L107.778 128.926" stroke="#62FBBB" stroke-width="5.55136"
        stroke-miterlimit="10" />
    <path d="M62.0859 107.096L64.3067 106.43" stroke="#3BDE9A" stroke-width="0.693921"
        stroke-miterlimit="10" />
    <path d="M65.8164 105.986L113.596 91.8286" stroke="#3BDE9A" stroke-width="0.693921"
        stroke-miterlimit="10" stroke-dasharray="4.27 1.42" />
    <path d="M114.362 91.5953L116.572 90.9401L115.917 88.7305" stroke="#3BDE9A"
        stroke-width="0.693921" stroke-miterlimit="10" />
    <path d="M115.484 87.2539L94.7422 17.2666" stroke="#3BDE9A" stroke-width="0.693921"
        stroke-miterlimit="10" stroke-dasharray="4.15 1.38" />
    <path d="M94.5204 16.5338L93.8652 14.313" stroke="#3BDE9A" stroke-width="0.693921"
        stroke-miterlimit="10" />
    <path d="M55.8457 86.0326L58.0665 85.3774" stroke="#3BDE9A" stroke-width="0.693921"
        stroke-miterlimit="10" />
    <path
        d="M59.5771 84.9333L66.9612 82.7125C67.8944 82.4345 68.8733 82.3433 69.8418 82.444C70.8103 82.5448 71.7494 82.8356 72.6055 83.2997C73.4615 83.7638 74.2176 84.3921 74.8305 85.1488C75.4434 85.9054 75.9011 86.7755 76.1773 87.7092L79.4308 98.7686"
        stroke="#3BDE9A" stroke-width="0.693921" stroke-miterlimit="10"
        stroke-dasharray="4.26 1.42" />
    <path d="M79.6631 99.4683L80.3182 101.689" stroke="#3BDE9A" stroke-width="0.693921"
        stroke-miterlimit="10" />
    <path d="M98.1396 96.4033L98.7948 98.6241" stroke="#3BDE9A" stroke-width="0.693921"
        stroke-miterlimit="10" />
    <path d="M99.1943 99.9565L106.923 126.039" stroke="#3BDE9A" stroke-width="0.693921"
        stroke-miterlimit="10" stroke-dasharray="3.77 1.26" />
    <path d="M107.123 126.717L107.778 128.926" stroke="#3BDE9A" stroke-width="0.693921"
        stroke-miterlimit="10" />
    <path opacity="0.5"
        d="M93.4433 73.9725C93.6946 69.6011 90.3546 65.8537 85.9832 65.6024C81.6119 65.3511 77.8645 68.6911 77.6132 73.0625C77.3619 77.4338 80.7019 81.1812 85.0733 81.4325C89.4446 81.6838 93.192 78.3438 93.4433 73.9725Z"
        fill="white" />
    <path
        d="M90.1008 72.1193C90.3668 73.0247 90.3585 73.9887 90.077 74.8895C89.7954 75.7902 89.2533 76.5873 88.519 77.1802C87.7847 77.773 86.8912 78.1349 85.9513 78.2202C85.0114 78.3055 84.0674 78.1103 83.2384 77.6594C82.4093 77.2085 81.7325 76.522 81.2934 75.6866C80.8543 74.8513 80.6726 73.9045 80.7713 72.966C80.8699 72.0274 81.2445 71.1392 81.8477 70.4133C82.4509 69.6875 83.2556 69.1568 84.1603 68.8881C84.7625 68.7092 85.3941 68.6509 86.0188 68.7166C86.6436 68.7823 87.2493 68.9706 87.8012 69.2707C88.353 69.5709 88.8402 69.977 89.2348 70.4658C89.6295 70.9547 89.9237 71.5165 90.1008 72.1193V72.1193Z"
        fill="#FFC729" stroke="white" stroke-width="1.7801" stroke-miterlimit="10" />
    <path
        d="M88.1354 107.54C88.1382 107.589 88.1382 107.637 88.1354 107.685C87.3769 110.32 86.3305 112.863 85.0152 115.269C83.3719 118.6 81.3843 122.397 79.6854 126.639C75.4881 137.021 76.1322 144.294 71.4241 152.067C70.3901 153.757 69.2516 155.382 68.0153 156.93C63.7494 162.004 60.4998 167.851 58.4438 174.152C56.3785 181.081 55.1127 190.808 54.0023 195.427C54.0023 195.427 44.3069 197.477 38.9995 195.5C34.258 193.734 29.374 187.344 29.374 187.344C29.374 187.344 36.0363 166.69 38.2571 154.632C40.4778 142.573 38.2571 122.697 38.3126 115.768C38.3681 108.84 53.4471 91.4399 53.4471 91.4399L56.8448 102.832C55.4855 107.44 54.6146 112.178 54.2466 116.968C54.3482 119.876 54.7463 122.767 55.4347 125.595C55.5748 126.235 55.879 126.827 56.3172 127.314C56.7555 127.801 57.3128 128.165 57.9345 128.371C58.5561 128.577 59.2206 128.618 59.8628 128.489C60.505 128.361 61.1027 128.068 61.5973 127.638C63.0791 126.283 64.3881 124.75 65.4947 123.075C70.7801 115.302 72.0126 109.561 80.1184 104.576C80.1184 104.576 86.2477 101.389 87.9577 104.842C88.3113 105.698 88.3738 106.646 88.1354 107.54Z"
        fill="#FFD0BE" />
    <path style="mix-blend-mode:screen"
        d="M88.1359 107.54C88.1388 107.588 88.1388 107.637 88.1359 107.685C87.3775 110.319 86.3311 112.863 85.0158 115.269C84.0348 114.122 82.7367 113.292 81.2849 112.881C81.181 112.85 81.0921 112.782 81.0348 112.69C80.9775 112.598 80.9559 112.488 80.974 112.382C81.4848 109.683 84.3051 104.609 86.3927 104.609C88.3025 104.753 88.1915 106.941 88.1359 107.54Z"
        fill="url(#paint3_linear_879_1204)" />
    <path
        d="M101 46.2912C101.006 43.9156 100.448 41.5716 99.3702 39.4458C98.2928 37.32 96.7259 35.4713 94.7942 34.0468C92.8626 32.6223 90.6197 31.6616 88.2441 31.241C85.8686 30.8204 83.4261 30.9517 81.1112 31.6243C78.7963 32.297 76.6729 33.4924 74.9104 35.1154C73.1479 36.7384 71.7948 38.7441 70.959 40.9727C70.1232 43.2013 69.8277 45.5912 70.0962 47.952C70.3646 50.3129 71.1896 52.5794 72.5053 54.571V54.571L72.6437 54.7786C72.6607 54.7991 72.6761 54.8208 72.6899 54.8435L84.8209 72.6294C84.8964 72.7432 84.9995 72.8367 85.121 72.9014C85.2424 72.9661 85.3783 73 85.5164 73C85.6545 73 85.7905 72.9661 85.9119 72.9014C86.0334 72.8367 86.1365 72.7432 86.212 72.6294L98.521 54.571C100.145 52.1058 101.006 49.2292 101 46.2912V46.2912ZM85.4802 42.5926C86.2219 42.5926 86.9469 42.8089 87.5637 43.2143C88.1804 43.6198 88.6612 44.196 88.9454 44.8703C89.2295 45.5446 89.3042 46.2866 89.16 47.0026C89.0157 47.7187 88.6591 48.3765 88.1351 48.8932C87.6111 49.4098 86.9433 49.7619 86.2161 49.9051C85.4888 50.0483 84.7347 49.9761 84.0492 49.6977C83.3636 49.4192 82.7772 48.947 82.3642 48.3407C81.9512 47.7344 81.7301 47.0212 81.7288 46.2912C81.7279 45.8058 81.8243 45.325 82.0125 44.8763C82.2006 44.4276 82.4768 44.0198 82.8252 43.6763C83.1737 43.3327 83.5875 43.0602 84.0431 42.8742C84.4986 42.6883 84.987 42.5926 85.4802 42.5926V42.5926Z"
        fill="#F4454E" />
    <path
        d="M181.03 121.331C179.398 130.47 175.267 137.887 168.561 142.806C167.45 143.65 166.34 144.416 165.329 145.138C160.311 139.708 152.205 131.414 148.163 129.715C142.034 127.139 138.547 129.504 133.45 128.016C130.058 126.771 126.817 125.147 123.79 123.175C118.061 119.61 112.264 114.891 112.231 111.527C112.231 108.717 112.475 103.51 112.753 99.0238C113.031 94.5378 113.319 90.7292 113.319 90.7292L101.505 75.8057C101.505 75.8057 87.4362 63.7247 83.8164 60.2604C81.6766 58.2807 80.1179 55.7545 79.3082 52.9541C78.3533 49.2676 80.0522 48.1239 82.4839 48.3571H82.7726C84.6125 48.6874 86.3702 49.3739 87.947 50.378L90.3343 51.8659C96.5525 55.7966 110.41 64.8351 112.542 67.2113C113.341 68.0997 115.629 70.7979 118.371 74.018C119.393 72.1747 120.714 70.2316 121.78 70.4981C122.347 70.6313 124.734 70.9422 127.943 71.3309C128.827 70.302 129.926 69.4795 131.163 68.9213C132.273 68.677 137.27 71.3753 139.824 72.8077C140.523 72.022 141.393 71.4067 142.367 71.0088C143.555 70.7313 148.929 73.696 151.15 74.9507C151.472 75.1115 151.784 75.2933 152.083 75.4948V75.4948C153.448 76.4275 154.359 78.0931 156.058 85.888C158.279 95.948 162.72 105.619 167.728 110.816C170.226 113.425 175.889 117.645 181.03 121.331Z"
        fill="url(#paint4_linear_879_1204)" />
    <path style="mix-blend-mode:screen"
        d="M90.3342 51.899C89.9278 53.6206 88.9097 55.1359 87.4694 56.1629C87.3533 56.2312 87.2211 56.2673 87.0863 56.2673C86.9516 56.2673 86.8194 56.2312 86.7033 56.1629C84.8822 55.1413 80.041 52.5431 80.4074 50.1113C80.4739 49.6051 80.7295 49.1427 81.123 48.8173C81.5164 48.4918 82.0185 48.3273 82.5282 48.3569H82.7725C84.6119 48.683 86.3697 49.3658 87.9469 50.3667L90.3342 51.899Z"
        fill="url(#paint5_linear_879_1204)" />
    <path
        d="M125.256 116.623C124.973 118.848 124.482 121.041 123.791 123.174C118.061 119.61 112.265 114.891 112.231 111.526C112.231 108.717 112.476 103.509 112.753 99.0236C113.031 94.5376 113.32 90.729 113.32 90.729L114.785 92.3724C118.117 96.1287 120.645 100.527 122.214 105.297C122.758 106.963 123.213 108.34 123.324 108.628C123.591 109.217 125.256 116.623 125.256 116.623Z"
        fill="url(#paint6_linear_879_1204)" />
    <path
        d="M26.0657 85.344C22.5458 97.5582 15.6948 104.22 8.94366 102.744C3.8248 101.633 -5.49129 96.0147 4.28006 75.1063C14.0514 54.1978 12.6856 42.2279 17.3492 38.5636C21.1356 35.5878 27.6536 40.3846 29.0194 53.1429C30.2297 64.4022 27.7424 79.6144 26.0657 85.344Z"
        fill="#D8FFE6" />
    <path
        d="M130.02 160.816C136.583 160.298 143.104 159.344 149.54 157.963C154.734 156.67 159.808 154.939 164.708 152.788C176.667 148.18 185.583 162.571 169.15 169.921C153.604 176.861 129.875 171.032 124.068 166.59C118.261 162.149 130.02 160.816 130.02 160.816Z"
        fill="#D8FFE6" />
    <path
        d="M47.8736 27.9482L42.3883 40.6399L40.1675 32.9783C40.0687 32.6487 40.0361 32.3029 40.0714 31.9607C40.1068 31.6185 40.2095 31.2867 40.3736 30.9843C40.5376 30.6819 40.7599 30.415 41.0275 30.1989C41.2952 29.9827 41.6029 29.8216 41.933 29.7249L47.8736 27.9482Z"
        fill="#D3FFE4" />
    <path
        d="M167.262 44.5595C172.677 44.5595 177.066 40.1698 177.066 34.7549C177.066 29.3399 172.677 24.9502 167.262 24.9502C161.847 24.9502 157.457 29.3399 157.457 34.7549C157.457 40.1698 161.847 44.5595 167.262 44.5595Z"
        fill="#9FFFC3" />
    <path
        d="M135.06 51.4776C138.746 51.4776 141.734 48.4899 141.734 44.8043C141.734 41.1186 138.746 38.1309 135.06 38.1309C131.375 38.1309 128.387 41.1186 128.387 44.8043C128.387 48.4899 131.375 51.4776 135.06 51.4776Z"
        fill="#9FFFC3" />
    <path
        d="M125.712 3.27562C125.723 3.93672 125.537 4.58613 125.177 5.14119C124.818 5.69625 124.302 6.13184 123.694 6.3925C123.087 6.65316 122.415 6.7271 121.765 6.6049C121.116 6.48271 120.517 6.16991 120.045 5.70633C119.574 5.24275 119.251 4.64936 119.118 4.00171C118.985 3.35406 119.048 2.68145 119.298 2.06953C119.548 1.4576 119.975 0.934031 120.524 0.565486C121.073 0.196942 121.719 9.18694e-05 122.38 3.21781e-08C123.254 -0.000121356 124.093 0.343206 124.717 0.955959C125.34 1.56871 125.697 2.40181 125.712 3.27562V3.27562Z"
        fill="#9FFFC3" />
    <path
        d="M8.98851 116.468C10.7976 116.468 12.2641 115.001 12.2641 113.192C12.2641 111.383 10.7976 109.917 8.98851 109.917C7.17944 109.917 5.71289 111.383 5.71289 113.192C5.71289 115.001 7.17944 116.468 8.98851 116.468Z"
        fill="#9FFFC3" />
    <path
        d="M108.345 176.595C112.067 176.595 115.085 173.577 115.085 169.855C115.085 166.132 112.067 163.115 108.345 163.115C104.622 163.115 101.604 166.132 101.604 169.855C101.604 173.577 104.622 176.595 108.345 176.595Z"
        fill="#9FFFC3" />
</svg>
