<svg width="189" height="56" viewBox="0 0 189 56" fill="none" xmlns="http://www.w3.org/2000/svg">
<path d="M13.3197 44.5165C10.265 44.2259 6.66187 43.7077 1.65958 43.8774C1.65958 43.8774 1.46346 43.884 1.50363 43.6363C4.72851 19.9749 5.20381 16.8054 5.20204 16.7563C5.48192 10.8833 2.29291 12.3219 2.93353 11.0191C3.75788 9.36521 7.2672 7.2753 10.1607 7.17715C13.9859 7.04739 17.1079 9.20793 16.3287 14.8514C15.8372 18.227 14.4502 28.1738 13.5132 34.9644C13.4992 35.066 13.5075 35.1695 13.5376 35.2676C13.5677 35.3657 13.6188 35.4561 13.6874 35.5324C13.756 35.6086 13.8403 35.6689 13.9345 35.709C14.0287 35.7492 14.1305 35.7681 14.2326 35.7646C24.5314 35.4152 23.7073 32.9795 24.4677 33.6435C25.0739 34.1156 25.4053 35.1392 25.3881 36.0266C25.24 42.8311 18.7917 45.1193 13.3197 44.5165Z" fill="#15BE77"/>
<path d="M54.7159 39.6459C53.9874 41.2477 51.0637 43.2692 48.3162 43.3624C45.8101 43.4474 43.8806 42.3514 42.9965 40.3584C42.9107 40.1642 42.7778 39.9946 42.6099 39.8652C42.442 39.7357 42.2446 39.6504 42.0356 39.6172C41.8266 39.584 41.6128 39.6039 41.4137 39.6751C41.2146 39.7463 41.0365 39.8665 40.8959 40.0247C38.9669 42.2143 36.5957 43.7105 33.9389 43.8006C27.757 44.0103 25.3032 37.2427 26.1945 30.6081C27.1296 23.8241 31.5043 17.0714 37.9316 16.8534C40.0515 16.7815 41.679 17.48 42.8768 18.6806C43.0416 18.8492 43.2499 18.9685 43.4783 19.0251C43.7067 19.0817 43.9462 19.0733 44.1698 19.0009C44.3934 18.9284 44.5923 18.7948 44.7442 18.6151C44.8961 18.4353 44.9949 18.2165 45.0295 17.9833C45.0381 17.9242 45.0426 17.8936 45.0426 17.8936C45.0546 17.8149 45.0924 17.7426 45.15 17.6881C45.2212 17.6233 45.3134 17.5868 45.4096 17.5854L55.139 17.2554C55.1652 17.2605 55.1902 17.2708 55.2124 17.2858C55.2346 17.3008 55.2536 17.3202 55.2682 17.3427C55.2827 17.3652 55.2926 17.3905 55.2972 17.4169C55.3018 17.4434 55.301 17.4705 55.2949 17.4966C55.2949 17.4966 53.3925 28.7984 52.9259 32.215C51.8336 40.0886 55.404 38.2919 54.7159 39.6459ZM43.6608 30.0157C44.166 26.3021 43.3221 23.3241 40.918 23.4057C38.5139 23.4872 36.8066 26.5517 36.3015 30.2653C35.7963 33.979 36.6384 36.9075 39.0425 36.826C41.4466 36.7444 43.1558 33.7293 43.6608 30.0157Z" fill="#15BE77"/>
<path d="M84.308 28.8146C83.3731 35.5972 79.0485 42.3471 72.6227 42.565C69.8051 42.6606 67.8574 41.3948 66.6326 39.3982C66.5814 39.3169 66.5066 39.2532 66.4182 39.216C66.3298 39.1787 66.2322 39.1696 66.1387 39.1899C66.0451 39.2102 65.9601 39.259 65.8952 39.3295C65.8303 39.4 65.7887 39.489 65.776 39.5842C65.6008 40.8761 65.5149 41.5742 65.5149 41.5742C65.503 41.6528 65.4652 41.7251 65.4075 41.7796C65.3364 41.8444 65.2442 41.8809 65.148 41.8822L55.8133 42.1989C55.787 42.1938 55.762 42.1835 55.7398 42.1685C55.7176 42.1535 55.6987 42.1341 55.6841 42.1116C55.6695 42.0891 55.6596 42.0639 55.655 42.0374C55.6504 42.011 55.6512 41.9839 55.6572 41.9578L60.5281 7.68188C60.5691 7.39335 60.7099 7.12869 60.926 6.93419C61.142 6.73969 61.4195 6.62773 61.7099 6.61788L69.7084 6.34657C69.7682 6.34446 69.8278 6.3553 69.8831 6.37836C69.9384 6.40142 69.9881 6.43615 70.0288 6.48019C70.0696 6.52423 70.1004 6.57654 70.1192 6.63356C70.1381 6.69059 70.1444 6.75098 70.1379 6.81063C69.9412 8.60042 69.2288 14.9806 68.6401 18.9298C68.6215 19.0549 68.644 19.1827 68.7041 19.2941C68.7642 19.4055 68.8586 19.4944 68.9733 19.5474C69.088 19.6003 69.2166 19.6145 69.3398 19.5878C69.463 19.5611 69.5742 19.4949 69.6565 19.3993C71.5562 17.2089 73.9504 15.7133 76.6143 15.623C82.7949 15.4133 85.2482 22.1794 84.308 28.8146ZM74.2524 29.1557C74.7573 25.4428 73.9153 22.5147 71.5118 22.5963C69.1083 22.6778 67.3996 25.6924 66.8945 29.4052C66.3897 33.1181 67.2334 36.0955 69.6369 36.014C72.0405 35.9324 73.7474 32.8685 74.2524 29.1557Z" fill="#15BE77"/>
<path d="M113.316 27.8116C112.381 34.5942 108.056 41.3441 101.63 41.5621C98.8129 41.6577 96.8653 40.3919 95.6404 38.3954C95.5893 38.314 95.5144 38.2504 95.426 38.2131C95.3377 38.1758 95.2401 38.1667 95.1465 38.1871C95.0529 38.2074 94.9679 38.2561 94.903 38.3266C94.8381 38.3972 94.7965 38.4861 94.7838 38.5813C94.6085 39.8732 94.5228 40.5713 94.5228 40.5713C94.5108 40.6499 94.473 40.7222 94.4154 40.7767C94.3443 40.8415 94.252 40.878 94.1558 40.8794L84.8211 41.196C84.7949 41.1909 84.7699 41.1806 84.7476 41.1656C84.7254 41.1506 84.7065 41.1313 84.6919 41.1087C84.6773 41.0862 84.6674 41.061 84.6628 41.0345C84.6582 41.0081 84.659 40.981 84.6651 40.9549L89.5359 6.679C89.5769 6.39046 89.7177 6.12579 89.9338 5.93128C90.1498 5.73677 90.4273 5.6248 90.7177 5.61495L98.7162 5.34364C98.776 5.34153 98.8356 5.35238 98.8909 5.37543C98.9462 5.39849 98.9959 5.43322 99.0366 5.47726C99.0774 5.5213 99.1082 5.57361 99.127 5.63063C99.1459 5.68766 99.1522 5.74805 99.1457 5.8077C98.949 7.5976 98.2365 13.9784 97.6478 17.9275C97.6292 18.0526 97.6517 18.1804 97.7117 18.2918C97.7718 18.4031 97.8662 18.492 97.9809 18.5449C98.0955 18.5979 98.2241 18.6121 98.3472 18.5854C98.4704 18.5587 98.5815 18.4925 98.6638 18.3969C100.564 16.2062 102.958 14.7104 105.622 14.6201C111.803 14.4104 114.256 21.1765 113.316 27.8116ZM103.26 28.1527C103.765 24.4398 102.923 21.5118 100.52 21.5933C98.116 21.6749 96.4074 24.6894 95.9023 28.4023C95.3975 32.1152 96.2412 35.0926 98.6447 35.011C101.048 34.9295 102.755 31.8656 103.26 28.1527Z" fill="#15BE77"/>
<path d="M142.982 36.5966C142.253 38.1984 139.329 40.2199 136.582 40.3131C134.069 40.3983 132.136 39.2965 131.255 37.2938C131.17 37.1011 131.039 36.9328 130.872 36.8043C130.706 36.6758 130.51 36.5911 130.303 36.5582C130.095 36.5253 129.883 36.545 129.686 36.6157C129.488 36.6865 129.312 36.8058 129.173 36.9629C127.241 39.1593 124.866 40.661 122.205 40.7513C116.023 40.961 113.569 34.1934 114.46 27.5588C115.395 20.7748 119.77 14.022 126.197 13.804C128.331 13.7317 129.965 14.4396 131.165 15.6544C131.328 15.8213 131.534 15.9393 131.759 15.9954C131.985 16.0514 132.221 16.0432 132.442 15.9716C132.663 15.9 132.86 15.768 133.009 15.5903C133.159 15.4126 133.257 15.1963 133.291 14.9659C133.302 14.8859 133.308 14.8443 133.308 14.8443C133.32 14.7656 133.358 14.6933 133.416 14.6388C133.487 14.574 133.579 14.5375 133.675 14.5361L143.405 14.2061C143.431 14.2112 143.456 14.2215 143.478 14.2365C143.5 14.2515 143.519 14.2708 143.534 14.2934C143.548 14.3159 143.558 14.3412 143.563 14.3676C143.567 14.394 143.567 14.4211 143.561 14.4472C143.561 14.4472 141.658 25.7491 141.192 29.1657C140.099 37.0393 143.67 35.2426 142.982 36.5966ZM131.926 26.9664C132.432 23.2528 131.588 20.2748 129.184 20.3563C126.779 20.4379 125.072 23.5024 124.567 27.216C124.062 30.9297 124.904 33.8582 127.308 33.7767C129.712 33.6951 131.421 30.68 131.926 26.9664Z" fill="#15BE77"/>
<path d="M154.227 49.742C147.065 49.9849 144.44 45.2448 144.127 43.3828C143.648 40.9845 144.221 40.5217 144.715 40.6035C145.899 40.7603 146.769 44.4759 152.263 44.2895C156.187 44.1564 158.838 41.4055 159.37 38.4309L159.377 38.3848C159.578 37.0957 158.073 36.236 157.081 37.0777C155.12 38.7406 153.041 39.434 151.354 39.4912C147.724 39.6143 145.058 36.5018 145.764 31.5503C146.033 29.4714 146.269 27.8374 146.774 24.1245C147.866 16.2524 143.904 18.0622 144.543 16.71C145.321 15.1069 148.195 13.0876 150.942 12.9944C154.915 12.8596 157.764 15.621 157.146 20.2741C156.911 21.9574 156.326 26.1657 155.811 29.5833C155.154 34.5332 159.997 32.6443 160.918 26.8478C161.502 22.5631 162.116 18.6335 162.514 16.1799C162.633 15.4447 163.002 14.7743 163.559 14.2827C164.116 13.7911 164.826 13.5088 165.568 13.4838L171.308 13.2891C171.445 13.2844 171.581 13.3094 171.707 13.3624C171.833 13.4153 171.946 13.4951 172.039 13.596C172.131 13.697 172.201 13.8169 172.243 13.9473C172.285 14.0778 172.299 14.2158 172.283 14.3519C171.865 17.8926 170.536 29.0807 169.79 34.5789C168.87 43.135 163.302 49.4342 154.227 49.742Z" fill="#15BE77"/>
<path d="M177.319 38.7452C174.672 38.835 172.83 36.7299 173.223 34.0071C173.569 31.3351 175.991 29.0853 178.637 28.9955C181.284 28.9057 183.175 31.0091 182.78 33.6827C182.388 36.4055 179.966 38.6553 177.319 38.7452ZM178.761 26.9715C175.281 27.0896 176.108 15.9772 176.597 11.8224C177.494 4.00827 174.122 5.74847 174.76 4.39665C175.489 2.84472 178.408 0.77513 181.153 0.681984C185.123 0.547248 187.578 3.32117 186.913 8.02384C186.059 14.3093 182.731 26.8368 178.761 26.9715Z" fill="#15BE77"/>
</svg>
