<svg width="333" height="192" viewBox="0 0 333 192" fill="none" xmlns="http://www.w3.org/2000/svg">
<path d="M166.539 191.662C258.14 191.662 332.397 189.767 332.397 187.428C332.397 185.089 258.14 183.193 166.539 183.193C74.9387 183.193 0.681641 185.089 0.681641 187.428C0.681641 189.767 74.9387 191.662 166.539 191.662Z" fill="#EDF1F4"/>
<path d="M117.604 100.358L117.694 124.044L77.1194 124.143L77.031 100.456L117.604 100.358Z" fill="#FFD357"/>
<path d="M125.661 124.022L117.3 124.049L117.212 100.355L125.572 100.328L125.661 124.022Z" fill="#FFC32E"/>
<path d="M93.3116 103.548H81.2654V106.284H93.3116V103.548Z" fill="white"/>
<path d="M124.505 83.7861L124.593 100.421L84.0197 100.491L83.9304 83.8556L124.505 83.7861Z" fill="#2FE297"/>
<path d="M91.4483 96.596C90.9459 96.5481 90.3533 96.4625 89.5305 96.4912C89.5305 96.4912 89.4982 96.4924 89.5049 96.4512C90.0381 92.523 90.1166 91.9968 90.1163 91.9886C90.163 91.0136 89.6383 91.2528 89.7439 91.0364C89.8796 90.7618 90.4571 90.4145 90.9331 90.3978C91.5623 90.3759 92.0755 90.7342 91.9467 91.6711C91.8655 92.2315 91.6362 93.8829 91.4813 95.0103C91.4789 95.0272 91.4803 95.0444 91.4852 95.0606C91.4902 95.0769 91.4986 95.0919 91.5098 95.1046C91.5211 95.1172 91.535 95.1272 91.5505 95.1339C91.566 95.1405 91.5827 95.1437 91.5995 95.1431C93.2935 95.0839 93.1583 94.6796 93.2833 94.7898C93.3829 94.8681 93.4373 95.038 93.4344 95.1853C93.4092 96.3149 92.3483 96.6955 91.4483 96.596Z" fill="#4AF2AB"/>
<path d="M98.2531 95.7938C98.1331 96.0597 97.6522 96.3956 97.2004 96.4113C96.7884 96.4257 96.4713 96.2441 96.3261 95.9134C96.3121 95.8812 96.2902 95.8531 96.2626 95.8316C96.2351 95.8101 96.2026 95.796 96.1682 95.7905C96.1339 95.785 96.0987 95.7884 96.066 95.8002C96.0332 95.812 96.004 95.832 95.9808 95.8583C95.6634 96.2219 95.2734 96.4704 94.8366 96.4857C93.8201 96.5212 93.4175 95.3983 93.5648 94.2972C93.7193 93.1712 94.4394 92.0501 95.4961 92.0132C95.8447 92.001 96.1122 92.1168 96.309 92.3159C96.3361 92.3438 96.3703 92.3636 96.4078 92.373C96.4454 92.3823 96.4848 92.3809 96.5215 92.3689C96.5583 92.3568 96.591 92.3346 96.616 92.3048C96.641 92.2749 96.6573 92.2386 96.663 92.1999C96.6644 92.1901 96.6652 92.185 96.6652 92.185C96.6671 92.172 96.6734 92.16 96.6828 92.1509C96.6945 92.1401 96.7097 92.1341 96.7255 92.1338L98.3252 92.078C98.3295 92.0788 98.3336 92.0805 98.3373 92.083C98.3409 92.0855 98.3441 92.0887 98.3465 92.0924C98.3488 92.0962 98.3505 92.1004 98.3512 92.1048C98.352 92.1091 98.3518 92.1136 98.3508 92.118C98.3508 92.118 98.0367 93.9938 97.9596 94.5608C97.7791 95.8676 98.3664 95.5691 98.2531 95.7938ZM96.4366 94.1969C96.5201 93.5806 96.3816 93.0864 95.9864 93.1002C95.5911 93.114 95.31 93.6228 95.2266 94.2392C95.1431 94.8555 95.2812 95.3414 95.6765 95.3276C96.0717 95.3138 96.3531 94.8133 96.4366 94.1969Z" fill="#4AF2AB"/>
<path d="M103.093 94.0109C102.939 95.1368 102.227 96.2577 101.17 96.2946C100.707 96.3108 100.387 96.1009 100.186 95.7696C100.177 95.7561 100.165 95.7456 100.15 95.7394C100.136 95.7332 100.12 95.7317 100.104 95.7351C100.089 95.7385 100.075 95.7466 100.064 95.7583C100.054 95.77 100.047 95.7848 100.045 95.8006C100.016 96.015 100.001 96.1309 100.001 96.1309C99.9995 96.144 99.9933 96.156 99.9838 96.165C99.9721 96.1758 99.9569 96.1819 99.9411 96.1821L98.406 96.2357C98.4016 96.2349 98.3975 96.2332 98.3939 96.2307C98.3902 96.2282 98.3871 96.225 98.3847 96.2212C98.3823 96.2175 98.3807 96.2133 98.3799 96.2089C98.3792 96.2045 98.3793 96.2 98.3803 96.1957L99.1853 90.5058C99.1921 90.4579 99.2153 90.4139 99.2508 90.3816C99.2864 90.3493 99.332 90.3307 99.3798 90.329L100.695 90.2831C100.705 90.2828 100.715 90.2846 100.724 90.2884C100.733 90.2922 100.741 90.298 100.748 90.3053C100.755 90.3126 100.76 90.3212 100.763 90.3307C100.766 90.3402 100.767 90.3502 100.766 90.3601C100.733 90.6572 100.615 91.7163 100.518 92.3719C100.515 92.3927 100.519 92.4139 100.529 92.4324C100.538 92.4508 100.554 92.4656 100.573 92.4744C100.592 92.4831 100.613 92.4855 100.633 92.481C100.653 92.4766 100.672 92.4656 100.685 92.4497C100.998 92.0859 101.392 91.8374 101.83 91.8221C102.846 91.7866 103.249 92.9094 103.093 94.0109ZM101.44 94.0686C101.523 93.4523 101.385 92.9664 100.99 92.9802C100.595 92.994 100.313 93.4945 100.23 94.1109C100.146 94.7272 100.285 95.2213 100.68 95.2075C101.075 95.1937 101.356 94.685 101.44 94.0686Z" fill="#4AF2AB"/>
<path d="M107.883 93.8253C107.729 94.9512 107.017 96.0721 105.96 96.109C105.497 96.1252 105.177 95.9153 104.975 95.5841C104.967 95.5706 104.955 95.56 104.94 95.5539C104.926 95.5477 104.91 95.5462 104.894 95.5496C104.879 95.5529 104.865 95.561 104.854 95.5728C104.843 95.5845 104.837 95.5992 104.834 95.615C104.805 95.8295 104.791 95.9454 104.791 95.9454C104.789 95.9584 104.783 95.9704 104.774 95.9795C104.762 95.9903 104.747 95.9963 104.731 95.9966L103.196 96.0502C103.191 96.0493 103.187 96.0476 103.184 96.0451C103.18 96.0426 103.177 96.0394 103.175 96.0357C103.172 96.032 103.171 96.0278 103.17 96.0234C103.169 96.019 103.169 96.0145 103.17 96.0102L103.975 90.3203C103.982 90.2724 104.005 90.2284 104.041 90.1961C104.076 90.1638 104.122 90.1452 104.17 90.1435L105.485 90.0976C105.495 90.0972 105.505 90.099 105.514 90.1028C105.523 90.1066 105.531 90.1124 105.538 90.1197C105.544 90.127 105.549 90.1357 105.552 90.1452C105.556 90.1546 105.557 90.1646 105.556 90.1745C105.523 90.4717 105.405 91.5309 105.308 92.1865C105.305 92.2072 105.308 92.2284 105.318 92.2469C105.328 92.2654 105.344 92.2801 105.363 92.2889C105.381 92.2977 105.402 92.3 105.423 92.2956C105.443 92.2911 105.461 92.2801 105.475 92.2642C105.788 91.9004 106.181 91.6519 106.62 91.6366C107.636 91.6011 108.039 92.7239 107.883 93.8253ZM106.23 93.8831C106.313 93.2667 106.175 92.7808 105.78 92.7946C105.384 92.8084 105.103 93.309 105.02 93.9253C104.936 94.5417 105.074 95.0358 105.47 95.022C105.865 95.0082 106.146 94.4994 106.23 93.8831Z" fill="#4AF2AB"/>
<path d="M112.756 95.286C112.636 95.5519 112.155 95.8877 111.704 95.9035C111.291 95.9179 110.973 95.7353 110.828 95.4031C110.814 95.3711 110.793 95.3432 110.765 95.3219C110.738 95.3006 110.706 95.2865 110.672 95.2811C110.638 95.2756 110.603 95.279 110.57 95.2907C110.538 95.3025 110.509 95.3223 110.486 95.3484C110.168 95.7131 109.777 95.9626 109.34 95.9779C108.323 96.0134 107.921 94.8905 108.068 93.7894C108.222 92.6634 108.943 91.5423 109.999 91.5054C110.35 91.4931 110.619 91.6104 110.816 91.8119C110.843 91.8396 110.876 91.8591 110.914 91.8684C110.951 91.8777 110.99 91.8763 111.026 91.8644C111.062 91.8525 111.094 91.8306 111.119 91.801C111.144 91.7715 111.16 91.7356 111.165 91.6974C111.167 91.6841 111.168 91.6772 111.168 91.6772C111.17 91.6642 111.177 91.6521 111.186 91.6431C111.198 91.6323 111.213 91.6263 111.229 91.626L112.828 91.5702C112.833 91.571 112.837 91.5727 112.84 91.5752C112.844 91.5777 112.847 91.5809 112.85 91.5846C112.852 91.5884 112.854 91.5926 112.854 91.5969C112.855 91.6013 112.855 91.6058 112.854 91.6102C112.854 91.6102 112.54 93.486 112.463 94.053C112.282 95.3598 112.87 95.0612 112.756 95.286ZM110.94 93.6891C111.023 93.0727 110.885 92.5786 110.49 92.5924C110.094 92.6062 109.813 93.115 109.73 93.7314C109.646 94.3477 109.784 94.8336 110.18 94.8198C110.575 94.806 110.856 94.3054 110.94 93.6891Z" fill="#4AF2AB"/>
<path d="M114.601 97.4702C113.423 97.5113 112.992 96.7248 112.941 96.4158C112.863 96.0178 112.957 95.9409 113.038 95.9544C113.233 95.9803 113.375 96.5969 114.279 96.5654C114.924 96.5429 115.361 96.0859 115.448 95.5921L115.45 95.5845C115.483 95.3705 115.235 95.2279 115.072 95.3678C114.749 95.644 114.407 95.7593 114.13 95.769C113.533 95.7899 113.095 95.2735 113.212 94.4516C113.256 94.1065 113.295 93.8352 113.379 93.2189C113.559 91.912 112.907 92.2129 113.013 91.9884C113.141 91.7222 113.613 91.3867 114.065 91.3709C114.719 91.3481 115.187 91.8061 115.085 92.5785C115.046 92.858 114.949 93.5566 114.864 94.1239C114.755 94.9456 115.552 94.6315 115.704 93.6693C115.801 92.958 115.902 92.3057 115.968 91.8984C115.988 91.7763 116.048 91.665 116.14 91.5833C116.232 91.5017 116.348 91.4547 116.471 91.4505L117.415 91.4175C117.437 91.4167 117.459 91.4209 117.48 91.4296C117.501 91.4384 117.519 91.4516 117.535 91.4684C117.55 91.4851 117.561 91.505 117.568 91.5267C117.575 91.5483 117.577 91.5712 117.575 91.5938C117.506 92.1816 117.286 94.0388 117.162 94.9516C117.01 96.3719 116.094 97.4181 114.601 97.4702Z" fill="#4AF2AB"/>
<path d="M118.396 95.6442C117.96 95.6595 117.657 95.3102 117.722 94.858C117.779 94.4144 118.178 94.0405 118.614 94.0253C119.049 94.0101 119.36 94.3591 119.295 94.8031C119.23 95.2552 118.831 95.629 118.396 95.6442ZM118.634 93.6893C118.061 93.7093 118.199 91.8642 118.28 91.1743C118.428 89.8768 117.873 90.1661 117.978 89.9416C118.099 89.6838 118.579 89.3399 119.031 89.3241C119.684 89.3013 120.088 89.7616 119.978 90.5424C119.837 91.5861 119.288 93.6665 118.634 93.6893Z" fill="#4AF2AB"/>
<path d="M81.5351 116.631C80.9509 116.575 80.2618 116.476 79.3051 116.509C79.3051 116.509 79.2675 116.51 79.2753 116.462C79.8952 111.895 79.9866 111.283 79.9862 111.273C80.0406 110.14 79.4304 110.418 79.5531 110.166C79.711 109.847 80.3825 109.443 80.9359 109.424C81.6676 109.398 82.2644 109.815 82.1146 110.904C82.0201 111.556 81.7535 113.476 81.5734 114.787C81.5707 114.807 81.5723 114.827 81.578 114.846C81.5837 114.864 81.5935 114.882 81.6066 114.897C81.6197 114.911 81.6358 114.923 81.6539 114.931C81.6719 114.938 81.6913 114.942 81.7109 114.941C83.6807 114.873 83.5234 114.403 83.6687 114.531C83.7846 114.622 83.8478 114.819 83.8444 114.99C83.8152 116.304 82.5816 116.747 81.5351 116.631Z" fill="#FFE8A9"/>
<path d="M89.4473 115.7C89.3078 116.01 88.7486 116.4 88.2233 116.418C87.7442 116.435 87.3755 116.224 87.2067 115.839C87.1903 115.802 87.165 115.769 87.1329 115.744C87.1008 115.719 87.0631 115.703 87.0231 115.696C86.9832 115.69 86.9423 115.694 86.9042 115.708C86.8661 115.721 86.8321 115.745 86.8052 115.775C86.4361 116.198 85.9826 116.487 85.4746 116.505C84.2928 116.546 83.8246 115.24 83.9959 113.96C84.1755 112.651 85.0128 111.347 86.2416 111.304C86.6469 111.29 86.9579 111.425 87.1868 111.656C87.2182 111.689 87.2581 111.712 87.3017 111.723C87.3454 111.733 87.3911 111.732 87.4339 111.718C87.4767 111.704 87.5147 111.678 87.5438 111.643C87.5728 111.609 87.5918 111.566 87.5984 111.521C87.6001 111.51 87.6009 111.504 87.6009 111.504C87.6032 111.489 87.6105 111.475 87.6215 111.464C87.6351 111.452 87.6527 111.445 87.6711 111.445L89.5312 111.38C89.5362 111.381 89.541 111.383 89.5453 111.385C89.5495 111.388 89.5531 111.392 89.5559 111.396C89.5587 111.401 89.5606 111.406 89.5615 111.411C89.5623 111.416 89.5622 111.421 89.561 111.426C89.561 111.426 89.1958 113.607 89.1061 114.267C88.8962 115.786 89.5791 115.439 89.4473 115.7ZM87.3351 113.843C87.4322 113.127 87.2713 112.552 86.8116 112.568C86.352 112.584 86.0252 113.176 85.9281 113.893C85.8311 114.609 85.9917 115.174 86.4513 115.158C86.9109 115.142 87.2381 114.56 87.3351 113.843Z" fill="#FFE8A9"/>
<path d="M95.0757 113.623C94.896 114.932 94.0681 116.235 92.8393 116.278C92.3005 116.297 91.9283 116.053 91.6943 115.668C91.6846 115.652 91.6702 115.64 91.6534 115.633C91.6365 115.626 91.6178 115.624 91.5999 115.628C91.582 115.632 91.5657 115.641 91.5533 115.655C91.5409 115.668 91.5329 115.686 91.5305 115.704C91.4968 115.953 91.4803 116.088 91.4803 116.088C91.478 116.103 91.4708 116.117 91.4597 116.128C91.4461 116.14 91.4285 116.147 91.4101 116.148L89.6251 116.21C89.6201 116.209 89.6153 116.207 89.611 116.204C89.6068 116.201 89.6032 116.197 89.6004 116.193C89.5976 116.189 89.5957 116.184 89.5948 116.179C89.5939 116.174 89.5941 116.168 89.5953 116.163L90.5313 109.547C90.5392 109.492 90.5661 109.44 90.6075 109.403C90.6488 109.365 90.7019 109.344 90.7574 109.342L92.2869 109.288C92.2984 109.288 92.3098 109.29 92.3203 109.294C92.3309 109.299 92.3404 109.306 92.3482 109.314C92.356 109.323 92.3619 109.333 92.3655 109.344C92.3691 109.355 92.3703 109.366 92.369 109.378C92.3312 109.723 92.1941 110.955 92.081 111.717C92.0774 111.741 92.0817 111.766 92.0931 111.787C92.1046 111.809 92.1227 111.826 92.1446 111.836C92.1665 111.846 92.1911 111.849 92.2147 111.844C92.2382 111.839 92.2595 111.826 92.2753 111.808C92.6388 111.385 93.0968 111.096 93.6062 111.078C94.7881 111.037 95.2563 112.342 95.0757 113.623ZM93.1528 113.69C93.2498 112.973 93.0892 112.408 92.6296 112.424C92.17 112.44 91.8428 113.023 91.7458 113.739C91.6487 114.456 91.8097 115.03 92.2693 115.014C92.7289 114.998 93.0557 114.407 93.1528 113.69Z" fill="#FFE8A9"/>
<path d="M100.645 113.41C100.466 114.719 99.6377 116.023 98.4089 116.066C97.8701 116.084 97.4979 115.84 97.2639 115.455C97.2541 115.439 97.2398 115.427 97.2229 115.42C97.206 115.413 97.1874 115.411 97.1695 115.415C97.1516 115.419 97.1353 115.428 97.1229 115.442C97.1105 115.456 97.1025 115.473 97.1001 115.491C97.0664 115.74 97.0499 115.875 97.0499 115.875C97.0476 115.89 97.0404 115.904 97.0293 115.915C97.0157 115.927 96.9981 115.934 96.9797 115.935L95.1947 115.997C95.1896 115.996 95.1849 115.994 95.1806 115.991C95.1764 115.988 95.1727 115.985 95.17 115.98C95.1672 115.976 95.1653 115.971 95.1644 115.966C95.1635 115.961 95.1637 115.956 95.1648 115.951L96.1009 109.334C96.1088 109.279 96.1357 109.228 96.1771 109.19C96.2184 109.152 96.2715 109.131 96.327 109.129L97.8565 109.075C97.868 109.075 97.8793 109.077 97.8899 109.082C97.9005 109.086 97.91 109.093 97.9178 109.101C97.9256 109.11 97.9314 109.12 97.935 109.131C97.9386 109.142 97.9398 109.153 97.9386 109.165C97.9007 109.51 97.7636 110.742 97.6505 111.504C97.647 111.529 97.6512 111.553 97.6627 111.575C97.6742 111.596 97.6922 111.613 97.7141 111.623C97.736 111.634 97.7606 111.636 97.7842 111.631C97.8077 111.626 97.829 111.613 97.8447 111.595C98.2083 111.172 98.6664 110.883 99.1758 110.865C100.358 110.824 100.826 112.129 100.645 113.41ZM98.7223 113.477C98.8194 112.76 98.6588 112.195 98.1992 112.212C97.7396 112.228 97.4124 112.81 97.3153 113.526C97.2183 114.243 97.3792 114.818 97.8388 114.801C98.2985 114.785 98.6253 114.194 98.7223 113.477Z" fill="#FFE8A9"/>
<path d="M106.312 115.108C106.172 115.417 105.613 115.807 105.088 115.826C104.607 115.842 104.238 115.63 104.07 115.244C104.053 115.206 104.028 115.174 103.997 115.149C103.965 115.124 103.927 115.108 103.888 115.102C103.848 115.095 103.807 115.099 103.77 115.113C103.732 115.127 103.698 115.15 103.672 115.18C103.302 115.604 102.848 115.894 102.339 115.912C101.157 115.953 100.689 114.648 100.86 113.367C101.04 112.058 101.877 110.754 103.106 110.711C103.514 110.697 103.826 110.834 104.055 111.068C104.086 111.1 104.126 111.123 104.169 111.134C104.212 111.144 104.257 111.143 104.299 111.129C104.342 111.115 104.379 111.09 104.408 111.055C104.437 111.021 104.455 110.979 104.462 110.935C104.464 110.919 104.465 110.911 104.465 110.911C104.467 110.896 104.475 110.882 104.486 110.872C104.499 110.859 104.517 110.852 104.535 110.852L106.395 110.787C106.401 110.788 106.405 110.79 106.41 110.793C106.414 110.796 106.417 110.799 106.42 110.804C106.423 110.808 106.425 110.813 106.426 110.818C106.427 110.823 106.426 110.828 106.425 110.833C106.425 110.833 106.06 113.014 105.97 113.674C105.76 115.193 106.443 114.846 106.312 115.108ZM104.199 113.251C104.296 112.534 104.136 111.959 103.676 111.975C103.216 111.992 102.889 112.583 102.792 113.3C102.695 114.016 102.856 114.582 103.316 114.565C103.775 114.549 104.102 113.967 104.199 113.251Z" fill="#FFE8A9"/>
<path d="M108.457 117.649C107.087 117.697 106.586 116.782 106.526 116.423C106.435 115.96 106.545 115.871 106.639 115.886C106.866 115.917 107.031 116.634 108.082 116.597C108.832 116.571 109.34 116.039 109.442 115.465L109.443 115.456C109.482 115.207 109.194 115.042 109.004 115.204C108.629 115.525 108.232 115.66 107.909 115.671C107.215 115.695 106.705 115.095 106.841 114.139C106.893 113.738 106.938 113.422 107.035 112.706C107.245 111.186 106.487 111.536 106.61 111.275C106.758 110.965 107.308 110.575 107.834 110.557C108.593 110.53 109.138 111.063 109.019 111.961C108.974 112.286 108.861 113.098 108.762 113.758C108.636 114.713 109.562 114.348 109.739 113.229C109.852 112.402 109.97 111.644 110.046 111.17C110.069 111.028 110.14 110.899 110.246 110.804C110.353 110.709 110.488 110.654 110.63 110.649L111.728 110.611C111.754 110.61 111.78 110.615 111.804 110.625C111.828 110.635 111.85 110.651 111.868 110.67C111.885 110.69 111.899 110.713 111.907 110.738C111.915 110.763 111.917 110.79 111.914 110.816C111.834 111.499 111.578 113.659 111.435 114.72C111.258 116.372 110.192 117.588 108.457 117.649Z" fill="#FFE8A9"/>
<path d="M112.869 115.521C112.362 115.539 112.01 115.132 112.085 114.607C112.152 114.091 112.616 113.656 113.122 113.638C113.629 113.621 113.99 114.027 113.914 114.543C113.839 115.069 113.375 115.503 112.869 115.521ZM113.146 113.248C112.48 113.271 112.64 111.125 112.734 110.323C112.907 108.815 112.261 109.151 112.383 108.89C112.523 108.59 113.082 108.19 113.607 108.172C114.367 108.145 114.837 108.681 114.709 109.589C114.545 110.802 113.906 113.221 113.146 113.248Z" fill="#FFE8A9"/>
<path d="M132.561 100.404L124.201 100.424L124.112 83.7835L132.472 83.7637L132.561 100.404Z" fill="#2CA070"/>
<path d="M100.211 86.0264H88.165V87.9484H100.211V86.0264Z" fill="white"/>
<path d="M107.556 81.5509C107.113 80.4271 105.997 81.017 105.067 81.7881C105.465 80.2783 105.491 78.7531 104.392 77.4156C104.17 77.145 103.723 77.3118 103.638 77.6149C103.087 79.5901 102.868 81.5843 102.98 83.6317C102.934 83.6623 102.888 83.6993 102.851 83.7516C94.2253 95.6048 98.6295 110.772 100.524 123.981C100.606 124.554 101.475 124.31 101.394 123.741C99.5377 110.796 95.1778 95.9421 103.561 84.3045C103.601 84.3045 103.638 84.3099 103.681 84.2982C104.592 84.0655 108.139 83.0301 107.556 81.5509ZM104.248 78.957C104.665 80.1313 104.313 81.4436 103.863 82.6359C103.863 81.3949 103.99 80.1719 104.248 78.957Z" fill="#2CA070"/>
<path d="M223.769 34.2216H223.693C219.584 30.9034 214.433 29.8436 209.44 31.3832C209.91 29.877 210.655 28.4673 209.997 26.8582C209.325 25.2167 207.497 24.2588 205.89 23.8097C202.947 22.9871 199.783 23.3777 197.482 25.1896C196.643 21.2202 193.282 17.8488 188.94 18.0463C184.342 18.2547 181.156 22.3937 181.041 26.7103C178.626 26.0501 175.955 25.7849 173.575 26.5976C171.515 27.3002 170.96 29.3665 169.439 30.0357C167.38 30.9422 165.003 29.3484 163.181 31.2975C162.39 32.1435 162.186 33.1257 162.468 34.0827C162.859 34.8349 163.449 35.4906 164.135 36.0245H223.105C223.512 36.2699 223.971 36.1562 224.254 35.8676C224.882 35.441 224.728 34.2216 223.769 34.2216Z" fill="#CCFFEA"/>
<path d="M230.41 75.0417C230.41 74.9046 230.384 74.7612 230.305 74.6133C229.39 72.9086 228.119 71.5557 226.193 71.0254C225.86 70.9343 223.559 70.9812 223.389 70.9127C221.395 70.1154 222.768 70.1722 221.526 69.1061C219.001 66.9397 216.778 67.0587 214.467 68.7913C214.147 65.6733 213.445 63.5051 208.897 64.15C204.685 64.7489 202.602 68.2475 202.715 72.0626C200.048 71.7722 197.84 72.234 196.689 75.0751C196.501 75.5387 196.726 75.8769 197.068 76.0401C197.161 76.3883 197.43 76.6805 197.896 76.6805H229.914C230.869 76.6823 231.026 75.4755 230.41 75.0417Z" fill="#CCFFEA"/>
<path d="M59.8844 118.774C59.2053 115.623 56.7692 115.571 53.8803 115.906C50.8462 116.258 48.7609 116.176 45.7891 115.515C44.6193 115.254 43.6244 115.134 42.5024 115.658C35.6387 118.868 36.3386 128.145 38.9759 133.754C39.1986 134.227 39.5567 134.449 39.9364 134.496C40.06 134.65 40.1935 134.793 40.3459 134.915C42.0984 136.316 47.8798 135.465 49.6638 134.288C50.6631 133.628 51.0275 132.631 51.6282 131.661C53.1344 129.224 55.1033 128.474 57.2057 126.799C59.6003 124.892 60.5284 121.756 59.8844 118.774Z" fill="#15BE77"/>
<path d="M298.313 113.893C297.54 110.402 294.768 110.344 291.481 110.716C288.029 111.106 285.657 111.015 282.275 110.282C280.944 109.993 279.812 109.86 278.536 110.44C270.726 113.998 271.522 124.276 274.523 130.491C274.777 131.015 275.184 131.261 275.616 131.313C275.757 131.484 275.909 131.642 276.082 131.777C278.076 133.33 284.654 132.386 286.684 131.082C287.821 130.351 288.235 129.246 288.919 128.171C290.633 125.472 292.873 124.641 295.265 122.785C297.99 120.672 299.046 117.197 298.313 113.893Z" fill="#15BE77"/>
<path d="M67.7167 62.6062C65.7433 58.7857 62.6704 56.0131 59.0862 53.734C55.5253 51.4692 51.5767 49.6049 48.6039 46.5375C44.759 42.5699 44.2972 37.28 43.8327 32.047C43.5928 29.3602 43.4322 25.5324 42.1073 22.6958C41.1891 19.8511 38.9722 17.7271 35.019 16.7846C27.9317 15.0962 20.0037 17.4691 14.1348 21.5098C8.60326 25.3195 3.17094 31.1262 1.01893 37.5569C-1.0014 43.5936 0.361444 56.5254 1.84241 60.3514C3.62463 64.9549 6.51982 69.3752 6.66233 74.4477C6.91938 83.614 -2.44358 92.2852 1.55197 101.491C3.49654 105.973 8.06661 108.551 12.2651 110.571C17.545 113.111 23.0026 115.273 28.5612 117.123C28.4917 117.251 28.4836 117.414 28.6009 117.555C30.8259 120.225 34.7511 119.03 36.84 116.833C38.367 115.228 39.3131 113.189 40.5659 111.384C42.0694 109.215 43.9869 107.383 46.0496 105.753C49.6907 102.877 53.7647 100.605 57.3995 97.7202C61.0262 94.8431 64.1902 91.3336 66.5018 87.3101C70.8139 79.8016 71.7664 70.4494 67.7167 62.6062Z" fill="#2FE297"/>
<path d="M306.515 51.6433C304.338 47.3884 300.947 44.3007 296.992 41.7625C293.063 39.2403 288.706 37.1641 285.426 33.7479C281.184 29.3293 280.674 23.4381 280.161 17.6102C279.897 14.6179 279.72 10.355 278.258 7.19597C277.245 4.0279 274.798 1.6624 270.436 0.612734C262.616 -1.26762 253.868 1.37513 247.393 5.87511C241.289 10.1179 235.295 16.5847 232.921 23.7465C230.691 30.4693 232.195 44.8713 233.829 49.1322C235.796 54.259 238.99 59.1818 239.148 64.8309C239.431 75.0392 229.1 84.6961 233.509 94.9486C235.654 99.9398 240.697 102.811 245.33 105.061C251.156 107.889 257.177 110.297 263.311 112.358C263.234 112.5 263.225 112.681 263.355 112.838C265.81 115.812 270.141 114.481 272.446 112.035C274.131 110.247 275.175 107.977 276.557 105.966C278.216 103.551 280.332 101.51 282.608 99.6947C286.625 96.4915 291.12 93.9613 295.131 90.749C299.133 87.5448 302.624 83.6364 305.175 79.1555C309.933 70.7934 310.984 60.3781 306.515 51.6433Z" fill="#2FE297"/>
<path d="M35.2031 187.195H24.9761L30.0901 73.7891L35.2031 187.195Z" fill="#3F4261"/>
<path d="M30.0901 103.002L44.6571 85.1155L30.0901 109.372V103.002Z" fill="#3F4261"/>
<path d="M31.9751 140.412L46.5422 122.527L31.9751 146.782V140.412Z" fill="#3F4261"/>
<path d="M29.7131 101.681V95.9738L12.5908 76.8268L29.7131 101.681Z" fill="#3F4261"/>
<path d="M270.856 188.504H259.717L265.287 63.1357L270.856 188.504Z" fill="#3F4261"/>
<path d="M265.287 95.4298L281.153 75.6569L265.287 102.472V95.4298Z" fill="#3F4261"/>
<path d="M267.34 136.786L283.206 117.014L267.34 143.828V136.786Z" fill="#3F4261"/>
<path d="M264.876 93.9701V87.6606L246.227 66.4939L264.876 93.9701Z" fill="#3F4261"/>
<path d="M179.842 95.9405C179.912 95.9324 181.087 94.9412 182.264 95.109C183.378 95.2686 184.691 95.9577 185.589 96.7135C186.342 97.3494 186.896 97.9996 187.322 98.879C187.661 99.5834 187.362 99.8721 187.213 99.9145C187.215 100.7 186.211 101.352 185.681 100.564C185.579 100.411 185.478 100.253 185.378 100.095C184.983 100.466 184.243 100.522 183.903 99.8991C183.618 99.3769 183.533 98.5201 183.09 98.1187C182.539 97.6199 181.312 97.8193 180.654 97.8923C179.505 98.0213 178.688 96.0686 179.842 95.9405Z" fill="#F6C3B9"/>
<path d="M195.686 106.014C196.044 105.867 196.343 105.572 196.48 105.175C196.735 104.442 196.346 103.643 195.615 103.389L186.91 100.368C186.18 100.112 185.377 100.5 185.124 101.233C184.87 101.966 185.258 102.765 185.99 103.019L194.695 106.041C195.03 106.158 195.381 106.139 195.686 106.014Z" fill="#C7FFE7"/>
<path d="M186.316 104.098L178.638 100.837C177.934 100.55 177.596 99.7444 177.884 99.04L178.646 97.1739C178.934 96.4695 179.74 96.1313 180.444 96.419L188.121 99.6795C188.826 99.9672 189.164 100.773 188.876 101.477L188.114 103.343C187.825 104.048 187.02 104.386 186.316 104.098Z" fill="#1C7D54"/>
<path d="M187.02 99.2104C186.607 96.85 182.596 95.9219 180.655 96.5253C178.778 97.1107 179.719 100.339 180.029 100.874C180.418 101.552 181.332 103.158 182.482 102.364C182.169 101.913 181.704 101.235 181.669 100.727C181.634 100.211 181.379 99.1111 181.824 98.8505C182.116 98.68 183.163 98.5258 183.713 98.5429C185.046 98.5862 187.505 99.4034 187.02 99.2104Z" fill="#F6C3B9"/>
<path d="M180.286 98.8586L174.113 97.7546L178.341 94.0342L182.681 95.3871L180.286 98.8586Z" fill="#F6C3B9"/>
<path d="M103.594 153.512C104.791 153.512 105.762 152.542 105.762 151.344C105.762 150.147 104.791 149.176 103.594 149.176C102.396 149.176 101.425 150.147 101.425 151.344C101.425 152.542 102.396 153.512 103.594 153.512Z" fill="#FFD357"/>
<path d="M103.889 148.59C106.021 149.934 109.068 148.929 110.695 146.348C112.321 143.766 111.911 140.584 109.779 139.241C107.647 137.897 104.6 138.902 102.974 141.483C101.347 144.065 101.757 147.247 103.889 148.59Z" fill="#FFD357"/>
<path d="M123.92 123.872C122.815 123.872 121.793 124.627 121.616 125.717C121.39 127.105 122.456 128.305 123.802 128.305L139.985 129.964V146.788H154.47V131.465C154.47 127.271 151.069 123.872 146.877 123.872H123.92Z" fill="#2FE297"/>
<path d="M180.029 158.03V162.59H154.469C153.277 159.677 150.821 154.98 146.824 152.837C140.802 149.599 126.839 150.646 115.605 151.055C104.372 151.452 102.819 154.607 102.819 154.607C102.819 154.607 103.42 151.116 105.106 146.781C105.106 146.781 105.106 146.781 105.119 146.769C107.201 141.423 110.946 134.79 117.267 131.887C128.705 126.626 147.679 126.169 153.988 137.306C154.517 138.221 154.553 141.351 154.433 144.422C154.301 148.178 157.299 158.03 161.055 158.03H180.029Z" fill="#C7FFE7"/>
<path d="M125.524 132.444C124.024 128.747 118.316 126.055 114.607 125.075C108.225 123.389 100.243 124.082 93.6668 123.873C92.1173 123.823 92.1191 126.231 93.6668 126.281C97.0211 126.387 101.841 126.166 104.894 126.037C104.617 130.483 108.744 135.695 111.704 139.056C112.73 140.221 114.427 138.513 113.406 137.353C110.923 134.534 107.151 129.766 107.29 126.086C111.951 126.296 121.456 128.78 123.203 133.083C123.778 134.5 126.108 133.882 125.524 132.444Z" fill="#14AA6B"/>
<path d="M165.897 158.377C165.49 157.335 165.337 156.487 165.548 154.843C165.543 154.825 165.55 154.815 165.55 154.815C165.72 153.538 165.746 150.254 165.863 149.005C167.648 148.078 170.25 150.045 172.664 150.188C172.664 151.907 172.783 153.66 173.227 154.535C173.296 154.677 173.382 154.815 173.485 154.946C174.828 156.721 178.348 157.467 179.931 158.549C180.368 158.824 180.655 159.131 180.724 159.482C181.102 161.262 166.893 160.876 165.897 158.377Z" fill="#E93E72"/>
<path d="M180.643 159.285C180.684 159.352 180.7 159.408 180.713 159.481C181.159 161.382 166.631 161.047 165.675 158.632L165.666 158.623C165.592 158.499 165.536 158.359 165.491 158.21C165.088 156.961 165.491 155.101 165.552 154.839C165.543 154.829 165.552 154.82 165.552 154.82C169.492 156.534 173.483 154.941 173.483 154.941C174.661 156.501 177.506 157.272 179.255 158.153C179.951 158.449 180.459 158.826 180.643 159.285Z" fill="#343751"/>
<path d="M180.643 159.285C180.684 159.352 180.7 159.408 180.713 159.482C181.159 161.382 166.63 161.047 165.675 158.632L165.666 158.623C165.591 158.499 165.536 158.359 165.49 158.21C166.304 158.66 167.98 159.418 170.451 159.673C173.65 160.007 177.012 160.214 180.643 159.285Z" fill="#2A2B3B"/>
<path d="M168.369 111.906C168.215 113.534 168.109 115.18 168.032 116.821C167.767 121.878 167.699 126.952 166.843 131.941C165.625 139.101 161.571 154.085 161.981 153.731C168.198 157.262 175.043 158.758 180.176 157.054C183.584 149.397 188.508 120.282 188.34 115.148C188.142 109.111 168.833 107.123 168.369 111.906Z" fill="#14A467"/>
<path d="M126.572 147.795C115.262 147.795 106.099 156.959 106.099 168.259C106.099 179.569 115.262 188.733 126.572 188.733C137.873 188.733 147.037 179.569 147.037 168.259C147.037 156.959 137.873 147.795 126.572 147.795ZM126.572 182.736C118.573 182.736 112.097 176.26 112.097 168.26C112.097 160.27 118.573 153.793 126.572 153.793C134.563 153.793 141.04 160.27 141.04 168.26C141.04 176.26 134.563 182.736 126.572 182.736Z" fill="#3F4261"/>
<path d="M126.572 153.793C118.572 153.793 112.097 160.27 112.097 168.26C112.097 176.26 118.572 182.736 126.572 182.736C134.563 182.736 141.04 176.26 141.04 168.26C141.04 160.269 134.563 153.793 126.572 153.793ZM126.572 178.497C120.926 178.497 116.335 173.915 116.335 168.259C116.335 162.604 120.926 158.031 126.572 158.031C132.219 158.031 136.8 162.604 136.8 168.259C136.8 173.915 132.218 178.497 126.572 178.497Z" fill="#C7FFE7"/>
<path d="M136.8 168.259C136.8 173.915 132.218 178.497 126.571 178.497C120.925 178.497 116.334 173.915 116.334 168.259C116.334 162.604 120.925 158.031 126.571 158.031C132.218 158.031 136.8 162.604 136.8 168.259Z" fill="#565B82"/>
<path d="M126.567 172.492C128.903 172.492 130.797 170.598 130.797 168.262C130.797 165.926 128.903 164.032 126.567 164.032C124.231 164.032 122.337 165.926 122.337 168.262C122.337 170.598 124.231 172.492 126.567 172.492Z" fill="#C7FFE7"/>
<path d="M211.679 147.145C200.373 147.145 191.211 156.306 191.211 167.612C191.211 178.917 200.373 188.079 211.679 188.079C222.985 188.079 232.146 178.917 232.146 167.612C232.146 156.306 222.985 147.145 211.679 147.145ZM211.679 182.084C203.685 182.084 197.208 175.606 197.208 167.612C197.208 159.617 203.685 153.14 211.679 153.14C219.673 153.14 226.15 159.617 226.15 167.612C226.15 175.606 219.673 182.084 211.679 182.084Z" fill="#3F4261"/>
<path d="M211.678 153.143C203.687 153.143 197.211 159.618 197.211 167.61C197.211 175.61 203.687 182.086 211.678 182.086C219.669 182.086 226.154 175.61 226.154 167.61C226.154 159.618 219.669 153.143 211.678 153.143ZM211.678 177.846C206.032 177.846 201.441 173.256 201.441 167.61C201.441 161.954 206.032 157.382 211.678 157.382C217.325 157.382 221.916 161.954 221.916 167.61C221.915 173.256 217.325 177.846 211.678 177.846Z" fill="#C7FFE7"/>
<path d="M221.915 167.61C221.915 173.256 217.324 177.847 211.677 177.847C206.031 177.847 201.44 173.256 201.44 167.61C201.44 161.954 206.031 157.382 211.677 157.382C217.325 157.382 221.915 161.955 221.915 167.61Z" fill="#565B82"/>
<path d="M211.679 171.967C214.339 171.967 216.495 169.81 216.495 167.15C216.495 164.49 214.339 162.334 211.679 162.334C209.019 162.334 206.863 164.49 206.863 167.15C206.863 169.81 209.019 171.967 211.679 171.967Z" fill="#C7FFE7"/>
<path d="M212.874 169.727C211.269 170.411 209.411 169.664 208.726 168.059L198.681 144.498C197.997 142.892 198.743 141.036 200.35 140.351C201.954 139.666 203.811 140.413 204.497 142.019L214.542 165.579C215.225 167.185 214.479 169.042 212.874 169.727Z" fill="#3BEEA1"/>
<path d="M180.029 160.282C180.029 160.282 176.703 171.904 184.231 174.083C187.538 175.041 190.475 161.867 196.494 155.646C202.73 149.202 223.615 148.583 226.151 146.789C230.832 143.474 215.647 136.204 205.212 137.409C194.779 138.611 180.029 160.282 180.029 160.282Z" fill="#2FE297"/>
<path d="M205.217 137.403C205.41 141.016 180.029 162.591 180.029 162.591V158.031C180.029 158.031 188.963 141.822 188.758 136.609C188.553 131.383 187.957 106.962 187.957 106.962L195.173 104.406C195.173 104.406 205.011 133.791 205.217 137.403Z" fill="#C7FFE7"/>
<path d="M147.962 162.59C147.962 162.59 145.704 169.312 148.915 170.315C152.126 171.318 180.029 169.267 180.029 169.267V162.59H147.962Z" fill="#2FE297"/>
<path d="M154.47 162.59C154.47 162.59 149.594 162.575 147.968 162.59C127.785 146.787 102.819 163.39 99.9542 160.627C95.9009 156.72 102.858 148.659 117.719 146.787C147.037 143.096 153.277 159.676 154.47 162.59Z" fill="#2FE297"/>
<path d="M177.311 108.252C177.361 108.254 177.409 108.254 177.46 108.252L195.16 107.369C195.935 107.331 196.531 106.672 196.492 105.897C196.454 105.122 195.816 104.521 195.021 104.565L177.321 105.448C176.546 105.486 175.95 106.145 175.989 106.92C176.027 107.644 176.604 108.212 177.311 108.252Z" fill="#C7FFE7"/>
<path d="M183.134 109.216L169.197 110.54C168.439 110.612 167.766 110.056 167.695 109.298L167.503 107.291C167.432 106.532 167.988 105.859 168.746 105.788L182.683 104.464C183.441 104.393 184.114 104.948 184.186 105.706L184.376 107.714C184.448 108.472 183.892 109.145 183.134 109.216Z" fill="#1C7D54"/>
<path d="M202.005 112.227C204.449 112.056 206.225 108.978 205.971 105.354C205.717 101.729 203.53 98.9297 201.085 99.101C198.641 99.2723 196.865 102.349 197.119 105.974C197.373 109.599 199.561 112.398 202.005 112.227Z" fill="#FDD44B"/>
<path d="M201.037 99.1172C201.037 99.1172 198.784 99.1596 195.798 99.8685C195.155 100.021 194.555 100.358 194.126 100.862C192.045 103.31 192.18 106.846 193.588 109.872C194.119 111.012 195.26 111.749 196.514 111.842C199.695 112.077 201.729 112.25 201.729 112.25C197.861 107.599 201.037 99.1172 201.037 99.1172Z" fill="#2FE297"/>
<path d="M203.745 101.142C202.785 99.9384 200.786 101.284 201.755 102.501C202.699 103.685 202.795 105.119 202.891 106.578C202.992 108.124 205.394 107.958 205.293 106.41C205.172 104.548 204.944 102.649 203.745 101.142Z" fill="#FCECB9"/>
<path d="M142.985 67.3214C152.936 63.5631 161.692 77.5611 166.682 84.4058C171.671 91.2506 169.214 95.3435 165.712 94.5471C154.729 92.0479 136.954 69.5988 142.985 67.3214Z" fill="#F2F1FF"/>
<path d="M178.811 89.7368C171.533 87.1943 160.802 86.7226 154.591 86.3528C149.891 86.0723 151.171 97.4357 152.599 98.0959C154.029 98.7552 168.129 103.446 177.984 101.042C177.983 101.041 180.237 90.2347 178.811 89.7368Z" fill="#F2F1FF"/>
<path d="M181.298 119.383C180.229 110.612 151.189 101.701 146.888 99.9412C143.848 98.7056 139.185 100.052 135.793 100.62C129.418 101.694 126.314 105.536 127.118 114.718C127.641 120.607 135.496 122.131 140.926 123.926C147.628 126.145 166.84 127.474 167.346 127.591C173.37 128.981 182.25 127.192 181.298 119.383Z" fill="#075031"/>
<path d="M155.648 107.213C155.648 107.213 177.02 111.295 178.714 118.285C180.41 125.275 172.395 143.199 172.395 143.199L174.66 120.202L155.648 107.213Z" fill="#17171D"/>
<path d="M141.511 103.223C138.471 101.987 135.233 100.264 131.842 100.832C128.307 101.428 125.78 102.872 124.374 105.604C123.228 107.804 122.805 110.836 123.166 114.93C123.689 120.819 131.544 122.344 136.974 124.139C137.101 124.184 137.236 124.22 137.371 124.265C137.84 124.41 138.363 124.554 138.922 124.68C139.211 124.753 139.518 124.825 139.824 124.888C140.14 124.95 140.456 125.022 140.789 125.086C140.798 125.086 140.807 125.095 140.815 125.095C141.303 125.194 141.808 125.285 142.332 125.375C142.413 125.394 142.494 125.402 142.575 125.421C143.216 125.529 143.874 125.636 144.542 125.737C144.921 125.792 145.3 125.854 145.688 125.908C146.463 126.016 147.248 126.123 148.042 126.224C148.411 126.278 148.78 126.323 149.15 126.368C150.756 126.566 152.37 126.747 153.894 126.909C154.689 126.99 155.455 127.072 156.195 127.144C158.243 127.343 160.028 127.496 161.309 127.613C161.489 127.631 162.084 127.64 162.951 127.622C164.032 127.596 165.557 127.524 167.289 127.352C173.431 126.757 182.252 124.926 183.713 119.658C182.64 110.889 145.814 104.982 141.511 103.223Z" fill="#15BE77"/>
<path d="M165.078 114.794C164.844 115.922 164.329 119.313 163.915 121.974C163.743 123.092 163.59 124.075 163.482 124.716C163.319 125.69 163.149 126.655 162.95 127.62C162.607 129.415 162.211 131.192 161.705 132.941C159.91 139.228 155.148 150.078 154.751 151.629C156.086 151.981 157.448 152.306 158.801 152.612C164.023 153.848 169.154 154.975 172.474 156.924C176.253 150.448 183.712 121.685 183.712 119.656C182.64 114.054 166.016 110.293 165.078 114.794Z" fill="#15BE77"/>
<path d="M166.589 127.414C166.084 125.367 165.746 123.436 164.068 122.083C164.023 122.047 163.969 122.002 163.915 121.975C161.254 120.081 153.164 120.044 152.298 119.927C125.619 117.284 126.999 103.953 126.999 103.953L124.374 105.604C123.228 107.804 122.805 110.836 123.166 114.931C123.689 120.819 131.544 122.344 136.974 124.139C137.101 124.184 137.236 124.22 137.371 124.266C137.84 124.41 138.363 124.545 138.922 124.68C139.211 124.753 139.518 124.825 139.824 124.888C140.14 124.95 140.456 125.022 140.789 125.086C140.798 125.086 140.807 125.095 140.815 125.095C141.303 125.185 141.808 125.285 142.332 125.375C142.413 125.394 142.494 125.402 142.575 125.421C143.216 125.529 143.866 125.636 144.542 125.737C144.921 125.792 145.3 125.854 145.688 125.908C146.463 126.016 147.248 126.123 148.042 126.224C148.411 126.278 148.78 126.323 149.15 126.368C150.756 126.566 152.37 126.747 153.894 126.909C154.689 126.99 155.455 127.072 156.195 127.144C158.243 127.343 160.028 127.496 161.309 127.613C161.489 127.632 162.084 127.641 162.951 127.622C162.607 129.417 162.211 131.194 161.705 132.944C159.91 139.23 155.148 150.081 154.751 151.632C156.086 151.984 157.448 152.308 158.801 152.615C158.964 152.317 159.098 152.02 159.216 151.776C159.947 150.369 160.533 148.881 161.101 147.402C162.481 143.846 167.419 130.761 166.589 127.414Z" fill="#15AA6B"/>
<path d="M171.699 97.5596C166.277 94.2134 163.549 92.5818 159.742 90.3053C157.698 79.8934 152.721 70.8164 152.721 70.8164L156.131 92.1462C156.131 92.1462 160.212 96.1552 160.814 94.7004C160.942 94.7284 161.068 94.7591 161.201 94.7798C161.544 94.8348 161.765 94.5399 161.764 94.2774C162.676 94.6932 163.595 95.0946 164.562 95.4066C167.197 96.2581 172.127 97.8238 171.699 97.5596Z" fill="#1CD084"/>
<path d="M157.778 158.726C157.762 158.726 157.746 158.723 157.73 158.718C157.644 158.692 157.596 158.601 157.622 158.515C157.711 158.224 166.503 129.385 167.138 123.753C167.272 122.565 167.053 121.642 166.471 120.929C164.868 118.972 160.618 118.604 154.185 118.048C152.344 117.888 150.257 117.708 148.037 117.469C135.495 116.121 131.22 105.072 131.178 104.962C131.146 104.877 131.19 104.784 131.273 104.752C131.358 104.722 131.45 104.763 131.482 104.847C131.523 104.957 135.733 115.82 148.072 117.146C150.287 117.385 152.373 117.565 154.214 117.725C160.729 118.288 165.033 118.66 166.723 120.724C167.364 121.507 167.606 122.51 167.461 123.79C166.823 129.451 158.022 158.319 157.934 158.609C157.912 158.68 157.847 158.726 157.778 158.726Z" fill="#22CC85"/>
<path d="M122.362 104.769C122.362 104.769 126.448 73.0802 135.844 67.6442C141.892 64.1447 151.225 67.2221 153.309 71.8157C157.373 80.7754 159.742 104.733 159.742 104.733C159.742 104.733 138.014 109.287 122.362 104.769Z" fill="#2FE297"/>
<path d="M146.294 62.0334C146.294 62.0334 146.184 65.624 146.064 66.4313C146.027 66.6775 145.521 67.4432 145.093 67.7336C143.586 66.6531 142.339 66.9066 141.865 66.4313C142.231 65.4229 142.421 63.9482 142.421 62.0334C142.421 60.2224 146.294 62.0334 146.294 62.0334Z" fill="#ECB5AA"/>
<path d="M145.093 67.7342L144.452 65.5723L142.051 65.8212L140.03 66.2424L145.093 67.7342Z" fill="#F2F8FF"/>
<path d="M145.093 67.7342L145.894 65.5723L146.888 66.7935L145.093 67.7342Z" fill="#F2F8FF"/>
<path d="M154.748 151.627C154.758 150.811 172.301 155.618 172.47 156.918C172.701 158.689 154.719 154.008 154.748 151.627Z" fill="#232186"/>
<path d="M158.215 160.973C157.811 159.93 157.659 159.081 157.872 157.438C157.866 157.42 157.874 157.41 157.874 157.41C158.043 156.133 158.755 153.452 159.421 152.374C160.867 152.829 163.418 153.464 165.805 154.149C165.413 155.606 165.107 156.261 165.551 157.137C165.619 157.28 165.705 157.417 165.808 157.549C167.149 159.325 170.668 160.075 172.25 161.158C172.688 161.434 172.974 161.741 173.043 162.092C173.418 163.873 159.209 163.471 158.215 160.973Z" fill="#ECB5AA"/>
<path d="M172.96 161.894C173.002 161.961 173.017 162.017 173.031 162.091C173.474 163.992 158.946 163.643 157.994 161.226L157.985 161.216C157.91 161.092 157.854 160.952 157.809 160.804C157.408 159.553 157.811 157.695 157.873 157.433C157.865 157.423 157.875 157.414 157.875 157.414C161.813 159.131 165.803 157.542 165.803 157.542C166.982 159.103 169.825 159.877 171.574 160.759C172.27 161.057 172.777 161.435 172.96 161.894Z" fill="#343751"/>
<path d="M172.96 161.894C173.002 161.961 173.017 162.017 173.031 162.091C173.474 163.992 158.946 163.643 157.994 161.226L157.985 161.216C157.91 161.092 157.854 160.953 157.809 160.804C158.623 161.255 160.297 162.013 162.768 162.271C165.968 162.609 169.329 162.82 172.96 161.894Z" fill="#2A2B3B"/>
<path d="M133.866 72.4189C133.866 72.4189 139.352 98.2115 142.505 100.908C145.658 103.605 152.962 105.512 152.962 105.512C152.962 105.512 141.494 103.418 139.966 101.686C134.581 95.5841 133.866 72.4189 133.866 72.4189Z" fill="#1CD084"/>
<path d="M182.23 109.723C181.553 107.748 180.57 106.163 179.195 104.857C179.208 104.81 179.206 104.766 179.213 104.72C180.433 105.245 181.565 106.001 182.577 107.31C183.087 107.972 184.081 106.727 183.573 106.07C181.748 103.705 179.535 102.568 176.668 102.11C172.644 101.467 168.464 99.7353 165.444 97.0042C165.362 96.9294 165.273 96.8942 165.181 96.8789C164.957 96.7643 164.656 96.7896 164.384 97.0818C162.714 98.8739 161.045 100.667 159.375 102.459C159.025 102.835 159.112 103.48 159.453 103.642C162.678 105.183 166.079 106.499 169.553 107.46C170.513 107.725 171.414 107.842 172.45 107.862C173.659 107.885 175.121 107.612 176.193 108.157C177.483 108.811 178.077 110.293 178.665 111.661C178.95 112.322 179.782 111.799 179.894 111.147C179.896 111.155 179.902 111.161 179.904 111.168C180.161 111.795 180.908 111.378 181.102 110.785C181.463 111.408 182.502 110.515 182.23 109.723Z" fill="#F6C3B9"/>
<path d="M180.724 106.832C180.656 106.832 180.59 106.791 180.561 106.723C180.383 106.306 179.426 105.326 179.074 104.984C179.003 104.916 179.002 104.804 179.069 104.734C179.14 104.663 179.252 104.662 179.32 104.729C179.374 104.782 180.646 106.016 180.887 106.584C180.925 106.675 180.883 106.779 180.793 106.817C180.77 106.827 180.747 106.832 180.724 106.832Z" fill="#2A2B3C"/>
<path d="M181.102 110.964C181.027 110.964 180.957 110.915 180.932 110.839C180.922 110.809 179.96 107.838 177.916 105.96C177.844 105.895 177.839 105.783 177.906 105.711C177.971 105.637 178.085 105.633 178.155 105.7C180.27 107.642 181.23 110.606 181.27 110.732C181.299 110.826 181.248 110.925 181.154 110.954C181.139 110.961 181.12 110.964 181.102 110.964Z" fill="#2A2B3C"/>
<path d="M179.894 111.324C179.823 111.324 179.756 111.28 179.729 111.209C179.717 111.18 178.56 108.201 177.086 107.252C177.003 107.198 176.979 107.088 177.033 107.007C177.087 106.923 177.197 106.902 177.277 106.954C178.848 107.966 180.01 110.956 180.059 111.082C180.094 111.174 180.048 111.276 179.957 111.311C179.937 111.319 179.915 111.324 179.894 111.324Z" fill="#2A2B3C"/>
<path d="M135.836 68.7641C146.472 68.6685 150.618 83.8832 152.941 92.0285C155.264 100.174 144.447 102.43 142.554 100.803C140.663 99.1754 129.39 68.8227 135.836 68.7641Z" fill="#F2F1FF"/>
<path d="M173 98.3358C166.506 94.1833 151.86 89.8089 147.153 89.9424C142.447 90.0768 141.267 99.9376 142.506 100.909C143.744 101.88 159.47 110.406 169.615 110.34C169.614 110.34 174.272 99.1493 173 98.3358Z" fill="#F2F1FF"/>
<path d="M149.824 56.0932C149.545 55.8253 148.352 56.0409 147.512 56.2357C147.723 56.6731 147.414 56.9816 147.576 57.4452C147.585 57.4704 147.568 57.8438 147.576 57.87C147.577 57.8673 147.161 58.3679 147.235 58.7467C147.254 58.8188 148.024 58.7638 148.56 58.7097C148.812 58.6646 149.497 58.5113 149.823 58.1324C150.448 57.41 150.255 56.518 149.824 56.0932Z" fill="#FFD357"/>
<path d="M149.716 56.4097C148.884 55.8342 148.239 57.4974 148.133 57.6318L146.943 58.4417C146.943 58.4417 147.898 58.5482 148.512 58.4742C150.347 58.255 150.091 56.6685 149.716 56.4097Z" fill="#FFC32E"/>
<path d="M142.337 59.0409C142.337 59.0409 143.176 63.9194 146.258 64.015C149.34 64.1106 147.337 56.7761 146.874 56.5912C146.411 56.4045 143.479 56.3468 142.337 59.0409Z" fill="#F6C3B9"/>
<path d="M143.196 56.0155C143.155 55.9201 141.91 56.8263 141.91 56.8263C140.277 58.1433 140.253 60.3076 142.115 61.6357C142.151 61.661 142.189 61.6737 142.227 61.6886C142.306 61.778 142.385 61.8637 142.46 61.9427C142.51 61.9927 142.564 62.0217 142.622 62.0411C142.781 62.2863 143.334 62.3273 143.48 61.977C143.844 61.0953 143.526 60.0341 143.931 59.2172C144.09 58.899 144.399 58.6478 144.681 58.3669C145.585 58.4533 146.904 57.4673 147.014 57.4628C146.713 56.3419 143.626 55.6548 143.196 56.0155Z" fill="#17171D"/>
<path d="M146.844 61.1815C146.831 61.5103 146.8 61.8182 146.606 62.0507C146.5 62.1604 146.369 62.2383 146.226 62.2776C146.082 62.3168 145.93 62.3162 145.783 62.2757C145.489 62.2046 145.156 61.9272 144.913 61.7269C145.582 61.6383 146.234 61.4544 146.852 61.1797" fill="white"/>
<path d="M145.708 59.7704L146.321 60.8123L145.811 60.989" fill="#EBB0A4"/>
<path d="M144.449 59.1347C144.424 59.1258 144.398 59.1204 144.374 59.1131L144.327 59.1029L144.343 59.0989C144.305 59.0917 144.267 59.086 144.228 59.0823C144.18 59.0772 144.132 59.0756 144.085 59.0776C144.056 59.0848 144.025 59.0793 143.995 59.0833L144.011 59.0793C143.924 59.0874 143.839 59.1059 143.757 59.1346L143.68 59.1623L143.698 59.158C143.615 59.1918 143.537 59.2352 143.464 59.2874L143.397 59.3378L143.412 59.3342C143.331 59.3999 143.258 59.4748 143.192 59.5579C143.186 59.5634 143.178 59.5673 143.17 59.5694C143.161 59.5715 143.152 59.5717 143.144 59.5701C143.127 59.5687 143.111 59.5607 143.099 59.5477C143.088 59.532 143.083 59.5126 143.085 59.4937C143.085 59.4754 143.092 59.4581 143.103 59.4453C143.207 59.3147 143.33 59.2041 143.467 59.118C143.579 59.0478 143.701 58.9967 143.829 58.9665C143.934 58.9416 144.041 58.9305 144.149 58.9333C144.229 58.9355 144.309 58.9454 144.388 58.9629C144.42 58.9699 144.452 58.9787 144.484 58.9893C144.501 58.9948 144.515 59.007 144.523 59.0233C144.534 59.039 144.539 59.0584 144.537 59.0773C144.532 59.0946 144.522 59.1092 144.507 59.1183C144.492 59.1271 144.474 59.1286 144.457 59.1226L144.449 59.1347Z" fill="#3E3244"/>
<path d="M146.138 58.7117C146.151 58.6881 146.166 58.6658 146.182 58.645L146.213 58.6087L146.202 58.6214C146.227 58.5917 146.253 58.5631 146.281 58.5342C146.315 58.5004 146.352 58.4688 146.389 58.4396C146.413 58.42 146.438 58.4019 146.464 58.3854L146.448 58.3894C146.521 58.3406 146.599 58.2997 146.679 58.2673L146.758 58.2476L146.741 58.2519C146.826 58.2252 146.913 58.2089 147.002 58.2031C147.03 58.2002 147.057 58.1989 147.085 58.1993L147.068 58.2036C147.171 58.2029 147.061 58.3082 147.223 58.2137C147.18 58.1663 147.13 58.1293 147.074 58.1054C147.018 58.0814 146.959 58.0711 146.9 58.0753C146.77 58.0927 146.644 58.1312 146.526 58.1895C146.429 58.2379 146.338 58.2992 146.255 58.372C146.195 58.4246 146.139 58.4833 146.088 58.5472C146.066 58.5735 146.046 58.6016 146.028 58.6313C146.019 58.6468 146.016 58.6656 146.019 58.6843C146.02 58.6937 146.024 58.7026 146.029 58.7107C146.034 58.7187 146.04 58.7257 146.047 58.7311C146.054 58.7368 146.062 58.7408 146.07 58.7431C146.078 58.7455 146.087 58.7459 146.095 58.7445C146.103 58.7434 146.112 58.7404 146.119 58.7356C146.127 58.7309 146.133 58.7245 146.138 58.7168L146.138 58.7117Z" fill="#3E3244"/>
<path d="M144.603 59.9156L144.601 59.9077L144.603 59.9156L144.568 59.8871L144.512 59.8491L144.47 59.8276L144.478 59.8254C144.445 59.8086 144.411 59.7957 144.376 59.787L144.343 59.7783L144.352 59.7762C144.322 59.7704 144.291 59.7679 144.26 59.7688C144.251 59.7694 144.243 59.7716 144.235 59.7753L144.243 59.7731C144.214 59.777 144.186 59.7841 144.159 59.7943L144.133 59.8008L144.143 59.7983C144.112 59.8107 144.083 59.8271 144.056 59.847L144.031 59.8653L144.039 59.8631C144.003 59.8931 143.97 59.9268 143.94 59.9639L143.913 60.0011L143.89 60.0337C143.888 60.0383 143.885 60.0424 143.882 60.0456C143.878 60.0489 143.874 60.0512 143.869 60.0525C143.864 60.0536 143.859 60.0537 143.854 60.0526C143.849 60.0515 143.844 60.0494 143.84 60.0462C143.836 60.0436 143.832 60.0401 143.829 60.0359C143.827 60.0317 143.825 60.0269 143.823 60.0218C143.822 60.0166 143.821 60.0111 143.822 60.0057C143.822 60.0004 143.824 59.9952 143.826 59.9907C143.858 59.9414 143.894 59.8957 143.933 59.8542C143.967 59.8198 144.004 59.7901 144.044 59.7659C144.079 59.7451 144.117 59.7289 144.156 59.7174C144.191 59.7083 144.227 59.7033 144.263 59.7023C144.298 59.7025 144.332 59.7064 144.365 59.7138C144.394 59.7204 144.422 59.7291 144.449 59.74C144.477 59.7513 144.503 59.7643 144.529 59.779C144.548 59.7893 144.567 59.8016 144.585 59.8138C144.603 59.8261 144.611 59.8326 144.623 59.8432L144.648 59.8655C144.654 59.8743 144.657 59.8851 144.656 59.8956C144.656 59.901 144.655 59.9063 144.653 59.9111C144.651 59.916 144.648 59.9203 144.645 59.9237C144.641 59.9268 144.636 59.9291 144.632 59.9302C144.627 59.9314 144.622 59.9315 144.617 59.9305C144.608 59.9293 144.598 59.9245 144.591 59.9169L144.603 59.9156Z" fill="#3E3244"/>
<path d="M147.176 59.1602L147.167 59.1525C147.156 59.1426 147.145 59.1336 147.133 59.1257C147.114 59.1118 147.096 59.0995 147.076 59.0876C147.063 59.0793 147.05 59.072 147.036 59.0657L147.043 59.0639C147.01 59.0468 146.975 59.0334 146.94 59.0239L146.908 59.0169L146.916 59.0147C146.886 59.0087 146.855 59.0062 146.825 59.0073L146.799 59.0138L146.809 59.0113C146.78 59.0152 146.752 59.0223 146.725 59.0325L146.699 59.0389L146.707 59.0368C146.677 59.05 146.648 59.0663 146.621 59.0855L146.597 59.105L146.605 59.1028C146.569 59.1325 146.535 59.1669 146.506 59.2053C146.497 59.2176 146.488 59.2285 146.479 59.2424L146.486 59.2406C146.478 59.2508 146.471 59.2617 146.464 59.2732C146.459 59.2819 146.45 59.2881 146.441 59.2908C146.431 59.2926 146.421 59.2909 146.413 59.2861C146.404 59.2797 146.398 59.2705 146.395 59.2601C146.393 59.2495 146.394 59.2384 146.398 59.229C146.43 59.1802 146.466 59.135 146.506 59.0941C146.539 59.0591 146.577 59.0287 146.617 59.0038C146.652 58.9832 146.689 58.9671 146.728 58.9557C146.764 58.947 146.8 58.9423 146.837 58.9418C146.871 58.9423 146.905 58.9462 146.939 58.9534C146.967 58.96 146.996 58.9687 147.023 58.9795C147.05 58.99 147.076 59.0026 147.101 59.0173L147.159 59.0534C147.172 59.062 147.183 59.0725 147.197 59.0827C147.205 59.0889 147.213 59.0959 147.22 59.1038C147.226 59.1125 147.229 59.1233 147.228 59.1339C147.228 59.1391 147.227 59.1442 147.225 59.149C147.224 59.1538 147.221 59.1581 147.218 59.1616C147.21 59.1678 147.2 59.1703 147.191 59.1685C147.181 59.1677 147.172 59.1635 147.165 59.1564L147.176 59.1602Z" fill="#3E3244"/>
<path opacity="0.45" d="M144.193 61.6368C143.946 61.6988 143.69 61.5268 143.621 61.2526C143.552 60.9783 143.697 60.7057 143.944 60.6436C144.192 60.5816 144.448 60.7536 144.517 61.0278C144.585 61.3021 144.441 61.5747 144.193 61.6368Z" fill="#F0ADA0"/>
<path opacity="0.45" d="M147.353 60.5604C147.144 60.6127 146.928 60.4676 146.87 60.2363C146.812 60.005 146.934 59.7751 147.143 59.7227C147.351 59.6704 147.568 59.8154 147.626 60.0468C147.684 60.2781 147.562 60.508 147.353 60.5604Z" fill="#F0ADA0"/>
<path d="M143.925 59.9292C143.925 59.9292 143.458 59.0309 142.606 59.159C141.754 59.2871 141.558 61.3173 143.001 61.4932C144.441 61.67 143.925 59.9292 143.925 59.9292Z" fill="#F6C3B9"/>
<path d="M149.578 55.9906C148.776 55.8436 146.658 56.4533 146.658 56.4533C146.326 56.6788 146.093 57.1208 145.933 57.5988C145.647 58.4385 145.574 59.3936 145.574 59.3936C147.394 59.317 148.074 58.2653 148.203 57.7684C148.437 56.8637 148.81 56.1341 149.578 55.9906Z" fill="#FFD357"/>
<path d="M146.658 56.4558C146.658 56.4558 144.684 54.8431 142.46 55.8073C140.542 56.638 140.568 59.1048 140.825 60.0283C143.276 60.6588 145.576 59.3961 145.576 59.3961C145.576 59.3961 145.808 57.1205 146.658 56.4558Z" fill="#FFC32E"/>
<path d="M142.697 55.9799C142.963 55.9799 143.178 55.7642 143.178 55.4982C143.178 55.2322 142.963 55.0166 142.697 55.0166C142.431 55.0166 142.215 55.2322 142.215 55.4982C142.215 55.7642 142.431 55.9799 142.697 55.9799Z" fill="#FFD357"/>
<path d="M305.754 182.19C305.256 182.19 304.853 181.925 304.853 181.598V179.228C304.853 178.9 305.256 178.635 305.754 178.635C306.253 178.635 306.656 178.9 306.656 179.228V181.598C306.656 181.925 306.253 182.19 305.754 182.19ZM305.754 175.081C305.256 175.081 304.853 174.816 304.853 174.488V172.119C304.853 171.791 305.256 171.526 305.754 171.526C306.253 171.526 306.656 171.791 306.656 172.119V174.488C306.656 174.816 306.253 175.081 305.754 175.081ZM305.754 167.971C305.256 167.971 304.853 167.707 304.853 167.379V165.009C304.853 164.682 305.256 164.417 305.754 164.417C306.253 164.417 306.656 164.682 306.656 165.009V167.379C306.656 167.707 306.253 167.971 305.754 167.971ZM305.754 160.862C305.256 160.862 304.853 160.597 304.853 160.27V157.9C304.853 157.572 305.256 157.307 305.754 157.307C306.253 157.307 306.656 157.572 306.656 157.9V160.27C306.656 160.597 306.253 160.862 305.754 160.862ZM305.754 153.753C305.256 153.753 304.853 153.488 304.853 153.16V150.791C304.853 150.463 305.256 150.198 305.754 150.198C306.253 150.198 306.656 150.463 306.656 150.791V153.16C306.656 153.488 306.253 153.753 305.754 153.753ZM305.754 146.643C305.256 146.643 304.853 146.379 304.853 146.051V143.681C304.853 143.354 305.256 143.089 305.754 143.089C306.253 143.089 306.656 143.354 306.656 143.681V146.051C306.656 146.379 306.253 146.643 305.754 146.643ZM305.754 139.534C305.256 139.534 304.853 139.269 304.853 138.942V136.572C304.853 136.244 305.256 135.979 305.754 135.979C306.253 135.979 306.656 136.244 306.656 136.572V138.942C306.656 139.269 306.253 139.534 305.754 139.534ZM305.754 132.425C305.256 132.425 304.853 132.16 304.853 131.832V129.463C304.853 129.135 305.256 128.87 305.754 128.87C306.253 128.87 306.656 129.135 306.656 129.463V131.832C306.656 132.16 306.253 132.425 305.754 132.425ZM305.754 125.315C305.256 125.315 304.853 125.051 304.853 124.723V122.353C304.853 122.026 305.256 121.761 305.754 121.761C306.253 121.761 306.656 122.026 306.656 122.353V124.723C306.656 125.051 306.253 125.315 305.754 125.315Z" fill="#BED0E2"/>
<path d="M318.9 86.5801C311.629 79.3704 299.845 79.3704 292.575 86.5801C285.311 93.7838 286.931 104.162 292.575 112.678C295.982 117.803 305.734 129.877 305.734 129.877C305.734 129.877 315.493 117.689 318.9 112.678C324.64 104.226 326.164 93.7838 318.9 86.5801ZM305.734 107.847C300.347 107.847 295.983 103.512 295.983 98.17C295.983 92.8281 300.347 88.4933 305.734 88.4933C311.128 88.4933 315.493 92.8281 315.493 98.17C315.493 103.512 311.128 107.847 305.734 107.847Z" fill="#009254"/>
<path d="M305.754 187.602C308.245 187.602 310.264 185.583 310.264 183.093C310.264 180.602 308.245 178.583 305.754 178.583C303.264 178.583 301.245 180.602 301.245 183.093C301.245 185.583 303.264 187.602 305.754 187.602Z" fill="#009254"/>
</svg>
