<svg width="319" height="139" viewBox="0 0 319 139" fill="none" xmlns="http://www.w3.org/2000/svg">
<path d="M159.108 138.745C246.981 138.745 318.216 136.926 318.216 134.682C318.216 132.439 246.981 130.62 159.108 130.62C71.2351 130.62 0 132.439 0 134.682C0 136.926 71.2351 138.745 159.108 138.745Z" fill="#EDF1F4"/>
<path d="M169.242 18.9218L221.115 11.9238L206.099 118.796L169.242 124.073V18.9218Z" fill="#A5FDD8"/>
<path d="M121.997 11.9238L169.242 18.9226C169.242 18.9226 173.309 35.0349 173.351 74.0081C173.378 100.341 169.242 124.073 169.242 124.073L128.592 120.542C128.592 120.542 132.866 81.0034 130.927 67.9982C126.785 40.2167 121.997 11.9238 121.997 11.9238Z" fill="#C4FFE6"/>
<path d="M221.115 11.9238L269.816 14.2201C269.816 14.2201 258.075 40.1942 251.04 76.5544C246.757 98.6852 247.93 125.221 247.93 125.221L206.098 118.796C206.098 118.796 206.109 78.8101 207.966 65.6439C211.137 43.1481 221.115 11.9238 221.115 11.9238Z" fill="#C3FFE6"/>
<g opacity="0.3">
<path opacity="0.3" d="M163.919 19.258H168.649C169.004 19.258 169.321 19.11 169.56 18.8781L169.242 18.9214L162.612 17.9385C162.608 18.6532 163.181 19.258 163.919 19.258Z" fill="#BED0E2"/>
<path d="M137.578 105.2L129.993 105.533C129.93 106.309 129.866 107.067 129.802 107.806H139.994C140.699 107.806 141.277 107.251 141.309 106.548L141.848 94.1551C141.877 93.488 142.403 92.9472 143.07 92.9005L161.217 91.6208C161.883 91.5741 162.406 91.0368 162.438 90.3714L163.442 69.0895C163.479 68.3039 162.822 67.661 162.038 67.7155L152.821 68.354C152.062 68.4068 151.415 67.8038 151.415 67.0415V56.9919C151.415 56.266 150.827 55.6768 150.1 55.6768H129.056C129.208 56.6562 129.359 57.6408 129.51 58.6289L131.223 58.635C131.916 58.6376 132.488 59.1775 132.531 59.8696L132.871 65.3595C132.914 66.0543 132.409 66.6625 131.718 66.7464L130.758 66.8633C130.813 67.2414 130.871 67.6195 130.927 67.9976C131.003 68.5046 131.068 69.0557 131.125 69.638L134.914 69.1111C135.617 69.0142 136.116 68.3757 136.041 67.6705L135.242 60.1093C135.159 59.3306 135.771 58.6523 136.555 58.6557L146.188 58.6895C146.899 58.6921 147.479 59.2597 147.498 59.9709L147.754 69.9426C147.772 70.6754 148.386 71.2517 149.118 71.2231L159.002 70.8442C159.778 70.8147 160.41 71.4593 160.366 72.2337L159.467 87.8519C159.429 88.5164 158.902 89.0468 158.238 89.0892L139.981 90.2555C139.302 90.2996 138.769 90.8534 138.75 91.5343L138.656 95.1423C138.637 95.8699 138.029 96.4436 137.302 96.4219L130.69 96.2229C130.634 97.0527 130.578 97.8764 130.52 98.6923L137.572 98.9657C138.277 98.9925 138.836 99.5731 138.836 100.28V103.885C138.835 104.59 138.281 105.169 137.578 105.2Z" fill="#9CF9D2"/>
<path d="M134.072 90.5771L134.325 85.8149C134.366 85.0622 133.766 84.4297 133.012 84.4297H131.3C131.219 86.771 131.106 89.1876 130.97 91.6128L132.597 91.8118C133.355 91.9052 134.031 91.3385 134.072 90.5771Z" fill="#B8FADE"/>
<path d="M133.012 74.1875H131.388C131.448 76.386 131.442 78.832 131.385 81.4208L132.597 81.5696C133.354 81.6622 134.03 81.0946 134.071 80.3341L134.324 75.5719C134.366 74.82 133.765 74.1875 133.012 74.1875Z" fill="#B8FADE"/>
<path d="M128.277 40.4264L126.747 40.9629C126.948 42.227 127.153 43.511 127.359 44.8192L132.449 44.3234C133.138 44.2568 133.657 43.6658 133.636 42.9736L133.501 38.6579C133.479 37.9164 134.074 37.3021 134.816 37.3021H148.544C149.163 37.3021 149.697 36.8721 149.829 36.2682L154.11 16.6795L148.255 15.8125L145.106 32.3816C144.988 33.0028 144.445 33.451 143.814 33.451H133.913C133.187 33.451 132.597 32.8618 132.597 32.1358V24.9138C132.597 24.2588 132.116 23.7051 131.468 23.6116L126.566 22.9099C125.773 22.7966 125.064 23.4109 125.064 24.2121V24.8229C125.064 25.5497 125.654 26.139 126.38 26.139H127.842C128.569 26.139 129.157 26.7282 129.157 27.4541V39.1848C129.157 39.7438 128.804 40.2413 128.277 40.4264Z" fill="#9CF9D2"/>
<path opacity="0.3" d="M249.397 23.7071C248.726 23.6535 248.123 24.1155 248 24.7765L243.134 50.8328C243.038 51.3459 242.648 51.7534 242.14 51.8719L234.936 53.5513C234.371 53.6828 233.958 54.17 233.922 54.7497L232.29 80.632C232.25 81.2723 232.677 81.8477 233.302 81.9948L239.55 83.4656L238.341 83.181L236.603 95.6143C236.522 96.1844 236.081 96.6369 235.512 96.7304L222.224 98.9082C221.376 99.0475 220.624 98.3484 220.701 97.4909L221.311 90.8157C221.37 90.1668 220.946 89.5715 220.314 89.4184L209.668 86.8244C209.632 86.8149 209.595 86.8071 209.557 86.8028L202.623 85.7377C201.93 85.6313 201.442 84.9988 201.515 84.3014L202.578 74.1515C202.649 73.4602 202.173 72.8337 201.488 72.7178L181.245 69.3019C181.175 69.2898 181.106 69.2725 181.039 69.2491L177.212 67.94C176.648 67.7471 176.283 67.1985 176.326 66.6033L177.464 50.4954C177.509 49.8361 177.06 49.246 176.412 49.1136L169.146 47.6418C168.438 47.4982 167.978 46.8104 168.117 46.1017L170.945 31.5616C171.066 30.9439 171.607 30.4983 172.236 30.4983H186.822L197.037 30.4472C197.697 30.4438 198.252 29.9523 198.335 29.2973L199.727 18.3012C199.782 17.8556 200.063 17.4697 200.468 17.2768L208.067 13.6826L195.775 15.3412L194.869 24.1839C194.8 24.8544 194.236 25.3649 193.561 25.3649H187.573H167.39C166.737 25.3649 166.184 25.8434 166.088 26.4888L162.59 50.2306C162.479 50.9894 163.039 51.6833 163.803 51.7335L171.372 52.2422C172.105 52.2916 172.655 52.931 172.595 53.6629L171.236 70.1014C171.186 70.707 171.558 71.2694 172.136 71.4589L180.281 74.1411C180.373 74.1714 180.47 74.1921 180.568 74.2008L197.781 75.8257C198.529 75.8966 199.066 76.5793 198.958 77.3234L197.552 87.0355C197.455 87.7009 197.877 88.3316 198.528 88.4978L208.958 91.1592C208.985 91.167 209.014 91.173 209.043 91.1774L217.257 92.7002C217.911 92.8213 218.371 93.4123 218.329 94.0767L217.176 112.152C217.139 112.731 217.485 113.266 218.029 113.468L226.978 116.803C227.606 117.037 227.957 117.705 227.795 118.355L226.884 121.987L229.651 122.412L230.963 116.161C231.098 115.517 230.736 114.872 230.116 114.652L220.439 111.211C219.873 111.01 219.516 110.45 219.571 109.852L220.057 104.534C220.109 103.963 220.526 103.491 221.085 103.368L238.991 99.4567C239.54 99.3364 239.951 98.8831 240.017 98.3259L241.54 85.4383C241.632 84.6588 242.384 84.1327 243.148 84.3127L249.313 85.7637C249.404 85.7853 249.481 85.8355 249.563 85.8744C249.689 84.8846 249.821 83.8965 249.966 82.9102L236.078 80.1934C235.427 80.0662 234.972 79.4735 235.018 78.8107L236.507 57.4665C236.547 56.8989 236.948 56.4204 237.5 56.2828L245.413 54.3041C245.922 54.1778 246.305 53.7607 246.392 53.2433L250.573 28.0557C250.683 27.3938 251.273 26.9214 251.942 26.9578L264.516 27.6404C264.854 26.7069 265.178 25.8252 265.494 24.9807L249.397 23.7071Z" fill="#43C890"/>
<path opacity="0.3" d="M176.074 34.4209C175.439 34.4209 174.895 34.8734 174.781 35.4981L173.574 42.0712C173.448 42.7565 173.879 43.421 174.555 43.5862L179.291 44.7456C180.012 44.9213 180.736 44.467 180.891 43.7411L182.53 36.0086C182.704 35.1909 182.08 34.4209 181.245 34.4209H176.074Z" fill="#BED0E2"/>
<path opacity="0.3" d="M184.128 115.758H180.071C179.455 115.758 178.922 116.184 178.787 116.785L177.411 122.902L184.331 121.91L185.407 117.377C185.605 116.55 184.977 115.758 184.128 115.758Z" fill="#BED0E2"/>
<path d="M199.221 117.422C199.362 116.432 198.391 115.654 197.456 116.005L193.316 117.563C192.385 117.913 191.416 117.141 191.55 116.155L192.696 107.72C192.79 107.017 192.313 106.367 191.614 106.247L176.184 103.596C176.138 103.589 176.092 103.583 176.045 103.58L154.997 102.237C154.311 102.193 153.707 102.685 153.61 103.366L151.348 119.389C151.262 120.002 150.76 120.472 150.142 120.518L138.334 121.387L155.104 122.844L157.762 108.276C157.883 107.612 158.487 107.147 159.159 107.201L164.121 107.595C164.881 107.655 165.432 108.347 165.318 109.102L163.664 120.073C163.574 120.668 163.9 121.248 164.456 121.481L170.274 123.924L173.181 123.508C173.192 123.464 173.209 123.423 173.215 123.377L173.3 122.8C173.391 122.178 173.03 121.58 172.439 121.37L167.799 119.723C167.212 119.516 166.852 118.924 166.935 118.307L168.177 109.164C168.271 108.472 168.888 107.974 169.584 108.029L175.331 108.485C175.376 108.488 175.42 108.494 175.463 108.502L188.087 110.808C188.777 110.934 189.247 111.579 189.154 112.274L188.089 120.326C188.038 120.714 188.163 121.065 188.386 121.333L198.88 119.831L199.221 117.422Z" fill="#9CF9D2"/>
<path opacity="0.3" d="M256.98 34.6352C256.235 34.5184 255.544 35.0522 255.469 35.8041L254.77 42.7943C254.698 43.515 255.222 44.1587 255.943 44.2331L258.944 44.542C259.927 41.2689 260.898 38.2103 261.834 35.3923L256.98 34.6352Z" fill="#BED0E2"/>
<path d="M143.432 82.1954C143.432 82.9222 144.02 83.5114 144.747 83.5114H155.02C155.747 83.5114 156.335 82.9222 156.335 82.1954V81.3284C156.335 80.5869 155.722 79.9908 154.98 80.0133L144.708 80.3257C143.998 80.3473 143.433 80.9296 143.433 81.6408V82.1954H143.432Z" fill="#B8FADE"/>
<path opacity="0.3" d="M217.956 26.9192L206.978 30.2174C206.421 30.3844 206.041 30.8957 206.041 31.4772V44.3673C206.041 44.8051 206.259 45.2144 206.621 45.4584L212.988 49.7447C213.777 50.2751 214.85 49.8208 215.018 48.8855L215.238 47.656C215.331 47.13 215.098 46.5987 214.646 46.3132L210.226 43.5177C209.844 43.2763 209.613 42.8566 209.613 42.4058V34.1931C209.613 33.6238 209.98 33.1194 210.521 32.9429L217.422 30.6976C217.475 30.6794 217.53 30.6665 217.584 30.6561L229.897 28.326C230.502 28.2118 230.946 27.6944 230.968 27.0801L231.371 15.3736C231.395 14.6633 231.98 14.1 232.691 14.1035L247.939 14.1718C248.518 14.1744 249.013 13.792 249.185 13.2486L227.56 12.2285L226.951 24.3157C226.92 24.93 226.468 25.4414 225.861 25.5461L218.11 26.8846C218.058 26.8915 218.006 26.9036 217.956 26.9192Z" fill="#43C890"/>
<path opacity="0.3" d="M188.065 51.009C187.368 50.932 186.734 51.4148 186.622 52.107L184.726 63.8628C184.597 64.6623 185.214 65.3873 186.024 65.3873H190.183C190.807 65.3873 191.345 64.9504 191.471 64.3404L193.809 53.0942C193.967 52.3346 193.436 51.6043 192.666 51.5195L188.065 51.009Z" fill="#BED0E2"/>
<path opacity="0.3" d="M180.941 19.2589C181.632 19.2589 182.205 18.725 182.253 18.0354L182.314 17.1572L174.262 18.2439C174.398 18.8202 174.91 19.2589 175.537 19.2589H180.941Z" fill="#BED0E2"/>
<path opacity="0.3" d="M199.563 52.4844C198.948 52.4844 198.415 52.9101 198.28 53.5105L195.969 63.7833C195.784 64.6053 196.41 65.3875 197.251 65.3875H201.181C201.79 65.3875 202.32 64.9696 202.461 64.3769L204.901 54.1041C205.097 53.2778 204.471 52.4852 203.621 52.4852H199.563V52.4844Z" fill="#BED0E2"/>
<path d="M202.765 97.3338L197.829 96.7229C197.151 96.639 196.521 97.0889 196.38 97.7569L195.318 102.799C195.157 103.565 195.697 104.301 196.476 104.378L201.944 104.918C202.662 104.989 203.303 104.468 203.38 103.749L203.91 98.7779C203.988 98.0658 203.478 97.4229 202.765 97.3338Z" fill="#B8FADE"/>
<path d="M144.747 77.7254H155.02C155.747 77.7254 156.335 77.1362 156.335 76.4103V75.5424C156.335 74.8009 155.721 74.2057 154.98 74.2282L144.708 74.5405C143.998 74.5621 143.433 75.1436 143.433 75.8556V76.4103C143.432 77.137 144.02 77.7254 144.747 77.7254Z" fill="#B8FADE"/>
<path d="M189.793 91.8538C190.512 91.9247 191.153 91.403 191.23 90.6849L191.761 85.7142C191.837 85.0003 191.326 84.3575 190.615 84.2692L185.678 83.6575C185 83.5736 184.371 84.0235 184.23 84.6915L183.167 89.734C183.006 90.5006 183.546 91.236 184.326 91.3139L189.793 91.8538Z" fill="#9CF9D2"/>
</g>
<path d="M262.982 66.3319C253.915 57.2383 239.221 57.2383 230.154 66.3319C221.094 75.418 223.115 88.5077 230.154 99.2491C234.402 105.713 246.564 120.943 246.564 120.943C246.564 120.943 258.734 105.569 262.982 99.2491C270.141 88.5876 272.042 75.418 262.982 66.3319ZM246.564 93.1548C239.846 93.1548 234.403 87.6873 234.403 80.9496C234.403 74.2118 239.846 68.7444 246.564 68.7444C253.29 68.7444 258.734 74.2118 258.734 80.9496C258.734 87.6873 253.29 93.1548 246.564 93.1548Z" fill="#15BE77"/>
<path d="M204.068 42.6578C198.852 37.4422 190.398 37.4422 185.184 42.6578C179.972 47.869 181.134 55.3766 185.184 61.5379C187.627 65.2453 194.623 73.9807 194.623 73.9807C194.623 73.9807 201.625 65.1632 204.068 61.5379C208.186 55.4233 209.28 47.869 204.068 42.6578ZM194.623 58.0423C190.758 58.0423 187.627 54.9068 187.627 51.0418C187.627 47.1769 190.758 44.0404 194.623 44.0404C198.493 44.0404 201.625 47.1769 201.625 51.0418C201.625 54.9068 198.493 58.0423 194.623 58.0423Z" fill="#15BE77"/>
<path d="M127.571 37.5745C127.608 37.558 127.645 37.5511 127.681 37.5321C128.213 37.2647 127.758 36.2507 127.224 36.518C127.187 36.5362 127.147 36.5388 127.108 36.5552C127.191 36.2533 126.993 35.7791 126.4 35.8613C126.229 35.8856 123.802 36.255 121.87 35.4019C122.332 35.273 123.108 35.0697 123.662 35.1051C124.251 35.1423 124.368 34.2165 123.776 34.1854C123.683 34.1802 122.914 34.1586 122.807 34.188C120.083 34.2771 117.256 35.2851 114.861 36.6115C114.455 36.7975 114.053 36.9991 113.662 37.2336C113.523 37.3184 113.468 37.5165 113.484 37.6662C113.563 38.4302 114.129 40.0317 114.447 40.7274C114.479 40.7974 114.528 40.8494 114.582 40.8926C114.281 41.2768 114.782 41.8712 115.216 41.5294C116.376 40.6183 118.717 39.285 118.738 39.2772C121.298 39.786 123.786 40.235 126.383 39.8379C126.905 39.7574 126.91 38.9121 126.479 38.8161C126.476 38.8118 126.474 38.8066 126.471 38.8022C126.479 38.8005 126.486 38.7979 126.493 38.797C126.649 38.7867 127.352 38.6162 127.557 38.5314C127.952 38.3722 127.84 37.7536 127.571 37.5745Z" fill="#F6C3B9"/>
<path d="M124.285 36.9551C123.498 36.9551 122.645 36.879 121.863 36.6514C121.806 36.6341 121.773 36.5744 121.789 36.5173C121.806 36.4602 121.868 36.4299 121.923 36.4438C124.18 37.1005 127.056 36.4576 127.083 36.4507C127.148 36.4368 127.2 36.474 127.213 36.532C127.227 36.59 127.19 36.6488 127.132 36.6618C127.113 36.6661 125.824 36.9551 124.285 36.9551Z" fill="#2A2B3C"/>
<path d="M123.761 38.1225C123.042 38.1225 122.346 38.055 121.799 37.8673C121.744 37.8482 121.713 37.7859 121.733 37.7297C121.753 37.6735 121.817 37.644 121.87 37.6631C123.714 38.2973 127.51 37.4762 127.548 37.4684C127.603 37.4554 127.665 37.4926 127.676 37.5515C127.689 37.6094 127.653 37.6674 127.593 37.6795C127.481 37.7046 125.551 38.1225 123.761 38.1225Z" fill="#2A2B3C"/>
<path d="M123.906 39.0669C123.163 39.0669 122.407 39.0211 121.861 38.8792C121.803 38.8636 121.768 38.8048 121.783 38.7477C121.798 38.6897 121.862 38.6568 121.914 38.6698C123.359 39.0453 126.439 38.7139 126.469 38.7105C126.537 38.694 126.582 38.7477 126.588 38.8056C126.595 38.8645 126.552 38.919 126.493 38.925C126.412 38.9346 125.178 39.0669 123.906 39.0669Z" fill="#15BE77"/>
<path d="M47.8635 122.206C48.2364 121.2 48.6672 120.494 49.8656 119.45C49.8733 119.434 49.8837 119.43 49.8837 119.43C50.819 118.623 52.026 117.634 53.5298 116.193C55.7551 116.96 58.4729 117.153 58.9695 119.43C57.8724 120.663 55.8071 123.21 55.5683 124.122C55.5267 124.268 55.5008 124.421 55.4904 124.581C55.3234 126.709 57.3705 129.487 57.817 131.272C57.9554 131.748 57.9641 132.151 57.7911 132.446C56.9276 133.964 46.9853 124.633 47.8635 122.206Z" fill="#F6C3B9"/>
<path d="M57.8586 132.253C57.8456 132.327 57.8214 132.378 57.7842 132.439C56.8922 134.086 46.6877 124.588 47.5417 122.248V122.235C47.5668 122.099 47.616 121.962 47.6783 121.825C48.1854 120.674 49.6597 119.596 49.87 119.448C49.87 119.436 49.883 119.436 49.883 119.436C51.616 123.175 55.4922 124.574 55.4922 124.574C55.3434 126.444 56.8913 128.81 57.5852 130.555C57.8958 131.213 58.0196 131.808 57.8586 132.253Z" fill="#343751"/>
<path d="M88.4363 46.8562C88.4883 46.658 88.432 46.4547 88.2382 46.3137C88.1785 46.1527 88.1231 45.991 88.0617 45.83C87.8505 45.2849 87.1394 45.3213 86.9023 45.6795C82.4767 43.7344 77.5864 42.4453 73.4108 45.7582C69.1885 49.1066 68.0412 54.7029 68.4237 59.8173C68.9307 66.5954 70.5677 73.7431 72.3085 80.3067C73.8504 86.1201 76.324 91.6229 80.6856 95.8634C80.8803 96.052 81.2013 96.1048 81.4358 95.9603C88.4173 91.6619 89.7402 81.7905 90.7621 74.3773C92.0391 65.1142 91.623 55.6806 88.4363 46.8562Z" fill="#15BE77"/>
<path d="M86.5805 52.7373C86.5805 52.7373 90.8114 71.6883 90.628 75.356C90.4437 79.022 88.3819 86.1964 88.3819 86.1964L80.6745 76.7871L78.6567 54.1346L86.5805 52.7373Z" fill="#0AA664"/>
<path d="M75.8317 57.4121C75.5505 57.939 75.2728 58.4703 75.0063 59.0059C71.9884 65.0659 69.1375 71.254 66.5808 77.5225C64.1547 83.4658 62.5254 89.756 59.6736 95.5158C56.5822 101.76 48.7407 114.421 49.2174 114.209C48.4387 116.493 63.4858 123.861 65.0242 122.256C70.2588 116.162 73.5155 108.877 76.4876 101.487C79.7677 93.3293 83.2458 85.4091 87.546 77.7267C87.5676 77.6878 87.5919 77.6489 87.6135 77.6099C84.9495 70.169 81.1459 63.364 75.8317 57.4121Z" fill="#15BE77"/>
<path d="M57.8586 132.253C57.8456 132.327 57.8214 132.377 57.7842 132.439C56.8922 134.085 46.6877 124.588 47.5417 122.247V122.234C47.5668 122.099 47.616 121.962 47.6783 121.825C47.976 122.668 48.6942 124.277 50.3035 126.036C52.3852 128.314 54.6633 130.606 57.8586 132.253Z" fill="#2A2B3B"/>
<path d="M68.3545 71.8037C68.3545 71.8037 68.7767 88.6834 68.993 97.4438C69.2093 106.204 61.2683 121.826 61.2683 121.826C61.2683 121.826 64.313 123.106 65.0225 122.256C65.7329 121.408 70.2078 115.629 72.5439 110.502C74.88 105.374 77.5371 98.6335 77.5371 98.6335L68.3545 71.8037Z" fill="#0AA664"/>
<path d="M84.0117 57.4121L90.0311 79.2833L88.7185 86.1964L84.0117 57.4121Z" fill="#0D7147"/>
<path d="M67.5525 75.1357L77.5381 98.6335L75.1769 104.5C75.1769 104.5 74.4734 98.778 72.5449 93.5867C70.6163 88.3953 67.5525 75.1357 67.5525 75.1357Z" fill="#0D7147"/>
<path d="M100.118 121.613C99.9645 113.581 97.5436 105.978 94.8389 98.4855C91.8539 90.2157 89.1734 81.9917 87.2665 73.3957C86.3026 69.048 85.4486 64.6751 84.567 60.3092C83.944 57.2229 83.6014 53.7179 81.3449 51.3117C77.0992 46.7823 70.5564 48.0437 66.2052 51.5817C65.9413 51.4787 62.7183 49.8071 62.5643 50.1402C60.1944 55.2917 63.9997 62.4878 65.4455 67.7804C67.2296 74.3111 69.2222 80.8263 71.4891 87.2056C73.6374 93.2544 76.6103 99.0315 78.3192 105.228C80.1699 111.946 82.7517 126.613 82.9663 126.137C88.1092 119.391 96.5201 120.772 100.118 121.613Z" fill="#15BE77"/>
<path d="M100.118 121.613C100.039 123.835 83.9069 128.359 82.9673 126.137C82.2812 124.515 85.293 121.69 90.2594 120.452C96.2156 118.968 100.155 120.565 100.118 121.613Z" fill="#0D7147"/>
<path d="M90.6229 132.103C89.9532 131.265 89.7136 130.24 89.4358 128.675C89.4263 128.661 89.4289 128.648 89.4289 128.648C89.2187 127.432 88.074 123.358 87.6128 121.327C90.719 120.121 92.4762 120.021 93.864 119.883C94.3555 121.457 95.72 125.518 96.3775 126.192C96.4805 126.303 96.5982 126.403 96.7314 126.496C98.4688 127.736 101.905 127.411 103.664 127.948C104.145 128.074 104.494 128.275 104.659 128.575C105.514 130.097 92.2504 134.105 90.6229 132.103Z" fill="#F6C3B9"/>
<path d="M103.665 127.948L99.1273 130.254C99.1273 130.254 91.657 133.082 90.6231 132.104C89.6523 131.19 89.4524 128.958 89.436 128.676C89.4264 128.661 89.429 128.649 89.429 128.649C91.5436 126.248 96.7315 126.497 96.7315 126.497C98.4689 127.736 101.905 127.411 103.665 127.948Z" fill="#343751"/>
<path d="M104.655 128.576C105.605 130.197 92.1344 134.07 90.6202 132.099C89.6486 130.835 103.022 125.791 104.655 128.576Z" fill="#2A2B3B"/>
<path d="M75.6639 16.8281C85.6253 14.6166 93.0965 28.3434 96.9009 35.523C100.705 42.7035 96.7469 47.0141 93.5309 45.7803C83.4423 41.9084 69.6264 18.1683 75.6639 16.8281Z" fill="#C3FFE6"/>
<path d="M116.591 33.1267C109.223 32.4977 98.8538 33.1985 92.4373 32.9753C87.9234 32.8178 92.4893 45.7746 93.9731 46.0462C95.4587 46.3188 109.678 47.319 118.263 42.7359C118.264 42.7359 118.035 33.2496 116.591 33.1267Z" fill="#C3FFE6"/>
<path d="M118.264 42.7352C118.264 42.7352 105.585 49.0392 93.0111 45.6986C91.4485 45.2833 84.7283 37.5473 84.7283 37.5473L88.4946 31.1152C88.4946 31.1152 91.3083 41.4789 94.0269 43.1298C96.7437 44.7806 118.264 42.7352 118.264 42.7352Z" fill="#A6FFDA"/>
<path d="M89.9012 52.4964C89.9012 52.4964 73.6453 56.8381 56.4888 53.7796L57.0191 49.7139L89.9012 52.4964Z" fill="#0D7147"/>
<path d="M83.4961 18.2188C83.4961 18.2188 87.0513 20.1993 89.2118 29.086C90.3444 33.7444 90.6074 38.8968 90.6074 38.8968L87.3143 36.8635L83.4961 18.2188Z" fill="#2BD38D"/>
<path d="M55.7144 52.2185C55.7144 52.2185 59.6355 21.8188 68.6486 16.6041C74.4499 13.247 83.4042 16.2 85.402 20.6066C89.3007 29.2017 91.5745 52.183 91.5745 52.183C91.5745 52.183 70.7303 56.5532 55.7144 52.2185Z" fill="#2FE297"/>
<path d="M79 9.26601C79 9.26601 78.7091 15.5588 78.5453 16.8271C78.4952 17.2143 73.6417 16.9306 73 16.1816C73.495 14.5956 73.7517 12.2762 73.7517 9.26601C73.7517 6.41749 79 9.26601 79 9.26601Z" fill="#F0B6AA"/>
<path d="M71.4219 17.4883C71.4219 17.4883 75.1787 21.5263 75.093 25.7797C75.0073 30.034 69.9605 37.244 70.7539 43.5169C71.5465 49.7897 77.1886 53.9679 77.1886 53.9679C77.1886 53.9679 65.6344 54.5805 59.4333 53.2307C53.2331 51.8801 59.1262 35.1276 59.1262 35.1276L71.4219 17.4883Z" fill="#2BD38D"/>
<path d="M68.3156 42.7412L68.3788 65.4646L39.4421 65.5581L39.3799 42.8355L68.3156 42.7412Z" fill="#15BE77"/>
<path d="M43.9447 57.2815C43.5603 57.2448 43.107 57.1793 42.4776 57.2013C42.4776 57.2013 42.453 57.2022 42.458 57.1707C42.8659 54.1658 42.926 53.7633 42.9258 53.757C42.9615 53.0112 42.5601 53.1942 42.6408 53.0287C42.7447 52.8186 43.1864 52.5529 43.5505 52.5402C44.0318 52.5234 44.4244 52.7975 44.3259 53.5142C44.2638 53.9429 44.0884 55.2061 43.9699 56.0685C43.9681 56.0814 43.9691 56.0945 43.9729 56.107C43.9767 56.1194 43.9831 56.1309 43.9917 56.1406C44.0004 56.1503 44.011 56.1579 44.0228 56.163C44.0347 56.1681 44.0475 56.1705 44.0603 56.17C45.3562 56.1248 45.2527 55.8155 45.3483 55.8998C45.4245 55.9597 45.4661 56.0897 45.4639 56.2023C45.4446 57.0664 44.6331 57.3575 43.9447 57.2815Z" fill="#32EFA0"/>
<path d="M49.1495 56.6691C49.0578 56.8725 48.6899 57.1294 48.3443 57.1415C48.0291 57.1525 47.7866 57.0135 47.6755 56.7606C47.6648 56.7359 47.6481 56.7144 47.627 56.698C47.6059 56.6816 47.581 56.6708 47.5548 56.6666C47.5285 56.6624 47.5016 56.6649 47.4765 56.674C47.4515 56.683 47.4291 56.6983 47.4114 56.7184C47.1686 56.9965 46.8702 57.1867 46.5361 57.1983C45.7586 57.2255 45.4506 56.3666 45.5633 55.5243C45.6815 54.663 46.2323 53.8054 47.0406 53.7771C47.3073 53.7678 47.5119 53.8564 47.6624 54.0087C47.6831 54.0301 47.7093 54.0452 47.738 54.0524C47.7668 54.0595 47.7969 54.0584 47.825 54.0492C47.8531 54.04 47.8782 54.023 47.8973 54.0002C47.9164 53.9774 47.9288 53.9496 47.9332 53.92C47.9343 53.9125 47.9349 53.9086 47.9349 53.9086C47.9364 53.8986 47.9411 53.8894 47.9484 53.8825C47.9574 53.8742 47.969 53.8696 47.9811 53.8694L49.2047 53.8267C49.208 53.8273 49.2112 53.8286 49.214 53.8305C49.2168 53.8324 49.2191 53.8349 49.221 53.8378C49.2228 53.8406 49.224 53.8438 49.2246 53.8472C49.2252 53.8505 49.2251 53.854 49.2243 53.8573C49.2243 53.8573 48.9841 55.2922 48.9251 55.726C48.787 56.7256 49.2362 56.4972 49.1495 56.6691ZM47.76 55.4476C47.8239 54.9761 47.718 54.5981 47.4156 54.6087C47.1133 54.6192 46.8983 55.0084 46.8344 55.4799C46.7706 55.9514 46.8762 56.3231 47.1786 56.3125C47.4809 56.3019 47.6962 55.919 47.76 55.4476Z" fill="#32EFA0"/>
<path d="M52.8523 55.3038C52.7341 56.165 52.1895 57.0225 51.3812 57.0507C51.0267 57.0631 50.7818 56.9025 50.6279 56.6491C50.6215 56.6388 50.6121 56.6307 50.601 56.626C50.5899 56.6213 50.5776 56.6201 50.5658 56.6227C50.554 56.6253 50.5433 56.6315 50.5352 56.6404C50.527 56.6494 50.5218 56.6607 50.5201 56.6728C50.498 56.8368 50.4871 56.9255 50.4871 56.9255C50.4856 56.9355 50.4809 56.9447 50.4736 56.9516C50.4646 56.9598 50.453 56.9645 50.4409 56.9646L49.2667 57.0056C49.2633 57.005 49.2602 57.0037 49.2574 57.0018C49.2546 56.9999 49.2522 56.9974 49.2504 56.9946C49.2486 56.9917 49.2473 56.9885 49.2468 56.9852C49.2462 56.9818 49.2463 56.9784 49.247 56.975L49.8628 52.6226C49.868 52.5859 49.8857 52.5523 49.9129 52.5276C49.9401 52.5029 49.975 52.4886 50.0116 52.4874L51.0178 52.4522C51.0253 52.452 51.0328 52.4533 51.0397 52.4563C51.0467 52.4592 51.0529 52.4636 51.0581 52.4692C51.0632 52.4748 51.0671 52.4814 51.0694 52.4886C51.0718 52.4959 51.0726 52.5035 51.0718 52.5111C51.0469 52.7384 50.9567 53.5485 50.8823 54.05C50.8799 54.0659 50.8827 54.0821 50.8903 54.0963C50.8978 54.1104 50.9097 54.1217 50.9241 54.1284C50.9385 54.1351 50.9547 54.1369 50.9702 54.1335C50.9857 54.1301 50.9997 54.1217 51.0101 54.1096C51.2493 53.8313 51.5506 53.6412 51.8857 53.6295C52.6632 53.6023 52.9712 54.4612 52.8523 55.3038ZM51.5874 55.3479C51.6512 54.8765 51.5455 54.5048 51.2432 54.5153C50.9408 54.5259 50.7256 54.9088 50.6618 55.3803C50.5979 55.8517 50.7038 56.2297 51.0061 56.2191C51.3085 56.2086 51.5235 55.8194 51.5874 55.3479Z" fill="#32EFA0"/>
<path d="M56.5164 55.1641C56.3982 56.0254 55.8536 56.8828 55.0452 56.911C54.6908 56.9234 54.4459 56.7629 54.292 56.5095C54.2856 56.4991 54.2761 56.4911 54.265 56.4863C54.2539 56.4816 54.2416 56.4805 54.2299 56.4831C54.2181 56.4856 54.2074 56.4918 54.1992 56.5008C54.1911 56.5098 54.1858 56.5211 54.1842 56.5332C54.162 56.6972 54.1512 56.7858 54.1512 56.7858C54.1497 56.7958 54.1449 56.805 54.1377 56.8119C54.1287 56.8202 54.1171 56.8248 54.105 56.825L52.9307 56.866C52.9274 56.8654 52.9243 56.864 52.9215 56.8621C52.9187 56.8602 52.9163 56.8578 52.9145 56.8549C52.9126 56.8521 52.9114 56.8489 52.9108 56.8455C52.9102 56.8422 52.9103 56.8387 52.9111 56.8354L53.5269 52.4829C53.5321 52.4463 53.5498 52.4127 53.577 52.388C53.6042 52.3632 53.6391 52.349 53.6756 52.3477L54.6818 52.3126C54.6894 52.3123 54.6968 52.3137 54.7038 52.3166C54.7108 52.3195 54.717 52.3239 54.7221 52.3295C54.7273 52.3351 54.7311 52.3417 54.7335 52.349C54.7358 52.3562 54.7366 52.3639 54.7358 52.3715C54.7109 52.5988 54.6207 53.409 54.5463 53.9105C54.544 53.9263 54.5468 53.9426 54.5543 53.9567C54.5619 53.9708 54.5737 53.9821 54.5882 53.9888C54.6026 53.9955 54.6187 53.9973 54.6342 53.9939C54.6497 53.9905 54.6637 53.9821 54.6741 53.97C54.9133 53.6917 55.2146 53.5015 55.5497 53.4898C56.3272 53.4627 56.6353 54.3216 56.5164 55.1641ZM55.2514 55.2083C55.3153 54.7368 55.2096 54.3651 54.9072 54.3757C54.6049 54.3862 54.3897 54.7691 54.3258 55.2406C54.262 55.7121 54.3678 56.0901 54.6702 56.0795C54.9726 56.0689 55.1876 55.6798 55.2514 55.2083Z" fill="#32EFA0"/>
<path d="M60.2443 56.2805C60.1525 56.4839 59.7846 56.7407 59.4391 56.7528C59.1231 56.7638 58.8801 56.6241 58.7694 56.37C58.7588 56.3455 58.7422 56.3242 58.7213 56.3079C58.7004 56.2916 58.6757 56.2808 58.6497 56.2767C58.6236 56.2725 58.5969 56.275 58.5721 56.284C58.5472 56.293 58.525 56.3082 58.5075 56.3281C58.2644 56.6071 57.9656 56.798 57.6308 56.8097C56.8533 56.8368 56.5453 55.9779 56.658 55.1356C56.7762 54.2743 57.327 53.4167 58.1354 53.3885C58.4037 53.3791 58.6092 53.4688 58.76 53.6229C58.7805 53.6441 58.8063 53.6591 58.8347 53.6662C58.8631 53.6733 58.8928 53.6722 58.9206 53.6631C58.9484 53.654 58.9731 53.6372 58.992 53.6146C59.0108 53.5921 59.0231 53.5646 59.0274 53.5353C59.0288 53.5252 59.0296 53.5199 59.0296 53.5199C59.0311 53.5099 59.0359 53.5007 59.0431 53.4938C59.0521 53.4856 59.0637 53.4809 59.0758 53.4807L60.2995 53.438C60.3028 53.4387 60.3059 53.44 60.3087 53.4419C60.3115 53.4438 60.3139 53.4462 60.3157 53.4491C60.3175 53.4519 60.3188 53.4551 60.3194 53.4585C60.3199 53.4619 60.3198 53.4653 60.3191 53.4686C60.3191 53.4686 60.0788 54.9035 60.0198 55.3373C59.8817 56.3369 60.3309 56.1085 60.2443 56.2805ZM58.8547 55.0589C58.9186 54.5874 58.8127 54.2094 58.5104 54.22C58.208 54.2306 57.993 54.6197 57.9292 55.0912C57.8653 55.5627 57.9709 55.9344 58.2733 55.9238C58.5757 55.9133 58.7909 55.5304 58.8547 55.0589Z" fill="#32EFA0"/>
<path d="M61.6555 57.9507C60.7546 57.9822 60.4247 57.3805 60.3855 57.1441C60.3255 56.8397 60.3975 56.7808 60.4597 56.7912C60.6087 56.811 60.7178 57.2827 61.4089 57.2586C61.9026 57.2413 62.2363 56.8918 62.3035 56.5141L62.3044 56.5082C62.3297 56.3445 62.1405 56.2355 62.0156 56.3424C61.7688 56.5537 61.5073 56.642 61.295 56.6494C60.8384 56.6653 60.5033 56.2704 60.5925 55.6416C60.6266 55.3776 60.6564 55.1701 60.7202 54.6986C60.8583 53.699 60.3597 53.9291 60.4402 53.7574C60.5382 53.5538 60.8999 53.2971 61.2454 53.2851C61.7453 53.2676 62.1035 53.618 62.0253 54.2088C61.9957 54.4226 61.9216 54.957 61.8565 55.391C61.7734 56.0195 62.3828 55.7793 62.4992 55.0432C62.5731 54.4991 62.6507 54.0001 62.7009 53.6885C62.7159 53.5952 62.7625 53.51 62.8326 53.4476C62.9027 53.3851 62.992 53.3492 63.0854 53.3459L63.8075 53.3207C63.8247 53.3201 63.8418 53.3233 63.8576 53.33C63.8735 53.3367 63.8877 53.3468 63.8994 53.3596C63.911 53.3724 63.9198 53.3877 63.925 53.4042C63.9303 53.4208 63.932 53.4383 63.93 53.4556C63.8771 53.9052 63.7089 55.3259 63.6147 56.0241C63.4982 57.1105 62.7971 57.9108 61.6555 57.9507Z" fill="#32EFA0"/>
<path d="M64.5577 56.5539C64.2245 56.5655 63.9928 56.2983 64.0425 55.9525C64.0862 55.6131 64.3913 55.3272 64.7245 55.3155C65.0577 55.3039 65.2957 55.5709 65.2457 55.9105C65.196 56.2563 64.8909 56.5423 64.5577 56.5539ZM64.7403 55.0585C64.3021 55.0738 64.4073 53.6623 64.4692 53.1346C64.5828 52.1421 64.1581 52.3634 64.2386 52.1917C64.3305 51.9945 64.6982 51.7314 65.0438 51.7193C65.5436 51.7019 65.8525 52.054 65.7683 52.6513C65.6602 53.4496 65.2401 55.041 64.7403 55.0585Z" fill="#32EFA0"/>
<path d="M74.0606 65.4415L68.0975 65.4692L68.0352 42.7388L73.9983 42.7129L74.0606 65.4415Z" fill="#0AA664"/>
<path d="M55.3131 68.0887C56.2484 66.3185 56.7113 64.5898 56.7208 62.771C56.7615 62.7494 56.79 62.7174 56.8281 62.6932C57.2616 63.8898 57.4779 65.1781 57.227 66.745C57.1006 67.5376 58.6226 67.413 58.7489 66.6274C59.2023 63.7972 58.5438 61.5035 56.9795 59.1985C54.7853 55.9635 53.2504 51.9047 53.1751 47.9982C53.1734 47.8918 53.1397 47.8053 53.0895 47.7317C53.022 47.499 52.8074 47.3069 52.4241 47.3086C50.0742 47.319 47.7242 47.3285 45.3751 47.3398C44.8828 47.3415 44.4891 47.8269 44.5999 48.1721C45.6416 51.4383 46.9559 54.6795 48.566 57.7398C49.0116 58.586 49.5221 59.292 50.1883 60.0292C50.9662 60.8892 52.1169 61.7319 52.4414 62.8394C52.8307 64.1701 52.1853 65.5605 51.6168 66.8696C51.3417 67.503 52.2537 67.7409 52.7832 67.3914C52.7797 67.3983 52.778 67.4061 52.7745 67.4121C52.5037 68.0031 53.2876 68.2531 53.8301 67.9979C53.6302 68.6589 54.9367 68.7999 55.3131 68.0887Z" fill="#F6C3B9"/>
<path d="M56.4683 65.1902C56.4458 65.1902 56.4216 65.185 56.3999 65.1755C56.3134 65.1374 56.2745 65.037 56.3117 64.9505C56.4865 64.5525 56.5436 63.24 56.5496 62.7684C56.5514 62.6741 56.6197 62.6162 56.7227 62.6006C56.8161 62.6023 56.8914 62.6802 56.8905 62.7736C56.8888 62.8454 56.8611 64.5456 56.6232 65.0881C56.5955 65.1513 56.5341 65.1902 56.4683 65.1902Z" fill="#0AA664"/>
<path d="M53.8291 68.1687C53.8015 68.1687 53.7729 68.1609 53.7461 68.1471C53.6639 68.1012 53.6345 67.9974 53.6803 67.9152C53.695 67.8893 55.1391 65.2642 55.108 62.6019C55.1071 62.5084 55.1824 62.4314 55.2767 62.4297H55.2784C55.371 62.4297 55.4471 62.505 55.4489 62.5984C55.48 65.3524 54.0385 67.9706 53.9771 68.0805C53.9468 68.1367 53.8897 68.1687 53.8291 68.1687Z" fill="#0AA664"/>
<path d="M52.7824 67.5633C52.7574 67.5633 52.7323 67.5572 52.708 67.546C52.6232 67.5044 52.5877 67.4032 52.6284 67.3176C52.6422 67.2907 53.9635 64.5237 53.6589 62.8703C53.6416 62.7777 53.703 62.6886 53.7947 62.6722C53.8934 62.6575 53.9764 62.7163 53.9929 62.808C54.3182 64.5713 52.9918 67.3487 52.9347 67.4664C52.907 67.5278 52.8456 67.5633 52.7824 67.5633Z" fill="#0AA664"/>
<path d="M71.7412 18.5496C72.8296 28.6961 60.0814 35.9614 52.5219 38.9421C44.9624 41.9219 41.7957 31.8066 43.1714 29.8469C44.5497 27.888 71.0819 12.4013 71.7412 18.5496Z" fill="#C3FFE6"/>
<path d="M59.6017 56.862C59.555 49.4669 55.4322 35.3949 52.8686 31.677C50.304 27.9592 41.7513 32.1564 41.6155 33.6593C41.4805 35.163 42.8241 52.2711 48.1712 60.4017C48.1712 60.4017 59.6112 58.3104 59.6017 56.862Z" fill="#C3FFE6"/>
<path d="M67.5534 17.3652C67.5534 17.3652 48.6647 23.209 43.0667 29.8106C37.4687 36.4132 47.5875 58.4461 48.1706 60.4015C48.1706 60.4015 41.9575 34.7234 45.2323 31.6129C48.5072 28.5024 67.5534 17.3652 67.5534 17.3652Z" fill="#A2FFD8"/>
<path d="M128.059 22.1162L128.099 38.1973L109.733 38.263L109.693 22.1828L128.059 22.1162Z" fill="#FFD357"/>
<path d="M119.37 34.9482C118.555 34.8705 117.594 34.7316 116.259 34.7782C116.259 34.7782 116.207 34.7801 116.218 34.7134C117.082 28.3422 117.21 27.4887 117.209 27.4755C117.285 25.8942 116.434 26.2821 116.605 25.9312C116.826 25.4857 117.762 24.9224 118.534 24.8955C119.555 24.8598 120.387 25.441 120.178 26.9606C120.046 27.8695 119.674 30.5479 119.423 32.3763C119.419 32.4037 119.422 32.4316 119.43 32.458C119.438 32.4844 119.451 32.5087 119.47 32.5292C119.488 32.5497 119.51 32.566 119.535 32.5767C119.561 32.5875 119.588 32.5926 119.615 32.5916C122.362 32.4957 122.143 31.84 122.346 32.0187C122.507 32.1457 122.596 32.4212 122.591 32.6601C122.55 34.4922 120.829 35.1095 119.37 34.9482Z" fill="#FFEBB1"/>
<path d="M131.706 38.181L127.922 38.1992L127.881 22.1129L131.666 22.0947L131.706 38.181Z" fill="#FFC32E"/>
<path d="M83.4668 2.17917C83.0948 1.79712 81.5021 2.10353 80.3813 2.38046C80.663 3.00225 80.2501 3.44199 80.4668 4.09968C80.4788 4.13558 80.4572 4.66763 80.4668 4.70353C80.468 4.70097 79.9131 5.41251 80.0118 5.95097C80.037 6.05353 81.0651 5.97533 81.7802 5.89712C82.1161 5.83302 83.031 5.61507 83.4656 5.07661C84.301 4.05097 84.0434 2.78173 83.4668 2.17917Z" fill="#FFD357"/>
<path d="M83.5605 2.16362C82.1916 1.38299 81.1312 3.63922 80.9577 3.82275L79 4.9215C79 4.9215 80.5706 5.06466 81.5806 4.96432C84.5971 4.667 84.176 2.51478 83.5605 2.16362Z" fill="#FFC32E"/>
<path d="M73 7.03128C73 7.03128 74.1999 12.8831 78.5975 12.9989C82.9965 13.1125 80.1372 4.31421 79.4768 4.0913C78.8164 3.86839 74.6298 3.79913 73 7.03128Z" fill="#F6C3B9"/>
<path d="M79.9254 10.3252C79.9105 10.6915 79.8763 11.0344 79.66 11.2933C79.5416 11.4155 79.396 11.5023 79.2362 11.546C79.0763 11.5897 78.9072 11.589 78.7437 11.5439C78.4155 11.4647 78.0449 11.1557 77.7738 10.9326C78.5193 10.834 79.2452 10.6292 79.9333 10.3232" fill="white"/>
<path d="M78.6599 8.7535L79.3424 9.9139L78.7751 10.1107" fill="#EBB0A4"/>
<path d="M77.2577 8.04523C77.2298 8.03532 77.2012 8.02935 77.1738 8.02121L77.1218 8.00984L77.1393 8.00544C77.0966 7.99737 77.0544 7.99106 77.011 7.98692C76.958 7.9812 76.905 7.97945 76.8521 7.9817C76.8203 7.98969 76.7848 7.98356 76.7521 7.98802L76.7696 7.98362C76.6731 7.99256 76.5783 8.01319 76.4869 8.04516L76.4014 8.07599L76.4206 8.07119C76.329 8.10888 76.2417 8.1572 76.1603 8.21537L76.0863 8.2715L76.1022 8.2675C76.0128 8.34063 75.9309 8.4241 75.8581 8.51657C75.8505 8.52271 75.8418 8.52707 75.8325 8.52941C75.8232 8.53174 75.8135 8.532 75.8039 8.53017C75.7852 8.5286 75.7673 8.51975 75.7536 8.50522C75.7416 8.48775 75.7362 8.46618 75.7385 8.44515C75.7389 8.42471 75.7461 8.40551 75.7588 8.39121C75.874 8.24571 76.0107 8.12262 76.1638 8.02668C76.2888 7.94848 76.4247 7.8916 76.567 7.85791C76.6834 7.83022 76.8031 7.81784 76.9236 7.82102C77.0125 7.82342 77.1015 7.83442 77.1894 7.85389C77.2255 7.86173 77.2613 7.87155 77.2967 7.88331C77.3149 7.88942 77.3305 7.90306 77.3401 7.92125C77.352 7.93873 77.3574 7.9603 77.3552 7.98133C77.3499 8.00064 77.3383 8.01687 77.3226 8.02707C77.3055 8.0368 77.2852 8.03851 77.2662 8.03183L77.2577 8.04523Z" fill="#3E3244"/>
<path d="M79.1389 7.57484C79.1534 7.54856 79.1698 7.52371 79.188 7.50054L79.2219 7.46011L79.2103 7.47431C79.2375 7.44117 79.2668 7.40941 79.2977 7.37724C79.3361 7.33955 79.3765 7.30434 79.4186 7.27177C79.4453 7.24999 79.473 7.22987 79.5018 7.21148L79.4842 7.21588C79.5655 7.16152 79.6516 7.11601 79.7415 7.07996L79.8292 7.05797L79.8101 7.06277C79.9046 7.03308 80.0022 7.01488 80.1014 7.00846C80.1319 7.00524 80.1626 7.0038 80.1935 7.00414L80.1743 7.00894C80.2894 7.00825 80.1663 7.12552 80.3466 7.0202C80.2997 6.96744 80.2431 6.92623 80.1811 6.89957C80.119 6.87291 80.0529 6.86146 79.9877 6.86606C79.8428 6.88548 79.7022 6.92833 79.5707 6.99323C79.4626 7.04723 79.3614 7.11549 79.2693 7.19655C79.2017 7.25517 79.1393 7.32048 79.0828 7.39171C79.0585 7.42091 79.0363 7.45222 79.0165 7.48535C79.0065 7.50263 79.0028 7.52358 79.0059 7.54436C79.0078 7.55478 79.0116 7.56477 79.017 7.57373C79.0225 7.58269 79.0295 7.59044 79.0376 7.5965C79.0452 7.60277 79.0538 7.60733 79.0629 7.6099C79.072 7.61246 79.0814 7.61298 79.0905 7.61141C79.1002 7.61019 79.1094 7.60682 79.1177 7.60152C79.126 7.59622 79.1331 7.58908 79.1387 7.58054L79.1389 7.57484Z" fill="#3E3244"/>
<path d="M77.429 8.91526L77.4268 8.90643L77.429 8.91526L77.3906 8.88359L77.3274 8.84121L77.2808 8.81723L77.2903 8.81483C77.2537 8.79609 77.2154 8.78175 77.1763 8.77208L77.14 8.76241L77.1495 8.76001C77.1157 8.75356 77.0815 8.7508 77.0475 8.75179C77.0376 8.75249 77.0279 8.75492 77.0188 8.75899L77.0284 8.75659C76.9962 8.76089 76.9647 8.76879 76.9343 8.78018L76.9057 8.78738L76.9168 8.78458C76.8827 8.79848 76.8503 8.81668 76.8203 8.83884L76.7915 8.85921L76.8011 8.85681C76.7609 8.89019 76.7238 8.92779 76.6904 8.96911L76.6601 9.01051L76.6353 9.04678C76.633 9.05196 76.6298 9.0565 76.6257 9.06011C76.6216 9.06372 76.6169 9.06631 76.6118 9.06771C76.6063 9.06898 76.6007 9.06903 76.5952 9.06783C76.5896 9.06664 76.5843 9.06424 76.5795 9.06077C76.5749 9.05788 76.5708 9.05395 76.5676 9.04925C76.5643 9.04455 76.562 9.03919 76.5608 9.03353C76.559 9.02773 76.5584 9.02164 76.5589 9.01566C76.5595 9.00969 76.5612 9.00397 76.564 8.99893C76.5991 8.94399 76.6391 8.89309 76.6834 8.84689C76.7203 8.80857 76.7615 8.77553 76.8061 8.74849C76.8457 8.72542 76.8878 8.70731 76.9315 8.6945C76.9705 8.68444 77.0105 8.6788 77.0509 8.67768C77.0888 8.67797 77.1268 8.68229 77.1643 8.69057C77.196 8.69788 77.2273 8.7076 77.258 8.71965C77.2882 8.73231 77.3179 8.74682 77.3468 8.7631C77.3683 8.7746 77.3887 8.78827 77.4091 8.80194C77.4294 8.81562 77.438 8.82285 77.4511 8.83459L77.4794 8.85943C77.4859 8.86926 77.4889 8.88125 77.4878 8.893C77.488 8.89901 77.4869 8.90491 77.4848 8.91032C77.4826 8.91572 77.4794 8.92049 77.4753 8.9243C77.4711 8.92779 77.4663 8.93026 77.4611 8.93157C77.4559 8.93287 77.4504 8.93299 77.4451 8.9319C77.4342 8.93054 77.4239 8.92517 77.4158 8.9167L77.429 8.91526Z" fill="#3E3244"/>
<path d="M80.2954 8.07372L80.2848 8.06511C80.2728 8.05406 80.2601 8.04405 80.2468 8.03521C80.226 8.01977 80.2056 8.0061 80.1836 7.99283C80.1691 7.98357 80.154 7.97543 80.1386 7.96845L80.1465 7.96645C80.1097 7.9474 80.0713 7.93248 80.032 7.92193L79.9962 7.91403L80.0057 7.91163C79.9719 7.90491 79.9377 7.90215 79.9037 7.90341L79.875 7.91061L79.8862 7.90781C79.854 7.91216 79.8225 7.92006 79.7921 7.9314L79.7635 7.9386L79.773 7.9362C79.7393 7.95091 79.7069 7.96907 79.6765 7.99046L79.6498 8.01219L79.6593 8.00979C79.6185 8.04285 79.5815 8.08112 79.549 8.12386C79.539 8.13766 79.5284 8.14969 79.5188 8.16526L79.5267 8.16326C79.5176 8.17454 79.5093 8.18667 79.502 8.19953C79.4959 8.20918 79.4868 8.21608 79.4764 8.2191C79.4657 8.2211 79.4546 8.21929 79.4446 8.21393C79.4355 8.20678 79.4287 8.19654 79.4255 8.18492C79.4224 8.17315 79.4235 8.16076 79.4286 8.15032C79.4639 8.09591 79.5041 8.04559 79.5485 8.00004C79.5857 7.96103 79.6273 7.92726 79.6723 7.89948C79.7114 7.87654 79.7529 7.85857 79.7961 7.84589C79.8358 7.83619 79.8765 7.83101 79.9176 7.83044C79.9555 7.83102 79.9934 7.83533 80.0309 7.84332C80.0626 7.85071 80.0939 7.86043 80.1246 7.8724C80.1544 7.8841 80.1834 7.89816 80.2114 7.91449L80.2757 7.9547C80.29 7.96427 80.3031 7.97601 80.3178 7.98734C80.3272 7.99422 80.336 8.00209 80.344 8.01082C80.3507 8.02057 80.3537 8.03263 80.3524 8.04439C80.3526 8.05017 80.3518 8.05589 80.3499 8.06119C80.348 8.0665 80.3452 8.07129 80.3416 8.07529C80.333 8.08214 80.3221 8.08487 80.3113 8.08289C80.3007 8.08206 80.2906 8.07732 80.2825 8.06945L80.2954 8.07372Z" fill="#3E3244"/>
<path opacity="0.45" d="M76.973 10.8319C76.6975 10.901 76.412 10.7094 76.3354 10.4039C76.2587 10.0985 76.42 9.79486 76.6955 9.72574C76.971 9.65662 77.2565 9.8482 77.3331 10.1536C77.4097 10.4591 77.2485 10.7627 76.973 10.8319Z" fill="#F0ADA0"/>
<path opacity="0.45" d="M80.4918 9.63323C80.2594 9.69153 80.0186 9.52994 79.954 9.27232C79.8893 9.01469 80.0253 8.75858 80.2577 8.70029C80.4901 8.64199 80.7309 8.80357 80.7955 9.0612C80.8601 9.31883 80.7241 9.57493 80.4918 9.63323Z" fill="#F0ADA0"/>
<path d="M73.5573 2.13808C73.4988 2.00102 71.724 3.29294 71.724 3.29294C69.396 5.17133 69.361 8.25559 72.0148 10.1499C72.0668 10.186 72.1213 10.203 72.1759 10.2243C72.2875 10.3528 72.4004 10.474 72.5082 10.5866C72.5783 10.6588 72.6575 10.6992 72.7393 10.7268C72.9652 11.0774 73.7547 11.1348 73.9611 10.6355C74.4804 9.37965 74.0273 7.86674 74.605 6.70231C74.8297 6.24758 75.2711 5.88954 75.6736 5.489C76.9629 5.61225 78.8429 4.20664 79 4.20133C78.5702 2.60236 74.1688 1.62279 73.5573 2.13808Z" fill="#17171D"/>
<path d="M75.8703 6.99536C75.8703 6.99536 75.1934 5.85303 73.961 6.0159C72.7299 6.17876 72.4456 8.75932 74.5309 8.98412C76.6162 9.20777 75.8703 6.99536 75.8703 6.99536Z" fill="#F6C3B9"/>
<path d="M83 2.03304C81.7984 1.81983 78.6233 2.7082 78.6233 2.7082C78.1259 3.03723 77.7771 3.68212 77.5379 4.38097C77.1094 5.60494 77 7 77 7C79.7263 6.88682 80.7455 5.35224 80.9388 4.62707C81.2888 3.30834 81.847 2.2423 83 2.03304Z" fill="#FFD357"/>
<path d="M79 2.4214C79 2.4214 76.0186 0.0235768 72.6583 1.45663C69.76 2.69378 69.7996 6.3623 70.1866 7.73766C73.8916 8.67559 77.3649 6.79705 77.3649 6.79705C77.3649 6.79705 77.7191 3.41166 79 2.4214Z" fill="#FFC32E"/>
<path d="M73.5 2C73.7761 2 74 1.55229 74 1.00001C74 0.447722 73.7761 0 73.5 0C73.2238 0 73 0.447722 73 1.00001C73 1.55229 73.2238 2 73.5 2Z" fill="#FFD357"/>
</svg>
