<svg width="311" height="182" viewBox="0 0 311 182" fill="none" xmlns="http://www.w3.org/2000/svg">
<path d="M155.109 181.272C240.773 181.272 310.218 179.5 310.218 177.313C310.218 175.126 240.773 173.354 155.109 173.354C69.4447 173.354 0 175.126 0 177.313C0 179.5 69.4447 181.272 155.109 181.272Z" fill="#EDF1F4"/>
<path d="M205.826 0H239.8C243.382 0 246.287 2.90412 246.287 6.48639V31.2418C246.287 34.8241 243.382 37.7282 239.8 37.7282H219.502L212.658 46.9432C211.93 47.9225 210.374 47.4071 210.375 46.1866L210.386 37.729H205.827C202.244 37.729 199.34 34.8249 199.34 31.2426V6.48639C199.339 2.90412 202.243 0 205.826 0Z" fill="#C1FFE5"/>
<path d="M111.128 49.1289H36.3052V177.75H111.128V49.1289Z" fill="#C3FFE6"/>
<path d="M111.128 177.75L52.3044 172.15V49.1289H111.128V177.75Z" fill="#53E88B"/>
<path d="M105.897 165.642L105.22 165.576L57.5347 161.038V49.1289H58.772V159.913L104.66 164.28V49.1289H105.897V165.642Z" fill="#B0FFCE"/>
<path d="M60.4981 117.006C62.4677 117.006 64.0644 115.409 64.0644 113.439C64.0644 111.47 62.4677 109.873 60.4981 109.873C58.5285 109.873 56.9319 111.47 56.9319 113.439C56.9319 115.409 58.5285 117.006 60.4981 117.006Z" fill="#15BE77"/>
<path d="M194.959 69.4848C194.941 69.4595 194.918 69.4392 194.901 69.4131C194.642 69.0217 195.365 68.5131 195.624 68.9045C195.642 68.9314 195.669 68.95 195.688 68.9753C195.754 68.7383 196.081 68.4937 196.456 68.7839C196.563 68.8682 198.083 70.0761 199.757 70.2599C199.49 69.99 199.039 69.5455 198.644 69.3507C198.223 69.144 198.515 68.4684 198.936 68.6818C199.002 68.7155 199.54 69.004 199.602 69.0656C201.44 70.2017 202.977 72.0009 204.089 73.8473C204.293 74.1341 204.488 74.4293 204.663 74.7439C204.725 74.8561 204.681 75.0121 204.61 75.1074C204.248 75.595 203.214 76.4595 202.714 76.8062C202.664 76.8416 202.61 76.8577 202.556 76.8653C202.606 77.2448 202.023 77.4498 201.861 77.0475C201.431 75.9712 200.359 74.1425 200.347 74.1282C198.381 73.4627 196.489 72.7862 194.863 71.4914C194.535 71.2299 194.873 70.6547 195.208 70.7593C195.212 70.7576 195.216 70.7551 195.22 70.7534C195.215 70.7492 195.211 70.7441 195.206 70.7407C195.103 70.6724 194.688 70.2793 194.581 70.141C194.376 69.8761 194.702 69.5008 194.959 69.4848Z" fill="#F6C3B9"/>
<path d="M202.138 71.4282C201.4 70.2034 200.417 69.1811 199.225 68.3613C198.657 67.9707 198.117 68.8775 198.68 69.2646C199.718 69.9791 200.564 70.8917 201.205 71.9553C201.555 72.5382 202.489 72.0119 202.138 71.4282Z" fill="#F6C3B9"/>
<path d="M139.218 166.828C139.444 169.551 140.349 172.055 140.31 172.519C140.31 172.519 140.3 172.526 140.305 172.544C140.198 174.075 140.384 174.862 140.809 175.801C142.163 173.66 143.687 173.424 146.443 174.023C149.033 174.583 154.137 175.853 153.715 175.623C152.184 174.693 149.067 173.809 147.728 172.228C147.621 172.105 147.53 171.987 147.459 171.855C147.297 171.569 146.479 170.019 145.462 166.284C145.147 166.273 141.801 166.758 139.218 166.828Z" fill="#F6C3B9"/>
<path d="M141.121 176.708C141.209 176.823 141.296 176.888 141.363 176.894C142.123 176.919 142.304 174.736 142.791 174.906C149.306 177.161 154.512 177.416 155.021 176.961C155.136 176.855 155.182 176.735 155.17 176.61C155.115 175.978 153.828 175.127 153.282 174.917C151.595 174.189 150.191 173.603 147.722 172.218C147.722 172.218 144.083 173.918 140.306 172.525C140.306 172.525 140.297 172.534 140.307 172.542C140.069 174.515 140.689 176.174 141.121 176.708Z" fill="#3F4261"/>
<path d="M147.234 171.375C148.541 173.104 151.652 174.206 151.652 174.206C151.652 174.206 149.331 175.182 140.31 172.52C140.31 172.521 146.117 169.895 147.234 171.375Z" fill="#F6C3B9"/>
<path d="M141.364 176.894C142.124 176.919 142.304 174.736 142.791 174.906C149.306 177.161 154.513 177.416 155.021 176.961C155.136 176.855 155.182 176.736 155.17 176.61C151.628 177.089 148.496 175.922 145.173 174.986C142.652 174.278 142.481 173.691 141.538 176.267C141.483 176.353 141.296 176.889 141.364 176.894Z" fill="#2A2B3B"/>
<path d="M125.272 108.643C126.048 112.371 126.85 116.099 127.567 119.836C127.668 120.359 127.769 120.882 127.87 121.405C129.456 129.84 130.214 138.241 130.704 146.794C131.16 154.554 131.901 162.288 134.845 169.551C137.51 169.551 141.062 169.551 144.791 168.977C147.168 168.614 149.623 168.015 151.951 167.028C152.33 167.365 147.7 133.973 147.303 127.73C146.89 121.142 146.181 114.537 145.27 108.001C144.537 102.704 143.238 97.4574 139.138 93.746C138.876 93.5099 138.572 93.5866 138.379 93.7713C133.124 92.2699 126.773 93.6524 124.706 99.3383C123.611 102.367 124.648 105.641 125.272 108.643Z" fill="#3F4261"/>
<path d="M127.567 119.836C127.668 120.359 127.769 120.882 127.871 121.405C129.456 129.84 130.215 138.241 130.704 146.794C131.16 154.554 131.902 162.289 134.845 169.551C137.511 169.551 141.062 169.551 144.791 168.977C144.791 168.977 135.436 152.942 134.871 140.568C134.314 128.203 132.905 112.396 132.905 112.396L127.567 119.836Z" fill="#343751"/>
<path d="M115.977 166.828C115.752 169.551 114.846 172.055 114.886 172.519C114.886 172.519 114.896 172.526 114.89 172.544C114.998 174.075 114.812 174.862 114.387 175.801C113.032 173.66 111.508 173.424 108.752 174.023C106.162 174.583 101.059 175.853 101.48 175.623C103.012 174.693 106.128 173.809 107.467 172.228C107.575 172.105 107.665 171.987 107.736 171.855C107.899 171.569 108.716 170.019 109.734 166.284C110.049 166.273 113.394 166.758 115.977 166.828Z" fill="#F6C3B9"/>
<path d="M114.074 176.708C113.986 176.823 113.899 176.888 113.832 176.894C113.072 176.919 112.891 174.736 112.405 174.906C105.889 177.161 100.682 177.416 100.175 176.961C100.059 176.855 100.014 176.735 100.026 176.61C100.08 175.978 101.367 175.127 101.914 174.917C103.601 174.189 105.004 173.603 107.473 172.218C107.473 172.218 111.112 173.918 114.889 172.525C114.889 172.525 114.898 172.534 114.889 172.542C115.126 174.515 114.505 176.174 114.074 176.708Z" fill="#3F4261"/>
<path d="M107.961 171.375C106.655 173.104 103.543 174.206 103.543 174.206C103.543 174.206 105.864 175.182 114.885 172.52C114.885 172.521 109.079 169.895 107.961 171.375Z" fill="#F6C3B9"/>
<path d="M113.832 176.894C113.072 176.919 112.891 174.736 112.405 174.906C105.889 177.161 100.682 177.416 100.175 176.961C100.059 176.855 100.014 176.736 100.026 176.61C103.568 177.089 106.699 175.922 110.022 174.986C112.544 174.278 112.715 173.691 113.658 176.267C113.713 176.353 113.899 176.889 113.832 176.894Z" fill="#2A2B3B"/>
<path d="M103.73 167.578C105.198 168.396 107.112 169.054 109.381 169.526C112.561 170.209 116.45 170.547 120.768 170.538C121.013 170.985 122.295 156.52 123.534 149.839C124.674 143.682 127.077 137.82 128.654 131.763C130.324 125.378 131.717 118.883 132.905 112.397C133.867 107.134 134.28 101.744 131.547 96.936C131.371 96.6239 131.058 96.5986 130.814 96.7251C126.293 93.654 119.831 92.9716 116.086 97.728C115.117 98.9688 114.61 100.411 114.307 101.929C113.977 103.514 113.885 105.176 113.708 106.736C113.219 111.046 112.755 115.364 112.182 119.675C111.042 128.178 109.127 136.393 106.918 144.676C104.919 152.176 103.207 159.767 103.73 167.578Z" fill="#3F4261"/>
<path d="M103.73 167.577C105.198 168.396 107.112 169.054 109.381 169.526C110.005 164.178 112.333 146.052 115.977 137.483C120.279 127.361 117.098 101.659 117.098 101.659L114.306 101.929C113.977 103.515 113.885 105.177 113.707 106.737C113.218 111.046 112.754 115.365 112.181 119.676C111.041 128.178 109.127 136.394 106.917 144.677C104.919 152.175 103.207 159.767 103.73 167.577Z" fill="#343751"/>
<path d="M267.017 175.901C267.232 174.877 267.242 174.071 266.793 172.588C266.795 172.57 266.788 172.562 266.788 172.562C266.435 171.41 266.239 170.933 265.938 169.799C263.891 169.465 261.344 169.816 259.691 170.616C259.957 172.202 259.938 172.61 259.663 173.486C259.622 173.628 259.563 173.768 259.488 173.905C258.523 175.75 255.392 176.981 254.098 178.222C253.736 178.544 253.52 178.872 253.51 179.206C253.436 180.906 266.483 178.359 267.017 175.901Z" fill="#EA3E72"/>
<path d="M253.556 179.01C253.528 179.078 253.522 179.132 253.521 179.203C253.403 181.025 266.753 178.476 267.261 176.1L267.267 176.089C267.318 175.965 267.347 175.826 267.367 175.682C267.545 174.468 266.887 172.815 266.79 172.582C266.796 172.572 266.786 172.565 266.786 172.565C263.416 174.753 259.49 173.898 259.49 173.898C258.643 175.519 256.138 176.669 254.66 177.75C254.064 178.132 253.654 178.559 253.556 179.01Z" fill="#343751"/>
<path d="M253.556 179.011C253.528 179.078 253.522 179.132 253.521 179.203C253.403 181.025 266.753 178.476 267.261 176.101L267.267 176.09C267.318 175.965 267.347 175.827 267.367 175.683C266.684 176.224 265.256 177.18 263.016 177.797C260.116 178.599 257.047 179.309 253.556 179.011Z" fill="#2A2B3B"/>
<path d="M221.018 174.697C222.722 174.028 225.775 173.787 227.189 172.423C227.305 172.316 227.403 172.202 227.488 172.081C228.026 171.336 228.173 170.955 228.421 169.366C230.242 169.13 232.77 169.6 234.607 170.564C234.533 171.736 234.568 172.25 234.54 173.454C234.54 173.454 234.543 173.466 234.537 173.48C234.502 174.705 233.928 176.05 233.598 176.749C229.358 176.396 225.182 175.787 221.018 174.697Z" fill="#EA3E72"/>
<path d="M219.451 176.176C219.426 176.927 232.635 178.597 233.47 177.577L233.479 177.568C233.529 177.517 233.563 177.459 233.604 177.399C233.638 177.34 233.672 177.281 233.706 177.213C234.254 176.117 234.551 173.724 234.534 173.471C234.542 173.463 234.534 173.455 234.534 173.455C230.645 174.466 227.196 172.417 227.196 172.417C225.88 173.691 223.138 173.986 221.392 174.543C219.689 174.92 219.459 176.143 219.451 176.176Z" fill="#343751"/>
<path d="M219.39 176.432C219.365 177.184 232.497 178.918 233.332 177.897C233.332 177.897 233.562 177.458 233.604 177.399C229.203 177.739 222.837 176.748 219.494 176.082C219.477 176.117 219.398 176.398 219.39 176.432Z" fill="#2A2B3B"/>
<path d="M244.885 65.9094C235.851 61.7451 225.898 73.2806 220.791 79.336C215.684 85.3922 218.565 90.3173 221.883 89.8044C232.295 88.1993 250.36 68.4323 244.885 65.9094Z" fill="#C3FFE6"/>
<path d="M203.898 70.5171C212.3 69.6812 222.79 76.3523 225.632 79.7161C228.474 83.08 222.335 90.0505 220.886 89.7932C219.436 89.5351 201.335 83.446 200.581 76.4325C200.58 76.4333 202.493 70.6571 203.898 70.5171Z" fill="#C3FFE6"/>
<path d="M201.985 79.5191C201.985 79.5191 209.26 88.5696 221.883 89.8037C223.451 89.9572 232.226 85.1822 232.226 85.1822L230.979 78.0244C230.979 78.0244 224.878 86.5301 221.832 87.1113C218.787 87.6933 201.985 79.5191 201.985 79.5191Z" fill="#AAF9D8"/>
<path d="M239.115 174.138C241.83 166.791 243.259 156.054 243.466 148.29C243.693 139.723 246.952 114.26 247.701 109.983C248.233 106.959 249.166 103.656 247.972 100.67C245.727 95.0492 231.698 93.9063 231.44 94.1543C227.458 97.9888 228.256 104.654 227.688 109.972C226.987 116.534 226.483 123.157 226.274 129.754C226.076 136.009 222.474 171.751 222.837 171.395C227.979 173.203 235.326 175.523 239.115 174.138Z" fill="#15BE77"/>
<path d="M240.878 106.508C240.878 106.508 238.333 137.571 237.068 143.071C235.803 148.571 233.35 169.235 229.522 173.496C229.522 173.496 235.622 175.361 239.115 174.138C239.115 174.138 242.72 163.877 243.338 151.936C243.957 139.996 248.553 113.909 248.553 113.909L240.878 106.508Z" fill="#119D62"/>
<path d="M241.4 109L246.413 126.916L244.652 139.106L241.4 109Z" fill="#0F6E46"/>
<path d="M242.351 113.493C243.439 120.004 244.722 126.515 246.29 132.935C247.775 139.008 253.553 174.576 253.806 174.138C263.506 175.159 268.004 173.506 270.798 171.706C271.447 163.895 269.706 153.718 267.825 146.178C265.741 137.868 262.055 112.463 261.633 108.136C261.355 105.243 261.052 100.013 259.365 97.3053C259.273 97.1535 259.171 97.0101 259.069 96.8752C255.4 92.0589 241.913 96.9427 241.727 97.2455C238.918 102.013 241.474 108.221 242.351 113.493Z" fill="#15BE77"/>
<path d="M254.219 103.202C254.219 103.202 258.815 112.86 258.647 117.321C258.479 121.775 257.425 139.674 260.46 146.843C263.496 154.013 264.419 174.138 264.419 174.138C264.419 174.138 267.758 173.575 270.797 171.705C271.447 163.894 269.705 153.718 267.824 146.177C265.74 137.868 262.055 112.462 261.633 108.135C261.354 105.242 261.052 100.012 259.365 97.3047L254.219 98.6627V103.202Z" fill="#119D62"/>
<path d="M228.383 100.849C228.383 100.849 244.231 105.081 260.956 102.1L260.439 98.1367L228.383 100.849Z" fill="#0F6F46"/>
<path d="M234.628 67.4316C234.628 67.4316 229.862 71.6541 227.306 78.6128C225.697 82.9998 225.094 88.749 225.094 88.749L230.904 85.6079L234.628 67.4316Z" fill="#AAF9D8"/>
<path d="M226.75 100.547C226.75 100.547 232.848 101.829 240.777 102.284C240.777 102.284 240.938 102.293 241.233 102.31C243.865 102.453 246.69 102.503 249.55 102.385C252.67 102.25 255.833 101.922 258.845 101.289C259.823 101.086 260.776 100.849 261.713 100.58C261.713 100.58 261.417 98.303 260.81 94.8953C260.27 91.9094 259.486 88.0462 258.44 84.0987C258.415 84.0228 258.398 83.9722 258.388 83.9385C258.38 83.8963 258.372 83.8541 258.355 83.8128C256.305 76.1624 253.26 68.2665 249.102 65.8634C248.992 65.796 248.873 65.7369 248.756 65.6779C243.096 62.708 234.679 65.5514 232.772 69.7603C228.969 78.1344 226.75 100.547 226.75 100.547Z" fill="#5FF2B4"/>
<path d="M239.329 60.6125C239.329 60.6125 239.431 64.3517 239.544 65.1057C239.579 65.336 243.028 65.1699 243.471 64.7245C243.128 63.7815 242.951 62.4024 242.951 60.6125C242.951 58.918 239.329 60.6125 239.329 60.6125Z" fill="#F6B9AD"/>
<path d="M227.985 110.088C227.812 110.088 227.699 110.079 227.682 110.079C227.624 110.073 227.58 110.024 227.585 109.966C227.589 109.91 227.636 109.868 227.69 109.868H227.698C227.712 109.87 229.411 109.987 230.158 109.238C230.782 108.615 230.984 103.487 231.01 101.563C231.011 101.505 231.058 101.459 231.115 101.459H231.117C231.174 101.46 231.222 101.508 231.221 101.566C231.217 101.852 231.12 108.576 230.308 109.388C229.686 110.009 228.533 110.088 227.985 110.088Z" fill="#26E695"/>
<path d="M240.674 169.243C240.1 169.237 226.618 169.065 222.947 166.546C222.898 166.513 222.886 166.447 222.919 166.399C222.952 166.349 223.017 166.338 223.066 166.371C226.685 168.855 240.535 169.03 240.674 169.032C240.733 169.033 240.78 169.081 240.779 169.138C240.778 169.196 240.731 169.243 240.674 169.243Z" fill="#EDEDED"/>
<path d="M253.005 169.411C252.948 169.411 252.901 169.365 252.899 169.308C252.898 169.25 252.945 169.202 253.002 169.2C260.731 169.034 270.66 166.383 270.76 166.356C270.815 166.341 270.873 166.375 270.889 166.431C270.904 166.487 270.871 166.545 270.814 166.56C270.714 166.586 260.76 169.244 253.007 169.411H253.005Z" fill="#EDEDED"/>
<path d="M240.777 102.284C240.777 102.284 240.938 102.292 241.233 102.309C242.422 102.36 245.838 102.478 249.55 102.385C252.536 102.309 255.715 102.09 258.086 101.567C258.363 101.508 258.617 101.415 258.844 101.289C260.109 100.631 260.666 99.104 260.809 97.223C260.868 96.4892 260.861 95.7048 260.809 94.895C260.514 90.3908 258.785 85.1275 258.439 84.0984C258.414 84.0225 258.397 83.9719 258.388 83.9382C258.379 83.9297 258.379 83.9213 258.379 83.9213L258.354 83.8117C256.304 76.1613 253.259 68.2654 249.101 65.8623C248.991 65.7948 248.872 65.7358 248.755 65.6768C245.854 68.7808 242.775 72.6018 242.817 74.8024C242.902 78.9523 247.819 85.9786 247.043 92.0938C246.74 94.4809 245.727 96.5558 244.597 98.1922C242.826 100.766 240.777 102.284 240.777 102.284Z" fill="#47E7A4"/>
<path d="M217.303 79.9492L217.366 97.4979L188.994 97.5704L188.933 80.0226L217.303 79.9492Z" fill="#15BE77"/>
<path d="M192.341 90.9938C191.942 90.9558 191.471 90.8878 190.818 90.9106C190.818 90.9106 190.792 90.9115 190.797 90.8788C191.221 87.7587 191.283 87.3407 191.283 87.3342C191.32 86.5599 190.903 86.7498 190.987 86.578C191.095 86.3598 191.554 86.084 191.932 86.0708C192.431 86.0533 192.839 86.3379 192.737 87.0821C192.672 87.5272 192.49 88.8389 192.367 89.7343C192.365 89.7477 192.366 89.7614 192.37 89.7743C192.374 89.7872 192.381 89.7992 192.39 89.8092C192.399 89.8193 192.41 89.8272 192.422 89.8325C192.434 89.8378 192.448 89.8403 192.461 89.8398C193.806 89.7928 193.699 89.4717 193.798 89.5592C193.877 89.6214 193.921 89.7563 193.918 89.8733C193.898 90.7705 193.056 91.0728 192.341 90.9938Z" fill="#39D795"/>
<path d="M197.746 90.357C197.65 90.5682 197.268 90.835 196.909 90.8475C196.582 90.8589 196.33 90.7146 196.215 90.452C196.204 90.4264 196.186 90.4041 196.165 90.387C196.143 90.37 196.117 90.3587 196.09 90.3544C196.062 90.35 196.034 90.3527 196.008 90.3621C195.982 90.3715 195.959 90.3873 195.941 90.4082C195.689 90.697 195.379 90.8944 195.032 90.9065C194.225 90.9347 193.905 90.0429 194.022 89.1683C194.144 88.2739 194.716 87.3834 195.556 87.3541C195.833 87.3445 196.045 87.4364 196.201 87.5945C196.223 87.6168 196.25 87.6325 196.28 87.6399C196.31 87.6473 196.341 87.6462 196.37 87.6366C196.399 87.6271 196.425 87.6094 196.445 87.5857C196.465 87.562 196.478 87.5332 196.483 87.5024C196.484 87.4946 196.484 87.4906 196.484 87.4906C196.486 87.4802 196.491 87.4707 196.498 87.4635C196.508 87.455 196.52 87.4501 196.532 87.45L197.803 87.4056C197.806 87.4062 197.81 87.4076 197.812 87.4096C197.815 87.4116 197.818 87.4141 197.82 87.4171C197.822 87.42 197.823 87.4234 197.823 87.4269C197.824 87.4303 197.824 87.4339 197.823 87.4374C197.823 87.4374 197.574 88.9273 197.512 89.3777C197.369 90.4156 197.836 90.1785 197.746 90.357ZM196.303 89.0886C196.369 88.5991 196.259 88.2066 195.945 88.2176C195.631 88.2285 195.408 88.6326 195.342 89.1222C195.275 89.6117 195.385 89.9977 195.699 89.9867C196.013 89.9758 196.236 89.5782 196.303 89.0886Z" fill="#39D795"/>
<path d="M201.591 88.9398C201.468 89.8341 200.902 90.7244 200.063 90.7537C199.695 90.7666 199.441 90.5999 199.281 90.3368C199.274 90.326 199.264 90.3177 199.253 90.3128C199.241 90.3078 199.229 90.3067 199.216 90.3093C199.204 90.312 199.193 90.3185 199.185 90.3278C199.176 90.3371 199.171 90.3488 199.169 90.3614C199.146 90.5317 199.135 90.6237 199.135 90.6237C199.133 90.6341 199.128 90.6436 199.121 90.6508C199.111 90.6594 199.099 90.6642 199.087 90.6644L197.867 90.707C197.864 90.7063 197.861 90.7049 197.858 90.703C197.855 90.701 197.852 90.6984 197.851 90.6955C197.849 90.6925 197.847 90.6892 197.847 90.6857C197.846 90.6822 197.846 90.6786 197.847 90.6752L198.486 86.1558C198.492 86.1178 198.51 86.0829 198.538 86.0572C198.567 86.0315 198.603 86.0168 198.641 86.0154L199.686 85.9789C199.693 85.9787 199.701 85.9801 199.708 85.9831C199.716 85.9862 199.722 85.9907 199.728 85.9965C199.733 86.0023 199.737 86.0092 199.739 86.0167C199.742 86.0243 199.743 86.0322 199.742 86.0401C199.716 86.2761 199.622 87.1173 199.545 87.638C199.543 87.6545 199.545 87.6714 199.553 87.686C199.561 87.7007 199.573 87.7124 199.588 87.7194C199.603 87.7264 199.62 87.7282 199.636 87.7247C199.652 87.7212 199.667 87.7124 199.678 87.6998C199.926 87.4109 200.239 87.2135 200.587 87.2013C201.394 87.1731 201.714 88.065 201.591 88.9398ZM200.277 88.9857C200.343 88.4961 200.234 88.1102 199.92 88.1212C199.606 88.1321 199.382 88.5297 199.316 89.0193C199.25 89.5088 199.36 89.9013 199.674 89.8903C199.988 89.8793 200.211 89.4752 200.277 88.9857Z" fill="#39D795"/>
<path d="M205.395 88.7924C205.272 89.6867 204.707 90.577 203.867 90.6063C203.499 90.6191 203.245 90.4524 203.085 90.1893C203.078 90.1786 203.069 90.1702 203.057 90.1653C203.046 90.1604 203.033 90.1592 203.021 90.1619C203.008 90.1646 202.997 90.171 202.989 90.1803C202.98 90.1896 202.975 90.2014 202.973 90.2139C202.95 90.3842 202.939 90.4763 202.939 90.4763C202.937 90.4867 202.932 90.4962 202.925 90.5034C202.916 90.5119 202.903 90.5167 202.891 90.5169L201.672 90.5595C201.668 90.5589 201.665 90.5575 201.662 90.5555C201.659 90.5535 201.657 90.551 201.655 90.548C201.653 90.5451 201.652 90.5417 201.651 90.5382C201.65 90.5348 201.65 90.5312 201.651 90.5277L202.291 86.0084C202.296 85.9703 202.314 85.9354 202.343 85.9097C202.371 85.8841 202.407 85.8693 202.445 85.868L203.49 85.8315C203.498 85.8312 203.505 85.8326 203.513 85.8357C203.52 85.8387 203.526 85.8433 203.532 85.8491C203.537 85.8549 203.541 85.8618 203.544 85.8693C203.546 85.8768 203.547 85.8848 203.546 85.8926C203.52 86.1286 203.426 86.9699 203.349 87.4906C203.347 87.5071 203.35 87.524 203.357 87.5387C203.365 87.5533 203.378 87.565 203.393 87.572C203.408 87.579 203.424 87.5808 203.44 87.5773C203.457 87.5738 203.471 87.5651 203.482 87.5524C203.73 87.2634 204.043 87.066 204.391 87.0539C205.198 87.0257 205.518 87.9175 205.395 88.7924ZM204.081 88.8382C204.148 88.3487 204.038 87.9627 203.724 87.9737C203.41 87.9847 203.187 88.3822 203.12 88.8718C203.054 89.3614 203.164 89.7538 203.478 89.7429C203.792 89.7319 204.015 89.3278 204.081 88.8382Z" fill="#39D795"/>
<path d="M209.266 89.9527C209.17 90.1639 208.788 90.4307 208.429 90.4432C208.101 90.4546 207.849 90.3096 207.734 90.0457C207.723 90.0203 207.706 89.9981 207.684 89.9812C207.662 89.9643 207.637 89.9531 207.61 89.9488C207.583 89.9445 207.555 89.9471 207.529 89.9564C207.503 89.9658 207.48 89.9815 207.462 90.0022C207.21 90.2919 206.9 90.4901 206.552 90.5022C205.745 90.5304 205.425 89.6386 205.542 88.764C205.664 87.8696 206.236 86.9791 207.076 86.9498C207.354 86.9401 207.568 87.0333 207.724 87.1933C207.746 87.2153 207.772 87.2308 207.802 87.2382C207.831 87.2456 207.862 87.2444 207.891 87.235C207.92 87.2255 207.946 87.2081 207.965 87.1847C207.985 87.1612 207.998 87.1327 208.002 87.1023C208.004 87.0918 208.004 87.0863 208.004 87.0863C208.006 87.0759 208.011 87.0664 208.018 87.0592C208.028 87.0507 208.04 87.0458 208.052 87.0457L209.323 87.0013C209.326 87.002 209.33 87.0033 209.332 87.0053C209.335 87.0073 209.338 87.0098 209.34 87.0128C209.342 87.0158 209.343 87.0191 209.344 87.0226C209.344 87.026 209.344 87.0296 209.343 87.0331C209.343 87.0331 209.094 88.523 209.032 88.9734C208.889 90.0113 209.356 89.7742 209.266 89.9527ZM207.823 88.6843C207.889 88.1948 207.779 87.8023 207.465 87.8133C207.151 87.8242 206.928 88.2283 206.862 88.7179C206.795 89.2074 206.905 89.5934 207.219 89.5824C207.533 89.5715 207.756 89.1739 207.823 88.6843Z" fill="#39D795"/>
<path d="M210.731 91.6888C209.795 91.7215 209.453 91.0968 209.412 90.8513C209.35 90.5352 209.425 90.4741 209.489 90.4848C209.644 90.5054 209.757 90.9952 210.475 90.9701C210.987 90.9522 211.334 90.5893 211.404 90.1971L211.405 90.191C211.431 90.021 211.235 89.9078 211.105 90.0189C210.849 90.2383 210.577 90.3299 210.357 90.3376C209.882 90.3542 209.535 89.944 209.627 89.2911C209.663 89.017 209.694 88.8016 209.76 88.312C209.903 87.2741 209.385 87.513 209.469 87.3347C209.571 87.1233 209.946 86.8568 210.305 86.8443C210.824 86.8261 211.196 87.1899 211.115 87.8035C211.084 88.0254 211.007 88.5803 210.94 89.0309C210.853 89.6836 211.486 89.4341 211.607 88.6698C211.684 88.1049 211.764 87.5867 211.816 87.2632C211.832 87.1663 211.88 87.0778 211.953 87.013C212.026 86.9481 212.119 86.9108 212.216 86.9075L212.965 86.8813C212.983 86.8807 213.001 86.8839 213.018 86.8909C213.034 86.8979 213.049 86.9084 213.061 86.9217C213.073 86.935 213.082 86.9508 213.088 86.968C213.093 86.9852 213.095 87.0034 213.093 87.0213C213.038 87.4882 212.863 88.9633 212.765 89.6883C212.644 90.8164 211.916 91.6474 210.731 91.6888Z" fill="#39D795"/>
<path d="M213.745 90.2378C213.399 90.2498 213.158 89.9724 213.21 89.6133C213.255 89.2609 213.572 88.964 213.918 88.9519C214.264 88.9398 214.511 89.217 214.459 89.5696C214.407 89.9288 214.091 90.2257 213.745 90.2378ZM213.934 88.685C213.479 88.7008 213.588 87.2353 213.653 86.6873C213.771 85.6568 213.33 85.8866 213.413 85.7082C213.509 85.5035 213.891 85.2303 214.249 85.2178C214.768 85.1997 215.089 85.5652 215.002 86.1855C214.889 87.0145 214.453 88.6668 213.934 88.685Z" fill="#39D795"/>
<path d="M222.871 79.9434L217.025 79.9639L217.087 97.5185L222.933 97.498L222.871 79.9434Z" fill="#119D62"/>
<path d="M184.266 167.721C184.218 167.598 184.179 167.474 184.137 167.351C184.344 167.333 184.469 167.028 184.239 166.916C184.147 166.871 184.053 166.825 183.961 166.778C183.119 163.711 183.815 160.496 185.851 157.988C187.587 155.851 190.216 153.917 190.437 150.95C190.643 148.167 188.689 145.683 188.19 143.01C187.885 141.378 187.889 139.563 188.793 138.112C189.473 137.02 191.028 136.326 191.348 135.017C191.946 132.571 188.534 133.125 187.345 133.687C185.053 134.77 183.299 136.93 182.786 139.421C182.271 141.921 182.994 144.228 184.406 146.277C185.05 147.211 185.38 148.031 184.817 149.121C184.42 149.888 183.825 150.578 183.237 151.207C182.082 152.447 180.707 153.448 179.19 154.198C177.845 154.861 176.388 155.401 175.815 156.915C175.412 157.98 175.535 159.17 175.962 160.205C177.232 163.288 180.638 165.624 183.567 167.106C183.643 167.359 183.722 167.609 183.816 167.855C183.923 168.136 184.374 168.004 184.266 167.721Z" fill="#15BE77"/>
<path d="M185.312 148.273C185.142 145.697 184.07 143.055 181.758 141.707C180.149 140.768 178.64 140.236 177.788 138.435C177.068 136.911 176.911 135.165 176.785 133.509C176.593 131.025 176.366 128.347 174.712 126.339C173.139 124.429 170.534 124.221 168.597 125.738C165.94 127.819 165.966 131.456 166.551 134.477C167.175 137.694 168.416 140.796 170.155 143.572C171.13 145.129 172.263 146.59 173.536 147.914C174.91 149.343 176.62 150.511 177.779 152.135C180.192 155.519 179.135 159.943 178.048 163.648C177.953 163.439 177.578 163.559 177.616 163.831C177.686 164.351 177.756 164.87 177.827 165.391C177.845 165.525 178.001 165.578 178.114 165.559C181.416 165.023 182.375 161.562 183.105 158.79C184.008 155.357 185.552 151.894 185.312 148.273Z" fill="#5FF2B4"/>
<path d="M176.921 155.289C175.555 153.492 173.805 152.262 171.945 151.022C169.755 149.563 168.315 147.764 166.809 145.645C165.938 144.42 164.62 142.369 162.814 142.906C161.205 143.384 160.603 145.457 160.619 146.941C160.671 151.275 164.545 154.075 168.045 155.795C169.262 156.392 170.506 156.933 171.715 157.548C173.087 158.246 174.651 158.988 175.399 160.409C175.937 161.433 176.223 162.548 176.854 163.53C177.53 164.58 178.415 165.447 179.432 166.162C179.422 166.245 179.416 166.327 179.405 166.41C179.364 166.709 179.83 166.779 179.871 166.477C180.407 162.527 179.338 158.466 176.921 155.289Z" fill="#5FF2B4"/>
<path d="M184.608 177.327H175.899L173.396 163.207H187.111L184.608 177.327Z" fill="#3F4261"/>
<path d="M136.185 67.2842C133.9 65.9928 132.151 64.2257 131.525 61.616C131.525 61.616 131.525 61.6152 131.525 61.6143C131.726 60.662 132.153 59.2374 131.304 58.6579C130.63 58.1974 130.639 57.7596 130.049 58.14C128.153 59.3597 127.525 62.4241 127.228 64.618C127.049 65.9439 127.075 69.6603 127.647 70.093C128.651 70.8547 134.923 68.9509 136.18 68.013C136.422 67.8333 136.488 67.4554 136.185 67.2842Z" fill="#2A2B3C"/>
<path d="M170.576 76.6586C170.594 76.6333 170.618 76.6131 170.635 76.5861C170.893 76.1947 170.17 75.6861 169.911 76.0783C169.894 76.1053 169.867 76.1238 169.847 76.1483C169.781 75.9121 169.455 75.6675 169.08 75.9577C168.972 76.042 167.452 77.2499 165.779 77.4338C166.045 77.1639 166.497 76.7193 166.892 76.5245C167.312 76.3178 167.02 75.6422 166.6 75.8556C166.533 75.8885 165.995 76.1778 165.934 76.2394C164.095 77.3747 162.558 79.1747 161.447 81.0211C161.242 81.307 161.047 81.6022 160.872 81.9169C160.81 82.0299 160.854 82.1851 160.925 82.2813C161.287 82.7688 162.322 83.6334 162.821 83.98C162.872 84.0146 162.926 84.0307 162.98 84.0391C162.929 84.4178 163.513 84.6236 163.674 84.2213C164.105 83.145 165.176 81.3155 165.189 81.3011C167.155 80.6365 169.047 79.9592 170.672 78.6653C171 78.4038 170.662 77.8277 170.328 77.9331C170.323 77.9314 170.319 77.9281 170.315 77.9272C170.32 77.923 170.325 77.9179 170.33 77.9137C170.432 77.8462 170.847 77.4523 170.954 77.3148C171.16 77.05 170.834 76.6746 170.576 76.6586Z" fill="#F6C3B9"/>
<path d="M166.257 78.3078C166.209 78.3078 166.167 78.2757 166.155 78.2268C166.141 78.1711 166.176 78.1129 166.233 78.1003C168.046 77.6566 169.759 76.0869 169.776 76.0717C169.818 76.0312 169.884 76.0338 169.925 76.0776C169.965 76.1207 169.962 76.1873 169.919 76.2269C169.847 76.2927 168.149 77.8489 166.282 78.3053C166.273 78.307 166.266 78.3078 166.257 78.3078Z" fill="#2A2B3C"/>
<path d="M166.708 79.1572C166.659 79.1572 166.615 79.1226 166.605 79.0712C166.594 79.0147 166.631 78.959 166.689 78.9481C168.209 78.652 170.482 76.6015 170.505 76.5804C170.547 76.5407 170.615 76.5441 170.654 76.588C170.693 76.631 170.69 76.6976 170.647 76.7373C170.552 76.8233 168.308 78.8477 166.728 79.1555C166.722 79.1564 166.715 79.1572 166.708 79.1572Z" fill="#2A2B3C"/>
<path d="M167.151 79.8218C167.105 79.8218 167.063 79.7914 167.05 79.7442C167.034 79.6885 167.068 79.6295 167.124 79.6151C168.263 79.3014 170.245 77.8624 170.266 77.848C170.311 77.8126 170.378 77.8236 170.413 77.8708C170.448 77.918 170.438 77.9838 170.39 78.0176C170.308 78.0775 168.357 79.4945 167.18 79.8176C167.171 79.8209 167.161 79.8218 167.151 79.8218Z" fill="#2A2B3C"/>
<path d="M131.48 68.744C133.82 66.9753 143.967 80.1285 152.823 86.7904C159.154 91.5518 148.187 99.2208 146.175 98.0357C144.165 96.8498 126.669 72.3769 131.48 68.744Z" fill="#C3FFE6"/>
<path d="M161.799 77.6356C155.342 80.4292 149.788 86.148 146.24 88.7552C142.691 91.3624 145.293 98.0217 146.762 98.1111C148.231 98.1989 160.88 94.5432 166.203 89.4966C166.202 89.4958 163.094 77.0755 161.799 77.6356Z" fill="#C3FFE6"/>
<path d="M134.731 71.6133C134.731 71.6133 145.556 92.0652 149.028 93.6552C152.501 95.246 166.202 89.496 166.202 89.496C166.202 89.496 163.1 92.4819 155.697 95.7352C149.029 98.6672 146.744 98.6688 146.175 98.0362C132.973 83.3562 136.239 84.9935 134.731 71.6133Z" fill="#AAF9D8"/>
<path d="M111.671 105C111.671 105 115.519 72.2542 122.874 69.1114C128.883 66.543 134.484 68.2578 135.606 74.616C136.636 80.4512 138.562 88.0594 139.767 91.0774C140.935 94.0043 144.609 99.7678 144.609 99.7678C144.609 99.7678 126.634 107.87 111.671 105Z" fill="#5FF2B4"/>
<path d="M131.759 64.5459C131.759 64.5459 130.948 67.6634 130.886 68.4243C130.867 68.6562 130.444 69.4027 130.062 69.7005C128.587 68.787 127.44 69.1024 126.968 68.6883C127.246 67.7242 127.918 66.4691 128.146 64.7905C128.372 63.1103 131.759 64.5459 131.759 64.5459Z" fill="#ECAB9E"/>
<path d="M126.753 62.0847C126.753 62.0847 128.442 66.3949 131.282 65.9015C134.122 65.4072 131.085 59.5998 130.626 59.5171C130.166 59.4345 127.291 59.4015 126.753 62.0847Z" fill="#F6C3B9"/>
<path d="M131.899 63.9095C131.889 64.151 131.866 64.3771 131.724 64.5478C131.646 64.6284 131.55 64.6856 131.444 64.7144C131.339 64.7432 131.227 64.7427 131.119 64.713C130.903 64.6608 130.659 64.4571 130.48 64.31C130.971 64.245 131.45 64.1099 131.904 63.9082" fill="white"/>
<path d="M131.064 62.8744L131.514 63.6395L131.14 63.7692" fill="#EBB0A4"/>
<path d="M130.139 62.4073C130.121 62.4008 130.102 62.3969 130.084 62.3915L130.05 62.384L130.061 62.3811C130.033 62.3758 130.005 62.3716 129.977 62.3689C129.942 62.3651 129.907 62.364 129.872 62.3654C129.851 62.3707 129.828 62.3667 129.806 62.3696L129.818 62.3667C129.754 62.3726 129.691 62.3862 129.631 62.4073L129.575 62.4276L129.588 62.4245C129.527 62.4493 129.47 62.4812 129.416 62.5195L129.367 62.5565L129.378 62.5539C129.319 62.6021 129.265 62.6571 129.217 62.7181C129.212 62.7222 129.206 62.725 129.2 62.7266C129.194 62.7281 129.187 62.7283 129.181 62.7271C129.169 62.726 129.157 62.7202 129.148 62.7106C129.14 62.6991 129.136 62.6849 129.138 62.671C129.138 62.6575 129.143 62.6449 129.151 62.6354C129.227 62.5395 129.317 62.4584 129.418 62.3951C129.501 62.3435 129.59 62.306 129.684 62.2838C129.761 62.2656 129.84 62.2574 129.919 62.2595C129.978 62.2611 130.036 62.2683 130.094 62.2812C130.118 62.2864 130.142 62.2928 130.165 62.3006C130.177 62.3046 130.187 62.3136 130.194 62.3256C130.202 62.3371 130.205 62.3513 130.204 62.3652C130.2 62.3779 130.193 62.3886 130.182 62.3954C130.171 62.4018 130.158 62.4029 130.145 62.3985L130.139 62.4073Z" fill="#3E3244"/>
<path d="M131.38 62.0968C131.389 62.0795 131.4 62.0631 131.412 62.0478L131.435 62.0212L131.427 62.0305C131.445 62.0087 131.464 61.9877 131.485 61.9665C131.51 61.9417 131.536 61.9185 131.564 61.897C131.582 61.8826 131.6 61.8694 131.619 61.8572L131.608 61.8601C131.661 61.8243 131.718 61.7943 131.777 61.7705L131.835 61.756L131.822 61.7592C131.885 61.7396 131.949 61.7276 132.014 61.7234C132.035 61.7213 132.055 61.7203 132.075 61.7205L132.063 61.7237C132.138 61.7232 132.057 61.8006 132.176 61.7311C132.145 61.6963 132.108 61.6692 132.067 61.6516C132.026 61.634 131.982 61.6265 131.939 61.6295C131.844 61.6423 131.751 61.6705 131.665 61.7133C131.593 61.7489 131.527 61.7939 131.466 61.8474C131.421 61.886 131.38 61.9291 131.343 61.9761C131.327 61.9953 131.312 62.016 131.299 62.0378C131.293 62.0492 131.29 62.063 131.292 62.0767C131.293 62.0836 131.296 62.0902 131.299 62.0961C131.303 62.102 131.308 62.1071 131.313 62.1111C131.318 62.1152 131.324 62.1182 131.33 62.1199C131.336 62.1216 131.342 62.122 131.348 62.1209C131.354 62.1201 131.36 62.1179 131.366 62.1144C131.371 62.1109 131.376 62.1062 131.38 62.1006L131.38 62.0968Z" fill="#3E3244"/>
<path d="M130.252 62.9807L130.251 62.9749L130.252 62.9807L130.227 62.9598L130.185 62.9319L130.155 62.9161L130.161 62.9145C130.137 62.9021 130.112 62.8927 130.086 62.8863L130.062 62.8799L130.068 62.8784C130.046 62.8741 130.023 62.8723 130.001 62.8729C129.994 62.8734 129.988 62.875 129.982 62.8777L129.988 62.8761C129.967 62.8789 129.946 62.8841 129.926 62.8917L129.907 62.8964L129.915 62.8946C129.892 62.9037 129.871 62.9157 129.851 62.9303L129.832 62.9438L129.838 62.9422C129.812 62.9642 129.787 62.989 129.765 63.0162L129.745 63.0435L129.729 63.0674C129.728 63.0708 129.725 63.0738 129.723 63.0762C129.72 63.0786 129.717 63.0803 129.714 63.0812C129.71 63.0821 129.706 63.0821 129.703 63.0813C129.699 63.0805 129.695 63.0789 129.692 63.0767C129.689 63.0747 129.687 63.0722 129.684 63.0691C129.682 63.066 129.681 63.0624 129.68 63.0587C129.679 63.0549 129.678 63.0509 129.679 63.0469C129.679 63.043 129.68 63.0392 129.682 63.0359C129.705 62.9997 129.732 62.9661 129.761 62.9356C129.785 62.9104 129.812 62.8886 129.842 62.8708C129.868 62.8555 129.896 62.8436 129.924 62.8352C129.95 62.8285 129.976 62.8248 130.003 62.8241C130.028 62.8243 130.053 62.8271 130.078 62.8326C130.099 62.8374 130.119 62.8438 130.14 62.8517C130.16 62.8601 130.179 62.8697 130.198 62.8804C130.212 62.888 130.226 62.897 130.239 62.906C130.253 62.915 130.258 62.9198 130.267 62.9275L130.286 62.9439C130.29 62.9504 130.292 62.9583 130.291 62.966C130.291 62.97 130.291 62.9739 130.289 62.9775C130.288 62.981 130.286 62.9842 130.283 62.9867C130.28 62.989 130.277 62.9906 130.274 62.9915C130.27 62.9923 130.267 62.9924 130.263 62.9917C130.256 62.9908 130.249 62.9873 130.244 62.9817L130.252 62.9807Z" fill="#3E3244"/>
<path d="M132.142 62.4258L132.135 62.4201C132.128 62.4129 132.119 62.4063 132.11 62.4004C132.097 62.3903 132.083 62.3812 132.069 62.3725C132.059 62.3664 132.049 62.361 132.039 62.3564L132.044 62.3551C132.02 62.3425 131.995 62.3327 131.969 62.3257L131.945 62.3205L131.951 62.3189C131.929 62.3145 131.907 62.3127 131.884 62.3135L131.865 62.3183L131.873 62.3164C131.851 62.3193 131.831 62.3245 131.811 62.332L131.792 62.3367L131.798 62.3352C131.776 62.3448 131.754 62.3568 131.734 62.3709L131.717 62.3853L131.723 62.3837C131.696 62.4055 131.672 62.4307 131.65 62.4589C131.644 62.468 131.637 62.4759 131.63 62.4862L131.636 62.4849C131.63 62.4923 131.624 62.5003 131.619 62.5088C131.615 62.5151 131.609 62.5197 131.602 62.5217C131.595 62.523 131.588 62.5218 131.581 62.5183C131.575 62.5135 131.571 62.5068 131.569 62.4991C131.567 62.4914 131.568 62.4832 131.571 62.4763C131.594 62.4405 131.621 62.4073 131.65 62.3772C131.675 62.3515 131.702 62.3293 131.732 62.3109C131.757 62.2958 131.785 62.284 131.813 62.2756C131.839 62.2692 131.866 62.2658 131.893 62.2654C131.918 62.2658 131.943 62.2686 131.968 62.2739C131.989 62.2788 132.01 62.2852 132.03 62.2931C132.049 62.3008 132.069 62.3101 132.087 62.3208L132.129 62.3473C132.139 62.3537 132.148 62.3614 132.157 62.3689C132.163 62.3734 132.169 62.3786 132.174 62.3843C132.179 62.3908 132.181 62.3987 132.18 62.4065C132.18 62.4103 132.18 62.4141 132.178 62.4176C132.177 62.4211 132.175 62.4242 132.173 62.4269C132.167 62.4314 132.16 62.4332 132.153 62.4319C132.146 62.4313 132.139 62.4282 132.134 62.423L132.142 62.4258Z" fill="#3E3244"/>
<path opacity="0.45" d="M129.952 64.2444C129.77 64.29 129.582 64.1637 129.532 63.9623C129.481 63.7609 129.587 63.5607 129.769 63.5151C129.951 63.4696 130.139 63.5959 130.189 63.7973C130.24 63.9986 130.134 64.1988 129.952 64.2444Z" fill="#F0ADA0"/>
<path opacity="0.45" d="M132.272 63.4542C132.119 63.4927 131.96 63.3861 131.917 63.2163C131.875 63.0464 131.964 62.8776 132.118 62.8391C132.271 62.8007 132.43 62.9072 132.472 63.0771C132.515 63.2469 132.425 63.4158 132.272 63.4542Z" fill="#F0ADA0"/>
<path d="M128.869 58.0698C128.841 58.0808 128.823 58.1002 128.799 58.1145C126.622 57.7476 125.198 60.2477 125.783 62.3784C126.005 63.1847 127.021 64.5469 127.933 63.652C128.387 63.2075 128.406 62.2476 128.472 61.6665C128.506 61.3687 128.513 61.0794 128.506 60.7901C128.674 60.8213 128.846 60.8331 129.023 60.8356C130.236 61.0052 131.453 61.1199 132.678 61.1502C132.912 61.1561 133.093 60.952 133.1 60.7285C133.165 58.7134 130.614 57.3816 128.869 58.0698Z" fill="#2A2B3C"/>
<path d="M130.062 69.7001L129.328 67.7246L127.254 67.8646L125.22 68.2619L130.062 69.7001Z" fill="#FFD357"/>
<path d="M130.062 69.6994L130.673 67.6328L131.553 68.85L130.062 69.6994Z" fill="#FFD357"/>
<path d="M123.66 71.1104C123.66 71.1104 130.096 80.6442 131.585 90.1149C133.074 99.5855 139.767 101.633 139.767 101.633C139.767 101.633 126.423 107.596 111.671 104.998C111.671 104.999 115.548 77.7486 123.66 71.1104Z" fill="#47E7A4"/>
<path d="M135.922 108.881C135.496 107.691 134.877 106.677 134.009 105.766C134.016 105.742 134.014 105.716 134.02 105.692C134.79 106.147 135.507 106.72 136.144 107.584C136.467 108.022 137.098 107.461 136.778 107.026C135.626 105.465 134.227 104.537 132.413 103.898C129.865 103.001 127.224 101.478 125.316 99.5521C125.263 99.4998 125.207 99.4678 125.149 99.4475C125.008 99.3539 124.817 99.3277 124.644 99.4543C123.584 100.229 122.525 101.003 121.464 101.778C121.242 101.94 121.296 102.311 121.512 102.447C123.551 103.737 125.701 104.925 127.898 105.925C128.507 106.201 129.076 106.387 129.732 106.537C130.497 106.712 131.423 106.755 132.101 107.202C132.917 107.739 133.291 108.644 133.662 109.484C133.841 109.89 134.369 109.711 134.44 109.362C134.442 109.367 134.446 109.371 134.447 109.375C134.607 109.759 135.082 109.628 135.205 109.322C135.432 109.716 136.092 109.358 135.922 108.881Z" fill="#F6C3B9"/>
<path d="M134.973 107.076C134.932 107.076 134.893 107.052 134.877 107.013C134.764 106.754 134.156 106.077 133.933 105.838C133.892 105.795 133.895 105.728 133.937 105.688C133.979 105.646 134.046 105.651 134.086 105.693C134.121 105.729 134.92 106.583 135.07 106.928C135.093 106.982 135.069 107.044 135.016 107.067C135.001 107.073 134.987 107.076 134.973 107.076Z" fill="#2A2B3C"/>
<path d="M135.206 109.426C135.161 109.426 135.12 109.399 135.106 109.355C135.099 109.337 134.493 107.549 133.197 106.225C133.157 106.183 133.158 106.117 133.199 106.076C133.241 106.035 133.307 106.037 133.349 106.077C134.678 107.437 135.3 109.269 135.305 109.288C135.324 109.343 135.294 109.403 135.239 109.421C135.228 109.425 135.217 109.426 135.206 109.426Z" fill="#2A2B3C"/>
<path d="M134.44 109.466C134.397 109.466 134.358 109.441 134.342 109.399C134.334 109.382 133.605 107.561 132.665 106.829C132.619 106.794 132.612 106.727 132.647 106.681C132.684 106.634 132.748 106.628 132.796 106.663C133.78 107.431 134.508 109.245 134.538 109.322C134.559 109.375 134.533 109.437 134.479 109.458C134.466 109.463 134.453 109.466 134.44 109.466Z" fill="#2A2B3C"/>
<path d="M123.032 71.5023C125.752 72.6005 123.554 89.6144 119.244 96.2619C114.936 102.909 105.485 101.503 105.468 99.1685C105.45 96.8338 117.442 69.2451 123.032 71.5023Z" fill="#C3FFE6"/>
<path d="M130.998 102.077C125.282 97.9763 117.521 96.1535 113.46 94.4505C109.4 92.7476 105.025 98.4048 105.706 99.7097C106.385 101.015 116.026 109.983 123.09 111.953C123.09 111.953 132.146 102.901 130.998 102.077Z" fill="#C3FFE6"/>
<path d="M114.109 80.1289C114.109 80.1289 109.457 93.6584 109.879 97.4541C110.3 101.25 123.09 111.953 123.09 111.953C123.09 111.953 118.934 110.828 112.337 106.152C106.393 101.941 105.302 100.004 105.466 99.1689C105.633 98.3347 107.584 90.8133 114.109 80.1289Z" fill="#AAF9D8"/>
<path d="M131.269 68.5976C129.376 66.7791 128.122 64.6324 128.163 61.9501C128.163 61.9493 128.163 61.9484 128.163 61.9476C128.595 61.0754 129.362 59.8009 128.684 59.0291C128.145 58.4151 128.263 57.9933 127.597 58.2152C125.458 58.9262 124.088 61.7384 123.256 63.7881C122.751 65.0288 121.854 68.6339 122.3 69.1965C123.084 70.1833 129.631 69.8966 131.083 69.3019C131.362 69.188 131.521 68.8388 131.269 68.5976Z" fill="#2A2B3C"/>
<path d="M128.376 62.5989C128.376 62.5989 127.777 61.8642 127.022 62.1417C126.265 62.4201 126.468 64.3154 127.822 64.2057C129.175 64.0961 128.376 62.5989 128.376 62.5989Z" fill="#F6C3B9"/>
<path d="M128.113 63.819C127.957 63.706 127.76 63.9304 127.917 64.0443C128.159 64.2197 128.525 64.7798 128.131 64.9932C127.778 65.1846 127.131 64.7891 127.421 64.3774C127.531 64.2214 127.307 64.0232 127.196 64.1809C126.766 64.7899 127.437 65.4529 128.083 65.3221C128.882 65.1585 128.6 64.1716 128.113 63.819Z" fill="#FFD357"/>
<path d="M236.549 54.5382C236.809 54.2877 237.925 54.4893 238.71 54.6714C238.513 55.0805 238.802 55.369 238.651 55.8026C238.642 55.8262 238.658 56.1754 238.651 56.1998C238.65 56.1973 239.038 56.6654 238.97 57.0205C238.951 57.0872 238.231 57.0366 237.731 56.9851C237.494 56.943 236.854 56.7995 236.55 56.4453C235.964 55.7705 236.145 54.9355 236.549 54.5382Z" fill="#FFD357"/>
<path d="M236.65 54.8335C237.428 54.2954 238.03 55.8507 238.13 55.9764L239.243 56.7339C239.243 56.7339 238.349 56.8334 237.775 56.7642C236.059 56.5584 236.299 55.0756 236.65 54.8335Z" fill="#15BE77"/>
<path d="M243.43 57.8821C243.43 57.8821 242.645 62.4446 239.763 62.534C236.881 62.6234 238.754 55.7642 239.187 55.5912C239.62 55.4166 242.362 55.3618 243.43 57.8821Z" fill="#F6C3B9"/>
<path d="M238.801 60.5355C238.811 60.7769 238.833 61.003 238.976 61.1738C239.054 61.2543 239.15 61.3116 239.255 61.3404C239.361 61.3692 239.472 61.3687 239.58 61.339C239.796 61.2868 240.041 61.0831 240.219 60.936C239.728 60.871 239.249 60.7359 238.796 60.5342" fill="white"/>
<path d="M239.635 59.5004L239.185 60.2654L239.559 60.3952" fill="#EBB0A4"/>
<path d="M240.56 59.0333C240.578 59.0268 240.597 59.0228 240.615 59.0175L240.65 59.01L240.638 59.0071C240.666 59.0018 240.694 58.9976 240.723 58.9949C240.758 58.9911 240.793 58.9899 240.827 58.9914C240.848 58.9967 240.872 58.9927 240.893 58.9956L240.882 58.9927C240.945 58.9986 241.008 59.0122 241.068 59.0333L241.125 59.0536L241.112 59.0504C241.172 59.0753 241.23 59.1071 241.284 59.1455L241.332 59.1825L241.322 59.1799C241.381 59.2281 241.435 59.2831 241.483 59.3441C241.488 59.3481 241.494 59.351 241.5 59.3525C241.506 59.3541 241.512 59.3543 241.519 59.353C241.531 59.352 241.543 59.3462 241.552 59.3366C241.56 59.3251 241.563 59.3109 241.562 59.297C241.561 59.2835 241.557 59.2709 241.548 59.2614C241.472 59.1655 241.382 59.0843 241.281 59.0211C241.199 58.9695 241.109 58.932 241.015 58.9098C240.939 58.8916 240.86 58.8834 240.78 58.8855C240.722 58.8871 240.663 58.8943 240.605 58.9072C240.581 58.9123 240.558 58.9188 240.534 58.9266C240.522 58.9306 240.512 58.9396 240.506 58.9516C240.498 58.9631 240.494 58.9773 240.496 58.9912C240.499 59.0039 240.507 59.0146 240.517 59.0213C240.529 59.0278 240.542 59.0289 240.554 59.0245L240.56 59.0333Z" fill="#3E3244"/>
<path d="M239.32 58.7228C239.31 58.7055 239.299 58.6891 239.287 58.6738L239.265 58.6471L239.273 58.6565C239.255 58.6347 239.235 58.6137 239.215 58.5925C239.19 58.5677 239.163 58.5444 239.135 58.523C239.118 58.5086 239.099 58.4953 239.08 58.4832L239.092 58.4861C239.038 58.4503 238.982 58.4203 238.922 58.3965L238.865 58.382L238.877 58.3852C238.815 58.3656 238.75 58.3536 238.685 58.3494C238.665 58.3472 238.645 58.3463 238.624 58.3465L238.637 58.3497C238.561 58.3492 238.642 58.4265 238.523 58.3571C238.554 58.3223 238.592 58.2951 238.632 58.2776C238.673 58.26 238.717 58.2524 238.76 58.2555C238.856 58.2683 238.948 58.2965 239.035 58.3393C239.106 58.3749 239.173 58.4199 239.234 58.4734C239.278 58.512 239.319 58.5551 239.357 58.602C239.373 58.6213 239.387 58.6419 239.4 58.6638C239.407 58.6752 239.409 58.689 239.407 58.7027C239.406 58.7096 239.404 58.7161 239.4 58.7221C239.396 58.728 239.392 58.7331 239.386 58.7371C239.381 58.7412 239.376 58.7442 239.37 58.7459C239.364 58.7476 239.358 58.7479 239.352 58.7469C239.345 58.7461 239.339 58.7439 239.334 58.7404C239.328 58.7369 239.323 58.7322 239.32 58.7265L239.32 58.7228Z" fill="#3E3244"/>
<path d="M240.447 59.6067L240.448 59.6009L240.447 59.6067L240.472 59.5858L240.514 59.5579L240.545 59.5421L240.538 59.5405C240.563 59.5281 240.588 59.5187 240.614 59.5123L240.638 59.5059L240.631 59.5043C240.654 59.5001 240.676 59.4983 240.699 59.4989C240.705 59.4994 240.712 59.501 240.717 59.5037L240.711 59.5021C240.732 59.5049 240.753 59.5101 240.773 59.5176L240.792 59.5224L240.785 59.5205C240.807 59.5297 240.829 59.5417 240.848 59.5563L240.867 59.5697L240.861 59.5682C240.888 59.5902 240.912 59.615 240.934 59.6422L240.954 59.6695L240.97 59.6934C240.972 59.6968 240.974 59.6998 240.977 59.7022C240.979 59.7046 240.982 59.7063 240.986 59.7072C240.989 59.708 240.993 59.7081 240.997 59.7073C241 59.7065 241.004 59.7049 241.007 59.7026C241.01 59.7007 241.013 59.6981 241.015 59.695C241.017 59.6919 241.019 59.6884 241.019 59.6847C241.021 59.6808 241.021 59.6768 241.021 59.6729C241.02 59.6689 241.019 59.6652 241.017 59.6619C240.994 59.6256 240.968 59.5921 240.939 59.5616C240.914 59.5363 240.887 59.5146 240.858 59.4967C240.832 59.4815 240.804 59.4696 240.775 59.4611C240.749 59.4545 240.723 59.4508 240.696 59.4501C240.671 59.4502 240.646 59.4531 240.622 59.4585C240.601 59.4634 240.58 59.4698 240.56 59.4777C240.54 59.4861 240.52 59.4956 240.501 59.5064C240.487 59.514 240.474 59.523 240.46 59.532C240.447 59.541 240.441 59.5458 240.432 59.5535L240.414 59.5699C240.41 59.5764 240.408 59.5843 240.408 59.592C240.408 59.596 240.409 59.5999 240.41 59.6034C240.412 59.607 240.414 59.6101 240.416 59.6127C240.419 59.615 240.422 59.6166 240.426 59.6174C240.429 59.6183 240.433 59.6184 240.436 59.6177C240.444 59.6168 240.45 59.6132 240.456 59.6076L240.447 59.6067Z" fill="#3E3244"/>
<path d="M238.557 59.0518L238.564 59.0461C238.572 59.0388 238.58 59.0322 238.589 59.0264C238.603 59.0162 238.616 59.0072 238.631 58.9985C238.64 58.9924 238.65 58.987 238.66 58.9824L238.655 58.9811C238.679 58.9685 238.705 58.9587 238.731 58.9517L238.754 58.9465L238.748 58.9449C238.77 58.9405 238.793 58.9387 238.815 58.9395L238.834 58.9443L238.827 58.9424C238.848 58.9453 238.869 58.9505 238.889 58.958L238.908 58.9627L238.901 58.9611C238.924 58.9708 238.945 58.9828 238.965 58.9969L238.983 59.0112L238.976 59.0097C239.003 59.0314 239.028 59.0567 239.049 59.0849C239.056 59.094 239.063 59.1019 239.069 59.1122L239.064 59.1108C239.07 59.1183 239.075 59.1263 239.08 59.1347C239.084 59.1411 239.09 59.1457 239.097 59.1476C239.104 59.149 239.111 59.1478 239.118 59.1442C239.124 59.1395 239.128 59.1328 239.131 59.1251C239.133 59.1174 239.132 59.1092 239.129 59.1023C239.105 59.0664 239.079 59.0333 239.049 59.0032C239.025 58.9775 238.998 58.9552 238.968 58.9369C238.942 58.9218 238.915 58.9099 238.886 58.9016C238.86 58.8952 238.833 58.8918 238.806 58.8914C238.781 58.8918 238.756 58.8946 238.731 58.8999C238.711 58.9048 238.69 58.9112 238.67 58.9191C238.65 58.9268 238.631 58.9361 238.612 58.9468L238.57 58.9733C238.561 58.9796 238.552 58.9874 238.542 58.9948C238.536 58.9994 238.53 59.0046 238.525 59.0103C238.521 59.0168 238.519 59.0247 238.519 59.0325C238.519 59.0363 238.52 59.04 238.521 59.0435C238.522 59.047 238.524 59.0502 238.527 59.0528C238.532 59.0574 238.539 59.0592 238.547 59.0578C238.554 59.0573 238.56 59.0542 238.566 59.049L238.557 59.0518Z" fill="#3E3244"/>
<path opacity="0.45" d="M240.748 60.8704C240.929 60.916 241.117 60.7897 241.168 60.5883C241.218 60.3869 241.112 60.1867 240.93 60.1411C240.749 60.0955 240.561 60.2218 240.51 60.4232C240.46 60.6246 240.566 60.8248 240.748 60.8704Z" fill="#F0ADA0"/>
<path opacity="0.45" d="M238.428 60.0802C238.581 60.1187 238.74 60.0121 238.782 59.8423C238.825 59.6724 238.735 59.5035 238.582 59.4651C238.429 59.4267 238.27 59.5332 238.227 59.7031C238.185 59.8729 238.274 60.0418 238.428 60.0802Z" fill="#F0ADA0"/>
<path d="M242.609 54.9293C242.642 54.8273 243.64 55.7959 243.64 55.7959C244.95 57.2035 244.969 59.5167 243.477 60.9362C243.448 60.9641 243.418 60.9768 243.387 60.9928C243.324 61.0883 243.261 61.18 243.199 61.2644C243.161 61.3178 243.116 61.3488 243.07 61.3695C242.943 61.6316 242.499 61.6754 242.383 61.301C242.09 60.3587 242.345 59.2244 242.021 58.3513C241.895 58.0112 241.646 57.7428 241.419 57.4424C240.695 57.5348 239.637 56.481 239.549 56.477C239.79 55.279 242.266 54.5437 242.609 54.9293Z" fill="#17171D"/>
<path d="M241.945 58.7135C241.945 58.7135 242.382 57.8734 243.179 57.9931C243.976 58.1138 244.159 60.0116 242.81 60.1761C241.462 60.3414 241.945 58.7135 241.945 58.7135Z" fill="#F6C3B9"/>
<path d="M227.002 91.865C223.752 92.124 220.44 92.5584 217.196 93.2062C216.3 93.385 215.508 93.6228 214.64 93.9569C214.124 94.1542 213.582 94.414 213.03 94.6316C213.034 94.8425 212.993 95.05 212.933 95.2541C210.896 95.1656 208.664 95.0003 206.83 94.3508C206.131 94.1028 205.509 94.6055 205.556 95.0407C205.473 95.023 205.388 95.0078 205.305 94.9884C204.258 94.7599 203.811 96.0259 204.857 96.2545C204.871 96.2579 204.886 96.2604 204.9 96.2638C204.353 96.4881 204.265 97.2861 205.047 97.5071C205.338 97.5897 205.632 97.6522 205.926 97.7205C205.633 97.9609 205.59 98.4737 206.052 98.5977C208.443 99.2387 210.702 99.103 213.255 98.3927C216.838 97.3949 220.951 96.92 224.471 97.357C224.567 97.3696 224.654 97.3586 224.735 97.3358C224.964 97.3215 225.205 97.2093 225.323 96.9647C226.049 95.465 226.777 93.9644 227.504 92.4639C227.655 92.1484 227.345 91.8372 227.002 91.865Z" fill="#F6C3B9"/>
<path d="M213.862 94.748C212.419 93.9155 210.902 93.3394 209.271 93.002C208.216 92.7827 208.178 94.1668 209.231 94.3853C210.556 94.6594 211.812 95.1411 212.983 95.8167C213.913 96.354 214.796 95.287 213.862 94.748Z" fill="#F6C3B9"/>
<path d="M210.87 96.0684H210.865C207.985 95.9427 205.546 95.1473 205.523 95.1397C205.468 95.1212 205.437 95.0613 205.455 95.0065C205.474 94.9516 205.534 94.923 205.588 94.939C205.612 94.9474 208.024 95.7327 210.875 95.8575C210.933 95.8601 210.978 95.9098 210.976 95.968C210.973 96.0237 210.926 96.0684 210.87 96.0684Z" fill="#2A2B3C"/>
<path d="M210.042 97.1241C207.74 97.1241 204.86 96.365 204.828 96.3566C204.773 96.3405 204.739 96.2832 204.753 96.2275C204.769 96.1718 204.831 96.1389 204.882 96.1524C204.915 96.1617 208.244 97.044 210.563 96.8989C210.563 96.8989 210.568 96.8989 210.57 96.8989C210.625 96.8989 210.672 96.9419 210.675 96.9976C210.679 97.0558 210.634 97.1064 210.577 97.1098C210.404 97.1191 210.225 97.1241 210.042 97.1241Z" fill="#2A2B3C"/>
<path d="M209.202 98.2287C207.45 98.2287 205.916 97.8273 205.898 97.823C205.842 97.8079 205.809 97.7496 205.823 97.694C205.839 97.6391 205.9 97.6063 205.952 97.6189C205.973 97.6248 208.093 98.1781 210.174 97.9732C210.236 97.9554 210.283 98.0095 210.289 98.0668C210.295 98.125 210.253 98.1765 210.195 98.1824C209.862 98.2144 209.528 98.2287 209.202 98.2287Z" fill="#2A2B3C"/>
<path d="M236.778 54.4423C237.527 54.3048 239.509 54.875 239.509 54.875C239.82 55.0859 240.038 55.4992 240.187 55.9462C240.454 56.7315 240.522 57.6248 240.522 57.6248C238.821 57.5531 238.185 56.5696 238.064 56.1048C237.846 55.2579 237.497 54.5764 236.778 54.4423Z" fill="#FFD357"/>
<path d="M239.509 54.8773C239.509 54.8773 241.354 53.3691 243.435 54.2708C245.229 55.0476 245.204 57.3546 244.964 58.2183C242.671 58.8079 240.521 57.627 240.521 57.627C240.521 57.627 240.303 55.4997 239.509 54.8773Z" fill="#FFC32E"/>
<path d="M243.374 54.8842C243.623 54.8842 243.824 54.6826 243.824 54.4338C243.824 54.1851 243.623 53.9834 243.374 53.9834C243.125 53.9834 242.923 54.1851 242.923 54.4338C242.923 54.6826 243.125 54.8842 243.374 54.8842Z" fill="#FFD357"/>
<path d="M250.457 67.4318C243.726 63.362 234.062 78.7994 231.525 86.3039C228.988 93.8075 238.992 96.4037 240.832 94.9673C242.674 93.5325 255.617 70.551 250.457 67.4318Z" fill="#C3FFE6"/>
<path d="M212.926 92.5518C214.633 88.3268 232.636 84.278 237.025 84.6154C241.416 84.9528 242.073 94.2176 240.873 95.0687C239.673 95.9215 218.564 106.895 214.553 101.008C214.553 101.008 212.397 93.8609 212.926 92.5518Z" fill="#C3FFE6"/>
<path d="M250.722 75.6553C250.722 75.6553 247.032 89.2994 240.874 95.068C234.715 100.838 220.216 103.047 218.283 102.572C218.283 102.572 236.143 96.3839 239.015 93.0454C241.885 89.706 250.722 75.6553 250.722 75.6553Z" fill="#AAF9D8"/>
<path d="M233.059 9.75293L233.114 29.3226L207.546 29.4036L207.491 9.83391L233.059 9.75293Z" fill="#47E7A4"/>
<path d="M221.456 25.5268C220.561 25.4415 219.505 25.289 218.04 25.3401C218.04 25.3401 217.982 25.3422 217.994 25.2689C218.944 18.2714 219.084 17.3341 219.083 17.3196C219.166 15.5828 218.232 16.0089 218.42 15.6235C218.662 15.1343 219.69 14.5156 220.538 14.4859C221.659 14.4468 222.573 15.0851 222.344 16.754C222.199 17.7523 221.79 20.6939 221.514 22.7022C221.51 22.7322 221.513 22.7628 221.522 22.7918C221.53 22.8208 221.545 22.8475 221.565 22.8701C221.586 22.8926 221.61 22.9104 221.638 22.9223C221.665 22.9341 221.695 22.9397 221.725 22.9386C224.743 22.8332 224.502 22.1131 224.724 22.3093C224.902 22.4488 224.999 22.7514 224.994 23.0139C224.949 25.026 223.059 25.704 221.456 25.5268Z" fill="white"/>
<path d="M238.136 29.3031L232.867 29.3259L232.811 9.75032L238.079 9.72754L238.136 29.3031Z" fill="#15BE77"/>
<path d="M217.75 12.3887H210.159V14.6501H217.75V12.3887Z" fill="white"/>
<path d="M247 16C251.418 16 255 12.4183 255 8C255 3.58172 251.418 0 247 0C242.582 0 239 3.58172 239 8C239 12.4183 242.582 16 247 16Z" fill="#95FFD3"/>
<path d="M246.624 11.7667C246.336 11.7667 246.049 11.6697 245.813 11.4731L240.848 7.33247C240.311 6.88458 240.239 6.08664 240.687 5.55018C241.134 5.01288 241.932 4.94118 242.469 5.38907L246.598 8.83217L254.273 2.00587C254.796 1.54195 255.595 1.58918 256.06 2.11045C256.525 2.63257 256.477 3.4322 255.955 3.89696L247.466 11.447C247.225 11.6595 246.925 11.7667 246.624 11.7667Z" fill="#15BE77"/>
</svg>
