<svg width="324" height="218" viewBox="0 0 324 218" fill="none" xmlns="http://www.w3.org/2000/svg">
<g clip-path="url(#clip0_877_4083)">
<g opacity="0.31">
<path d="M53.2196 217.968C34.813 217.173 16.7413 209.361 7.9087 195.957C-0.262245 183.563 -1.77686 164.367 1.87416 150.573C4.94325 138.991 13.7121 128.967 23.7085 120.487C43.9087 103.336 69.9441 90.9024 87.0115 71.5716C96.4977 60.8244 102.835 48.3668 111.939 37.3888C129.684 16.0773 159.059 0.954732 190.292 0.00012641C221.525 -0.954479 253.499 13.6669 266.493 37.2218C277.654 57.4753 274.744 82.0325 288.495 101.172C294.809 109.971 304.231 116.955 311.166 125.427C323.523 140.494 327.253 160.199 321.067 177.684C314.881 195.169 298.938 210.077 278.69 217.244" fill="#E1FFEC"/>
</g>
<g opacity="0.31">
<path d="M255.564 216.322C268.406 215.765 281.009 210.626 287.171 201.796C292.863 193.626 293.923 180.969 291.372 171.885C289.236 164.248 283.122 157.645 276.147 152.053C262.061 140.757 243.933 132.555 231.976 119.811C225.359 112.731 217.435 96.3755 211.074 89.1523C198.702 75.1037 184.01 65.8759 162.343 63.5769C134.403 60.6096 115.853 81.6507 106.797 97.179C99.0085 110.528 101.041 126.708 91.4513 139.341C87.043 145.14 80.4744 149.746 75.6356 155.322C67.0262 165.258 64.4194 178.241 68.7321 189.768C73.0448 201.295 84.1892 211.119 98.291 215.844" fill="#BAFFD4"/>
</g>
<path d="M78.2501 200.093C77.3015 197.38 74.4715 196.338 71.9525 195.957C66.4281 204.58 59.5247 206.298 55.7461 206.521L56.8462 212.988H69.2899L69.9596 207.825C73.1482 207.77 75.9064 206.696 77.4051 204.85C77.9573 204.204 78.3267 203.423 78.4753 202.586C78.6238 201.75 78.5461 200.889 78.2501 200.093ZM75.0136 202.917C74.2722 203.832 72.6221 204.628 70.3581 204.747L71.1075 198.948C72.9569 199.17 74.8701 199.743 75.3484 201.111C75.4648 201.414 75.4951 201.743 75.436 202.061C75.377 202.38 75.2308 202.676 75.0136 202.917Z" fill="#15BE77"/>
<path d="M71.9521 195.957L71.4977 195.885L72.2949 190.062C72.305 189.981 72.2978 189.898 72.2736 189.82C72.2495 189.741 72.2089 189.669 72.1547 189.607C72.1005 189.546 72.0338 189.496 71.959 189.462C71.8843 189.428 71.8031 189.41 71.7209 189.41H53.5934C53.495 189.408 53.3976 189.429 53.3086 189.471C53.2197 189.513 53.1417 189.575 53.0807 189.652C53.0197 189.729 52.9774 189.819 52.9571 189.915C52.9368 190.011 52.939 190.11 52.9636 190.205L55.7457 206.561C59.5243 206.298 66.4278 204.58 71.9521 195.957Z" fill="#20D589"/>
<path d="M63.6467 186.991C61.8531 186.037 60.1392 182.6 59.4297 181.009C59.0401 180.229 58.8267 179.373 58.8046 178.502C58.7826 177.63 58.9524 176.765 59.3022 175.966C59.9638 174.653 61.2313 173.746 62.0205 172.505C62.4288 171.863 62.701 171.144 62.8203 170.393C62.9396 169.642 62.9034 168.875 62.714 168.138C62.172 166.07 60.474 164.423 60.0834 162.323C59.629 159.857 61.0639 157.486 61.6777 155.06C62.2566 152.811 62.1427 150.441 61.3509 148.258C63.1047 149.292 64.1569 151.17 65.1295 152.968C66.0063 154.598 66.9231 156.349 66.7955 158.21C66.6258 159.366 66.2958 160.494 65.815 161.559C65.0737 163.54 64.5635 165.72 65.0896 167.764C65.8868 170.859 68.9479 173.285 68.8283 176.515C68.7297 177.461 68.4307 178.377 67.951 179.199C67.4714 180.022 66.8222 180.734 66.0462 181.288C65.0037 181.955 64.0729 182.782 63.288 183.738C62.6104 184.772 62.5865 186.387 63.6308 187.039" fill="white"/>
<path d="M174.205 93.3047C172.776 96.4537 171.742 99.7669 171.128 103.169C170.594 106.478 170.41 109.851 169.581 113.105C168.788 115.965 167.698 118.735 166.329 121.37C166.186 121.612 166.104 121.885 166.09 122.166C166.132 122.426 166.233 122.674 166.387 122.889C166.54 123.104 166.742 123.282 166.975 123.407C170.253 125.745 174.07 127.221 178.072 127.696C182.074 128.172 186.132 127.632 189.869 126.127" fill="#2F2E6C"/>
<path d="M172.483 115.635C176.014 115.635 178.876 112.084 178.876 107.704C178.876 103.323 176.014 99.7725 172.483 99.7725C168.952 99.7725 166.09 103.323 166.09 107.704C166.09 112.084 168.952 115.635 172.483 115.635Z" fill="#20D589"/>
<path d="M175.489 116.756C179.02 116.756 181.882 113.205 181.882 108.825C181.882 104.445 179.02 100.894 175.489 100.894C171.958 100.894 169.096 104.445 169.096 108.825C169.096 113.205 171.958 116.756 175.489 116.756Z" fill="#15BE77"/>
<path d="M189.87 126.119L176.533 98.1973C175.058 103.098 173.584 108.006 172.188 112.938C171.675 114.566 171.315 116.239 171.112 117.934C170.977 119.42 171.08 120.918 171.415 122.373C171.693 123.806 172.342 125.141 173.297 126.247C173.484 126.432 173.68 126.607 173.886 126.772C179.131 128.392 184.775 128.161 189.87 126.119Z" fill="#1A1947"/>
<path d="M187.071 125.157C187.669 128.546 188.171 132.396 186.059 135.125C185.506 135.643 185.125 136.317 184.967 137.058C184.919 138.044 185.867 138.776 186.752 139.214C188.476 140.06 190.354 140.548 192.273 140.648C194.191 140.748 196.11 140.457 197.913 139.794C198.217 139.703 198.492 139.533 198.71 139.301C199.164 138.744 198.877 137.925 198.598 137.265C197.337 134.218 196.705 130.95 196.74 127.655C196.774 124.359 197.474 121.104 198.797 118.085" fill="#FFDB96"/>
<path d="M186.77 124.17C187.427 126.48 187.67 128.888 187.487 131.282C187.475 131.322 187.472 131.365 187.479 131.406C187.486 131.448 187.502 131.487 187.527 131.521C187.607 131.608 187.734 131.576 187.846 131.521C188.64 131.267 189.4 130.917 190.11 130.479C191.409 129.572 192.477 128.373 193.227 126.978C194.064 125.309 194.435 123.447 194.303 121.585" fill="#F8D186"/>
<path d="M178.908 93.7583C176.516 96.463 175.927 100.305 175.608 103.909C175.238 107.08 175.238 110.284 175.608 113.455C175.978 116.649 177.228 119.677 179.219 122.206C180.083 123.247 181.099 124.153 182.232 124.894C182.999 125.418 183.856 125.798 184.759 126.016C186.489 126.39 188.275 125.889 189.949 125.348C193.775 124.115 197.721 122.436 200.081 119.191C203.158 114.951 205.198 103.813 205.996 98.6427" fill="#FFDB96"/>
<path d="M174.086 97.0516C177.691 100.152 182.082 102.202 186.777 102.978C189.493 103.364 192.239 103.5 194.98 103.384C196.008 103.395 197.035 103.294 198.041 103.082C199.451 102.785 200.689 101.952 201.492 100.759C201.884 100.162 202.097 99.4669 202.107 98.7541C202.117 98.0413 201.923 97.3404 201.548 96.7334" fill="#F8D186"/>
<path d="M204.977 82.9315C198.153 79.6382 188.276 80.3223 183.31 83.1543C178.344 85.9863 176.287 88.5319 173.696 94.4345C173.545 94.7925 172.644 96.9642 172.779 97.3222C172.827 97.4828 172.913 97.6295 173.029 97.75C173.146 97.8705 173.29 97.9611 173.449 98.0143C179.579 100.353 184.968 100.775 191.529 101.101C193.711 101.277 195.907 101.141 198.05 100.695C201.055 110.742 199.492 117.95 194.486 127.17C197.739 128.538 210.43 129.333 216.44 124.672C218.034 123.506 219.369 122.025 220.362 120.32C222.754 115.953 221.733 110.567 220.426 105.763C219.558 102.156 218.274 98.6614 216.6 95.3494C213.889 90.3377 210.222 85.1828 204.977 82.9315Z" fill="#262556"/>
<path d="M181.077 115.905C181.579 117.441 182.145 118.857 183.468 119.724C184.17 120.115 184.958 120.328 185.761 120.344C186.565 120.359 187.36 120.176 188.076 119.811C189.527 119.127 190.906 117.425 191.918 116.192C188.294 116.566 184.637 116.47 181.037 115.905" fill="white"/>
<path d="M209.368 123.979C208.938 123.666 208.597 123.247 208.379 122.762C208.124 121.763 208.211 120.707 208.626 119.763C209.168 118.11 209.437 116.38 209.424 114.64C209.404 112.893 208.779 111.206 207.654 109.867C205.964 107.998 203.317 107.409 200.846 106.908L199.252 106.598C200.176 113.805 198.415 119.867 194.469 127.185C197.729 128.554 210.412 129.349 216.431 124.687C216.654 124.512 216.861 124.329 217.076 124.146C216.71 124.364 216.33 124.556 215.936 124.719C214.869 125.163 213.705 125.328 212.556 125.198C211.407 125.069 210.31 124.649 209.368 123.979Z" fill="#1A1947"/>
<path d="M187.143 106.844C186.683 106.582 186.162 106.444 185.632 106.444C185.103 106.444 184.582 106.582 184.122 106.844L183.795 106.367C184.343 106.045 184.968 105.875 185.604 105.875C186.241 105.875 186.866 106.045 187.414 106.367L187.143 106.844Z" fill="#161119"/>
<path d="M199.341 106.677L197.818 106.653V106.073H199.269L199.341 106.677Z" fill="#161119"/>
<path d="M185.173 107.894L183.332 113.534L186.234 113.764" fill="#F8D186"/>
<path d="M190.938 103.418C191.057 103.346 191.185 103.29 191.304 103.227L191.536 103.123H191.448C191.639 103.044 191.83 102.972 192.03 102.908C192.272 102.828 192.52 102.764 192.771 102.717C192.931 102.717 193.09 102.654 193.249 102.638H193.162C193.626 102.573 194.097 102.56 194.565 102.598L195.003 102.638H194.908C195.383 102.7 195.851 102.812 196.303 102.972L196.717 103.131H196.637C197.145 103.346 197.628 103.612 198.08 103.927C198.123 103.945 198.169 103.954 198.216 103.954C198.262 103.954 198.308 103.945 198.351 103.927C198.437 103.9 198.511 103.844 198.559 103.768C198.594 103.681 198.594 103.584 198.559 103.497C198.533 103.411 198.476 103.337 198.399 103.29C197.685 102.796 196.897 102.42 196.063 102.177C195.383 101.978 194.676 101.882 193.967 101.89C193.386 101.897 192.808 101.971 192.245 102.113C191.829 102.218 191.424 102.359 191.033 102.535C190.873 102.606 190.716 102.686 190.563 102.773C190.485 102.818 190.427 102.893 190.404 102.98C190.368 103.067 190.368 103.164 190.404 103.25C190.451 103.327 190.525 103.383 190.611 103.41C190.703 103.433 190.8 103.418 190.882 103.37L190.938 103.418Z" fill="#3E3244"/>
<path d="M181.531 103.418C181.432 103.322 181.325 103.234 181.212 103.155L181.005 103.02L181.076 103.068C180.909 102.956 180.734 102.853 180.55 102.749C180.325 102.631 180.094 102.524 179.857 102.431C179.706 102.367 179.551 102.311 179.394 102.264H179.482C179.036 102.12 178.577 102.019 178.111 101.962H177.673H177.768C177.288 101.937 176.807 101.963 176.333 102.041C176.186 102.06 176.039 102.087 175.895 102.121H175.991C175.448 102.24 176.166 102.606 175.193 102.352C175.352 102.078 175.569 101.844 175.83 101.665C176.09 101.486 176.388 101.367 176.7 101.317C177.405 101.246 178.117 101.278 178.812 101.413C179.385 101.527 179.941 101.708 180.471 101.954C180.858 102.13 181.229 102.341 181.579 102.582C181.728 102.68 181.869 102.789 182.001 102.908C182.068 102.971 182.111 103.056 182.121 103.147C182.124 103.193 182.118 103.24 182.103 103.283C182.088 103.327 182.064 103.367 182.033 103.402C182.005 103.436 181.97 103.465 181.93 103.485C181.89 103.506 181.847 103.518 181.802 103.521C181.755 103.526 181.707 103.522 181.662 103.508C181.617 103.494 181.575 103.472 181.539 103.441L181.531 103.418Z" fill="#3E3244"/>
<path d="M191.161 107.283V107.243V107.283L191.304 107.108L191.552 106.862L191.743 106.71H191.695C191.846 106.592 192.009 106.491 192.181 106.408L192.341 106.329H192.293C192.445 106.265 192.602 106.217 192.763 106.185C192.811 106.178 192.859 106.178 192.907 106.185H192.859C193.015 106.169 193.173 106.169 193.329 106.185H193.473H193.417C193.594 106.208 193.768 106.251 193.935 106.313L194.095 106.368H194.047C194.275 106.467 194.494 106.587 194.7 106.726L194.892 106.869L195.051 106.997C195.068 107.016 195.089 107.032 195.112 107.043C195.135 107.054 195.161 107.06 195.187 107.06C195.214 107.06 195.24 107.054 195.265 107.043C195.29 107.032 195.312 107.016 195.33 106.997C195.349 106.98 195.363 106.959 195.373 106.935C195.383 106.912 195.387 106.887 195.386 106.862C195.388 106.835 195.384 106.809 195.374 106.784C195.364 106.759 195.349 106.737 195.33 106.718C195.1 106.523 194.852 106.35 194.589 106.201C194.37 106.078 194.137 105.982 193.895 105.915C193.682 105.859 193.462 105.827 193.242 105.819C193.046 105.818 192.851 105.837 192.66 105.875C192.482 105.917 192.308 105.975 192.142 106.05C192.001 106.115 191.865 106.189 191.735 106.273C191.608 106.359 191.485 106.452 191.368 106.551C191.281 106.623 191.201 106.702 191.121 106.782C191.041 106.861 191.01 106.901 190.962 106.965L190.858 107.1C190.839 107.149 190.839 107.203 190.858 107.251C190.864 107.277 190.876 107.301 190.893 107.321C190.909 107.342 190.93 107.359 190.954 107.371C190.978 107.381 191.003 107.386 191.029 107.386C191.056 107.386 191.081 107.381 191.105 107.371C191.155 107.353 191.197 107.32 191.225 107.275L191.161 107.283Z" fill="#3E3244"/>
<path d="M176.677 106.764L176.717 106.716C176.76 106.657 176.808 106.601 176.861 106.549C176.94 106.462 177.02 106.382 177.108 106.303C177.165 106.248 177.226 106.198 177.291 106.152H177.251C177.402 106.032 177.565 105.928 177.737 105.841L177.897 105.77H177.849C178 105.705 178.158 105.657 178.319 105.627H178.463H178.407C178.563 105.611 178.721 105.611 178.877 105.627H179.021H178.973C179.149 105.653 179.323 105.696 179.491 105.754L179.643 105.817H179.595C179.826 105.914 180.045 106.037 180.249 106.183C180.312 106.231 180.376 106.271 180.44 106.327H180.4C180.457 106.365 180.51 106.407 180.559 106.454C180.599 106.488 180.65 106.508 180.703 106.51C180.755 106.507 180.806 106.487 180.846 106.454C180.881 106.414 180.901 106.363 180.902 106.311C180.903 106.258 180.883 106.206 180.846 106.167C180.616 105.975 180.368 105.804 180.105 105.658C179.884 105.533 179.648 105.434 179.404 105.364C179.193 105.308 178.976 105.276 178.758 105.269C178.56 105.27 178.362 105.291 178.168 105.332C177.99 105.375 177.817 105.434 177.65 105.507C177.509 105.572 177.374 105.647 177.243 105.73C177.117 105.811 176.997 105.901 176.885 106L176.629 106.239C176.574 106.295 176.526 106.358 176.47 106.422C176.434 106.461 176.402 106.504 176.374 106.549C176.354 106.598 176.354 106.652 176.374 106.7C176.38 106.725 176.391 106.748 176.406 106.769C176.421 106.789 176.44 106.807 176.462 106.82C176.511 106.84 176.565 106.84 176.613 106.82C176.662 106.805 176.704 106.774 176.733 106.732L176.677 106.764Z" fill="#3E3244"/>
<path opacity="0.45" d="M195.569 114.928C196.947 114.928 198.064 113.813 198.064 112.438C198.064 111.063 196.947 109.948 195.569 109.948C194.191 109.948 193.074 111.063 193.074 112.438C193.074 113.813 194.191 114.928 195.569 114.928Z" fill="#EBC57B"/>
<path opacity="0.45" d="M177.593 113.566C178.755 113.566 179.697 112.626 179.697 111.466C179.697 110.306 178.755 109.366 177.593 109.366C176.431 109.366 175.488 110.306 175.488 111.466C175.488 112.626 176.431 113.566 177.593 113.566Z" fill="#EBC57B"/>
<path d="M178.646 112.302C177.552 112.303 176.483 111.981 175.573 111.376C174.664 110.771 173.954 109.91 173.535 108.902C173.116 107.894 173.006 106.785 173.219 105.715C173.432 104.645 173.958 103.662 174.731 102.891C175.504 102.119 176.489 101.594 177.562 101.381C178.634 101.169 179.746 101.279 180.755 101.697C181.765 102.115 182.628 102.823 183.234 103.731C183.841 104.639 184.164 105.706 184.162 106.797C184.158 108.255 183.575 109.653 182.542 110.685C181.508 111.716 180.107 112.297 178.646 112.302ZM178.646 101.96C177.679 101.958 176.733 102.243 175.929 102.778C175.124 103.313 174.496 104.074 174.125 104.965C173.754 105.856 173.656 106.836 173.844 107.783C174.032 108.729 174.496 109.599 175.179 110.282C175.863 110.965 176.733 111.43 177.681 111.619C178.629 111.807 179.612 111.711 180.506 111.342C181.399 110.974 182.163 110.349 182.7 109.546C183.237 108.744 183.524 107.801 183.524 106.836C183.528 106.194 183.405 105.556 183.162 104.961C182.919 104.366 182.561 103.824 182.108 103.368C181.654 102.911 181.115 102.548 180.521 102.3C179.927 102.051 179.29 101.922 178.646 101.92V101.96Z" fill="#161119"/>
<path d="M192.532 112.302C191.439 112.303 190.37 111.981 189.46 111.376C188.55 110.771 187.841 109.91 187.422 108.902C187.003 107.894 186.893 106.785 187.106 105.715C187.319 104.645 187.845 103.662 188.618 102.891C189.391 102.119 190.376 101.594 191.449 101.381C192.521 101.169 193.632 101.279 194.642 101.697C195.652 102.115 196.515 102.823 197.121 103.731C197.727 104.639 198.05 105.706 198.049 106.797C198.045 108.255 197.462 109.653 196.428 110.685C195.395 111.716 193.994 112.297 192.532 112.302ZM192.532 101.96C191.566 101.958 190.62 102.243 189.815 102.778C189.011 103.313 188.383 104.074 188.012 104.965C187.641 105.856 187.543 106.836 187.731 107.783C187.918 108.729 188.383 109.599 189.066 110.282C189.749 110.965 190.62 111.43 191.568 111.619C192.516 111.807 193.499 111.711 194.393 111.342C195.286 110.974 196.05 110.349 196.587 109.546C197.124 108.744 197.411 107.801 197.411 106.836C197.415 106.194 197.292 105.556 197.049 104.961C196.806 104.366 196.448 103.824 195.994 103.368C195.541 102.911 195.002 102.548 194.408 102.3C193.814 102.051 193.176 101.922 192.532 101.92V101.96Z" fill="#161119"/>
<path d="M186.974 124.364C188.03 124.262 188.821 123.513 188.742 122.691C188.662 121.869 187.742 121.285 186.686 121.387C185.63 121.488 184.838 122.237 184.917 123.059C184.997 123.882 185.917 124.466 186.974 124.364Z" fill="#161119"/>
<path d="M190.308 123.16C189.444 123.244 188.576 123.268 187.709 123.232V122.436C197.721 122.834 205.414 114.768 205.494 114.68L206.092 115.245C206.052 115.301 199.395 122.285 190.308 123.16Z" fill="#161119"/>
<path d="M172.985 100.313C173.782 94.7449 176.724 88.5558 181.539 85.3897C185.851 82.5577 191.623 82.3748 196.374 84.1965C200.471 85.7875 203.182 89.2559 204.521 93.3289C205.653 96.7973 205.804 100.361 206.075 103.957C206.163 105.15 208.028 105.158 207.941 103.957C207.686 100.528 207.55 97.1155 206.609 93.7823C205.382 89.4388 202.871 85.4534 198.805 83.2737C196.307 81.9808 193.552 81.2613 190.739 81.1677C187.927 81.0741 185.13 81.6088 182.551 82.7327C178.493 84.5942 175.52 88.2138 173.631 92.1754C172.436 94.6023 171.606 97.1916 171.167 99.86C171 101.037 172.762 101.538 172.969 100.353L172.985 100.313Z" fill="#20D589"/>
<path d="M205.997 117.87C209.528 117.87 212.39 114.319 212.39 109.939C212.39 105.559 209.528 102.008 205.997 102.008C202.466 102.008 199.604 105.559 199.604 109.939C199.604 114.319 202.466 117.87 205.997 117.87Z" fill="#20D589"/>
<path d="M207 117.472C210.355 117.472 213.075 114.099 213.075 109.939C213.075 105.778 210.355 102.405 207 102.405C203.645 102.405 200.926 105.778 200.926 109.939C200.926 114.099 203.645 117.472 207 117.472Z" fill="#15BE77"/>
<path opacity="0.07" d="M252.623 48.5977H221.295C219.199 48.5977 217.5 50.293 217.5 52.3843V70.832C217.5 72.9233 219.199 74.6186 221.295 74.6186H252.623C254.719 74.6186 256.418 72.9233 256.418 70.832V52.3843C256.418 50.293 254.719 48.5977 252.623 48.5977Z" fill="#26476D"/>
<path d="M251.705 47.7227H220.377C218.281 47.7227 216.582 49.418 216.582 51.5093V69.957C216.582 72.0483 218.281 73.7436 220.377 73.7436H251.705C253.801 73.7436 255.5 72.0483 255.5 69.957V51.5093C255.5 49.418 253.801 47.7227 251.705 47.7227Z" fill="white"/>
<path d="M238.681 52.5036C239.437 52.8554 240.085 53.4052 240.554 54.0946C241.006 54.7493 241.245 55.5269 241.239 56.322C241.244 56.8678 241.138 57.409 240.929 57.913C240.732 58.3528 240.463 58.7562 240.131 59.1063C239.758 59.5065 239.359 59.8812 238.936 60.2279C238.388 60.6799 237.893 61.1923 237.461 61.7553C237.123 62.2426 236.953 62.8259 236.975 63.4179V63.7361C236.975 63.8186 236.958 63.9004 236.927 63.9766C236.895 64.0529 236.849 64.1221 236.79 64.1805C236.732 64.2388 236.662 64.2851 236.586 64.3167C236.509 64.3483 236.428 64.3646 236.345 64.3646H235.492C235.41 64.3651 235.329 64.3492 235.254 64.3178C235.179 64.2863 235.11 64.24 235.053 64.1816C234.994 64.1241 234.946 64.0548 234.915 63.9781C234.883 63.9014 234.868 63.819 234.87 63.7361V63.2509C234.862 62.704 234.971 62.1617 235.189 61.6598C235.392 61.2236 235.661 60.8211 235.986 60.4666C236.289 60.1484 236.696 59.7506 237.206 59.2892C237.739 58.8558 238.223 58.3649 238.649 57.8255C238.971 57.3885 239.14 56.8568 239.127 56.3141C239.135 55.9668 239.055 55.6231 238.893 55.3155C238.731 55.0079 238.493 54.7465 238.202 54.556C237.546 54.1161 236.769 53.8909 235.978 53.9116C235.235 53.8856 234.504 54.1036 233.898 54.5321C233.318 55.0143 232.922 55.6795 232.774 56.4175C232.748 56.5594 232.673 56.6878 232.562 56.7807C232.452 56.8737 232.312 56.9252 232.168 56.9266H231.179C231.111 56.9267 231.044 56.9134 230.981 56.8874C230.918 56.8615 230.861 56.8234 230.813 56.7754C230.76 56.733 230.72 56.6775 230.697 56.6146C230.673 56.5518 230.666 56.4838 230.677 56.4175C230.728 55.6654 230.961 54.9368 231.355 54.2935C231.796 53.5738 232.42 52.9836 233.164 52.5831C234.041 52.117 235.025 51.8867 236.018 51.9149C236.938 51.9121 237.848 52.1132 238.681 52.5036ZM237.086 68.1512C237.028 68.2094 236.958 68.2556 236.881 68.287C236.805 68.3184 236.723 68.3344 236.64 68.3341H235.324C235.243 68.3347 235.162 68.3188 235.087 68.2873C235.011 68.2559 234.943 68.2096 234.886 68.1512C234.827 68.0949 234.78 68.027 234.748 67.9516C234.717 67.8763 234.701 67.7953 234.703 67.7136V66.3692C234.701 66.2876 234.717 66.2065 234.748 66.1312C234.78 66.0559 234.827 65.988 234.886 65.9317C234.943 65.8733 235.011 65.827 235.087 65.7955C235.162 65.7641 235.243 65.7482 235.324 65.7487H236.64C236.805 65.7487 236.964 65.8138 237.082 65.93C237.2 66.0461 237.267 66.2039 237.27 66.3692V67.6898C237.265 67.7734 237.244 67.8553 237.207 67.9305C237.17 68.0057 237.118 68.0726 237.054 68.1273L237.086 68.1512Z" fill="#76F3A5"/>
<path opacity="0.07" d="M173.399 24.271H142.374C141.324 24.2815 140.32 24.7052 139.581 25.45C138.842 26.1948 138.428 27.2005 138.428 28.2485V46.386C138.428 47.4341 138.842 48.4398 139.581 49.1846C140.32 49.9294 141.324 50.3531 142.374 50.3635H164.375L172.714 56.2662V50.2999H173.399C174.45 50.2894 175.453 49.8657 176.192 49.1209C176.931 48.3761 177.345 47.3704 177.345 46.3224V28.2167C177.337 27.1742 176.919 26.1766 176.181 25.4386C175.443 24.7007 174.444 24.2814 173.399 24.271Z" fill="#26476D"/>
<path d="M172.469 23.4277H141.443C140.386 23.4277 139.372 23.8468 138.624 24.5927C137.877 25.3387 137.457 26.3504 137.457 27.4053V45.5428C137.468 46.5908 137.892 47.5923 138.638 48.3296C139.385 49.067 140.393 49.4806 141.443 49.4805H163.421L171.751 55.3911V49.4487H172.437C173.487 49.4487 174.495 49.0351 175.241 48.2978C175.987 47.5604 176.412 46.5589 176.422 45.5109V27.3734C176.414 26.3295 175.995 25.3308 175.255 24.5926C174.515 23.8544 173.515 23.4361 172.469 23.4277Z" fill="white"/>
<path d="M172.339 30.1499H141.577C141.494 30.1499 141.415 30.1826 141.357 30.2408C141.298 30.299 141.266 30.3779 141.266 30.4601C141.266 30.5424 141.298 30.6213 141.357 30.6795C141.415 30.7377 141.494 30.7704 141.577 30.7704H172.339C172.422 30.7704 172.501 30.7377 172.559 30.6795C172.617 30.6213 172.65 30.5424 172.65 30.4601C172.65 30.3779 172.617 30.299 172.559 30.2408C172.501 30.1826 172.422 30.1499 172.339 30.1499Z" fill="#76F3A5"/>
<path d="M172.339 34.207H141.577C141.494 34.207 141.415 34.2397 141.357 34.2979C141.298 34.3561 141.266 34.435 141.266 34.5173C141.266 34.5996 141.298 34.6785 141.357 34.7367C141.415 34.7948 141.494 34.8275 141.577 34.8275H172.339C172.422 34.8275 172.501 34.7948 172.559 34.7367C172.617 34.6785 172.65 34.5996 172.65 34.5173C172.65 34.435 172.617 34.3561 172.559 34.2979C172.501 34.2397 172.422 34.207 172.339 34.207Z" fill="#76F3A5"/>
<path d="M163.148 38.2402H141.577C141.494 38.2402 141.415 38.2729 141.357 38.3311C141.298 38.3893 141.266 38.4682 141.266 38.5505C141.266 38.6328 141.298 38.7117 141.357 38.7699C141.415 38.828 141.494 38.8607 141.577 38.8607H163.148C163.23 38.8607 163.309 38.828 163.368 38.7699C163.426 38.7117 163.459 38.6328 163.459 38.5505C163.459 38.4682 163.426 38.3893 163.368 38.3311C163.309 38.2729 163.23 38.2402 163.148 38.2402Z" fill="#76F3A5"/>
<path d="M163.148 42.2812H141.577C141.502 42.2932 141.434 42.3314 141.385 42.389C141.336 42.4466 141.309 42.5198 141.309 42.5955C141.309 42.6712 141.336 42.7444 141.385 42.802C141.434 42.8596 141.502 42.8978 141.577 42.9097H163.148C163.223 42.8978 163.292 42.8596 163.341 42.802C163.39 42.7444 163.417 42.6712 163.417 42.5955C163.417 42.5198 163.39 42.4466 163.341 42.389C163.292 42.3314 163.223 42.2932 163.148 42.2812Z" fill="#76F3A5"/>
<path opacity="0.07" d="M156.788 56.6084H136.635C135.954 56.6084 135.302 56.8783 134.82 57.3587C134.339 57.839 134.068 58.4906 134.068 59.1699V70.9513C134.068 71.6307 134.339 72.2822 134.82 72.7626C135.302 73.243 135.954 73.5129 136.635 73.5129H150.928L156.341 77.3472V73.5129H156.788C157.467 73.5108 158.118 73.24 158.597 72.7598C159.077 72.2797 159.346 71.6293 159.346 70.9513V59.1699C159.346 58.4919 159.077 57.8416 158.597 57.3615C158.118 56.8813 157.467 56.6105 156.788 56.6084Z" fill="#26476D"/>
<path d="M156.182 56.0591H136.03C135.349 56.0591 134.696 56.329 134.215 56.8093C133.733 57.2897 133.463 57.9412 133.463 58.6206V70.402C133.463 71.0814 133.733 71.7329 134.215 72.2133C134.696 72.6937 135.349 72.9635 136.03 72.9635H150.323L155.736 76.7979V72.9635H156.182C156.862 72.9614 157.512 72.6906 157.992 72.2105C158.472 71.7303 158.741 71.08 158.741 70.402V58.6206C158.741 57.9426 158.472 57.2923 157.992 56.8121C157.512 56.332 156.862 56.0612 156.182 56.0591Z" fill="white"/>
<path d="M156.093 60.4585H136.108C136.061 60.4678 136.019 60.4932 135.988 60.5301C135.958 60.5671 135.941 60.6135 135.941 60.6613C135.941 60.7092 135.958 60.7556 135.988 60.7926C136.019 60.8295 136.061 60.8549 136.108 60.8642H156.093C156.14 60.8549 156.183 60.8295 156.213 60.7926C156.243 60.7556 156.26 60.7092 156.26 60.6613C156.26 60.6135 156.243 60.5671 156.213 60.5301C156.183 60.4932 156.14 60.4678 156.093 60.4585Z" fill="#76F3A5"/>
<path d="M156.093 63.0518H136.108C136.061 63.0611 136.019 63.0864 135.988 63.1234C135.958 63.1604 135.941 63.2068 135.941 63.2546C135.941 63.3025 135.958 63.3488 135.988 63.3858C136.019 63.4228 136.061 63.4481 136.108 63.4575H156.093C156.14 63.4481 156.183 63.4228 156.213 63.3858C156.243 63.3488 156.26 63.3025 156.26 63.2546C156.26 63.2068 156.243 63.1604 156.213 63.1234C156.183 63.0864 156.14 63.0611 156.093 63.0518Z" fill="#76F3A5"/>
<path d="M150.122 65.6768H136.108C136.061 65.6861 136.019 65.7114 135.988 65.7484C135.958 65.7854 135.941 65.8318 135.941 65.8796C135.941 65.9275 135.958 65.9738 135.988 66.0108C136.019 66.0478 136.061 66.0731 136.108 66.0825H150.122C150.169 66.0731 150.212 66.0478 150.242 66.0108C150.273 65.9738 150.289 65.9275 150.289 65.8796C150.289 65.8318 150.273 65.7854 150.242 65.7484C150.212 65.7114 150.169 65.6861 150.122 65.6768Z" fill="#76F3A5"/>
<path d="M150.124 68.3101H136.109C136.057 68.3101 136.006 68.331 135.969 68.3683C135.931 68.4056 135.91 68.4562 135.91 68.5089C135.91 68.5617 135.931 68.6123 135.969 68.6496C136.006 68.6869 136.057 68.7078 136.109 68.7078H150.124C150.176 68.7078 150.227 68.6869 150.265 68.6496C150.302 68.6123 150.323 68.5617 150.323 68.5089C150.323 68.4562 150.302 68.4056 150.265 68.3683C150.227 68.331 150.176 68.3101 150.124 68.3101Z" fill="#76F3A5"/>
<path opacity="0.07" d="M117.184 85.6997H85.8551C83.7594 85.6997 82.0605 87.395 82.0605 89.4863V107.934C82.0605 110.025 83.7594 111.721 85.8551 111.721H117.184C119.279 111.721 120.978 110.025 120.978 107.934V89.4863C120.978 87.395 119.279 85.6997 117.184 85.6997Z" fill="#26476D"/>
<path d="M116.027 84.6655H84.6988C82.6032 84.6655 80.9043 86.3608 80.9043 88.4521V106.9C80.9043 108.991 82.6032 110.686 84.6988 110.686H116.027C118.123 110.686 119.822 108.991 119.822 106.9V88.4521C119.822 86.3608 118.123 84.6655 116.027 84.6655Z" fill="white"/>
<path d="M96.8084 90.8148C97.0874 93.7582 100.236 93.2888 100.236 93.2888C102.165 93.5752 101.878 97.7755 101.878 97.7755C101.878 97.7755 101.671 101.984 99.726 102.039C99.726 102.039 96.649 101.244 96.0352 104.108C95.4213 106.971 97.1592 108.483 100.021 108.284C100.021 108.284 104.007 107.902 104.557 97.8391C104.884 87.6487 101.257 87.1236 101.257 87.1236C98.4426 86.5986 96.5374 87.8635 96.8084 90.8148Z" fill="#76F3A5"/>
<path d="M222.41 212.758C231.737 208.199 238.194 199.52 243.176 190.595C252.216 174.398 257.669 155.656 254.639 137.471C254.049 133.899 252.75 129.914 249.354 128.45C247.708 127.799 245.887 127.731 244.196 128.259C240.872 129.222 238.297 131.903 236.751 134.918C235.204 137.933 234.535 141.282 233.921 144.623C229.529 168.146 226.428 192.082 218.018 214.548" fill="#15BE77"/>
<path d="M220.752 213.14C227.974 209.79 236.241 199.521 240.251 192.663C247.529 180.222 252.926 167.311 251.06 153.039C250.693 150.247 249.801 147.097 247.242 145.88C246.007 145.334 244.618 145.238 243.32 145.609C242.058 146.015 240.891 146.669 239.889 147.534C238.886 148.4 238.068 149.457 237.484 150.645C236.339 153.024 235.534 155.552 235.093 158.154C231.179 176.451 228.245 195.042 221.294 212.384" fill="#0FAC6A"/>
<path d="M246.133 138.251C245.336 143.875 244.539 149.499 243.582 155.1C242.626 160.7 241.486 166.181 240.067 171.646C238.776 176.693 237.138 181.644 235.164 186.466C233.176 191.241 230.85 195.869 228.205 200.316C225.616 204.688 222.684 208.848 219.436 212.758C219.038 213.235 218.639 213.704 218.232 214.174C218.145 214.269 218.288 214.412 218.376 214.317C221.691 210.505 224.693 206.432 227.352 202.138C232.845 193.332 237.011 183.769 239.716 173.754C241.223 168.273 242.418 162.705 243.431 157.112C244.443 151.52 245.28 145.88 246.061 140.239C246.157 139.579 246.245 138.911 246.34 138.251C246.34 138.123 246.149 138.123 246.133 138.251Z" fill="white"/>
<path d="M226.014 211.748C233.167 213.392 240.443 214.457 247.768 214.93C259.726 215.622 274.362 215.184 283.848 207.905C286.925 205.519 289.612 201.677 288.352 198.009C287.555 195.686 285.291 194.087 282.907 193.459C280.488 192.954 277.996 192.903 275.558 193.308C257.794 195.366 240.795 201.687 226.014 211.732" fill="#15BE77"/>
<path d="M228.707 211.175C234.264 212.377 239.907 213.148 245.583 213.481C254.854 213.975 266.222 213.633 273.595 208.279C275.987 206.537 278.076 203.697 277.103 201.008C276.489 199.298 274.711 198.128 272.886 197.675C271.007 197.306 269.077 197.271 267.186 197.571C253.48 199.082 240.31 203.738 228.707 211.175Z" fill="#0FAC6A"/>
<path d="M278.554 201.358L268.581 203.594C265.185 204.352 261.787 205.092 258.385 205.813C254.984 206.534 251.548 207.237 248.078 207.921C244.661 208.59 241.233 209.218 237.795 209.807C234.407 210.379 231.011 210.912 227.607 211.398L226.371 211.557C226.228 211.557 226.228 211.811 226.371 211.795C229.762 211.339 233.145 210.83 236.519 210.268C239.894 209.706 243.311 209.091 246.771 208.422C250.215 207.762 253.65 207.062 257.086 206.346C260.522 205.63 263.934 204.875 267.354 204.119C270.773 203.363 274.058 202.623 277.406 201.868L278.618 201.597C278.769 201.597 278.697 201.342 278.554 201.374V201.358Z" fill="white"/>
<path d="M223.16 210.809C236.712 210.101 251.858 202.058 262.716 193.936C269.89 188.59 276.929 182.911 282.206 175.711C286.543 169.79 289.555 163.007 291.039 155.824C292.003 151.13 291.836 145.307 287.786 142.746C286.655 142.106 285.396 141.727 284.099 141.637C282.803 141.546 281.502 141.745 280.293 142.22C277.884 143.192 275.7 144.646 273.876 146.492C268.479 151.528 264.31 157.725 260.141 163.795C249.196 179.577 235.612 196.172 223.16 210.801" fill="#15BE77"/>
<path d="M226.818 208.868C237.293 208.351 248.972 202.432 257.366 196.442C262.89 192.504 268.343 188.32 272.424 183.022C275.754 178.702 278.084 173.701 279.248 168.376C279.989 164.924 279.862 160.636 276.729 158.751C275.847 158.279 274.875 158.001 273.877 157.933C272.879 157.866 271.879 158.012 270.941 158.361C269.091 159.079 267.405 160.161 265.983 161.543C261.822 165.25 258.625 169.816 255.381 174.271C246.931 185.901 236.432 198.136 226.818 208.892" fill="#0FAC6A"/>
<path d="M282.509 154.042L270.591 168.575C267.06 172.879 263.56 177.199 259.957 181.439C256.649 185.345 253.237 189.171 249.594 192.783C246.022 196.391 242.161 199.703 238.051 202.687C233.969 205.654 229.538 208.112 224.858 210.005C224.284 210.236 223.702 210.451 223.12 210.666C222.976 210.713 223.04 210.936 223.184 210.888C227.905 209.161 232.393 206.855 236.544 204.023C240.709 201.161 244.624 197.951 248.247 194.429C251.961 190.857 255.421 187.047 258.801 183.149C262.34 179.036 265.768 174.812 269.212 170.612L281.17 156.03L282.668 154.209C282.764 154.089 282.596 153.922 282.501 154.042H282.509Z" fill="white"/>
<g opacity="0.38">
<path opacity="0.38" d="M266.908 197.182C269.597 196.255 272.113 194.89 274.354 193.141C275.565 192.258 276.745 191.335 277.941 190.42C279.137 189.505 280.54 188.416 281.815 187.389C284.255 185.448 286.646 183.441 288.99 181.367C291.333 179.294 293.619 177.156 295.845 174.956C298.069 172.76 300.246 170.501 302.35 168.194L303.147 167.351C303.331 167.152 303.036 166.849 302.852 167.056C300.772 169.355 298.635 171.614 296.435 173.802C294.235 175.99 291.987 178.138 289.675 180.214C287.364 182.29 285.012 184.311 282.596 186.268C280.181 188.225 277.614 190.245 275.079 192.115C272.879 193.897 270.433 195.354 267.817 196.442C267.498 196.561 267.171 196.673 266.844 196.776C266.791 196.791 266.745 196.827 266.717 196.875C266.689 196.924 266.682 196.981 266.697 197.035C266.712 197.089 266.747 197.134 266.796 197.162C266.845 197.19 266.902 197.197 266.956 197.182H266.908Z" fill="#53E88B"/>
<path opacity="0.38" d="M301.92 168.138C302.004 167.237 302.304 166.37 302.794 165.609C303.283 164.848 303.948 164.215 304.734 163.763C305.025 163.548 305.376 163.428 305.738 163.419C306.101 163.411 306.457 163.514 306.758 163.715C306.939 163.911 307.057 164.157 307.098 164.42C307.139 164.683 307.101 164.953 306.99 165.195C306.756 165.676 306.408 166.094 305.977 166.412C304.756 167.423 303.352 168.19 301.84 168.671" fill="#53E88B"/>
<path opacity="0.38" d="M300.205 170.238C299.851 169.957 299.558 169.608 299.341 169.212C299.125 168.815 298.99 168.38 298.945 167.931C298.802 167.313 298.802 166.671 298.945 166.054C299.016 165.744 299.158 165.455 299.36 165.209C299.562 164.963 299.819 164.768 300.109 164.638C300.197 164.598 300.293 164.582 300.388 164.59C300.482 164.611 300.568 164.658 300.635 164.725C300.984 165.041 301.194 165.481 301.217 165.95C301.237 166.415 301.181 166.88 301.05 167.327C300.789 168.36 300.418 169.363 299.942 170.318" fill="#53E88B"/>
<path opacity="0.38" d="M296.3 173.969C295.993 173.84 295.72 173.641 295.503 173.388C294.81 172.81 294.319 172.027 294.1 171.153C294.055 170.702 294.104 170.247 294.243 169.816C294.313 169.468 294.453 169.138 294.652 168.844C294.852 168.55 295.109 168.299 295.407 168.106C295.611 167.985 295.852 167.943 296.085 167.987C296.222 168.031 296.348 168.105 296.453 168.204C296.558 168.303 296.639 168.425 296.691 168.559C296.788 168.832 296.832 169.121 296.818 169.411C296.877 170.948 296.696 172.486 296.284 173.969" fill="#53E88B"/>
<path opacity="0.38" d="M291.971 178.432C291.891 178.503 291.763 178.432 291.676 178.376C290.881 177.783 290.229 177.019 289.771 176.14C289.319 175.251 289.195 174.232 289.42 173.261C289.46 173.039 289.545 172.828 289.669 172.641C289.794 172.453 289.956 172.293 290.145 172.171C290.414 172.048 290.715 172.016 291.003 172.081C291.291 172.146 291.55 172.303 291.74 172.529C292.117 172.978 292.343 173.535 292.385 174.12C292.498 175.667 292.334 177.221 291.899 178.71" fill="#53E88B"/>
<path opacity="0.38" d="M287.108 182.919C286.679 182.737 286.307 182.443 286.032 182.067C285.259 181.228 284.677 180.232 284.326 179.148C284.155 178.604 284.114 178.028 284.207 177.466C284.299 176.903 284.523 176.371 284.86 175.91C284.962 175.733 285.109 175.587 285.286 175.484C285.463 175.382 285.664 175.329 285.868 175.329C286.073 175.329 286.273 175.382 286.45 175.484C286.627 175.587 286.774 175.733 286.877 175.91C287.761 177.016 287.785 178.559 287.674 179.967C287.584 180.844 287.445 181.715 287.259 182.576" fill="#53E88B"/>
<path opacity="0.38" d="M280.86 187.898C279.915 187.148 279.144 186.201 278.602 185.124C278.06 184.047 277.758 182.866 277.719 181.661C277.719 180.739 277.958 179.641 278.819 179.275C279.105 179.183 279.411 179.169 279.705 179.233C279.999 179.297 280.271 179.438 280.493 179.641C280.929 180.055 281.243 180.581 281.402 181.16C282.039 183.173 281.641 185.352 281.242 187.421" fill="#53E88B"/>
<path opacity="0.38" d="M296.492 174.215C297.934 173.723 299.487 173.646 300.972 173.993C301.338 174.048 301.769 174.144 301.912 174.478C301.962 174.636 301.966 174.804 301.926 174.964C301.885 175.124 301.8 175.27 301.681 175.385C301.278 175.807 300.727 176.058 300.143 176.085C299.565 176.113 298.988 176.015 298.453 175.798C297.59 175.496 296.823 174.972 296.229 174.279" fill="#53E88B"/>
<path opacity="0.38" d="M300.294 170.135C301.739 169.649 303.29 169.575 304.774 169.92C305.133 169.976 305.572 170.071 305.707 170.405C305.76 170.561 305.766 170.729 305.725 170.889C305.684 171.049 305.598 171.193 305.476 171.304C305.078 171.731 304.529 171.985 303.945 172.012C303.365 172.039 302.785 171.938 302.247 171.718C301.389 171.413 300.625 170.889 300.031 170.199" fill="#53E88B"/>
<path opacity="0.38" d="M292.019 178.352C292.893 177.939 293.849 177.729 294.816 177.739C295.782 177.748 296.734 177.977 297.599 178.408C297.8 178.485 297.982 178.602 298.134 178.753C298.286 178.903 298.406 179.084 298.484 179.283C298.52 179.466 298.508 179.655 298.45 179.832C298.391 180.009 298.288 180.168 298.149 180.293C297.871 180.547 297.525 180.713 297.153 180.771C296.304 180.925 295.428 180.829 294.634 180.492C293.844 180.153 293.108 179.7 292.45 179.148C292.164 178.958 291.951 178.678 291.844 178.352" fill="#53E88B"/>
<path opacity="0.38" d="M287.172 182.632C288.862 182.044 290.719 182.386 292.449 182.847C292.793 182.895 293.123 183.01 293.421 183.186C293.72 183.362 293.98 183.596 294.187 183.873C294.355 184.27 294.366 184.715 294.218 185.12C294.07 185.524 293.774 185.858 293.39 186.053C292.995 186.23 292.567 186.325 292.134 186.332C291.701 186.338 291.271 186.257 290.871 186.093C289.339 185.504 288.056 184.409 287.236 182.99" fill="#53E88B"/>
<path opacity="0.38" d="M281.161 187.493C282.476 187.126 283.876 187.199 285.147 187.699C286.416 188.202 287.624 188.845 288.75 189.617C289.316 189.967 289.93 190.412 289.985 191.072C289.989 191.299 289.938 191.524 289.835 191.726C289.732 191.929 289.581 192.103 289.395 192.234C289.017 192.487 288.581 192.643 288.128 192.687C286.956 192.786 285.778 192.583 284.707 192.097C283.636 191.61 282.709 190.858 282.014 189.911C281.345 189.155 280.989 188.174 281.017 187.167" fill="#53E88B"/>
<path opacity="0.38" d="M273.763 193.554C273.7 193.674 273.516 193.554 273.413 193.491C272.54 192.656 271.881 191.624 271.491 190.482C271.101 189.339 270.992 188.121 271.173 186.928C271.227 186.47 271.377 186.028 271.611 185.631C272.032 185.054 272.619 184.619 273.293 184.382C273.442 184.301 273.611 184.265 273.779 184.279C273.993 184.334 274.177 184.471 274.289 184.661C275.189 185.931 275.566 187.497 275.342 189.036C275.117 190.558 274.574 192.016 273.747 193.316" fill="#53E88B"/>
<path opacity="0.38" d="M273.342 193.53C274.365 193.117 275.482 192.996 276.57 193.18C277.662 193.361 278.731 193.657 279.759 194.063C280.541 194.28 281.26 194.681 281.856 195.233C282.149 195.512 282.34 195.881 282.401 196.281C282.462 196.682 282.387 197.09 282.19 197.444C281.925 197.739 281.592 197.966 281.22 198.104C280.848 198.243 280.448 198.289 280.054 198.24C278.497 198.241 276.975 197.785 275.677 196.927C275.035 196.494 274.498 195.923 274.106 195.255C273.714 194.587 273.478 193.84 273.414 193.069" fill="#53E88B"/>
</g>
<g opacity="0.38">
<path opacity="0.38" d="M253.754 174.924C255.414 172.617 256.675 170.049 257.485 167.327C257.963 165.903 258.394 164.471 258.832 163.039C259.311 161.448 259.789 159.904 260.235 158.329C261.096 155.338 261.875 152.323 262.571 149.285C263.267 146.246 263.892 143.183 264.444 140.096C264.976 137.015 265.435 133.923 265.823 130.821C265.871 130.447 265.919 130.065 265.959 129.691C265.999 129.317 265.576 129.349 265.544 129.62C265.186 132.698 264.747 135.777 264.237 138.832C263.727 141.886 263.121 144.941 262.443 147.964C261.766 150.987 261.016 154.002 260.179 156.993C259.342 159.984 258.41 163.079 257.485 166.101C256.722 168.825 255.573 171.426 254.073 173.826C253.882 174.112 253.683 174.391 253.467 174.661C253.252 174.932 253.627 175.138 253.794 174.924H253.754Z" fill="#53E88B"/>
<path opacity="0.38" d="M265.457 131.012C265.002 130.23 264.743 129.351 264.7 128.448C264.657 127.546 264.832 126.646 265.21 125.825C265.521 125.173 266.111 124.512 266.804 124.616C267.065 124.672 267.303 124.804 267.489 124.995C267.675 125.186 267.8 125.428 267.848 125.69C267.939 126.222 267.898 126.768 267.729 127.281C267.323 128.812 266.622 130.249 265.664 131.513" fill="#53E88B"/>
<path opacity="0.38" d="M265.297 133.748C264.842 133.726 264.395 133.612 263.984 133.414C263.573 133.216 263.207 132.937 262.906 132.595C262.432 132.172 262.056 131.65 261.806 131.067C261.683 130.773 261.631 130.455 261.653 130.137C261.676 129.82 261.771 129.512 261.933 129.238C261.984 129.154 262.055 129.085 262.141 129.039C262.227 129.005 262.319 128.992 262.412 128.999C262.88 129.058 263.307 129.298 263.599 129.667C263.888 130.035 264.111 130.45 264.261 130.892C264.651 131.882 264.932 132.912 265.098 133.963" fill="#53E88B"/>
<path opacity="0.38" d="M264.262 139.015C263.939 139.09 263.604 139.09 263.281 139.015C262.382 138.943 261.528 138.589 260.842 138.004C260.544 137.66 260.319 137.26 260.18 136.827C260.036 136.502 259.959 136.152 259.952 135.797C259.945 135.442 260.009 135.089 260.14 134.759C260.24 134.544 260.412 134.372 260.627 134.273C260.76 134.233 260.901 134.222 261.039 134.243C261.177 134.263 261.308 134.315 261.424 134.393C261.658 134.56 261.86 134.767 262.022 135.005C262.955 136.229 263.7 137.586 264.23 139.031" fill="#53E88B"/>
<path opacity="0.38" d="M263.313 145.156C263.313 145.259 263.154 145.283 263.042 145.275C262.051 145.26 261.076 145.015 260.196 144.559C259.312 144.093 258.618 143.333 258.235 142.411C258.14 142.208 258.088 141.987 258.081 141.763C258.074 141.539 258.113 141.315 258.195 141.106C258.347 140.862 258.571 140.671 258.837 140.561C259.104 140.451 259.398 140.428 259.678 140.494C260.24 140.642 260.742 140.962 261.113 141.409C262.106 142.599 262.874 143.961 263.377 145.426" fill="#53E88B"/>
<path opacity="0.38" d="M261.957 151.631C261.501 151.728 261.028 151.7 260.586 151.552C259.466 151.317 258.411 150.842 257.493 150.16C257.039 149.814 256.672 149.367 256.423 148.855C256.174 148.342 256.049 147.778 256.058 147.208C256.039 147.01 256.071 146.81 256.152 146.628C256.233 146.445 256.36 146.287 256.521 146.169C256.682 146.05 256.87 145.975 257.069 145.951C257.267 145.927 257.468 145.954 257.653 146.031C259.016 146.413 259.932 147.662 260.634 148.887C261.072 149.659 261.466 150.456 261.814 151.273" fill="#53E88B"/>
<path opacity="0.38" d="M259.75 159.3C258.543 159.233 257.366 158.905 256.299 158.339C255.233 157.773 254.302 156.982 253.571 156.022C253.013 155.282 252.591 154.24 253.093 153.469C253.274 153.224 253.518 153.032 253.798 152.913C254.078 152.795 254.385 152.753 254.687 152.792C255.274 152.886 255.825 153.136 256.282 153.516C257.964 154.781 258.905 156.786 259.781 158.711" fill="#53E88B"/>
<path opacity="0.38" d="M264.556 139.11C265.449 137.877 266.669 136.918 268.08 136.342C268.229 136.234 268.402 136.165 268.583 136.138C268.765 136.112 268.951 136.13 269.124 136.191C269.257 136.29 269.359 136.425 269.419 136.58C269.478 136.734 269.492 136.903 269.459 137.066C269.393 137.636 269.107 138.158 268.662 138.521C268.193 138.886 267.648 139.142 267.067 139.269C266.188 139.517 265.259 139.53 264.373 139.309" fill="#53E88B"/>
<path opacity="0.38" d="M265.281 133.589C266.178 132.358 267.401 131.399 268.812 130.821C268.961 130.712 269.134 130.642 269.316 130.617C269.499 130.592 269.684 130.613 269.857 130.677C269.99 130.775 270.092 130.908 270.152 131.062C270.211 131.216 270.225 131.383 270.191 131.545C270.115 132.123 269.815 132.649 269.354 133.008C268.894 133.361 268.364 133.613 267.8 133.748C266.921 133.998 265.992 134.015 265.105 133.796" fill="#53E88B"/>
<path opacity="0.38" d="M263.305 145.068C263.779 144.224 264.44 143.498 265.237 142.947C266.034 142.395 266.946 142.033 267.905 141.886C268.113 141.832 268.329 141.823 268.541 141.859C268.752 141.894 268.954 141.974 269.133 142.093C269.269 142.219 269.37 142.379 269.426 142.556C269.481 142.733 269.49 142.922 269.451 143.103C269.364 143.466 269.18 143.799 268.917 144.066C268.316 144.689 267.541 145.118 266.693 145.299C265.853 145.479 264.99 145.533 264.134 145.458C263.791 145.474 263.452 145.37 263.178 145.164" fill="#53E88B"/>
<path opacity="0.38" d="M261.838 151.36C262.874 149.905 264.596 149.109 266.27 148.481C266.577 148.32 266.912 148.222 267.258 148.193C267.603 148.165 267.95 148.206 268.279 148.314C268.649 148.539 268.918 148.897 269.032 149.314C269.147 149.731 269.097 150.175 268.893 150.557C268.673 150.927 268.38 151.25 268.032 151.504C267.684 151.758 267.288 151.939 266.868 152.037C265.272 152.446 263.583 152.294 262.085 151.607" fill="#53E88B"/>
<path opacity="0.38" d="M259.766 158.791C260.628 157.721 261.818 156.964 263.154 156.635C264.483 156.315 265.844 156.142 267.211 156.118C267.536 156.053 267.87 156.062 268.191 156.145C268.511 156.228 268.808 156.381 269.061 156.595C269.195 156.778 269.282 156.991 269.316 157.216C269.349 157.44 269.327 157.67 269.252 157.884C269.081 158.31 268.807 158.687 268.455 158.982C267.558 159.741 266.48 160.257 265.326 160.48C264.171 160.703 262.978 160.625 261.862 160.254C260.883 160.021 260.029 159.427 259.471 158.592" fill="#53E88B"/>
<path opacity="0.38" d="M257.246 168.003C257.246 168.138 257.063 168.178 256.927 168.162C255.73 167.984 254.594 167.522 253.612 166.817C252.63 166.111 251.832 165.181 251.283 164.105C251.064 163.699 250.931 163.252 250.893 162.792C250.9 162.077 251.125 161.38 251.538 160.796C251.576 160.706 251.633 160.625 251.704 160.558C251.776 160.491 251.86 160.44 251.953 160.408C252.045 160.376 252.143 160.363 252.241 160.371C252.338 160.379 252.433 160.407 252.519 160.453C253.987 160.97 255.2 162.029 255.907 163.413C256.605 164.788 257.001 166.296 257.071 167.836" fill="#53E88B"/>
<path opacity="0.38" d="M256.887 168.233C257.486 167.307 258.326 166.562 259.318 166.077C260.307 165.601 261.344 165.23 262.411 164.972C263.177 164.699 263.996 164.609 264.803 164.709C265.207 164.762 265.583 164.946 265.871 165.234C266.16 165.522 266.344 165.897 266.397 166.3C266.344 166.691 266.198 167.064 265.97 167.386C265.743 167.709 265.441 167.972 265.09 168.154C263.82 169.055 262.311 169.562 260.753 169.609C259.978 169.628 259.209 169.473 258.503 169.155C257.796 168.837 257.17 168.364 256.672 167.772" fill="#53E88B"/>
</g>
<g opacity="0.38">
<path opacity="0.38" d="M167.263 180.046C166.742 177.251 165.756 174.562 164.345 172.091C163.652 170.763 162.91 169.458 162.177 168.114C161.38 166.682 160.583 165.258 159.738 163.842C158.143 161.153 156.501 158.501 154.811 155.887C153.097 153.27 151.304 150.7 149.454 148.186C147.605 145.673 145.684 143.191 143.699 140.772L142.973 139.889C142.806 139.682 142.463 139.889 142.638 140.144C144.621 142.53 146.539 144.97 148.394 147.462C150.249 149.955 152.04 152.49 153.767 155.067C155.489 157.655 157.144 160.281 158.733 162.943C160.328 165.671 161.922 168.432 163.437 171.216C164.864 173.654 165.937 176.281 166.625 179.02C166.697 179.354 166.761 179.688 166.809 180.03C166.856 180.372 167.271 180.245 167.223 179.983L167.263 180.046Z" fill="#53E88B"/>
<path opacity="0.38" d="M143.587 141.234C142.706 141.022 141.89 140.601 141.207 140.007C140.524 139.413 139.995 138.663 139.665 137.821C139.494 137.503 139.425 137.14 139.467 136.781C139.51 136.422 139.663 136.086 139.904 135.816C140.127 135.669 140.389 135.59 140.657 135.59C140.925 135.59 141.187 135.669 141.411 135.816C141.853 136.117 142.214 136.521 142.463 136.994C143.291 138.346 143.849 139.845 144.105 141.409" fill="#53E88B"/>
<path opacity="0.38" d="M145.444 143.239C145.115 143.547 144.728 143.787 144.304 143.942C143.881 144.098 143.431 144.167 142.98 144.146C142.347 144.196 141.71 144.106 141.115 143.883C140.817 143.768 140.55 143.585 140.335 143.349C140.121 143.113 139.965 142.83 139.879 142.523C139.855 142.431 139.855 142.336 139.879 142.244C139.911 142.154 139.966 142.075 140.039 142.014C140.407 141.719 140.876 141.579 141.346 141.624C141.809 141.674 142.261 141.798 142.685 141.99C143.673 142.397 144.613 142.909 145.491 143.517" fill="#53E88B"/>
<path opacity="0.38" d="M148.546 147.63C148.376 147.914 148.138 148.152 147.852 148.322C147.186 148.918 146.35 149.29 145.461 149.388C145.006 149.362 144.562 149.245 144.153 149.046C143.819 148.925 143.512 148.739 143.251 148.499C142.989 148.258 142.778 147.968 142.631 147.645C142.548 147.425 142.548 147.182 142.631 146.961C142.693 146.831 142.784 146.716 142.897 146.627C143.01 146.537 143.143 146.474 143.284 146.444C143.569 146.392 143.861 146.392 144.145 146.444C145.678 146.61 147.175 147.009 148.586 147.63" fill="#53E88B"/>
<path opacity="0.38" d="M152.34 152.562C152.396 152.649 152.34 152.768 152.237 152.84C151.542 153.558 150.687 154.103 149.742 154.431C148.795 154.742 147.77 154.717 146.84 154.359C146.627 154.287 146.431 154.172 146.264 154.022C146.096 153.871 145.962 153.688 145.867 153.484C145.792 153.206 145.807 152.91 145.912 152.641C146.017 152.372 146.205 152.143 146.449 151.989C146.944 151.687 147.521 151.545 148.1 151.583C149.651 151.694 151.169 152.084 152.58 152.737" fill="#53E88B"/>
<path opacity="0.38" d="M156.08 158.019C155.835 158.414 155.488 158.736 155.075 158.95C154.134 159.597 153.062 160.029 151.934 160.215C151.37 160.305 150.792 160.261 150.248 160.087C149.704 159.912 149.208 159.613 148.801 159.212C148.636 159.055 148.512 158.86 148.441 158.643C148.37 158.426 148.354 158.196 148.395 157.971C148.516 157.644 148.758 157.376 149.072 157.224C150.292 156.508 151.831 156.706 153.202 157.049C154.061 157.265 154.908 157.531 155.737 157.844" fill="#53E88B"/>
<path opacity="0.38" d="M160.105 164.916C159.221 165.739 158.169 166.361 157.021 166.738C155.874 167.116 154.657 167.241 153.457 167.104C152.54 166.984 151.496 166.571 151.28 165.672C151.232 165.377 151.262 165.074 151.369 164.795C151.475 164.515 151.654 164.269 151.886 164.081C152.361 163.71 152.929 163.476 153.528 163.405C155.617 163.071 157.713 163.779 159.714 164.479" fill="#53E88B"/>
<path opacity="0.38" d="M148.817 147.486C148.545 145.99 148.697 144.447 149.255 143.032C149.359 142.674 149.518 142.236 149.869 142.172C150.033 142.146 150.201 142.165 150.355 142.228C150.508 142.291 150.641 142.396 150.738 142.53C151.087 142.984 151.255 143.551 151.208 144.121C151.146 144.684 150.964 145.226 150.674 145.712C150.25 146.521 149.617 147.202 148.841 147.685" fill="#53E88B"/>
<path opacity="0.38" d="M145.324 143.135C145.056 141.638 145.208 140.097 145.762 138.68C145.874 138.33 146.033 137.933 146.384 137.829C146.547 137.801 146.714 137.82 146.867 137.883C147.019 137.947 147.151 138.052 147.245 138.187C147.602 138.637 147.773 139.206 147.723 139.778C147.655 140.34 147.471 140.882 147.181 141.369C146.757 142.176 146.128 142.856 145.356 143.342" fill="#53E88B"/>
<path opacity="0.38" d="M152.261 152.506C151.975 151.581 151.905 150.602 152.056 149.646C152.206 148.689 152.574 147.779 153.13 146.985C153.236 146.8 153.379 146.639 153.55 146.511C153.722 146.384 153.918 146.294 154.126 146.246C154.313 146.234 154.499 146.272 154.667 146.354C154.835 146.436 154.978 146.561 155.083 146.715C155.286 147.029 155.399 147.392 155.41 147.765C155.441 148.627 155.217 149.48 154.764 150.215C154.315 150.946 153.759 151.605 153.114 152.172C152.883 152.427 152.575 152.6 152.237 152.665" fill="#53E88B"/>
<path opacity="0.38" d="M155.808 157.916C155.473 156.157 156.079 154.376 156.78 152.729C156.876 152.392 157.038 152.078 157.257 151.805C157.476 151.532 157.748 151.305 158.056 151.138C158.474 151.029 158.918 151.082 159.299 151.288C159.679 151.493 159.967 151.835 160.104 152.244C160.222 152.659 160.254 153.094 160.198 153.522C160.141 153.95 159.998 154.362 159.778 154.734C158.966 156.16 157.693 157.268 156.166 157.876" fill="#53E88B"/>
<path opacity="0.38" d="M159.746 164.55C159.57 163.188 159.85 161.807 160.543 160.62C161.217 159.443 162.019 158.344 162.935 157.343C163.373 156.842 163.907 156.293 164.529 156.333C164.756 156.361 164.972 156.445 165.158 156.577C165.345 156.709 165.496 156.884 165.597 157.088C165.789 157.499 165.879 157.949 165.86 158.401C165.789 159.573 165.416 160.706 164.778 161.693C164.14 162.679 163.258 163.485 162.217 164.033C161.369 164.583 160.343 164.791 159.348 164.614" fill="#53E88B"/>
<path opacity="0.38" d="M164.672 172.744C164.775 172.823 164.672 172.99 164.56 173.078C163.606 173.818 162.487 174.319 161.298 174.538C160.109 174.757 158.885 174.687 157.728 174.335C157.28 174.216 156.862 174.004 156.501 173.714C155.993 173.212 155.648 172.569 155.512 171.868C155.465 171.707 155.465 171.536 155.512 171.375C155.598 171.17 155.761 171.007 155.966 170.922C157.356 170.22 158.963 170.078 160.455 170.524C161.926 170.977 163.284 171.737 164.44 172.751" fill="#53E88B"/>
<path opacity="0.38" d="M164.584 173.158C164.327 172.085 164.371 170.962 164.711 169.912C165.051 168.87 165.5 167.868 166.051 166.921C166.383 166.183 166.882 165.532 167.51 165.02C167.832 164.773 168.227 164.64 168.634 164.64C169.04 164.64 169.435 164.773 169.758 165.02C170.003 165.328 170.171 165.69 170.247 166.076C170.323 166.462 170.306 166.861 170.196 167.239C169.97 168.779 169.293 170.218 168.251 171.376C167.729 171.948 167.085 172.394 166.365 172.682C165.646 172.97 164.871 173.092 164.098 173.038" fill="#53E88B"/>
</g>
<path d="M197.946 135.498C206.316 135.848 215.38 138.37 221.51 144.074C222.059 144.522 222.489 145.098 222.761 145.752C222.958 146.767 222.835 147.817 222.411 148.759C218.785 160.225 218.591 172.498 221.853 184.072C222.705 187.079 223.798 190.046 224.093 193.157C224.387 196.267 223.766 199.64 221.613 201.907C220.658 202.861 219.544 203.642 218.321 204.214C211.617 207.595 203.749 207.468 196.248 207.157C191.616 206.967 186.945 206.728 182.496 205.463C178.048 204.198 173.783 201.836 171.089 198.081C168.395 194.326 167.422 189.33 167.103 184.557C166.306 173.762 167.765 162.935 167.964 152.109C168.028 148.927 167.964 145.744 166.729 142.817C172.444 138.84 179.276 136.453 186.092 135.125C186.791 136.039 187.692 136.78 188.725 137.292C189.757 137.804 190.894 138.072 192.047 138.076C193.168 138.14 194.289 137.94 195.32 137.492C196.35 137.044 197.26 136.361 197.977 135.498" fill="#FFCE45"/>
<path d="M220.577 191.828C220.306 188.71 222.522 185.114 221.733 182.107C219.732 174.462 215.945 167.032 216.758 159.141C215.015 159.901 213.558 161.193 212.597 162.832C211.932 164.268 211.612 165.84 211.664 167.422C211.664 170.604 212.222 173.706 212.342 176.857C212.461 180.007 212.071 183.332 210.293 185.909C208.244 188.892 204.713 190.396 201.245 191.319C198.918 191.914 196.56 192.387 194.182 192.735C191.469 193.269 188.694 193.416 185.94 193.172C183.151 192.907 180.56 191.617 178.67 189.553C175.816 186.164 175.903 181.248 175.393 176.825C174.826 171.95 173.362 167.223 171.073 162.879C170.482 161.537 169.544 160.375 168.354 159.515C167.932 167.414 163.348 175.719 163.89 183.602C164.217 188.375 169.032 192.87 171.615 196.736C174.173 200.342 177.902 202.956 182.169 204.134C186.283 205.399 190.595 205.638 194.868 205.829C201.795 206.147 209.066 206.266 215.26 202.885C216.401 202.302 217.429 201.521 218.297 200.578C220.274 198.303 220.816 194.938 220.577 191.828Z" fill="#FFA748"/>
<path d="M170.18 140.669C172.77 152.14 170.538 165.68 167.669 177.079C166.816 180.468 166.999 184.183 168.211 185.909C169.422 187.636 171.646 188.757 173.631 189.672C177.921 191.646 181.769 194.462 184.943 197.953C186.425 199.359 187.56 201.088 188.259 203.005C188.599 203.966 188.698 204.995 188.548 206.003C188.398 207.011 188.003 207.967 187.398 208.788C186.73 209.498 185.914 210.055 185.009 210.421C184.103 210.786 183.129 210.951 182.153 210.904C180.208 210.797 178.282 210.466 176.414 209.918C173.238 209.176 170.006 208.694 166.752 208.478C163.938 208.287 161.076 208.287 158.366 207.491C154.487 206.296 151.204 203.682 149.174 200.173C147.178 196.661 146.342 192.611 146.783 188.598C147.051 186.466 147.491 184.359 148.098 182.298C150.41 173.706 153.599 166.189 156.516 157.788C157.889 154.131 159.738 150.67 162.017 147.494C164.121 144.519 166.553 141.281 170.148 140.669" fill="#FFCE45"/>
<path d="M171.127 162.514C172.722 155.426 172.132 147.59 170.458 140.597C170.378 140.232 169.812 140.383 169.9 140.749C171.084 145.735 171.553 150.864 171.295 155.983C171.23 158.121 170.984 160.25 170.561 162.347C170.482 162.713 171.04 162.864 171.127 162.498V162.514Z" fill="white"/>
<path d="M192.309 203.084C192.309 203.084 184.617 201.175 181.731 202.822C178.845 204.469 174.485 206.871 174.612 209.926V211.183C174.612 211.183 195.243 211.779 196.933 209.926" fill="#FFDB96"/>
<path d="M215.3 139.81C219.078 140.248 223.208 144.631 225.814 148.433C228.421 152.236 230.207 156.516 231.961 160.78L241.837 184.692C242.943 187.126 243.795 189.666 244.38 192.274C244.789 194.461 244.825 196.701 244.484 198.9C244.276 200.713 243.604 202.442 242.531 203.92C240.937 205.94 238.426 206.967 236.026 207.897C230.94 209.822 225.735 211.628 220.314 212.002C218.177 212.117 216.034 212.117 213.897 212.002C207.99 211.787 202.051 211.573 196.24 210.491C195.813 210.45 195.402 210.305 195.044 210.069C194.719 209.768 194.47 209.395 194.318 208.979L192.565 205.153C192.177 204.468 191.972 203.696 191.967 202.909C192.173 201.869 192.754 200.941 193.601 200.3C195.653 198.404 198.001 196.854 200.552 195.71C205.798 193.324 211.776 192.775 216.703 189.823C217.31 189.485 217.866 189.062 218.353 188.567C220.171 186.649 220.059 183.547 219.047 181.113C218.034 178.678 217.317 176.34 216.312 173.897C214.088 168.464 212.98 164.916 212.861 160.262C212.685 153.644 213.179 146.102 215.3 139.834" fill="#FFCE45"/>
<path d="M195.306 198.956C195.976 199.914 196.542 200.941 196.996 202.018C198.209 204.767 198.929 207.708 199.124 210.705C199.124 211.079 199.73 211.079 199.706 210.705C199.51 207.69 198.798 204.73 197.602 201.955C197.133 200.787 196.531 199.676 195.808 198.645C195.585 198.351 195.083 198.645 195.306 198.94V198.956Z" fill="#FFA748"/>
<path d="M212.892 162.832C212.406 155.243 212.988 147.057 215.579 139.882C215.706 139.532 215.148 139.381 215.021 139.731C212.414 146.946 211.832 155.203 212.31 162.8C212.31 163.166 212.916 163.174 212.892 162.8V162.832Z" fill="white"/>
<path d="M297.456 212.988H27.1849C25.8509 212.988 24.7695 214.067 24.7695 215.399V215.59C24.7695 216.921 25.8509 218 27.1849 218H297.456C298.79 218 299.871 216.921 299.871 215.59V215.399C299.871 214.067 298.79 212.988 297.456 212.988Z" fill="#15BE77"/>
<path d="M227.68 210.658H134.643C134.423 210.658 134.244 210.836 134.244 211.055V212.591C134.244 212.81 134.423 212.989 134.643 212.989H227.68C227.9 212.989 228.078 212.81 228.078 212.591V211.055C228.078 210.836 227.9 210.658 227.68 210.658Z" fill="#15BE77"/>
<path d="M175.426 212.989H95.3663L91.5 157.518H169.949L175.426 212.989Z" fill="#15BE77"/>
<path d="M172.699 212.989H92.6397L88.7734 157.518H167.23L172.699 212.989Z" fill="#BAFFD4"/>
<path opacity="0.27" d="M130.736 190.022C133.378 190.022 135.519 187.885 135.519 185.249C135.519 182.613 133.378 180.476 130.736 180.476C128.095 180.476 125.953 182.613 125.953 185.249C125.953 187.885 128.095 190.022 130.736 190.022Z" fill="#15BE77"/>
<path opacity="0.07" d="M89.4434 167.104L92.632 212.94H172.699L171.631 202.106C129.493 196.664 100.444 176.156 89.4434 167.104Z" fill="#9DF9C0"/>
<path d="M131.126 187.635C130.672 187.623 130.136 187.583 129.399 187.659C129.399 187.659 129.371 187.662 129.374 187.625C129.611 184.069 129.649 183.592 129.648 183.585C129.63 182.707 129.174 182.954 129.255 182.754C129.36 182.499 129.857 182.152 130.283 182.108C130.846 182.049 131.328 182.339 131.27 183.187C131.232 183.695 131.128 185.19 131.058 186.211C131.057 186.226 131.059 186.242 131.065 186.256C131.07 186.27 131.079 186.283 131.09 186.294C131.1 186.305 131.113 186.313 131.128 186.318C131.142 186.323 131.157 186.324 131.172 186.323C132.688 186.166 132.542 185.811 132.661 185.903C132.755 185.967 132.814 186.116 132.821 186.248C132.868 187.263 131.939 187.669 131.126 187.635Z" fill="#53C67E"/>
</g>
<defs>
<clipPath id="clip0_877_4083">
<rect width="324" height="218" fill="white"/>
</clipPath>
</defs>
</svg>
