<svg width="283" height="254" viewBox="0 0 283 254" fill="none" xmlns="http://www.w3.org/2000/svg">
    <defs>
        <linearGradient id="paint0_linear_824_2614" x1="13.2637" y1="45.2649" x2="70.547" y2="45.2649" gradientUnits="userSpaceOnUse">
            <stop stop-color="white"/>
            <stop offset="1" stop-color="#0DF976"/>
        </linearGradient>
    </defs>
<g opacity="0.2">
<path d="M26.5278 71.0549C41.1787 71.0549 53.0556 59.178 53.0556 44.5271C53.0556 29.8762 41.1787 17.9993 26.5278 17.9993C11.8769 17.9993 0 29.8762 0 44.5271C0 59.178 11.8769 71.0549 26.5278 71.0549Z" fill="#ADFFCC"/>
<path d="M26.5 54.9995C20.161 54.9995 15 49.8385 15 43.4995C15 37.1605 20.161 31.9995 26.5 31.9995C32.839 31.9995 38 37.1605 38 43.4995C38 49.8385 32.839 54.9995 26.5 54.9995ZM26.5 33.6824C21.081 33.6824 16.6829 38.0917 16.6829 43.4995C16.6829 48.9073 21.081 53.3166 26.5 53.3166C31.919 53.3166 36.3171 48.9073 36.3171 43.4995C36.3171 38.0917 31.919 33.6824 26.5 33.6824Z" fill="#15BE77"/>
<path d="M38.1445 55.9995C37.927 55.9995 37.7096 55.9195 37.5379 55.7479L35.2489 53.4606C34.917 53.1289 34.917 52.5799 35.2489 52.2483C35.5808 51.9166 36.1302 51.9166 36.4621 52.2483L38.7511 54.5356C39.083 54.8673 39.083 55.4162 38.7511 55.7479C38.5794 55.9195 38.3619 55.9995 38.1445 55.9995Z" fill="#15BE77"/>
<path d="M257.343 102.111C257.355 115.309 254.707 128.375 249.557 140.528C238.968 165.525 218.354 185.523 192.554 195.836C179.832 200.911 166.256 203.507 152.559 203.485C148.609 203.486 144.661 203.272 140.734 202.845C124.421 201.094 108.735 195.593 94.9015 186.771H94.8993C80.7879 177.758 69.0609 165.529 60.8378 151.165V151.163C52.967 137.46 48.5161 122.062 47.8623 106.273C47.8017 104.892 47.7721 103.504 47.7735 102.111C47.7664 92.5521 49.1537 83.0433 51.8917 73.8849C55.2402 62.7229 60.5223 52.2353 67.4975 42.8999C70.714 38.5821 74.2659 34.5245 78.1202 30.765C89.2935 19.8834 102.74 11.6142 117.493 6.55266C128.779 2.6857 140.628 0.720133 152.558 0.736181C170.462 0.736181 187.314 5.07866 202.055 12.738C217.977 21.0089 231.437 33.1458 241.086 47.8531C250.688 62.424 256.248 79.2837 257.197 96.7081C257.295 98.4973 257.343 100.298 257.343 102.111Z" fill="#C7FFE0"/>
<path d="M158.049 67.8425C141.631 67.8504 125.286 65.6521 109.453 61.3067C94.6305 57.2518 80.4015 51.2777 67.127 43.5361L67.8713 42.2637C81.035 49.9404 95.1452 55.8645 109.844 59.8854C131.523 65.8337 153.996 67.7018 176.642 65.4377C198.931 63.2118 220.644 57.0334 240.765 47.192L241.411 48.5173C221.134 58.4354 199.251 64.662 176.789 66.9054C170.526 67.5303 164.279 67.8426 158.049 67.8425Z" fill="white"/>
<path d="M152.559 204.222C148.582 204.222 144.608 204.007 140.654 203.578L139.959 203.503L139.998 202.804C140.831 188.023 145.095 172.634 152.328 158.301C159.627 143.838 169.591 131.185 181.143 121.709C191.069 113.565 203.23 106.833 216.309 102.24C230.127 97.3875 244.28 95.2207 257.239 95.9731L257.896 96.0112L257.933 96.6686C258.031 98.4616 258.08 100.293 258.08 102.111C258.099 115.409 255.431 128.574 250.235 140.816C244.927 153.346 237.2 164.585 227.273 174.218C217.363 183.838 205.66 191.415 192.827 196.521C180.02 201.637 166.35 204.252 152.559 204.222ZM141.512 202.187C145.182 202.561 148.869 202.748 152.559 202.748C166.163 202.778 179.647 200.199 192.281 195.152C204.934 190.118 216.475 182.646 226.247 173.16C236.032 163.665 243.648 152.589 248.879 140.241C253.997 128.181 256.626 115.212 256.607 102.111C256.607 100.542 256.569 98.9636 256.495 97.4093C243.91 96.7779 230.199 98.9251 216.798 103.631C203.879 108.167 191.872 114.813 182.077 122.849C170.683 132.194 160.851 144.684 153.644 158.965C146.615 172.893 142.427 187.821 141.512 202.187Z" fill="white"/>
<path d="M163.557 24.0742C158.838 24.0795 154.133 23.5819 149.52 22.5898C138.305 20.169 126.161 14.3896 117.034 7.12962L115.982 6.29285L117.253 5.85605C128.616 1.96112 140.547 -0.0179954 152.559 -0.000371609C169.946 -0.000371609 187.179 4.17853 202.394 12.0845L203.596 12.7092L202.419 13.3789C194.772 17.7268 186.314 20.9168 177.96 22.6042C173.22 23.5722 168.395 24.0646 163.557 24.0742ZM119.027 6.81427C127.851 13.5448 139.262 18.8681 149.831 21.1492C158.776 23.0802 168.142 23.0838 177.669 21.1596C185.651 19.511 193.343 16.6823 200.491 12.7665C185.788 5.37458 169.246 1.47417 152.559 1.47417C141.169 1.45795 129.849 3.26067 119.028 6.81427H119.027Z" fill="white"/>
<path d="M95.2247 187.508H94.6846L94.503 187.392C80.297 178.318 68.4349 165.917 60.1989 151.531L60.1014 151.358C52.2081 137.605 47.7568 122.148 47.1266 106.303C47.0671 104.937 47.0371 103.525 47.0371 102.109C47.0316 92.479 48.4293 82.8993 51.1863 73.6721L51.3496 73.1274L51.9175 73.1465C62.7292 73.5076 74.2265 76.4894 84.2916 81.5424C95.5061 87.1725 104.529 95.114 110.384 104.508C118.299 117.207 120.381 132.53 116.402 148.82C113.079 162.427 105.44 176.441 95.4438 187.27L95.2247 187.508ZM61.5754 150.968C69.5888 164.902 81.0571 176.937 94.7775 185.816C104.405 175.23 111.751 161.654 114.97 148.471C118.852 132.576 116.834 117.644 109.133 105.289C103.421 96.1248 94.6023 88.3687 83.6298 82.8607C73.9279 77.9901 62.8733 75.0802 52.4364 74.6421C49.8275 83.5648 48.5057 92.8142 48.5111 102.111C48.5111 103.505 48.5407 104.895 48.5994 106.241C49.2227 121.916 53.6421 137.206 61.4779 150.796L61.5754 150.968Z" fill="white"/>
<path d="M60.7 152.404L60.1989 151.53C52.2456 137.734 47.76 122.215 47.1273 106.304L47.0859 105.311L48.0481 105.56C55.7783 107.563 65.1127 114.032 68.5411 123.969C71.6637 133.015 68.9866 143.367 61.382 151.661L60.7 152.404ZM48.6465 107.259C49.3975 122.237 53.6171 136.836 60.9726 149.905C67.6865 142.153 69.9956 132.705 67.1473 124.45C65.6838 120.208 62.8956 116.263 59.084 113.04C55.9561 110.395 52.2841 108.366 48.6465 107.259Z" fill="white"/>
<path d="M146.325 112.087C145.296 112.095 144.268 112.011 143.254 111.834C141.117 111.439 139.636 110.611 138.852 109.37C137.949 107.94 137.945 105.871 138.844 103.386C141.194 96.8835 149.454 88.2672 159.207 85.1044C166.188 82.8408 177.629 82.3619 180.058 87.4171C182.497 92.4944 174.451 100.337 169.855 103.775C165.996 106.661 161.047 109.072 155.922 110.561C152.471 111.564 149.127 112.087 146.325 112.087ZM159.662 86.5065C150.338 89.5298 142.46 97.7179 140.23 103.887C139.503 105.899 139.456 107.566 140.098 108.583C140.645 109.449 141.829 110.072 143.521 110.384C149.321 111.456 160.701 108.781 168.972 102.594C171.768 100.502 174.544 97.7927 176.396 95.3454C178.024 93.1937 179.751 90.1825 178.729 88.0555C176.919 84.2878 166.993 84.1291 159.662 86.5065H159.662Z" fill="white"/>
<path d="M192.086 196.817L191.85 196.054C191.454 194.771 191.125 193.467 190.866 192.149C188.905 182.158 191.226 172.037 197.577 162.88C202.782 155.377 210.588 148.781 218.994 144.785C222.636 143.114 226.41 141.747 230.278 140.698C238.081 138.589 244.638 138.294 249.767 139.822L250.557 140.058L250.235 140.817C244.927 153.347 237.2 164.586 227.272 174.219C217.363 183.839 205.66 191.417 192.827 196.522L192.086 196.817ZM242.625 140.345C231.918 140.345 220.222 145.832 219.626 146.115C211.446 150.004 203.851 156.42 198.788 163.719C192.67 172.541 190.43 182.274 192.312 191.864C192.509 192.865 192.75 193.866 193.03 194.849C205.393 189.82 216.67 182.456 226.246 173.159C235.722 164.015 243.3 153.092 248.546 141.015C246.607 140.551 244.619 140.327 242.625 140.345Z" fill="white"/>
<path d="M95.2507 34.1631C89.8627 34.1631 83.633 33.1455 77.9128 31.4719L76.7031 31.1181L77.6047 30.2376C85.1008 22.9207 93.6453 16.7617 102.957 11.9634L103.48 11.6936L103.858 12.1437C109.127 18.3997 110.967 26.0867 108.138 30.0232C106.041 32.9416 101.151 34.1631 95.2507 34.1631ZM79.5551 30.4041C85.1018 31.9128 90.9268 32.7428 95.7388 32.6925C101.369 32.6348 105.348 31.3815 106.94 29.1634C109.282 25.9024 107.593 19.1268 103.104 13.5472C94.5067 18.0401 86.5801 23.7141 79.5551 30.4041Z" fill="white"/>
<path d="M184.999 232.971C184.647 234.505 186.056 235.868 188.257 237.401C190.459 238.935 187.553 240.297 186.408 242.938C185.664 244.656 187.877 248.181 189.514 250.434H192.324C192.339 250.573 192.354 250.703 192.367 250.823C192.44 250.695 192.509 250.566 192.575 250.434C192.753 250.082 192.911 249.72 193.05 249.351C193.381 248.454 193.627 247.528 193.786 246.586C194.271 243.807 194.106 241.045 193.838 239.839C193.805 239.659 193.749 239.484 193.672 239.318C193.1 238.253 194.861 237.401 195.125 236.039C195.388 234.676 193.54 233.739 194.244 231.013C194.948 228.287 195.652 218.058 188.257 218.577C182.181 219.003 185.527 226.329 186.408 228.458C187.288 230.587 185.352 231.439 184.999 232.971Z" fill="#A1F8CF"/>
<path d="M192.325 250.434C192.34 250.572 192.355 250.703 192.368 250.822C192.441 250.695 192.51 250.565 192.576 250.434H196.124C196.961 248.649 198.678 245.493 200.805 244.301C203.843 242.597 203.49 239.275 203.49 237.231C203.49 235.186 206.924 234.42 210.182 232.631C213.44 230.842 214.633 222.909 211.326 222.153C206.483 221.046 202.697 227.35 201.2 229.394C199.703 231.438 196.974 230.161 196.886 232.546C196.808 234.659 195.486 237.308 193.838 239.838C193.626 240.165 193.409 240.488 193.188 240.808C191.73 242.926 192.069 248.038 192.325 250.434Z" fill="#A1F8CF"/>
<path d="M188.151 226.303C188.164 226.321 189.367 228.349 190.299 232.716C191.063 236.298 191.776 242.151 191.161 250.435H191.407C192.022 242.124 191.303 236.249 190.534 232.651C189.594 228.253 188.375 226.204 188.363 226.184C188.346 226.157 188.319 226.137 188.288 226.129C188.257 226.121 188.223 226.125 188.195 226.141C188.182 226.149 188.17 226.159 188.16 226.171C188.15 226.184 188.143 226.198 188.139 226.213C188.135 226.228 188.134 226.244 188.136 226.259C188.138 226.275 188.143 226.29 188.151 226.303Z" fill="white"/>
<path d="M192.818 250.434H193.067C193.943 246.03 195.867 240.885 198.403 236.307C201.841 230.099 205.761 226.007 209.159 225.078C209.174 225.074 209.188 225.068 209.201 225.058C209.213 225.049 209.224 225.037 209.231 225.023C209.239 225.01 209.244 224.995 209.246 224.979C209.248 224.964 209.247 224.948 209.243 224.933C209.233 224.902 209.212 224.877 209.184 224.861C209.155 224.846 209.122 224.843 209.091 224.851C205.632 225.797 201.657 229.931 198.187 236.196C196.362 239.497 194.888 242.979 193.787 246.586C193.504 247.526 193.257 248.45 193.051 249.351C192.967 249.716 192.889 250.077 192.818 250.434Z" fill="white"/>
<path d="M192.324 250.434C192.339 250.573 192.354 250.703 192.367 250.822C192.44 250.695 192.509 250.566 192.575 250.434H192.324Z" fill="#EEEDFF"/>
<path d="M221.395 221.434C220.817 223.948 223.127 226.182 226.736 228.696C230.345 231.21 225.581 233.444 223.704 237.773C222.483 240.59 226.112 246.368 228.796 250.063H233.403C233.428 250.29 233.452 250.503 233.474 250.698C233.592 250.491 233.706 250.277 233.814 250.063C234.105 249.485 234.365 248.892 234.592 248.286C235.135 246.816 235.539 245.299 235.799 243.753C236.595 239.196 236.325 234.67 235.886 232.692C235.83 232.397 235.739 232.11 235.613 231.838C234.675 230.093 237.562 228.696 237.995 226.461C238.428 224.227 235.397 222.691 236.551 218.222C237.706 213.753 238.859 196.983 226.735 197.832C216.775 198.531 222.261 210.541 223.704 214.032C225.147 217.524 221.972 218.921 221.395 221.434Z" fill="#15BE77"/>
<path d="M233.405 250.063C233.429 250.29 233.453 250.503 233.475 250.699C233.593 250.491 233.707 250.278 233.816 250.063H239.632C241.005 247.136 243.82 241.963 247.307 240.008C252.287 237.215 251.709 231.769 251.709 228.417C251.709 225.065 257.339 223.808 262.68 220.876C268.021 217.943 269.978 204.938 264.557 203.698C256.617 201.883 250.41 212.217 247.956 215.569C245.502 218.92 241.027 216.826 240.883 220.736C240.755 224.2 238.587 228.543 235.887 232.692C235.538 233.227 235.182 233.758 234.82 234.282C232.428 237.754 232.984 246.135 233.405 250.063Z" fill="#15BE77"/>
<path d="M226.561 210.5C226.581 210.531 228.554 213.854 230.081 221.013C231.334 226.886 232.503 236.481 231.495 250.063H231.898C232.906 236.437 231.727 226.805 230.466 220.906C228.927 213.696 226.928 210.337 226.908 210.304C226.88 210.259 226.836 210.226 226.785 210.213C226.733 210.2 226.679 210.208 226.633 210.234C226.611 210.246 226.591 210.263 226.574 210.283C226.558 210.303 226.547 210.327 226.54 210.351C226.533 210.376 226.531 210.402 226.535 210.428C226.539 210.454 226.547 210.478 226.561 210.5Z" fill="white"/>
<path d="M234.211 250.063H234.618C236.055 242.842 239.209 234.408 243.367 226.902C249.003 216.725 255.431 210.015 261 208.493C261.025 208.487 261.049 208.475 261.069 208.46C261.09 208.444 261.107 208.425 261.12 208.403C261.133 208.381 261.141 208.356 261.144 208.331C261.147 208.305 261.146 208.279 261.139 208.254C261.123 208.204 261.088 208.162 261.042 208.137C260.995 208.112 260.941 208.106 260.89 208.12C255.218 209.67 248.702 216.449 243.012 226.72C240.022 232.131 237.604 237.84 235.799 243.754C235.336 245.296 234.931 246.81 234.592 248.287C234.455 248.886 234.327 249.478 234.211 250.063Z" fill="white"/>
<path d="M233.404 250.063C233.428 250.29 233.452 250.504 233.475 250.699C233.593 250.491 233.707 250.278 233.815 250.063H233.404Z" fill="#EEEDFF"/>
<path d="M224.303 234.028L221.477 235.615C221.024 235.871 220.488 235.942 219.984 235.812C219.479 235.683 219.044 235.363 218.77 234.92L215.016 228.667L221.267 225.154L225.021 231.408C225.151 231.626 225.236 231.867 225.27 232.119C225.304 232.37 225.287 232.626 225.22 232.871C225.153 233.115 225.037 233.344 224.88 233.543C224.722 233.742 224.526 233.906 224.303 234.028Z" fill="#FFDD86"/>
<path d="M168.779 246.494L165.514 246.392C165.258 246.388 165.006 246.334 164.771 246.233C164.536 246.131 164.324 245.985 164.146 245.801C163.968 245.617 163.828 245.4 163.734 245.163C163.64 244.925 163.594 244.671 163.598 244.415L163.839 237.187L171.065 237.413L170.824 244.641C170.797 245.157 170.568 245.642 170.184 245.99C169.801 246.337 169.296 246.519 168.779 246.494Z" fill="#FFDD86"/>
<path d="M165.521 188.061C160.226 187.896 155.977 183.761 155.856 178.637C155.342 156.939 155.538 134.736 156.606 118.479L178.455 119.162C177.146 137.677 176.257 159.241 175.831 178.605C175.713 183.985 171.08 188.235 165.521 188.061Z" fill="#15BE77"/>
<path d="M166.134 169.439C160.407 169.26 155.706 173.783 155.863 179.324C156.394 198.027 157.128 225.36 157.584 237.356L174.492 237.884C174.276 224.227 175.413 196.277 175.764 179.252C175.872 173.982 171.58 169.609 166.134 169.439Z" fill="#15BE77"/>
<path d="M201.103 182.452C195.896 183.399 190.824 180.251 189.559 175.274C184.204 154.199 179.431 132.48 176.838 116.385L198.323 112.478C201.185 130.828 205.139 152.068 209.054 171.063C210.142 176.339 206.569 181.458 201.103 182.452Z" fill="#15BE77"/>
<path d="M196.527 166.111C191.063 167.777 188.174 173.55 190.219 178.729C197.12 196.207 207.167 221.763 211.703 232.935L227.838 228.018C222.96 215.201 214.468 188.463 208.972 172.286C207.271 167.278 201.724 164.528 196.527 166.111Z" fill="#15BE77"/>
<path d="M166.93 140.373L185.832 140.133L180.436 121.686L171.469 120.159L166.93 140.373Z" fill="#15BE77"/>
<path d="M178.792 131.814L173.439 131.213L175.371 119.215L175.786 119.282L173.925 130.844L178.839 131.396L178.792 131.814Z" fill="#251138"/>
<path d="M156.01 137.145L155.746 136.816L158.147 134.889L159.537 118.54L159.957 118.575L158.551 135.105L156.01 137.145Z" fill="#251138"/>
<path d="M202.574 138.364L198.925 137.107L198.899 136.991L195.178 119.842L195.589 119.753L199.286 136.786L202.711 137.966L202.574 138.364Z" fill="#251138"/>
<path d="M157.584 237.357L157.211 232.087L173.961 231.988L174.492 237.885L157.584 237.357Z" fill="#251138"/>
<path d="M209.355 227.01L211.705 232.935L227.839 228.018L225.428 222.084L209.355 227.01Z" fill="#251138"/>
<path d="M163.915 242.731L146.616 245.515C146.081 245.594 145.589 245.856 145.226 246.258C144.863 246.659 144.65 247.174 144.625 247.715C144.62 248.023 144.676 248.328 144.789 248.615C144.902 248.901 145.071 249.162 145.285 249.383C145.499 249.604 145.755 249.78 146.037 249.902C146.32 250.024 146.623 250.089 146.931 250.093L171.37 250.857L171.139 243.041L163.915 242.731Z" fill="#251138"/>
<path d="M218.116 233.33L204.969 244.558C204.558 244.903 204.284 245.383 204.195 245.913C204.106 246.442 204.209 246.985 204.486 247.445C204.816 247.978 205.339 248.362 205.947 248.518C206.554 248.674 207.198 248.588 207.744 248.28L228.888 236.4L224.411 229.89L218.116 233.33Z" fill="#251138"/>
<path d="M96.0819 76.786C96.8457 75.081 100.374 75.5422 103.297 76.2074C102.633 74.7615 102.351 73.1936 102.941 72.7409C103.789 72.0887 106.116 73.9836 107.418 75.5694C107.65 75.8501 107.858 76.1487 108.042 76.4624C108.579 76.7008 109.062 77.0447 109.464 77.4738C109.865 77.9028 110.175 78.4082 110.377 78.9598C111.194 81.2218 109.96 83.6956 107.622 84.4853C107.356 84.5744 107.083 84.6391 106.805 84.6785C105.545 85.0477 104.206 85.0567 102.941 84.7044C99.9122 83.8982 94.3474 80.6582 96.0819 76.786Z" fill="#FB855F"/>
<path d="M107.938 76.2656L105.131 85.1917L109.021 87.0366L140.703 102.051C141.092 102.228 141.494 102.376 141.905 102.493C146.398 103.809 151.294 101.39 152.709 96.8985C153.966 92.8959 151.986 88.6903 148.227 86.9133C147.807 86.7154 147.373 86.5501 146.928 86.4189L144.118 85.6882L143.399 85.5023L141.72 85.0615L112.022 77.3308L107.938 76.2656Z" fill="#53E88B"/>
<path d="M140.857 101.838L140.9 101.87C141.218 102.103 141.554 102.312 141.904 102.493C143.442 103.303 145.194 103.61 146.915 103.372C148.636 103.135 150.239 102.364 151.5 101.168L172.989 80.5398C177.461 76.2457 176.954 69.1135 171.921 65.452C167.361 62.1344 160.885 63.0192 157.451 67.4283L144.224 84.4386L143.399 85.501L142.323 86.8837L139.249 90.8366C138.61 91.6558 138.143 92.596 137.877 93.6005C137.611 94.605 137.552 95.653 137.702 96.6812C137.852 97.7094 138.209 98.6965 138.752 99.5829C139.294 100.469 140.01 101.237 140.857 101.838Z" fill="#53E88B"/>
<path d="M142.954 84.2221L142.58 84.4155L144.539 88.2052L144.913 88.0118L142.954 84.2221Z" fill="#251138"/>
<path d="M156.518 118.352C163.596 130.195 180.92 118.807 199.171 118.352V64.8457C190.357 58.3973 173.435 58.3307 161.099 64.8457L156.518 118.352Z" fill="#53E88B"/>
<path d="M187.968 81.3707L205.234 93.8632L206.028 94.4364L206.837 95.025L212.217 98.9145C215.809 101.514 220.898 100.803 223.58 97.3279L223.612 97.2871C224.778 95.7875 225.347 93.9083 225.207 92.0135C225.067 90.1187 224.229 88.3432 222.855 87.031L201.473 66.3041C197.024 61.9897 189.655 62.4964 185.884 67.3786C182.466 71.8005 183.397 78.0646 187.968 81.3707Z" fill="#53E88B"/>
<path d="M188.965 135.113C187.391 134.047 188.566 130.795 189.826 128.158C188.229 128.498 186.586 128.451 186.245 127.8C185.754 126.866 188.14 125.041 190.007 124.124C190.339 123.961 190.683 123.823 191.036 123.712C191.399 123.244 191.85 122.851 192.364 122.557C192.879 122.264 193.446 122.074 194.034 122C196.488 121.68 198.746 123.346 199.076 125.72C199.113 125.989 199.124 126.262 199.108 126.533C199.229 127.803 198.968 129.08 198.359 130.201C196.935 132.909 192.538 137.534 188.965 135.113Z" fill="#FFCB7C"/>
<path d="M190.818 123.771L199.293 128.224L202.076 124.733L223.5 97.8909C224.64 96.4347 225.249 94.6327 225.225 92.7833C225.204 91.269 224.77 89.789 223.972 88.5023C223.173 87.2156 222.039 86.1708 220.691 85.4801C219.415 84.8086 217.996 84.4574 216.554 84.4567C215.006 84.4462 213.483 84.8479 212.142 85.6204C210.8 86.393 209.689 87.5086 208.921 88.8528L206.308 93.8939L206.027 94.4363L205.535 95.3882L193.125 119.319L190.818 123.771Z" fill="#53E88B"/>
<path d="M190.816 123.772L199.291 128.224L202.073 124.734C199.852 123.352 193.498 119.427 193.123 119.319L190.816 123.772Z" fill="#FFAA40"/>
<path d="M196.181 86.0617L195.889 86.3643L199.806 90.1539L200.099 89.8513L196.181 86.0617Z" fill="#251138"/>
<path d="M209.745 93.583H205.828V94.004H209.745V93.583Z" fill="#251138"/>
<path d="M190.398 42.1716C194.858 48.536 194.402 52.573 190.859 55.1482C182.033 59.6993 172.586 59.8921 165.434 56.5026C164.405 56.019 163.531 55.2567 162.913 54.302C159.893 49.5941 161.493 44.3235 166.26 37.9065C166.578 37.4714 166.922 37.0556 167.29 36.6612C173.847 29.7384 183.68 30.8464 190.115 41.7332C190.202 41.8808 190.299 42.0309 190.398 42.1716Z" fill="#8E3332"/>
<path d="M172.233 61.6737C172.391 64.2132 173.274 67.1341 176.529 66.9816C182.237 66.7148 183.616 60.911 183.616 60.911C183.616 60.911 180.852 50.6669 180.718 50.583L172.414 52.522V58.051C172.227 59.2489 172.167 60.4631 172.233 61.6737Z" fill="#FFCB7C"/>
<path d="M172.168 60.9213C180.374 59.2741 180.718 54.7177 180.718 54.7177L173.36 52.521H172.414V58.0501C172.414 58.0501 172.05 58.9996 172.168 60.9213Z" fill="#D16B70"/>
<path d="M168.629 53.119C168.889 54.0258 169.384 54.8481 170.063 55.5033C170.833 56.2454 171.782 56.7745 172.818 57.0388C181.991 59.4231 184.456 47.7876 184.456 47.7876L184.421 46.5285L184.258 40.7155C182.897 40.3524 178.668 39.924 174.922 39.6569C174.863 39.6522 174.804 39.6473 174.74 39.6473C171.921 39.4476 169.407 39.3421 168.667 39.4327C168.495 40.6345 168.352 41.736 168.239 42.7518C167.716 47.5541 167.87 50.458 168.629 53.119Z" fill="#FFCB7C"/>
<path d="M183.372 52.3593C184.719 52.3593 185.81 50.9995 185.81 49.322C185.81 47.6445 184.719 46.2847 183.372 46.2847C182.025 46.2847 180.934 47.6445 180.934 49.322C180.934 50.9995 182.025 52.3593 183.372 52.3593Z" fill="#FFCB7C"/>
<path d="M185.037 48.8534C185.07 48.8698 183.322 47.0652 182.008 49.0918C182.007 49.0918 183.917 48.297 185.037 48.8534Z" fill="#D16B70"/>
<path d="M174.741 39.6476C171.922 39.4479 168.514 38.4293 167.776 38.5198C167.603 39.7215 168.353 41.7364 168.24 42.7521C168.607 43.1947 169.067 43.5502 169.588 43.7926C170.11 44.0351 170.678 44.1585 171.253 44.1539C171.828 44.1494 172.394 44.0169 172.912 43.7662C173.429 43.5155 173.884 43.1528 174.243 42.7044C174.748 42.0718 175.023 41.2866 175.022 40.4775C175.022 40.2011 174.989 39.9258 174.924 39.6573L174.741 39.6476Z" fill="#8E3332"/>
<path d="M174.925 39.6571C178.671 39.9241 183.516 40.2251 184.876 40.5875L184.422 46.5287C183.28 47.3922 181.886 47.8564 180.454 47.8497C177.245 47.8497 174.603 45.6037 174.244 42.7042C174.214 42.4781 174.199 42.2503 174.199 42.0223C174.198 41.1999 174.384 40.388 174.741 39.6475L174.925 39.6571Z" fill="#8E3332"/>
<path d="M158.648 90.0049H158.227V95.6894H158.648V90.0049Z" fill="#251138"/>
<path d="M197.807 108.858L195.85 112.648L196.224 112.842L198.181 109.052L197.807 108.858Z" fill="#251138"/>
<path d="M75.479 216.05C76.2027 219.201 73.3081 222.002 68.7851 225.152C64.2622 228.302 70.2325 231.103 72.5844 236.529C74.1147 240.059 69.5667 247.3 66.2021 251.931H60.4288C60.3987 252.216 60.3683 252.483 60.3407 252.729C60.1926 252.468 60.0493 252.202 59.9136 251.931C59.5489 251.207 59.2234 250.464 58.9386 249.704C58.2583 247.862 57.7519 245.96 57.426 244.023C56.4285 238.313 56.7677 232.639 57.3179 230.16C57.3873 229.79 57.502 229.431 57.6596 229.09C58.8357 226.902 55.2172 225.152 54.6746 222.352C54.1319 219.551 57.931 217.626 56.4837 212.025C55.0364 206.424 53.5916 185.406 68.7861 186.471C81.2694 187.346 74.3945 202.398 72.5853 206.774C70.7762 211.15 74.7554 212.9 75.479 216.05Z" fill="#15BE77"/>
<path d="M60.4287 251.931C60.3986 252.216 60.3683 252.483 60.3407 252.729C60.1925 252.469 60.0493 252.202 59.9135 251.931H52.6241C50.9028 248.264 47.3749 241.78 43.0052 239.329C36.7637 235.829 37.4874 229.003 37.4874 224.802C37.4874 220.601 30.4315 219.026 23.7376 215.351C17.0437 211.675 14.5913 195.375 21.3867 193.822C31.3371 191.547 39.1164 204.499 42.1923 208.7C45.2681 212.9 50.8763 210.275 51.0571 215.175C51.218 219.517 53.9343 224.96 57.3189 230.16C57.7561 230.831 58.2017 231.495 58.6557 232.153C61.6524 236.505 60.9563 247.009 60.4287 251.931Z" fill="#15BE77"/>
<path d="M69.0043 202.347C68.9793 202.386 66.5068 206.55 64.5927 215.523C63.0223 222.884 61.5574 234.909 62.8213 251.931H62.3162C61.0523 234.854 62.5297 222.782 64.1103 215.389C66.0402 206.353 68.5454 202.143 68.5704 202.102C68.6053 202.045 68.6608 202.004 68.7252 201.988C68.7896 201.971 68.8578 201.981 68.9154 202.014C68.9436 202.03 68.9684 202.051 68.9883 202.076C69.0082 202.101 69.0227 202.13 69.031 202.162C69.0394 202.193 69.0413 202.225 69.0367 202.257C69.0321 202.289 69.0211 202.32 69.0043 202.347Z" fill="white"/>
<path d="M59.4157 251.931H58.9056C57.104 242.88 53.1515 232.311 47.94 222.903C40.8766 210.148 32.8209 201.739 25.8405 199.831C25.8093 199.823 25.7799 199.809 25.7542 199.79C25.7285 199.77 25.7069 199.746 25.6908 199.718C25.6746 199.69 25.6642 199.659 25.6601 199.627C25.6561 199.595 25.6585 199.563 25.6671 199.532C25.6871 199.469 25.7308 199.416 25.7889 199.385C25.8471 199.354 25.9151 199.346 25.9787 199.364C33.0872 201.307 41.2535 209.803 48.3848 222.675C52.1335 229.457 55.1637 236.612 57.4259 244.024C58.0069 245.956 58.514 247.854 58.9386 249.705C59.1091 250.455 59.2699 251.197 59.4157 251.931Z" fill="white"/>
<path d="M60.4293 251.931C60.3992 252.216 60.3688 252.483 60.3413 252.729C60.1931 252.468 60.0499 252.202 59.9141 251.931H60.4293Z" fill="#EEEDFF"/>
<path d="M104.098 233.899C103.725 235.522 105.216 236.965 107.546 238.587C109.875 240.21 106.801 241.653 105.589 244.447C104.801 246.265 107.143 249.995 108.877 252.381H111.851C111.866 252.527 111.882 252.665 111.896 252.791C111.972 252.657 112.046 252.519 112.116 252.381C112.304 252.008 112.471 251.625 112.618 251.234C112.969 250.285 113.229 249.305 113.397 248.308C113.911 245.367 113.736 242.444 113.453 241.167C113.417 240.977 113.358 240.792 113.277 240.616C112.671 239.489 114.535 238.588 114.814 237.145C115.094 235.703 113.137 234.711 113.883 231.826C114.628 228.941 115.371 218.116 107.546 218.664C101.117 219.114 104.658 226.867 105.59 229.121C106.522 231.374 104.471 232.277 104.098 233.899Z" fill="#A1F8CF"/>
<path d="M111.85 252.381C111.866 252.527 111.881 252.665 111.896 252.791C111.972 252.657 112.046 252.519 112.116 252.381H115.87C116.757 250.491 118.574 247.152 120.824 245.89C124.039 244.087 123.667 240.57 123.667 238.407C123.667 236.244 127.301 235.432 130.749 233.539C134.196 231.646 135.459 223.251 131.96 222.45C126.835 221.279 122.828 227.95 121.244 230.113C119.66 232.277 116.771 230.925 116.678 233.449C116.595 235.685 115.196 238.489 113.453 241.167C113.227 241.512 112.998 241.854 112.764 242.193C111.22 244.435 111.579 249.846 111.85 252.381Z" fill="#A1F8CF"/>
<path d="M107.434 226.842C107.447 226.862 108.72 229.007 109.707 233.629C110.516 237.42 111.27 243.614 110.619 252.381H110.879C111.53 243.585 110.769 237.367 109.955 233.56C108.961 228.906 107.671 226.737 107.658 226.715C107.64 226.686 107.611 226.665 107.578 226.657C107.545 226.648 107.51 226.653 107.481 226.67C107.466 226.678 107.453 226.689 107.443 226.702C107.432 226.715 107.425 226.73 107.42 226.746C107.416 226.762 107.415 226.779 107.417 226.796C107.42 226.812 107.425 226.828 107.434 226.842Z" fill="white"/>
<path d="M112.371 252.38H112.634C113.562 247.718 115.597 242.274 118.282 237.428C121.92 230.859 126.069 226.527 129.665 225.545C129.681 225.541 129.696 225.533 129.709 225.523C129.722 225.513 129.734 225.501 129.742 225.486C129.75 225.472 129.756 225.456 129.758 225.44C129.76 225.423 129.759 225.407 129.754 225.391C129.744 225.358 129.721 225.331 129.691 225.315C129.661 225.299 129.626 225.295 129.594 225.304C125.932 226.305 121.726 230.681 118.053 237.311C116.122 240.804 114.562 244.489 113.396 248.306C113.097 249.302 112.836 250.28 112.617 251.233C112.529 251.62 112.446 252.002 112.371 252.38Z" fill="white"/>
<path d="M111.85 252.379C111.865 252.526 111.881 252.664 111.895 252.79C111.971 252.656 112.045 252.518 112.115 252.379H111.85Z" fill="#EEEDFF"/>
<path style="mix-blend-mode:multiply" opacity="0.19" d="M70.547 40.5278L29.6303 17.7898L13.2637 72.7401H60.3178L70.547 40.5278Z" fill="url(#paint0_linear_824_2614)"/>
<path d="M153.268 249.882L155.844 249.235C155.969 249.209 156.087 249.158 156.192 249.084C156.296 249.011 156.385 248.918 156.452 248.809C156.519 248.701 156.563 248.58 156.582 248.453C156.601 248.327 156.594 248.198 156.562 248.075L112.923 99.0356C112.839 98.7857 112.662 98.5776 112.429 98.4539C112.196 98.3303 111.925 98.3005 111.671 98.3707L109.095 99.0178C108.97 99.0437 108.851 99.0948 108.747 99.168C108.642 99.2412 108.554 99.3349 108.486 99.4434C108.419 99.5519 108.375 99.6729 108.356 99.7992C108.337 99.9254 108.344 100.054 108.377 100.178L152.015 249.217C152.099 249.467 152.276 249.675 152.509 249.799C152.742 249.922 153.013 249.952 153.268 249.882Z" fill="#251138"/>
<path d="M77.0552 59.971C79.5418 50.6712 77.1723 41.9597 71.7628 40.5132C66.3532 39.0667 59.952 45.4332 57.4654 54.733C54.9787 64.0328 57.3482 72.7444 62.7578 74.1908C68.1673 75.6373 74.5685 69.2709 77.0552 59.971Z" fill="#FFAA40"/>
<path d="M85.3367 47.8928L71.1844 40.7915L63.8398 73.8322L78.4715 77.9556L85.3367 47.8928Z" fill="#FFAA40"/>
<path d="M90.3888 65.4017C92.6726 57.1128 90.1483 49.1878 84.7506 47.7007C79.3529 46.2135 73.1259 51.7273 70.8421 60.0161C68.5584 68.305 71.0827 76.23 76.4804 77.7172C81.8781 79.2044 88.1051 73.6905 90.3888 65.4017Z" fill="#DB8631"/>
<path d="M106.334 59.6511L87.7547 49.8179L78.7305 78.3342L100.495 84.7258L106.334 59.6511Z" fill="#FFAA40"/>
<path d="M110.455 73.8818C112.276 67.0285 110.615 60.6387 106.745 59.6098C102.874 58.5808 98.2593 63.3023 96.4374 70.1555C94.6156 77.0088 96.2765 83.3986 100.147 84.4276C104.018 85.4566 108.633 80.7351 110.455 73.8818Z" fill="#FFAA40"/>
<path d="M104.455 106.386H112.935C114.505 106.386 115.777 105.114 115.777 103.544V78.1315C115.777 76.5618 114.505 75.2892 112.935 75.2892H104.455C102.885 75.2892 101.613 76.5618 101.613 78.1315V103.544C101.613 105.114 102.885 106.386 104.455 106.386Z" fill="#251138"/>
<path d="M117.875 65.0867L107.383 59.7417L101.43 71.4032L101.088 84.5223L112.105 87.4376L117.875 65.0867Z" fill="#FFAA40"/>
<path d="M122.533 78.5021C124.274 72.3059 122.24 66.3146 117.99 65.12C113.74 63.9255 108.883 67.9802 107.141 74.1763C105.4 80.3725 107.434 86.3639 111.684 87.5584C115.934 88.7529 120.791 84.6982 122.533 78.5021Z" fill="#DB8631"/>
<path d="M122.464 78.7991C124.035 72.9887 122.429 67.4994 118.876 66.5384C115.323 65.5774 111.169 69.5087 109.598 75.3191C108.026 81.1296 109.632 86.6189 113.185 87.5799C116.738 88.5408 120.892 84.6096 122.464 78.7991Z" fill="#FFAA40"/>
<path d="M141.482 77.7184L119.448 66.543L113.678 87.9222L137.81 95.6965L141.482 77.7184Z" fill="#FFAA40"/>
<path d="M144.066 87.0495C144.598 82.7845 142.933 79.0659 140.349 78.7435C137.764 78.4212 135.237 81.6173 134.705 85.8822C134.173 90.1471 135.838 93.8658 138.423 94.1881C141.008 94.5105 143.534 91.3144 144.066 87.0495Z" fill="#8E3332"/>
<path d="M90.6485 65.7574C92.7714 57.7925 90.796 50.3506 86.2364 49.1353C81.6768 47.92 76.2596 53.3917 74.1368 61.3566C72.0139 69.3215 73.9892 76.7635 78.5488 77.9787C83.1084 79.194 88.5256 73.7223 90.6485 65.7574Z" fill="#FFAA40"/>
<path d="M60.7865 250.412L63.3658 251.048C63.6202 251.117 63.8913 251.086 64.1236 250.961C64.3558 250.836 64.5315 250.628 64.6145 250.377L107.87 99.9199C107.902 99.7963 107.909 99.6675 107.889 99.5413C107.87 99.4152 107.825 99.2943 107.757 99.1861C107.689 99.0779 107.6 98.9846 107.496 98.9119C107.391 98.8392 107.272 98.7886 107.147 98.7632L104.568 98.1278C104.313 98.0588 104.042 98.0898 103.81 98.2144C103.578 98.3391 103.402 98.5479 103.319 98.7981L60.0629 249.256C60.0311 249.38 60.0248 249.508 60.0443 249.635C60.0638 249.761 60.1088 249.881 60.1765 249.99C60.2442 250.098 60.3332 250.191 60.4381 250.264C60.5429 250.336 60.6615 250.387 60.7865 250.412Z" fill="#251138"/>
<path d="M95.7822 253.373L98.4483 253.493C98.7087 253.514 98.9669 253.432 99.167 253.263C99.367 253.095 99.4929 252.855 99.5172 252.595L107.841 94.5217C107.843 94.3929 107.819 94.2651 107.772 94.1455C107.724 94.0259 107.653 93.9169 107.563 93.8249C107.473 93.7329 107.365 93.6596 107.247 93.6093C107.128 93.559 107.001 93.5326 106.872 93.5317L104.206 93.4114C103.945 93.3905 103.687 93.4731 103.487 93.6411C103.287 93.8092 103.161 94.0492 103.137 94.3093L94.8126 252.384C94.811 252.513 94.8348 252.641 94.8827 252.76C94.9307 252.88 95.0017 252.988 95.0919 253.08C95.182 253.172 95.2894 253.245 95.4078 253.295C95.5263 253.346 95.6536 253.372 95.7822 253.373Z" fill="#251138"/>
<path d="M137.862 95.7053C141.174 96.2628 144.651 92.675 145.629 87.6919C146.606 82.7087 144.715 78.217 141.403 77.6596C138.091 77.1023 134.614 80.69 133.636 85.6732C132.659 90.6564 134.551 95.1479 137.862 95.7053ZM135.883 85.9742C136.533 82.4787 138.842 79.9618 141.042 80.3529C143.242 80.744 144.499 83.8947 143.849 87.3903C143.2 90.8858 140.89 93.4027 138.69 93.0116C136.49 92.6206 135.233 89.4701 135.882 85.9744L135.883 85.9742Z" fill="#FEB701"/>
<path d="M251.099 160.325H257.402C260.571 160.325 262.553 163.645 260.968 166.301L257.817 171.581L254.666 176.861C253.081 179.516 249.118 179.516 247.533 176.861L244.383 171.581L241.232 166.301C239.647 163.645 241.628 160.325 244.798 160.325H251.099Z" fill="#C7FFE0"/>
<path d="M138.197 55.4765C137.663 55.4825 137.138 55.3487 136.673 55.0884C136.207 54.8281 135.818 54.4505 135.544 53.993L131.176 46.6733C130.909 46.2339 130.766 45.7311 130.76 45.2172C130.754 44.7034 130.886 44.1975 131.143 43.7522C131.412 43.2788 131.803 42.8861 132.275 42.6153C132.748 42.3445 133.284 42.2055 133.829 42.2127H142.565C143.109 42.2055 143.646 42.3446 144.118 42.6154C144.591 42.8862 144.982 43.2788 145.251 43.7522C145.507 44.1975 145.639 44.7035 145.634 45.2173C145.628 45.7311 145.484 46.2339 145.218 46.6733L140.849 53.9932C140.575 54.4506 140.186 54.8282 139.721 55.0885C139.255 55.3487 138.73 55.4825 138.197 55.4765ZM133.828 42.6337C133.358 42.6271 132.895 42.7468 132.487 42.9802C132.079 43.2136 131.741 43.5523 131.509 43.9608C131.29 44.3415 131.177 44.7741 131.182 45.2134C131.187 45.6527 131.309 46.0827 131.537 46.4584L135.905 53.7781C136.147 54.1688 136.484 54.4914 136.885 54.7151C137.286 54.9388 137.737 55.0562 138.197 55.0562C138.656 55.0562 139.107 54.9388 139.508 54.7151C139.91 54.4914 140.247 54.1688 140.488 53.7781L144.856 46.4582C145.084 46.0826 145.207 45.6527 145.212 45.2135C145.217 44.7742 145.104 44.3416 144.884 43.961C144.652 43.5526 144.314 43.214 143.906 42.9807C143.498 42.7474 143.035 42.6278 142.565 42.6344L133.828 42.6337Z" fill="#EBEDFC"/>
<path d="M263.119 109.739C262.788 109.741 262.461 109.666 262.164 109.52C261.866 109.375 261.607 109.162 261.405 108.899C261.183 108.615 261.04 108.277 260.993 107.919C260.945 107.562 260.993 107.198 261.133 106.866L263.354 101.528C263.497 101.186 263.727 100.887 264.022 100.662C264.317 100.436 264.666 100.292 265.033 100.243C265.407 100.186 265.789 100.227 266.142 100.363C266.494 100.5 266.805 100.726 267.043 101.019L270.711 105.548C270.942 105.828 271.093 106.166 271.149 106.525C271.205 106.884 271.163 107.251 271.028 107.589C270.888 107.942 270.655 108.251 270.355 108.483C270.054 108.716 269.696 108.863 269.319 108.909L263.431 109.718C263.328 109.732 263.224 109.739 263.119 109.739ZM265.359 100.641C265.271 100.641 265.182 100.648 265.094 100.66C264.799 100.699 264.519 100.814 264.281 100.995C264.044 101.176 263.859 101.415 263.743 101.69L261.523 107.028C261.411 107.292 261.373 107.581 261.411 107.864C261.449 108.148 261.562 108.417 261.739 108.642C261.928 108.888 262.18 109.079 262.467 109.194C262.755 109.31 263.068 109.347 263.375 109.301L269.263 108.493C269.566 108.456 269.853 108.338 270.095 108.152C270.337 107.966 270.524 107.718 270.637 107.434C270.745 107.166 270.778 106.874 270.733 106.589C270.689 106.304 270.568 106.036 270.384 105.814L266.717 101.285C266.554 101.082 266.347 100.92 266.112 100.808C265.877 100.697 265.619 100.64 265.359 100.641V100.641Z" fill="#EBEDFC"/>
<path d="M229.594 19.629C229.262 19.6309 228.935 19.556 228.638 19.4103C228.341 19.2645 228.081 19.0519 227.88 18.789C227.658 18.5051 227.515 18.1669 227.467 17.8094C227.419 17.4519 227.468 17.0881 227.608 16.7557L229.828 11.4181C229.972 11.0759 230.202 10.7772 230.497 10.5518C230.792 10.3264 231.14 10.1821 231.508 10.1333C231.882 10.0755 232.264 10.1168 232.617 10.2529C232.969 10.389 233.28 10.6153 233.518 10.9091L237.185 15.438C237.417 15.7183 237.568 16.0557 237.624 16.4147C237.68 16.7738 237.638 17.1413 237.503 17.4786C237.363 17.8319 237.13 18.141 236.829 18.3734C236.529 18.6058 236.171 18.753 235.794 18.7994L229.906 19.6076C229.802 19.6218 229.698 19.629 229.594 19.629ZM231.834 10.5311C231.745 10.5311 231.657 10.5374 231.569 10.5501C231.273 10.5888 230.993 10.7042 230.756 10.8849C230.519 11.0655 230.333 11.3051 230.217 11.5799L227.997 16.9174C227.886 17.1816 227.847 17.4707 227.885 17.7548C227.923 18.0389 228.037 18.3077 228.214 18.5332C228.403 18.7787 228.654 18.9692 228.942 19.085C229.23 19.2007 229.543 19.2375 229.85 19.1915L235.737 18.3833C236.04 18.3464 236.328 18.2287 236.57 18.0425C236.812 17.8562 236.999 17.6082 237.112 17.3246C237.219 17.0567 237.252 16.7648 237.208 16.4796C237.163 16.1944 237.043 15.9264 236.859 15.7039L233.192 11.1752C233.028 10.9728 232.821 10.8098 232.586 10.6983C232.351 10.5868 232.094 10.5297 231.834 10.5311Z" fill="#FFF0E3"/>
<path d="M117.314 204.328H120.86C122.643 204.328 123.758 206.196 122.866 207.69L121.094 210.661L119.321 213.631C119.11 213.974 118.815 214.256 118.464 214.452C118.112 214.648 117.717 214.751 117.315 214.751C116.912 214.751 116.517 214.648 116.166 214.452C115.815 214.256 115.52 213.974 115.309 213.631L113.536 210.661L111.763 207.69C110.871 206.196 111.986 204.328 113.77 204.328H117.314Z" fill="#C7FFE0"/>
<path d="M279.941 83.0198L282.399 86.9287C283.635 88.8949 282.207 91.4188 279.829 91.4715L275.101 91.5764L270.373 91.6812C267.995 91.734 266.449 89.2762 267.591 87.257L269.86 83.2433L272.13 79.2294C273.272 77.2104 276.245 77.1445 277.481 79.1107L279.941 83.0198Z" fill="#C7FFE0"/>
<path d="M79.9015 3.94238L83.7332 6.62441C84.171 6.92483 84.5193 7.33801 84.7413 7.82022C84.9634 8.30242 85.051 8.8357 84.9947 9.3636C84.9385 9.89149 84.7405 10.3944 84.4218 10.8189C84.1032 11.2435 83.6756 11.5741 83.1844 11.7755L78.8677 13.6455L74.5512 15.5154C72.3797 16.4557 69.9705 14.7694 70.2144 12.4799L70.6993 7.92866L71.1842 3.3774C71.4282 1.08788 74.1424 -0.0874707 76.0699 1.26162L79.9015 3.94238Z" fill="#A1F8CF"/>
<path d="M43.5804 132.114V138.21C43.5804 141.277 40.1492 143.194 37.4038 141.66L31.9462 138.612L26.4887 135.563C25.8661 135.227 25.346 134.729 24.9836 134.122C24.6211 133.515 24.4297 132.821 24.4297 132.113C24.4297 131.406 24.6211 130.712 24.9836 130.104C25.346 129.497 25.8661 128.999 26.4887 128.663L31.9462 125.615L37.4038 122.567C40.149 121.033 43.5804 122.95 43.5804 126.016V132.114Z" fill="#C7FFE0"/>
<path d="M177.832 71.0251C171.605 71.0251 169.799 67.1921 168.012 61.8807L168.411 61.7463C170.19 67.0354 171.87 70.605 177.812 70.6059C178.33 70.6059 178.881 70.5789 179.468 70.5231C186.477 69.8583 185.866 60.6 185.858 60.5065L186.278 60.4751C186.286 60.5726 186.923 70.2388 179.508 70.9423C178.916 70.998 178.357 71.0256 177.832 71.0251Z" fill="#251138"/>
</g>

</svg>
