<svg width="206" height="55" viewBox="0 0 206 55" fill="none" xmlns="http://www.w3.org/2000/svg">
<defs>
<linearGradient id="paint0_linear_751_8162" x1="-2.92119e-07" y1="-3.37719" x2="182.17" y2="102.337" gradientUnits="userSpaceOnUse">
<stop stop-color="#53E88B"/>
<stop offset="1" stop-color="#15BE77"/>
</linearGradient>
<linearGradient id="paint1_linear_751_8162" x1="-2.92119e-07" y1="-3.37719" x2="182.17" y2="102.337" gradientUnits="userSpaceOnUse">
<stop stop-color="#53E88B"/>
<stop offset="1" stop-color="#15BE77"/>
</linearGradient>
<linearGradient id="paint2_linear_751_8162" x1="-2.92119e-07" y1="-3.37719" x2="182.17" y2="102.337" gradientUnits="userSpaceOnUse">
<stop stop-color="#53E88B"/>
<stop offset="1" stop-color="#15BE77"/>
</linearGradient>
<linearGradient id="paint3_linear_751_8162" x1="-2.92119e-07" y1="-3.37719" x2="182.17" y2="102.337" gradientUnits="userSpaceOnUse">
<stop stop-color="#53E88B"/>
<stop offset="1" stop-color="#15BE77"/>
</linearGradient>
<linearGradient id="paint4_linear_751_8162" x1="-2.92119e-07" y1="-3.37719" x2="182.17" y2="102.337" gradientUnits="userSpaceOnUse">
<stop stop-color="#53E88B"/>
<stop offset="1" stop-color="#15BE77"/>
</linearGradient>
<linearGradient id="paint5_linear_751_8162" x1="-2.92119e-07" y1="-3.37719" x2="182.17" y2="102.337" gradientUnits="userSpaceOnUse">
<stop stop-color="#53E88B"/>
<stop offset="1" stop-color="#15BE77"/>
</linearGradient>
<linearGradient id="paint6_linear_751_8162" x1="-2.92119e-07" y1="-3.37719" x2="182.17" y2="102.337" gradientUnits="userSpaceOnUse">
<stop stop-color="#53E88B"/>
<stop offset="1" stop-color="#15BE77"/>
</linearGradient>
</defs>
    <path d="M13.1358 49.1292C9.74152 48.8059 5.73803 48.2279 0.179185 48.4219C0.179185 48.4219 -0.0387534 48.4295 0.00607609 48.1519C3.60821 21.6359 4.13887 18.084 4.13694 18.0289C4.45256 11.4478 0.907689 13.0622 1.62059 11.6019C2.53794 9.74801 6.43925 7.40351 9.65466 7.29133C13.9055 7.14301 17.3731 9.56161 16.5028 15.886C15.9539 19.6688 14.4049 30.8157 13.3583 38.4256C13.3426 38.5394 13.3518 38.6554 13.3852 38.7653C13.4186 38.8752 13.4753 38.9764 13.5514 39.0618C13.6276 39.1472 13.7213 39.2147 13.8259 39.2596C13.9305 39.3045 14.0436 39.3257 14.1571 39.3216C25.6018 38.9223 24.6879 36.1936 25.5324 36.937C26.2056 37.4656 26.5731 38.6124 26.5533 39.6067C26.3833 47.2316 19.216 49.8005 13.1358 49.1292Z" fill="url(#paint0_linear_751_8162)"/>
    <path d="M59.1058 43.6606C58.2954 45.4555 55.0462 47.7222 51.9944 47.8287C49.2106 47.9258 47.0683 46.6995 46.0878 44.4676C45.9926 44.2502 45.8451 44.0603 45.6588 43.9154C45.4724 43.7705 45.2531 43.6752 45.021 43.6381C44.7889 43.6011 44.5514 43.6236 44.3302 43.7034C44.109 43.7833 43.9112 43.9181 43.7548 44.0954C41.6104 46.5497 38.9755 48.2276 36.0243 48.3306C29.1576 48.5701 26.4373 40.9909 27.4325 33.5581C28.4764 25.958 33.341 18.3901 40.4803 18.1411C42.8351 18.0589 44.6423 18.8401 45.9718 20.1841C46.1548 20.3729 46.386 20.5064 46.6397 20.5697C46.8934 20.6329 47.1593 20.6233 47.4078 20.542C47.6562 20.4607 47.8773 20.3108 48.0461 20.1094C48.2149 19.9079 48.3249 19.6627 48.3635 19.4014C48.3731 19.3352 48.3781 19.3009 48.3781 19.3009C48.3915 19.2128 48.4335 19.1317 48.4976 19.0706C48.5767 18.998 48.6792 18.957 48.786 18.9554L59.5933 18.5784C59.6225 18.584 59.6502 18.5956 59.6749 18.6124C59.6995 18.6291 59.7206 18.6508 59.7367 18.676C59.7529 18.7013 59.7639 18.7295 59.7689 18.7592C59.774 18.7888 59.7731 18.8191 59.7663 18.8484C59.7663 18.8484 57.6444 31.5102 57.1233 35.3378C55.9039 44.1587 59.8712 42.1433 59.1058 43.6606ZM46.8338 32.8812C47.3978 28.7209 46.4628 25.3855 43.7923 25.4787C41.1219 25.5719 39.2231 29.006 38.6591 33.1664C38.0951 37.3269 39.0282 40.6068 41.6987 40.5136C44.3691 40.4205 46.27 37.0416 46.8338 32.8812Z" fill="url(#paint1_linear_751_8162)"/>
    <path d="M91.9646 31.5234C90.9206 39.1234 86.1107 46.6894 78.9713 46.9385C75.841 47.0478 73.6781 45.6311 72.3188 43.3949C72.2621 43.3038 72.1789 43.2326 72.0808 43.1909C71.9827 43.1492 71.8742 43.1391 71.7702 43.1619C71.6663 43.1847 71.5718 43.2394 71.4997 43.3185C71.4275 43.3976 71.3812 43.4972 71.367 43.6039C71.1713 45.0516 71.0754 45.8337 71.0754 45.8337C71.0621 45.9219 71.02 46.0029 70.9559 46.064C70.8769 46.1367 70.7743 46.1776 70.6675 46.1792L60.2964 46.5411C60.2672 46.5354 60.2394 46.5239 60.2148 46.5071C60.1901 46.4903 60.1691 46.4686 60.1529 46.4434C60.1367 46.4182 60.1257 46.3899 60.1206 46.3603C60.1155 46.3307 60.1164 46.3003 60.1232 46.2711L65.5616 7.86394C65.6074 7.54064 65.764 7.244 66.0042 7.02592C66.2443 6.80783 66.5527 6.68218 66.8754 6.67092L75.762 6.36086C75.8284 6.35845 75.8946 6.37055 75.956 6.39634C76.0174 6.42214 76.0726 6.46101 76.1179 6.51032C76.1631 6.55963 76.1973 6.61822 76.2182 6.6821C76.2391 6.74597 76.2461 6.81363 76.2388 6.88048C76.0189 8.88594 75.2224 16.0349 74.5653 20.4601C74.5445 20.6003 74.5693 20.7436 74.636 20.8683C74.7027 20.9931 74.8076 21.0926 74.9349 21.1518C75.0623 21.2111 75.2052 21.2269 75.3421 21.1969C75.479 21.1669 75.6025 21.0927 75.6941 20.9854C77.8064 18.5299 80.4675 16.8523 83.4271 16.7491C90.294 16.5095 93.0143 24.0885 91.9646 31.5234ZM80.7925 31.9132C81.3563 27.7528 80.4232 24.4728 77.7528 24.566C75.0824 24.6591 73.1817 28.038 72.6177 32.1984C72.0539 36.3587 72.9889 39.694 75.6593 39.6009C78.3297 39.5077 80.2285 36.0735 80.7925 31.9132Z" fill="url(#paint2_linear_751_8162)"/>
    <path d="M124.167 30.3998C123.123 37.9998 118.313 45.5659 111.174 45.815C108.044 45.9242 105.881 44.5076 104.522 42.2715C104.465 42.1804 104.382 42.1091 104.284 42.0675C104.185 42.0258 104.077 42.0156 103.973 42.0385C103.869 42.0613 103.774 42.116 103.702 42.1951C103.63 42.2741 103.584 42.3738 103.57 42.4805C103.374 43.9281 103.278 44.7103 103.278 44.7103C103.265 44.7984 103.223 44.8794 103.159 44.9405C103.08 45.0132 102.977 45.0541 102.87 45.0557L92.4991 45.4176C92.4699 45.4119 92.4421 45.4004 92.4175 45.3836C92.3928 45.3668 92.3718 45.3452 92.3556 45.3199C92.3394 45.2947 92.3284 45.2664 92.3233 45.2368C92.3182 45.2072 92.3191 45.1768 92.3259 45.1476L97.7643 6.74046C97.81 6.41715 97.9667 6.1205 98.2069 5.90241C98.447 5.68431 98.7554 5.55864 99.078 5.54739L107.965 5.23733C108.031 5.23492 108.097 5.24702 108.159 5.27281C108.22 5.2986 108.275 5.33748 108.321 5.38679C108.366 5.4361 108.4 5.49469 108.421 5.55856C108.442 5.62244 108.449 5.6901 108.441 5.75694C108.222 7.76252 107.425 14.9122 106.768 19.3374C106.747 19.4775 106.772 19.6207 106.839 19.7455C106.905 19.8702 107.01 19.9697 107.137 20.0289C107.265 20.0881 107.407 20.1039 107.544 20.0739C107.681 20.0439 107.805 19.9697 107.896 19.8625C110.009 17.4066 112.67 15.7288 115.63 15.6256C122.497 15.3859 125.217 22.965 124.167 30.3998ZM112.995 30.7896C113.559 26.6293 112.626 23.3493 109.955 23.4424C107.285 23.5356 105.384 26.9145 104.82 31.0749C104.257 35.2352 105.192 38.5705 107.862 38.4773C110.532 38.3842 112.431 34.95 112.995 30.7896Z" fill="url(#paint3_linear_751_8162)"/>
    <path d="M157.091 40.2418C156.28 42.0367 153.031 44.3034 149.979 44.4099C147.188 44.5073 145.042 43.2745 144.065 41.0318C143.971 40.816 143.825 40.6275 143.64 40.4837C143.455 40.3398 143.238 40.2452 143.008 40.2085C142.777 40.1717 142.542 40.194 142.322 40.2734C142.103 40.3528 141.907 40.4866 141.752 40.6626C139.605 43.1245 136.966 44.8086 134.009 44.9118C127.142 45.1514 124.422 37.5722 125.417 30.1394C126.461 22.5392 131.326 14.9714 138.465 14.7223C140.835 14.6396 142.65 15.4314 143.982 16.7913C144.163 16.9781 144.391 17.1102 144.642 17.1728C144.892 17.2354 145.155 17.226 145.4 17.1457C145.646 17.0653 145.864 16.9172 146.031 16.718C146.197 16.5189 146.305 16.2766 146.343 16.0184C146.356 15.9288 146.363 15.8821 146.363 15.8821C146.376 15.794 146.418 15.713 146.483 15.6518C146.562 15.5792 146.664 15.5382 146.771 15.5366L157.578 15.1596C157.607 15.1652 157.635 15.1768 157.66 15.1936C157.684 15.2104 157.705 15.232 157.722 15.2572C157.738 15.2825 157.749 15.3108 157.754 15.3404C157.759 15.37 157.758 15.4003 157.751 15.4296C157.751 15.4296 155.629 28.0914 155.108 31.919C153.889 40.7399 157.856 38.7245 157.091 40.2418ZM144.819 29.4625C145.383 25.3021 144.448 21.9667 141.777 22.0599C139.107 22.1531 137.208 25.5873 136.644 29.7477C136.08 33.9081 137.013 37.188 139.683 37.0949C142.354 37.0017 144.255 33.6228 144.819 29.4625Z" fill="url(#paint4_linear_751_8162)"/>
    <path d="M169.555 54.9895C161.598 55.2671 158.685 49.9582 158.339 47.8722C157.809 45.1854 158.445 44.6665 158.994 44.7577C160.31 44.9325 161.274 49.0949 167.378 48.8819C171.737 48.7298 174.685 45.6456 175.278 42.3124L175.286 42.2607C175.51 40.8161 173.839 39.8541 172.736 40.7979C170.556 42.6625 168.246 43.441 166.371 43.5064C162.338 43.6472 159.379 40.1618 160.167 34.6134C160.468 32.284 160.731 30.453 161.295 26.2926C162.515 17.4716 158.111 19.5024 158.822 17.9868C159.687 16.19 162.882 13.9254 165.934 13.8189C170.348 13.6649 173.512 16.7567 172.821 21.9705C172.56 23.8568 171.906 28.5724 171.331 32.4019C170.597 37.9485 175.979 35.8283 177.007 29.3331C177.659 24.532 178.345 20.1286 178.788 17.3792C178.921 16.5554 179.332 15.804 179.951 15.2528C180.57 14.7016 181.359 14.3847 182.184 14.3561L188.561 14.1336C188.713 14.1282 188.864 14.1561 189.004 14.2154C189.144 14.2747 189.27 14.3639 189.373 14.477C189.476 14.59 189.553 14.7242 189.6 14.8704C189.646 15.0165 189.661 15.1712 189.643 15.3236C189.176 19.2911 187.691 31.8275 186.858 37.9885C185.829 47.5757 179.638 54.6377 169.555 54.9895Z" fill="url(#paint5_linear_751_8162)"/>
    <path d="M195.187 42.6668C192.244 42.7695 190.197 40.4116 190.636 37.3598C191.022 34.365 193.717 31.8417 196.66 31.7391C199.603 31.6364 201.704 33.9923 201.263 36.989C200.824 40.0409 198.13 42.5641 195.187 42.6668ZM196.799 29.4707C192.93 29.6057 193.858 17.151 194.405 12.4943C195.409 3.73611 191.657 5.68897 192.368 4.17346C193.18 2.43361 196.428 0.111951 199.48 0.00547072C203.894 -0.148553 206.622 2.95839 205.878 8.22929C204.924 15.2742 201.213 29.3167 196.799 29.4707Z" fill="url(#paint6_linear_751_8162)"/>
</svg>
