<svg width="12" height="12" viewBox="0 0 12 12" fill="none" xmlns="http://www.w3.org/2000/svg">
<path fill-rule="evenodd" clip-rule="evenodd" d="M6 1C3.23858 1 1 3.23858 1 6C1 8.76142 3.23858 11 6 11C8.76142 11 11 8.76142 11 6C11 3.23858 8.76142 1 6 1ZM5.7 7.6858L8.35 5.0358C8.55 4.8358 8.54286 4.50723 8.34286 4.30723C8.14286 4.10723 7.82143 4.10723 7.62143 4.30723L5.32857 6.60008L4.36429 5.6358C4.16429 5.4358 3.84286 5.4358 3.64286 5.6358C3.44286 5.8358 3.44286 6.15723 3.64286 6.35723L4.97143 7.6858C5.07143 7.7858 5.2 7.8358 5.33572 7.8358C5.47143 7.8358 5.6 7.7858 5.7 7.6858Z" fill="#15BE77"/>
</svg>
