<svg width="24" height="24" viewBox="0 0 24 24" fill="none" xmlns="http://www.w3.org/2000/svg">
<path d="M14.35 2H9.65C8.61 2 7.76 2.84 7.76 3.88V4.82C7.76 5.86 8.6 6.7 9.64 6.7H14.35C15.39 6.7 16.23 5.86 16.23 4.82V3.88C16.24 2.84 15.39 2 14.35 2Z" fill="#15BE77"/>
<path d="M17.24 4.82047C17.24 6.41047 15.94 7.71047 14.35 7.71047H9.65C8.06 7.71047 6.76 6.41047 6.76 4.82047C6.76 4.26047 6.16 3.91047 5.66 4.17047C4.25 4.92047 3.29 6.41047 3.29 8.12047V17.5305C3.29 19.9905 5.3 22.0005 7.76 22.0005H16.24C18.7 22.0005 20.71 19.9905 20.71 17.5305V8.12047C20.71 6.41047 19.75 4.92047 18.34 4.17047C17.84 3.91047 17.24 4.26047 17.24 4.82047ZM12.38 16.9505H8C7.59 16.9505 7.25 16.6105 7.25 16.2005C7.25 15.7905 7.59 15.4505 8 15.4505H12.38C12.79 15.4505 13.13 15.7905 13.13 16.2005C13.13 16.6105 12.79 16.9505 12.38 16.9505ZM15 12.9505H8C7.59 12.9505 7.25 12.6105 7.25 12.2005C7.25 11.7905 7.59 11.4505 8 11.4505H15C15.41 11.4505 15.75 11.7905 15.75 12.2005C15.75 12.6105 15.41 12.9505 15 12.9505Z" fill="#15BE77"/>
</svg>
