<svg width="28" height="28" viewBox="0 0 28 28" fill="none" xmlns="http://www.w3.org/2000/svg">
<path d="M13.9999 2.33301C7.57159 2.33301 2.33325 7.57134 2.33325 13.9997C2.33325 20.428 7.57159 25.6663 13.9999 25.6663C20.4283 25.6663 25.6666 20.428 25.6666 13.9997C25.6666 7.57134 20.4283 2.33301 13.9999 2.33301ZM19.0749 18.1647C18.9116 18.4447 18.6199 18.5963 18.3166 18.5963C18.1649 18.5963 18.0133 18.5613 17.8733 18.468L14.2566 16.3097C13.3583 15.773 12.6933 14.5947 12.6933 13.5563V8.77301C12.6933 8.29467 13.0899 7.89801 13.5683 7.89801C14.0466 7.89801 14.4433 8.29467 14.4433 8.77301V13.5563C14.4433 13.9763 14.7933 14.5947 15.1549 14.8047L18.7716 16.963C19.1916 17.208 19.3316 17.7447 19.0749 18.1647Z" fill="#15BE77"/>
</svg>
