<svg width="16" height="16" viewBox="0 0 16 16" fill="none" xmlns="http://www.w3.org/2000/svg">
<path d="M10.0007 1.3335H6.00065C2.66732 1.3335 1.33398 2.66683 1.33398 6.00016V10.0002C1.33398 13.3335 2.66732 14.6668 6.00065 14.6668H10.0007C13.334 14.6668 14.6673 13.3335 14.6673 10.0002V6.00016C14.6673 2.66683 13.334 1.3335 10.0007 1.3335ZM11.134 6.71445L7.60065 10.2478C7.46732 10.3811 7.29589 10.4478 7.11494 10.4478C6.93398 10.4478 6.76256 10.3811 6.62922 10.2478L4.85779 8.47635C4.59113 8.20969 4.59113 7.78112 4.85779 7.51445C5.12446 7.24778 5.55303 7.24778 5.8197 7.51445L7.10541 8.80016L10.1626 5.74302C10.4292 5.47635 10.8578 5.47635 11.1245 5.74302C11.3911 6.00969 11.4007 6.44778 11.134 6.71445Z" fill="white"/>
</svg>
