<svg width="353" height="33" viewBox="0 0 353 33" fill="none" xmlns="http://www.w3.org/2000/svg">
<line x1="16.9981" y1="16.4" x2="331.998" y2="15.4" stroke="#F0F1FF" stroke-width="1.2" stroke-dasharray="8 8"/>
<path d="M336 17C336 25.8366 343.611 33 353 33C353 33 353 25.8366 353 17C353 8.16344 353 1 353 1C343.611 1 336 8.16344 336 17Z" fill="#F7F8FB"/>
<path d="M17 16C17 24.8366 9.38884 32 0 32C0 32 5.67436e-05 24.8366 5.67436e-05 16C5.67436e-05 7.16344 0 0 0 0C9.38884 0 17 7.16344 17 16Z" fill="#F7F8FB"/>
</svg>
