<svg width="22" height="22" viewBox="0 0 22 22" fill="none" xmlns="http://www.w3.org/2000/svg">
<path d="M11.0072 22C9.1691 22.0007 7.36012 21.541 5.74545 20.6629C4.13078 19.7849 2.76186 18.5165 1.7637 16.9734C0.765548 15.4304 0.16999 13.662 0.0313482 11.8297C-0.107293 9.99737 0.215415 8.15953 0.970041 6.48397C1.72467 4.80841 2.88715 3.34854 4.35132 2.23766C5.8155 1.12679 7.53473 0.400306 9.352 0.124558C11.1693 -0.151189 13.0267 0.0325888 14.7547 0.659098C16.4826 1.28561 18.0261 2.33489 19.244 3.71113C19.4357 3.94906 19.5281 4.25179 19.502 4.55618C19.4759 4.86057 19.3333 5.14314 19.1039 5.34496C18.8745 5.54679 18.5759 5.65231 18.2706 5.6395C17.9653 5.62669 17.6767 5.49655 17.465 5.27622C16.1249 3.76225 14.2962 2.76598 12.2971 2.46079C10.2981 2.1556 8.2553 2.56081 6.52427 3.60591C4.79324 4.651 3.48359 6.26981 2.82321 8.1806C2.16283 10.0914 2.19353 12.1732 2.91001 14.0637C3.62648 15.9541 4.98336 17.5336 6.74447 18.5272C8.50559 19.5208 10.5595 19.8656 12.5486 19.5016C14.5378 19.1376 16.3363 18.0878 17.6311 16.535C18.926 14.9822 19.6352 13.0246 19.6354 11.003C19.6167 10.8371 19.6333 10.6692 19.6841 10.5103C19.7348 10.3513 19.8185 10.2048 19.9298 10.0804C20.041 9.95599 20.1773 9.85647 20.3297 9.78833C20.482 9.72018 20.647 9.68495 20.814 9.68495C20.9809 9.68495 21.146 9.72018 21.2983 9.78833C21.4507 9.85647 21.5869 9.95599 21.6982 10.0804C21.8094 10.2048 21.8931 10.3513 21.9439 10.5103C21.9946 10.6692 22.0112 10.8371 21.9926 11.003C21.9895 13.916 20.8315 16.7091 18.7725 18.7704C16.7134 20.8316 13.9211 21.9929 11.0072 22Z" fill="#15BE77"/>
<path d="M18.8793 6.87097H18.7518L15.09 6.4708C14.8034 6.40898 14.5499 6.24323 14.3784 6.00553C14.2068 5.76783 14.1294 5.47505 14.1611 5.18366C14.1928 4.89227 14.3313 4.62294 14.55 4.42766C14.7686 4.23237 15.0518 4.12495 15.345 4.12616L17.8356 4.39885L18.1084 1.90897C18.1076 1.74185 18.1422 1.57644 18.2099 1.42362C18.2775 1.2708 18.3767 1.13401 18.501 1.0222C18.6252 0.910395 18.7717 0.826103 18.9308 0.774868C19.0899 0.723632 19.2581 0.706604 19.4242 0.724898C19.5904 0.743192 19.7508 0.796406 19.895 0.88103C20.0391 0.965654 20.1638 1.07977 20.2607 1.21593C20.3576 1.35208 20.4247 1.5072 20.4574 1.67108C20.4902 1.83496 20.4879 2.00391 20.4508 2.16685L20.0505 5.82165C20.0172 6.10938 19.8797 6.37496 19.6639 6.56828C19.4482 6.76159 19.1691 6.86927 18.8793 6.87097Z" fill="#15BE77"/>
</svg>
