<svg width="28" height="28" viewBox="0 0 28 28" fill="none" xmlns="http://www.w3.org/2000/svg">
<path d="M22.0968 6.32302L16.0651 2.83469C14.9101 2.16969 13.1018 2.16969 11.9468 2.83469L5.85676 6.34635C3.44176 7.97969 3.30176 8.22469 3.30176 10.8264V17.1614C3.30176 19.763 3.44176 20.0197 5.90342 21.6764L11.9351 25.1647C12.5184 25.503 13.2651 25.6664 14.0001 25.6664C14.7351 25.6664 15.4818 25.503 16.0534 25.1647L22.1434 21.653C24.5584 20.0197 24.6984 19.7747 24.6984 17.173V10.8264C24.6984 8.22469 24.5584 7.97969 22.0968 6.32302ZM14.0001 17.7914C11.9118 17.7914 10.2084 16.088 10.2084 13.9997C10.2084 11.9114 11.9118 10.208 14.0001 10.208C16.0884 10.208 17.7918 11.9114 17.7918 13.9997C17.7918 16.088 16.0884 17.7914 14.0001 17.7914Z" fill="#A1F8CF"/>
</svg>
