<svg width="28" height="28" viewBox="0 0 28 28" fill="none" xmlns="http://www.w3.org/2000/svg">
<path d="M18.9584 26.2503C20.086 26.2503 21.0001 25.3362 21.0001 24.2087C21.0001 23.0811 20.086 22.167 18.9584 22.167C17.8308 22.167 16.9167 23.0811 16.9167 24.2087C16.9167 25.3362 17.8308 26.2503 18.9584 26.2503Z" fill="#15BE77"/>
<path d="M9.62492 26.2503C10.7525 26.2503 11.6666 25.3362 11.6666 24.2087C11.6666 23.0811 10.7525 22.167 9.62492 22.167C8.49734 22.167 7.58325 23.0811 7.58325 24.2087C7.58325 25.3362 8.49734 26.2503 9.62492 26.2503Z" fill="#15BE77"/>
<path d="M5.64659 4.59634L5.41325 7.45468C5.36659 8.00301 5.79825 8.45801 6.34659 8.45801H24.2083C24.6983 8.45801 25.1066 8.08468 25.1416 7.59468C25.2933 5.52968 23.7183 3.84967 21.6532 3.84967H7.31492C7.19825 3.33634 6.96492 2.84634 6.60325 2.43801C6.01992 1.81967 5.20325 1.45801 4.36325 1.45801H2.33325C1.85492 1.45801 1.45825 1.85467 1.45825 2.33301C1.45825 2.81134 1.85492 3.20801 2.33325 3.20801H4.36325C4.72492 3.20801 5.06325 3.35967 5.30825 3.61634C5.55325 3.88467 5.66992 4.23467 5.64659 4.59634Z" fill="#15BE77"/>
<path d="M23.9282 10.208H6.03157C5.54157 10.208 5.1449 10.5813 5.09823 11.0597L4.67823 16.1347C4.5149 18.1297 6.07823 19.833 8.07323 19.833H21.0466C22.7966 19.833 24.3366 18.398 24.4649 16.648L24.8499 11.1997C24.8966 10.663 24.4766 10.208 23.9282 10.208Z" fill="#15BE77"/>
</svg>
