<svg width="28" height="28" viewBox="0 0 28 28" fill="none" xmlns="http://www.w3.org/2000/svg">
<path d="M26.0867 9.64801L25.7484 6.41634C25.2584 2.89301 23.6601 1.45801 20.2417 1.45801H17.4884H15.7617H12.2151H10.4884H7.68841C4.25841 1.45801 2.67175 2.89301 2.17008 6.45134L1.85508 9.65967C1.73841 10.908 2.07675 12.1213 2.81175 13.0663C3.69841 14.2213 5.06341 14.8747 6.58008 14.8747C8.05008 14.8747 9.46175 14.1397 10.3484 12.9613C11.1417 14.1397 12.4951 14.8747 14.0001 14.8747C15.5051 14.8747 16.8234 14.1747 17.6284 13.008C18.5267 14.163 19.9151 14.8747 21.3617 14.8747C22.9134 14.8747 24.3134 14.1863 25.1884 12.973C25.8884 12.0397 26.2034 10.8613 26.0867 9.64801Z" fill="#15BE77"/>
<path d="M13.2416 19.4366C11.7599 19.5883 10.6399 20.8483 10.6399 22.3416V25.5383C10.6399 25.8533 10.8966 26.11 11.2116 26.11H16.7766C17.0916 26.11 17.3482 25.8533 17.3482 25.5383V22.75C17.3599 20.3116 15.9249 19.1566 13.2416 19.4366Z" fill="#15BE77"/>
<path d="M24.9317 16.8001V20.2768C24.9317 23.4968 22.3184 26.1101 19.0984 26.1101C18.7834 26.1101 18.5267 25.8534 18.5267 25.5384V22.7501C18.5267 21.2568 18.0717 20.0901 17.185 19.2968C16.4034 18.5851 15.3417 18.2351 14.0234 18.2351C13.7317 18.2351 13.44 18.2468 13.125 18.2818C11.0484 18.4918 9.47336 20.2418 9.47336 22.3418V25.5384C9.47336 25.8534 9.21669 26.1101 8.90169 26.1101C5.68169 26.1101 3.06836 23.4968 3.06836 20.2768V16.8234C3.06836 16.0068 3.87336 15.4584 4.63169 15.7268C4.94669 15.8318 5.26169 15.9134 5.58836 15.9601C5.72836 15.9834 5.88003 16.0068 6.02003 16.0068C6.20669 16.0301 6.39336 16.0418 6.58003 16.0418C7.93336 16.0418 9.26336 15.5401 10.3134 14.6768C11.3167 15.5401 12.6234 16.0418 14 16.0418C15.3884 16.0418 16.6717 15.5634 17.675 14.7001C18.725 15.5518 20.0317 16.0418 21.3617 16.0418C21.5717 16.0418 21.7817 16.0301 21.98 16.0068C22.12 15.9951 22.2484 15.9834 22.3767 15.9601C22.7384 15.9134 23.065 15.8084 23.3917 15.7034C24.15 15.4468 24.9317 16.0068 24.9317 16.8001Z" fill="#15BE77"/>
</svg>
