<svg width="20" height="20" viewBox="0 0 20 20" fill="none" xmlns="http://www.w3.org/2000/svg">
<path d="M17.5583 4.35866C16.2167 4.22533 14.875 4.12533 13.525 4.05033V4.04199L13.3417 2.95866C13.2167 2.19199 13.0333 1.04199 11.0833 1.04199H8.89999C6.95832 1.04199 6.77499 2.14199 6.64165 2.95033L6.46666 4.01699C5.69166 4.06699 4.91666 4.11699 4.14166 4.19199L2.44166 4.35866C2.09166 4.39199 1.84166 4.70033 1.87499 5.04199C1.90832 5.38366 2.20832 5.63366 2.55832 5.60033L4.25832 5.43366C8.62499 5.00033 13.025 5.16699 17.4417 5.60866C17.4667 5.60866 17.4833 5.60866 17.5083 5.60866C17.825 5.60866 18.1 5.36699 18.1333 5.04199C18.1583 4.70033 17.9083 4.39199 17.5583 4.35866Z" fill="#4F4F4F"/>
<path d="M16.025 6.78301C15.825 6.57467 15.55 6.45801 15.2667 6.45801H4.73335C4.45002 6.45801 4.16668 6.57467 3.97502 6.78301C3.78335 6.99134 3.67501 7.27467 3.69168 7.56634L4.20835 16.1163C4.30002 17.383 4.41668 18.9663 7.32502 18.9663H12.675C15.5833 18.9663 15.7 17.3913 15.7917 16.1163L16.3083 7.57467C16.325 7.27467 16.2167 6.99134 16.025 6.78301ZM11.3833 14.7913H8.60835C8.26668 14.7913 7.98335 14.508 7.98335 14.1663C7.98335 13.8247 8.26668 13.5413 8.60835 13.5413H11.3833C11.725 13.5413 12.0083 13.8247 12.0083 14.1663C12.0083 14.508 11.725 14.7913 11.3833 14.7913ZM12.0833 11.458H7.91668C7.57502 11.458 7.29168 11.1747 7.29168 10.833C7.29168 10.4913 7.57502 10.208 7.91668 10.208H12.0833C12.425 10.208 12.7083 10.4913 12.7083 10.833C12.7083 11.1747 12.425 11.458 12.0833 11.458Z" fill="#4F4F4F"/>
</svg>
