<svg width="14" height="14" viewBox="0 0 14 14" fill="none" xmlns="http://www.w3.org/2000/svg">
<path d="M11.6536 8.4013C11.8054 8.4013 11.9246 8.52054 11.9246 8.67231V9.21434C11.9246 10.1141 11.1983 10.8404 10.2985 10.8404C10.2985 9.94609 9.56678 9.21434 8.67243 9.21434C7.77808 9.21434 7.04634 9.94609 7.04634 10.8404H5.96227C5.96227 9.94609 5.23053 9.21434 4.33618 9.21434C3.44182 9.21434 2.71008 9.94609 2.71008 10.8404C1.81031 10.8404 1.08398 10.1141 1.08398 9.21434V8.13028C1.08398 7.83216 1.3279 7.58825 1.62602 7.58825H6.77532C7.52332 7.58825 8.1304 6.98117 8.1304 6.23317V3.25199C8.1304 2.95388 8.37431 2.70996 8.67243 2.70996H9.12774C9.518 2.70996 9.87574 2.92135 10.0709 3.25741L10.4178 3.86449C10.4666 3.95121 10.4015 4.06504 10.2985 4.06504C9.55052 4.06504 8.94345 4.67212 8.94345 5.42012V7.04622C8.94345 7.79422 9.55052 8.4013 10.2985 8.4013H11.6536Z" fill="#15BE77"/>
<path d="M4.33626 11.925C4.93497 11.925 5.42032 11.4396 5.42032 10.8409C5.42032 10.2422 4.93497 9.75684 4.33626 9.75684C3.73755 9.75684 3.2522 10.2422 3.2522 10.8409C3.2522 11.4396 3.73755 11.925 4.33626 11.925Z" fill="#15BE77"/>
<path d="M8.67244 11.925C9.27115 11.925 9.75651 11.4396 9.75651 10.8409C9.75651 10.2422 9.27115 9.75684 8.67244 9.75684C8.07373 9.75684 7.58838 10.2422 7.58838 10.8409C7.58838 11.4396 8.07373 11.925 8.67244 11.925Z" fill="#15BE77"/>
<path d="M11.9247 6.7913V7.58809H10.2986C10.0005 7.58809 9.75659 7.34417 9.75659 7.04606V5.41996C9.75659 5.12184 10.0005 4.87793 10.2986 4.87793H10.9978L11.7838 6.25469C11.8759 6.4173 11.9247 6.60159 11.9247 6.7913Z" fill="#15BE77"/>
<path d="M7.0897 1.08398H3.08408C2.11384 1.08398 1.3008 1.77779 1.12193 2.69924H3.49061C3.69658 2.69924 3.85919 2.86727 3.85919 3.07324C3.85919 3.27921 3.69658 3.44182 3.49061 3.44182H1.08398V4.18983H2.49327C2.69924 4.18983 2.86727 4.35786 2.86727 4.56383C2.86727 4.7698 2.69924 4.93241 2.49327 4.93241H1.08398V5.68041H1.50135C1.70732 5.68041 1.87535 5.84844 1.87535 6.05442C1.87535 6.26039 1.70732 6.423 1.50135 6.423H1.08398V6.54767C1.08398 6.84578 1.3279 7.0897 1.62602 7.0897H6.58561C7.13848 7.0897 7.58837 6.63981 7.58837 6.08694V1.58265C7.58837 1.30622 7.36613 1.08398 7.0897 1.08398Z" fill="#15BE77"/>
<path d="M1.122 2.69922H1.04069H0.5095C0.303528 2.69922 0.135498 2.86725 0.135498 3.07322C0.135498 3.27919 0.303528 3.4418 0.5095 3.4418H1.00275H1.08405V3.08406C1.08405 2.95397 1.10031 2.82389 1.122 2.69922Z" fill="#15BE77"/>
<path d="M1.00275 4.18945H0.5095C0.303528 4.18945 0.135498 4.35748 0.135498 4.56346C0.135498 4.76943 0.303528 4.93204 0.5095 4.93204H1.00275H1.08405V4.18945H1.00275Z" fill="#15BE77"/>
<path d="M1.00275 5.68066H0.5095C0.303528 5.68066 0.135498 5.84869 0.135498 6.05467C0.135498 6.26064 0.303528 6.42325 0.5095 6.42325H1.00275H1.08405V5.68066H1.00275Z" fill="#15BE77"/>
</svg>
